<?xml version="1.0" encoding="UTF-8" standalone="no"?>
<!DOCTYPE svg PUBLIC "-//W3C//DTD SVG 1.1//EN"
 "http://www.w3.org/Graphics/SVG/1.1/DTD/svg11.dtd">
<!-- Generated by graphviz version 2.43.0 (0)
 -->
<!-- Title: OnPropertyChanged Pages: 1 -->
<svg width="683pt" height="94pt"
 viewBox="0.00 0.00 683.00 93.50" xmlns="http://www.w3.org/2000/svg" xmlns:xlink="http://www.w3.org/1999/xlink">
<g id="graph0" class="graph" transform="scale(1 1) rotate(0) translate(4 89.5)">
<title>OnPropertyChanged</title>
<!-- Node1 -->
<g id="node1" class="node">
<title>Node1</title>
<g id="a_node1"><a xlink:title="invoke this method to forward propertchanged event notification. note: not needed to specify property...">
<polygon fill="#999999" stroke="#666666" points="675,-37 561,-37 561,-18 675,-18 675,-37"/>
<text text-anchor="middle" x="618" y="-25" font-family="Helvetica,sans-Serif" font-size="10.00">OnPropertyChanged</text>
</a>
</g>
</g>
<!-- Node2 -->
<g id="node2" class="node">
<title>Node2</title>
<g id="a_node2"><a xlink:href="class_search_a_thing_1_1_open_g_l_1_1_render_1_1_g_l_model.html#a3b7cc83d35fd3e50f9d5addf978ce010" target="_top" xlink:title=" ">
<polygon fill="white" stroke="#666666" points="502.5,-56 422.5,-56 422.5,-37 502.5,-37 502.5,-56"/>
<text text-anchor="middle" x="462.5" y="-44" font-family="Helvetica,sans-Serif" font-size="10.00">EnsureModel</text>
</a>
</g>
</g>
<!-- Node1&#45;&gt;Node2 -->
<g id="edge1" class="edge">
<title>Node1&#45;&gt;Node2</title>
<path fill="none" stroke="#63b8ff" d="M550.6,-35.72C534.19,-37.75 517.13,-39.86 502.51,-41.67"/>
<polygon fill="#63b8ff" stroke="#63b8ff" points="551.22,-39.17 560.71,-34.47 550.36,-32.22 551.22,-39.17"/>
</g>
<!-- Node6 -->
<g id="node6" class="node">
<title>Node6</title>
<g id="a_node6"><a xlink:href="class_search_a_thing_1_1_open_g_l_1_1_render_1_1_g_l_model.html#a353b5f13409fe49c0ce33e7ab9dc4698" target="_top" xlink:title="Configure light constant, linear, quadratic attenuation based on the model size.">
<polygon fill="white" stroke="#666666" points="525,-19 400,-19 400,0 525,0 525,-19"/>
<text text-anchor="middle" x="462.5" y="-7" font-family="Helvetica,sans-Serif" font-size="10.00">SetupLightAttenuation</text>
</a>
</g>
</g>
<!-- Node1&#45;&gt;Node6 -->
<g id="edge5" class="edge">
<title>Node1&#45;&gt;Node6</title>
<path fill="none" stroke="#63b8ff" d="M550.56,-19.71C542.14,-18.72 533.55,-17.71 525.21,-16.74"/>
<polygon fill="#63b8ff" stroke="#63b8ff" points="550.37,-23.21 560.71,-20.9 551.19,-16.26 550.37,-23.21"/>
</g>
<!-- Node3 -->
<g id="node3" class="node">
<title>Node3</title>
<g id="a_node3"><a xlink:href="class_search_a_thing_1_1_open_g_l_1_1_render_1_1_g_l_control.html#a3e2efcd721af8aba50e8e1736db54b77" target="_top" xlink:title="Main gl render process.">
<polygon fill="white" stroke="#666666" points="364,-61.5 200,-61.5 200,-31.5 364,-31.5 364,-61.5"/>
<text text-anchor="start" x="208" y="-49.5" font-family="Helvetica,sans-Serif" font-size="10.00">SearchAThing.OpenGL.Render.</text>
<text text-anchor="middle" x="282" y="-38.5" font-family="Helvetica,sans-Serif" font-size="10.00">GLControl.Render</text>
</a>
</g>
</g>
<!-- Node2&#45;&gt;Node3 -->
<g id="edge2" class="edge">
<title>Node2&#45;&gt;Node3</title>
<path fill="none" stroke="#63b8ff" d="M411.9,-46.5C397.09,-46.5 380.46,-46.5 364.18,-46.5"/>
<polygon fill="#63b8ff" stroke="#63b8ff" points="412.33,-50 422.33,-46.5 412.33,-43 412.33,-50"/>
</g>
<!-- Node4 -->
<g id="node4" class="node">
<title>Node4</title>
<g id="a_node4"><a xlink:href="class_search_a_thing_1_1_open_g_l_1_1_render_1_1_g_l_control.html#abc7ba7c829d73293844b8d0b84dcf2f5" target="_top" xlink:title="Capture an image of current control using offscreen render device and actual rendere device size.">
<polygon fill="white" stroke="#666666" points="164,-85.5 0,-85.5 0,-55.5 164,-55.5 164,-85.5"/>
<text text-anchor="start" x="8" y="-73.5" font-family="Helvetica,sans-Serif" font-size="10.00">SearchAThing.OpenGL.Render.</text>
<text text-anchor="middle" x="82" y="-62.5" font-family="Helvetica,sans-Serif" font-size="10.00">GLControl.CaptureImage</text>
</a>
</g>
</g>
<!-- Node3&#45;&gt;Node4 -->
<g id="edge3" class="edge">
<title>Node3&#45;&gt;Node4</title>
<path fill="none" stroke="#63b8ff" d="M189.92,-57.54C181.37,-58.58 172.75,-59.62 164.3,-60.65"/>
<polygon fill="#63b8ff" stroke="#63b8ff" points="190.39,-61.01 199.89,-56.33 189.55,-54.06 190.39,-61.01"/>
</g>
<!-- Node5 -->
<g id="node5" class="node">
<title>Node5</title>
<g id="a_node5"><a xlink:href="class_search_a_thing_1_1_open_g_l_1_1_render_1_1_g_l_control.html#a6e1066020a6e35c62b91d19d7414ecab" target="_top" xlink:title="Capture an image of current control using offscreen render device with given render device size.">
<polygon fill="white" stroke="#666666" points="164,-37.5 0,-37.5 0,-7.5 164,-7.5 164,-37.5"/>
<text text-anchor="start" x="8" y="-25.5" font-family="Helvetica,sans-Serif" font-size="10.00">SearchAThing.OpenGL.Render.</text>
<text text-anchor="middle" x="82" y="-14.5" font-family="Helvetica,sans-Serif" font-size="10.00">GLControl.CaptureImage</text>
</a>
</g>
</g>
<!-- Node3&#45;&gt;Node5 -->
<g id="edge4" class="edge">
<title>Node3&#45;&gt;Node5</title>
<path fill="none" stroke="#63b8ff" d="M189.92,-35.46C181.37,-34.42 172.75,-33.38 164.3,-32.35"/>
<polygon fill="#63b8ff" stroke="#63b8ff" points="189.55,-38.94 199.89,-36.67 190.39,-31.99 189.55,-38.94"/>
</g>
</g>
</svg>
