<?xml version="1.0" encoding="UTF-8" standalone="no"?>
<!DOCTYPE svg PUBLIC "-//W3C//DTD SVG 1.1//EN"
 "http://www.w3.org/Graphics/SVG/1.1/DTD/svg11.dtd">
<!-- Generated by graphviz version 2.43.0 (0)
 -->
<!-- Title: WorldToLocal Pages: 1 -->
<svg width="207pt" height="64pt"
 viewBox="0.00 0.00 207.00 64.00" xmlns="http://www.w3.org/2000/svg" xmlns:xlink="http://www.w3.org/1999/xlink">
<g id="graph0" class="graph" transform="scale(1 1) rotate(0) translate(4 60)">
<title>WorldToLocal</title>
<!-- Node1 -->
<g id="node1" class="node">
<title>Node1</title>
<g id="a_node1"><a xlink:title="Converts given world space coord to the corresponding local space coord. &#160;Makes use of the inverse of...">
<polygon fill="#999999" stroke="#666666" points="199,-37 119,-37 119,-18 199,-18 199,-37"/>
<text text-anchor="middle" x="159" y="-25" font-family="Helvetica,sans-Serif" font-size="10.00">WorldToLocal</text>
</a>
</g>
</g>
<!-- Node2 -->
<g id="node2" class="node">
<title>Node2</title>
<g id="a_node2"><a xlink:href="class_search_a_thing_1_1_open_g_l_1_1_core_1_1_toolkit.html#a871817cfbd07ac87181ef5fc87e5b21f" target="_top" xlink:title="Rotate the model by given [eye] x,y angles around given [local] rotation center.">
<polygon fill="white" stroke="#666666" points="81,-56 2,-56 2,-37 81,-37 81,-56"/>
<text text-anchor="middle" x="41.5" y="-44" font-family="Helvetica,sans-Serif" font-size="10.00">ModelRotate</text>
</a>
</g>
</g>
<!-- Node1&#45;&gt;Node2 -->
<g id="edge1" class="edge">
<title>Node1&#45;&gt;Node2</title>
<path fill="none" stroke="#63b8ff" d="M108.98,-35.56C99.69,-37.09 90.09,-38.67 81.17,-40.14"/>
<polygon fill="#63b8ff" stroke="#63b8ff" points="109.6,-39.01 118.9,-33.93 108.46,-32.1 109.6,-39.01"/>
</g>
<!-- Node3 -->
<g id="node3" class="node">
<title>Node3</title>
<g id="a_node3"><a xlink:href="class_search_a_thing_1_1_open_g_l_1_1_core_1_1_toolkit.html#a8b88bca5ca7377d6aca5657c0c7a59a6" target="_top" xlink:title="Create a raycast line [local] suitable to hit test of figure primitives.">
<polygon fill="white" stroke="#666666" points="83,-19 0,-19 0,0 83,0 83,-19"/>
<text text-anchor="middle" x="41.5" y="-7" font-family="Helvetica,sans-Serif" font-size="10.00">RayCastLocal</text>
</a>
</g>
</g>
<!-- Node1&#45;&gt;Node3 -->
<g id="edge2" class="edge">
<title>Node1&#45;&gt;Node3</title>
<path fill="none" stroke="#63b8ff" d="M108.96,-19.86C100.36,-18.52 91.49,-17.13 83.14,-15.83"/>
<polygon fill="#63b8ff" stroke="#63b8ff" points="108.48,-23.32 118.9,-21.41 109.56,-16.41 108.48,-23.32"/>
</g>
</g>
</svg>
