<?xml version="1.0" encoding="UTF-8" standalone="no"?>
<!DOCTYPE svg PUBLIC "-//W3C//DTD SVG 1.1//EN"
 "http://www.w3.org/Graphics/SVG/1.1/DTD/svg11.dtd">
<!-- Generated by graphviz version 2.43.0 (0)
 -->
<!-- Title: Invalidate Pages: 1 -->
<svg width="670pt" height="763pt"
 viewBox="0.00 0.00 670.00 763.21" xmlns="http://www.w3.org/2000/svg" xmlns:xlink="http://www.w3.org/1999/xlink">
<g id="graph0" class="graph" transform="scale(1 1) rotate(0) translate(4 759.21)">
<title>Invalidate</title>
<!-- Node1 -->
<g id="node1" class="node">
<title>Node1</title>
<g id="a_node1"><a xlink:title="Invalidate the gl model.">
<polygon fill="#999999" stroke="#666666" points="662,-375.71 597,-375.71 597,-356.71 662,-356.71 662,-375.71"/>
<text text-anchor="middle" x="629.5" y="-363.71" font-family="Helvetica,sans-Serif" font-size="10.00">Invalidate</text>
</a>
</g>
</g>
<!-- Node2 -->
<g id="node2" class="node">
<title>Node2</title>
<g id="a_node2"><a xlink:href="class_search_a_thing_1_1_open_g_l_1_1_core_1_1_g_l_control.html#af92032621553c72b62673dbc9bbd43fd" target="_top" xlink:title="Regenerate the model with GLModel.BuildModel if this is the first invalidation or the invalidate argu...">
<polygon fill="white" stroke="#666666" points="561,-381.21 409,-381.21 409,-351.21 561,-351.21 561,-381.21"/>
<text text-anchor="start" x="417" y="-369.21" font-family="Helvetica,sans-Serif" font-size="10.00">SearchAThing.OpenGL.Core.</text>
<text text-anchor="middle" x="485" y="-358.21" font-family="Helvetica,sans-Serif" font-size="10.00">GLControl.Invalidate</text>
</a>
</g>
</g>
<!-- Node1&#45;&gt;Node2 -->
<g id="edge1" class="edge">
<title>Node1&#45;&gt;Node2</title>
<path fill="none" stroke="#63b8ff" d="M586.69,-366.21C578.65,-366.21 569.99,-366.21 561.26,-366.21"/>
<polygon fill="#63b8ff" stroke="#63b8ff" points="586.87,-369.71 596.87,-366.21 586.87,-362.71 586.87,-369.71"/>
</g>
<!-- Node3 -->
<g id="node3" class="node">
<title>Node3</title>
<g id="a_node3"><a xlink:href="class_search_a_thing_1_1_open_g_l_1_1_core_1_1_g_l_control.html#a4393fa83b725fcac29a5bc6ab5832ac5" target="_top" xlink:title="Rotate the camera [view] a given rotation center [local]. ( not yet tested )">
<polygon fill="white" stroke="#666666" points="358.5,-731.21 206.5,-731.21 206.5,-701.21 358.5,-701.21 358.5,-731.21"/>
<text text-anchor="start" x="214.5" y="-719.21" font-family="Helvetica,sans-Serif" font-size="10.00">SearchAThing.OpenGL.Core.</text>
<text text-anchor="middle" x="282.5" y="-708.21" font-family="Helvetica,sans-Serif" font-size="10.00">GLControl.CameraRotate</text>
</a>
</g>
</g>
<!-- Node2&#45;&gt;Node3 -->
<g id="edge2" class="edge">
<title>Node2&#45;&gt;Node3</title>
<path fill="none" stroke="#63b8ff" d="M483.08,-391.8C479.47,-453.08 461.56,-609.33 373,-692.21 368.77,-696.17 363.96,-699.49 358.82,-702.27"/>
<polygon fill="#63b8ff" stroke="#63b8ff" points="486.6,-391.66 483.61,-381.5 479.6,-391.31 486.6,-391.66"/>
</g>
<!-- Node4 -->
<g id="node4" class="node">
<title>Node4</title>
<g id="a_node4"><a xlink:href="class_search_a_thing_1_1_open_g_l_1_1_core_1_1_g_l_control.html#a609ac6af33cb1c1fc525aff164df9543" target="_top" xlink:title="Set the view using given cube view type.">
<polygon fill="white" stroke="#666666" points="154,-426.21 2,-426.21 2,-396.21 154,-396.21 154,-426.21"/>
<text text-anchor="start" x="10" y="-414.21" font-family="Helvetica,sans-Serif" font-size="10.00">SearchAThing.OpenGL.Core.</text>
<text text-anchor="middle" x="78" y="-403.21" font-family="Helvetica,sans-Serif" font-size="10.00">GLControl.CameraView</text>
</a>
</g>
</g>
<!-- Node2&#45;&gt;Node4 -->
<g id="edge3" class="edge">
<title>Node2&#45;&gt;Node4</title>
<path fill="none" stroke="#63b8ff" d="M466.03,-389.36C446.19,-412.85 411.87,-447.74 373,-462.21 297.61,-490.29 270.64,-479.14 192,-462.21 160.02,-455.33 126.18,-438.64 103.96,-426.22"/>
<polygon fill="#63b8ff" stroke="#63b8ff" points="468.78,-391.53 472.43,-381.58 463.38,-387.08 468.78,-391.53"/>
</g>
<!-- Node5 -->
<g id="node5" class="node">
<title>Node5</title>
<g id="a_node5"><a xlink:href="class_search_a_thing_1_1_open_g_l_1_1_core_1_1_g_l_control.html#a5e5904b44d1b553f27e0079fe42d5ac7" target="_top" xlink:title="Zoom eye space by given scale factor.">
<polygon fill="white" stroke="#666666" points="358.5,-635.21 206.5,-635.21 206.5,-605.21 358.5,-605.21 358.5,-635.21"/>
<text text-anchor="start" x="214.5" y="-623.21" font-family="Helvetica,sans-Serif" font-size="10.00">SearchAThing.OpenGL.Core.</text>
<text text-anchor="middle" x="282.5" y="-612.21" font-family="Helvetica,sans-Serif" font-size="10.00">GLControl.CameraZoom</text>
</a>
</g>
</g>
<!-- Node2&#45;&gt;Node5 -->
<g id="edge4" class="edge">
<title>Node2&#45;&gt;Node5</title>
<path fill="none" stroke="#63b8ff" d="M479.11,-391.25C468.52,-438.66 438.9,-541.65 373,-596.21 368.66,-599.8 363.84,-602.86 358.74,-605.46"/>
<polygon fill="#63b8ff" stroke="#63b8ff" points="482.58,-391.75 481.25,-381.24 475.74,-390.29 482.58,-391.75"/>
</g>
<!-- Node6 -->
<g id="node6" class="node">
<title>Node6</title>
<g id="a_node6"><a xlink:href="class_search_a_thing_1_1_open_g_l_1_1_core_1_1_g_l_control.html#a28291bb40e52fa94a0d72eaf84bb6307" target="_top" xlink:title="Restore current view config from given pathfilename.">
<polygon fill="white" stroke="#666666" points="358.5,-587.21 206.5,-587.21 206.5,-557.21 358.5,-557.21 358.5,-587.21"/>
<text text-anchor="start" x="214.5" y="-575.21" font-family="Helvetica,sans-Serif" font-size="10.00">SearchAThing.OpenGL.Core.</text>
<text text-anchor="middle" x="282.5" y="-564.21" font-family="Helvetica,sans-Serif" font-size="10.00">GLControl.LoadView</text>
</a>
</g>
</g>
<!-- Node2&#45;&gt;Node6 -->
<g id="edge5" class="edge">
<title>Node2&#45;&gt;Node6</title>
<path fill="none" stroke="#63b8ff" d="M475.76,-391C461.36,-430.43 427.8,-507.19 373,-548.21 368.36,-551.68 363.26,-554.65 357.92,-557.19"/>
<polygon fill="#63b8ff" stroke="#63b8ff" points="479.13,-391.97 479.17,-381.37 472.53,-389.63 479.13,-391.97"/>
</g>
<!-- Node7 -->
<g id="node7" class="node">
<title>Node7</title>
<g id="a_node7"><a xlink:href="class_search_a_thing_1_1_open_g_l_1_1_core_1_1_g_l_control.html#aac473598b86094d90e33249499313225" target="_top" xlink:title="Rotate the model by given [eye] x,y angles around given [local] rotation center.">
<polygon fill="white" stroke="#666666" points="358.5,-539.21 206.5,-539.21 206.5,-509.21 358.5,-509.21 358.5,-539.21"/>
<text text-anchor="start" x="214.5" y="-527.21" font-family="Helvetica,sans-Serif" font-size="10.00">SearchAThing.OpenGL.Core.</text>
<text text-anchor="middle" x="282.5" y="-516.21" font-family="Helvetica,sans-Serif" font-size="10.00">GLControl.ModelRotate</text>
</a>
</g>
</g>
<!-- Node2&#45;&gt;Node7 -->
<g id="edge6" class="edge">
<title>Node2&#45;&gt;Node7</title>
<path fill="none" stroke="#63b8ff" d="M469.48,-389.96C450.65,-418.83 415.18,-467.17 373,-495.21 364.57,-500.82 354.97,-505.41 345.27,-509.15"/>
<polygon fill="#63b8ff" stroke="#63b8ff" points="472.56,-391.63 474.99,-381.32 466.66,-387.86 472.56,-391.63"/>
</g>
<!-- Node8 -->
<g id="node8" class="node">
<title>Node8</title>
<g id="a_node8"><a xlink:href="class_search_a_thing_1_1_open_g_l_1_1_core_1_1_g_l_control.html#afc6003d84ce56250451495e4519d569a" target="_top" xlink:title="Pan the view by the given screen translation.">
<polygon fill="white" stroke="#666666" points="358.5,-683.21 206.5,-683.21 206.5,-653.21 358.5,-653.21 358.5,-683.21"/>
<text text-anchor="start" x="214.5" y="-671.21" font-family="Helvetica,sans-Serif" font-size="10.00">SearchAThing.OpenGL.Core.</text>
<text text-anchor="middle" x="282.5" y="-660.21" font-family="Helvetica,sans-Serif" font-size="10.00">GLControl.Pan</text>
</a>
</g>
</g>
<!-- Node2&#45;&gt;Node8 -->
<g id="edge7" class="edge">
<title>Node2&#45;&gt;Node8</title>
<path fill="none" stroke="#63b8ff" d="M481.37,-391.75C474.34,-446.5 450.05,-575.75 373,-644.21 368.67,-648.06 363.79,-651.3 358.6,-654.03"/>
<polygon fill="#63b8ff" stroke="#63b8ff" points="484.88,-391.89 482.59,-381.54 477.93,-391.06 484.88,-391.89"/>
</g>
<!-- Node13 -->
<g id="node13" class="node">
<title>Node13</title>
<g id="a_node13"><a xlink:href="class_search_a_thing_1_1_open_g_l_1_1_core_1_1_g_l_control.html#a46550daf1e758d55af170aaf35181ab6" target="_top" xlink:title="Tilt camera [view] by rotating it&#39;s up vector around [view] z axis.">
<polygon fill="white" stroke="#666666" points="358.5,-453.21 206.5,-453.21 206.5,-423.21 358.5,-423.21 358.5,-453.21"/>
<text text-anchor="start" x="214.5" y="-441.21" font-family="Helvetica,sans-Serif" font-size="10.00">SearchAThing.OpenGL.Core.</text>
<text text-anchor="middle" x="282.5" y="-430.21" font-family="Helvetica,sans-Serif" font-size="10.00">GLControl.Tilt</text>
</a>
</g>
</g>
<!-- Node2&#45;&gt;Node13 -->
<g id="edge12" class="edge">
<title>Node2&#45;&gt;Node13</title>
<path fill="none" stroke="#63b8ff" d="M443.28,-385.52C422.53,-394.92 396.73,-405.95 373,-414.21 363.88,-417.39 354.13,-420.39 344.53,-423.13"/>
<polygon fill="#63b8ff" stroke="#63b8ff" points="444.8,-388.68 452.43,-381.33 441.88,-382.31 444.8,-388.68"/>
</g>
<!-- Node14 -->
<g id="node14" class="node">
<title>Node14</title>
<g id="a_node14"><a xlink:href="class_search_a_thing_1_1_open_g_l_1_1_core_1_1_g_l_control.html#a856e4e130210a03cd970f7a57d28f99f" target="_top" xlink:title="Toggle display of camera frustum object ( generated at runtime through a temporary vertex manager ).">
<polygon fill="white" stroke="#666666" points="367,-405.21 198,-405.21 198,-375.21 367,-375.21 367,-405.21"/>
<text text-anchor="start" x="206" y="-393.21" font-family="Helvetica,sans-Serif" font-size="10.00">SearchAThing.OpenGL.Core.</text>
<text text-anchor="middle" x="282.5" y="-382.21" font-family="Helvetica,sans-Serif" font-size="10.00">GLControl.ToggleCameraObject</text>
</a>
</g>
</g>
<!-- Node2&#45;&gt;Node14 -->
<g id="edge13" class="edge">
<title>Node2&#45;&gt;Node14</title>
<path fill="none" stroke="#63b8ff" d="M398.82,-376.41C388.36,-377.66 377.67,-378.94 367.23,-380.19"/>
<polygon fill="#63b8ff" stroke="#63b8ff" points="399.26,-379.88 408.77,-375.22 398.43,-372.93 399.26,-379.88"/>
</g>
<!-- Node15 -->
<g id="node15" class="node">
<title>Node15</title>
<g id="a_node15"><a xlink:href="class_search_a_thing_1_1_open_g_l_1_1_core_1_1_g_l_control.html#a809dcd2f46e1da7c985e0ba750f5c389" target="_top" xlink:title="Toggle perspective mode.">
<polygon fill="white" stroke="#666666" points="156,-167.21 0,-167.21 0,-137.21 156,-137.21 156,-167.21"/>
<text text-anchor="start" x="8" y="-155.21" font-family="Helvetica,sans-Serif" font-size="10.00">SearchAThing.OpenGL.Core.</text>
<text text-anchor="middle" x="78" y="-144.21" font-family="Helvetica,sans-Serif" font-size="10.00">GLControl.TogglePerspective</text>
</a>
</g>
</g>
<!-- Node2&#45;&gt;Node15 -->
<g id="edge14" class="edge">
<title>Node2&#45;&gt;Node15</title>
<path fill="none" stroke="#63b8ff" d="M484.69,-340.88C484.9,-276.08 475.37,-104.21 373,-30.21 307.8,16.91 265.72,1.99 192,-30.21 141.47,-52.29 103.44,-109.33 87.38,-136.88"/>
<polygon fill="#63b8ff" stroke="#63b8ff" points="481.19,-340.97 484.57,-351.01 488.19,-341.05 481.19,-340.97"/>
</g>
<!-- Node16 -->
<g id="node16" class="node">
<title>Node16</title>
<g id="a_node16"><a xlink:href="class_search_a_thing_1_1_open_g_l_1_1_core_1_1_g_l_control.html#aaf887d3cb7075f3b39074bc09f2af646" target="_top" xlink:title="Toggle shade with edge.">
<polygon fill="white" stroke="#666666" points="370.5,-309.21 194.5,-309.21 194.5,-279.21 370.5,-279.21 370.5,-309.21"/>
<text text-anchor="start" x="202.5" y="-297.21" font-family="Helvetica,sans-Serif" font-size="10.00">SearchAThing.OpenGL.Core.</text>
<text text-anchor="middle" x="282.5" y="-286.21" font-family="Helvetica,sans-Serif" font-size="10.00">GLControl.ToggleShadeWithEdge</text>
</a>
</g>
</g>
<!-- Node2&#45;&gt;Node16 -->
<g id="edge15" class="edge">
<title>Node2&#45;&gt;Node16</title>
<path fill="none" stroke="#63b8ff" d="M443.28,-346.9C422.53,-337.5 396.73,-326.48 373,-318.21 363.88,-315.04 354.13,-312.03 344.53,-309.29"/>
<polygon fill="#63b8ff" stroke="#63b8ff" points="441.88,-350.11 452.43,-351.09 444.8,-343.75 441.88,-350.11"/>
</g>
<!-- Node17 -->
<g id="node17" class="node">
<title>Node17</title>
<g id="a_node17"><a xlink:href="class_search_a_thing_1_1_open_g_l_1_1_core_1_1_g_l_control.html#a76c43e4f8ae0b22ca87fbe6ab37c3c23" target="_top" xlink:title="Toggle display of model bounding box ( generated at runtime through a temporary vertex manager ).">
<polygon fill="white" stroke="#666666" points="373,-261.21 192,-261.21 192,-231.21 373,-231.21 373,-261.21"/>
<text text-anchor="start" x="200" y="-249.21" font-family="Helvetica,sans-Serif" font-size="10.00">SearchAThing.OpenGL.Core.</text>
<text text-anchor="middle" x="282.5" y="-238.21" font-family="Helvetica,sans-Serif" font-size="10.00">GLControl.ToggleShowModelBBox</text>
</a>
</g>
</g>
<!-- Node2&#45;&gt;Node17 -->
<g id="edge16" class="edge">
<title>Node2&#45;&gt;Node17</title>
<path fill="none" stroke="#63b8ff" d="M463.85,-343.66C443.12,-321.8 408.89,-289.24 373,-270.21 366.6,-266.82 359.69,-263.88 352.64,-261.34"/>
<polygon fill="#63b8ff" stroke="#63b8ff" points="461.48,-346.25 470.85,-351.18 466.6,-341.48 461.48,-346.25"/>
</g>
<!-- Node18 -->
<g id="node18" class="node">
<title>Node18</title>
<g id="a_node18"><a xlink:href="class_search_a_thing_1_1_open_g_l_1_1_core_1_1_g_l_control.html#a2a71dcd049526738239381c0d2ce9345" target="_top" xlink:title="Toggle show normals.">
<polygon fill="white" stroke="#666666" points="366,-213.21 199,-213.21 199,-183.21 366,-183.21 366,-213.21"/>
<text text-anchor="start" x="207" y="-201.21" font-family="Helvetica,sans-Serif" font-size="10.00">SearchAThing.OpenGL.Core.</text>
<text text-anchor="middle" x="282.5" y="-190.21" font-family="Helvetica,sans-Serif" font-size="10.00">GLControl.ToggleShowNormals</text>
</a>
</g>
</g>
<!-- Node2&#45;&gt;Node18 -->
<g id="edge17" class="edge">
<title>Node2&#45;&gt;Node18</title>
<path fill="none" stroke="#63b8ff" d="M471.74,-341.74C454.28,-309.42 419.17,-253 373,-222.21 367.91,-218.82 362.37,-215.91 356.6,-213.41"/>
<polygon fill="#63b8ff" stroke="#63b8ff" points="468.83,-343.73 476.59,-350.94 475.03,-340.46 468.83,-343.73"/>
</g>
<!-- Node19 -->
<g id="node19" class="node">
<title>Node19</title>
<g id="a_node19"><a xlink:href="class_search_a_thing_1_1_open_g_l_1_1_core_1_1_g_l_control.html#a1a983cc95609136123b361f3ed2ebe96" target="_top" xlink:title="Toggle shadows generation.">
<polygon fill="white" stroke="#666666" points="360.5,-165.21 204.5,-165.21 204.5,-135.21 360.5,-135.21 360.5,-165.21"/>
<text text-anchor="start" x="212.5" y="-153.21" font-family="Helvetica,sans-Serif" font-size="10.00">SearchAThing.OpenGL.Core.</text>
<text text-anchor="middle" x="282.5" y="-142.21" font-family="Helvetica,sans-Serif" font-size="10.00">GLControl.ToggleUseShadow</text>
</a>
</g>
</g>
<!-- Node2&#45;&gt;Node19 -->
<g id="edge18" class="edge">
<title>Node2&#45;&gt;Node19</title>
<path fill="none" stroke="#63b8ff" d="M476.55,-341.27C462.93,-300.06 430.05,-217.97 373,-174.21 368.53,-170.79 363.61,-167.85 358.45,-165.33"/>
<polygon fill="#63b8ff" stroke="#63b8ff" points="473.3,-342.59 479.67,-351.05 479.97,-340.46 473.3,-342.59"/>
</g>
<!-- Node20 -->
<g id="node20" class="node">
<title>Node20</title>
<g id="a_node20"><a xlink:href="class_search_a_thing_1_1_open_g_l_1_1_core_1_1_g_l_control.html#a2ceddd0bec1b455a5fe13ba85af6df19" target="_top" xlink:title="Toggle use of textures.">
<polygon fill="white" stroke="#666666" points="359.5,-117.21 205.5,-117.21 205.5,-87.21 359.5,-87.21 359.5,-117.21"/>
<text text-anchor="start" x="213.5" y="-105.21" font-family="Helvetica,sans-Serif" font-size="10.00">SearchAThing.OpenGL.Core.</text>
<text text-anchor="middle" x="282.5" y="-94.21" font-family="Helvetica,sans-Serif" font-size="10.00">GLControl.ToggleUseTexture</text>
</a>
</g>
</g>
<!-- Node2&#45;&gt;Node20 -->
<g id="edge19" class="edge">
<title>Node2&#45;&gt;Node20</title>
<path fill="none" stroke="#63b8ff" d="M479.66,-341.12C469.83,-292.16 441.24,-183.66 373,-126.21 368.94,-122.79 364.44,-119.86 359.68,-117.34"/>
<polygon fill="#63b8ff" stroke="#63b8ff" points="476.26,-342 481.57,-351.16 483.14,-340.69 476.26,-342"/>
</g>
<!-- Node21 -->
<g id="node21" class="node">
<title>Node21</title>
<g id="a_node21"><a xlink:href="class_search_a_thing_1_1_open_g_l_1_1_core_1_1_g_l_control.html#a0b013ae153047446187737c929853f36" target="_top" xlink:title="Toggle wireframe mode.">
<polygon fill="white" stroke="#666666" points="358.5,-69.21 206.5,-69.21 206.5,-39.21 358.5,-39.21 358.5,-69.21"/>
<text text-anchor="start" x="214.5" y="-57.21" font-family="Helvetica,sans-Serif" font-size="10.00">SearchAThing.OpenGL.Core.</text>
<text text-anchor="middle" x="282.5" y="-46.21" font-family="Helvetica,sans-Serif" font-size="10.00">GLControl.ToggleWireframe</text>
</a>
</g>
</g>
<!-- Node2&#45;&gt;Node21 -->
<g id="edge20" class="edge">
<title>Node2&#45;&gt;Node21</title>
<path fill="none" stroke="#63b8ff" d="M481.8,-340.92C475.54,-284.92 452.56,-149.77 373,-78.21 368.69,-74.34 363.83,-71.08 358.65,-68.34"/>
<polygon fill="#63b8ff" stroke="#63b8ff" points="478.33,-341.44 482.84,-351.03 485.3,-340.72 478.33,-341.44"/>
</g>
<!-- Node22 -->
<g id="node22" class="node">
<title>Node22</title>
<g id="a_node22"><a xlink:href="class_search_a_thing_1_1_open_g_l_1_1_core_1_1_g_l_control.html#a3647f3040be99a06b6a07bfeed13ad92" target="_top" xlink:title="Fit gl model into the view.">
<polygon fill="white" stroke="#666666" points="358.5,-357.21 206.5,-357.21 206.5,-327.21 358.5,-327.21 358.5,-357.21"/>
<text text-anchor="start" x="214.5" y="-345.21" font-family="Helvetica,sans-Serif" font-size="10.00">SearchAThing.OpenGL.Core.</text>
<text text-anchor="middle" x="282.5" y="-334.21" font-family="Helvetica,sans-Serif" font-size="10.00">GLControl.ZoomFit</text>
</a>
</g>
</g>
<!-- Node2&#45;&gt;Node22 -->
<g id="edge21" class="edge">
<title>Node2&#45;&gt;Node22</title>
<path fill="none" stroke="#63b8ff" d="M398.72,-356C385.45,-354.42 371.84,-352.79 358.82,-351.23"/>
<polygon fill="#63b8ff" stroke="#63b8ff" points="398.43,-359.5 408.77,-357.21 399.26,-352.54 398.43,-359.5"/>
</g>
<!-- Node9 -->
<g id="node9" class="node">
<title>Node9</title>
<g id="a_node9"><a xlink:href="class_search_a_thing_1_1_open_g_l_1_1_core_1_1_g_l_control.html#acd591f4d52216f736d05a37967dfbb76" target="_top" xlink:title="Pan the view down of a little factor.">
<polygon fill="white" stroke="#666666" points="154,-659.21 2,-659.21 2,-629.21 154,-629.21 154,-659.21"/>
<text text-anchor="start" x="10" y="-647.21" font-family="Helvetica,sans-Serif" font-size="10.00">SearchAThing.OpenGL.Core.</text>
<text text-anchor="middle" x="78" y="-636.21" font-family="Helvetica,sans-Serif" font-size="10.00">GLControl.PanDown</text>
</a>
</g>
</g>
<!-- Node8&#45;&gt;Node9 -->
<g id="edge8" class="edge">
<title>Node8&#45;&gt;Node9</title>
<path fill="none" stroke="#63b8ff" d="M196.32,-658.12C182.38,-656.47 168.02,-654.76 154.33,-653.14"/>
<polygon fill="#63b8ff" stroke="#63b8ff" points="196.04,-661.61 206.38,-659.31 196.87,-654.66 196.04,-661.61"/>
</g>
<!-- Node10 -->
<g id="node10" class="node">
<title>Node10</title>
<g id="a_node10"><a xlink:href="class_search_a_thing_1_1_open_g_l_1_1_core_1_1_g_l_control.html#ac0149d9ec4eefdc825a466e47f0cdb07" target="_top" xlink:title="Pan the view left of a little factor.">
<polygon fill="white" stroke="#666666" points="154,-611.21 2,-611.21 2,-581.21 154,-581.21 154,-611.21"/>
<text text-anchor="start" x="10" y="-599.21" font-family="Helvetica,sans-Serif" font-size="10.00">SearchAThing.OpenGL.Core.</text>
<text text-anchor="middle" x="78" y="-588.21" font-family="Helvetica,sans-Serif" font-size="10.00">GLControl.PanLeft</text>
</a>
</g>
</g>
<!-- Node8&#45;&gt;Node10 -->
<g id="edge9" class="edge">
<title>Node8&#45;&gt;Node10</title>
<path fill="none" stroke="#63b8ff" d="M205.81,-649.83C201.08,-648.09 196.44,-646.22 192,-644.21 174.48,-636.28 173.36,-628.49 156,-620.21 149.05,-616.9 141.53,-613.9 134.01,-611.23"/>
<polygon fill="#63b8ff" stroke="#63b8ff" points="205.03,-653.26 215.62,-653.2 207.3,-646.64 205.03,-653.26"/>
</g>
<!-- Node11 -->
<g id="node11" class="node">
<title>Node11</title>
<g id="a_node11"><a xlink:href="class_search_a_thing_1_1_open_g_l_1_1_core_1_1_g_l_control.html#a21c11768939dccbc75ef58be240cc90b" target="_top" xlink:title="Pan the view right of a little factor.">
<polygon fill="white" stroke="#666666" points="154,-755.21 2,-755.21 2,-725.21 154,-725.21 154,-755.21"/>
<text text-anchor="start" x="10" y="-743.21" font-family="Helvetica,sans-Serif" font-size="10.00">SearchAThing.OpenGL.Core.</text>
<text text-anchor="middle" x="78" y="-732.21" font-family="Helvetica,sans-Serif" font-size="10.00">GLControl.PanRight</text>
</a>
</g>
</g>
<!-- Node8&#45;&gt;Node11 -->
<g id="edge10" class="edge">
<title>Node8&#45;&gt;Node11</title>
<path fill="none" stroke="#63b8ff" d="M205.81,-686.6C201.08,-688.34 196.44,-690.2 192,-692.21 174.48,-700.14 173.36,-707.93 156,-716.21 149.05,-719.53 141.53,-722.53 134.01,-725.19"/>
<polygon fill="#63b8ff" stroke="#63b8ff" points="207.3,-689.79 215.62,-683.23 205.03,-683.17 207.3,-689.79"/>
</g>
<!-- Node12 -->
<g id="node12" class="node">
<title>Node12</title>
<g id="a_node12"><a xlink:href="class_search_a_thing_1_1_open_g_l_1_1_core_1_1_g_l_control.html#adbc9327929edf6458b41fb0849c41650" target="_top" xlink:title="Pan the view up of a little factor.">
<polygon fill="white" stroke="#666666" points="154,-707.21 2,-707.21 2,-677.21 154,-677.21 154,-707.21"/>
<text text-anchor="start" x="10" y="-695.21" font-family="Helvetica,sans-Serif" font-size="10.00">SearchAThing.OpenGL.Core.</text>
<text text-anchor="middle" x="78" y="-684.21" font-family="Helvetica,sans-Serif" font-size="10.00">GLControl.PanUp</text>
</a>
</g>
</g>
<!-- Node8&#45;&gt;Node12 -->
<g id="edge11" class="edge">
<title>Node8&#45;&gt;Node12</title>
<path fill="none" stroke="#63b8ff" d="M196.32,-678.31C182.38,-679.96 168.02,-681.66 154.33,-683.29"/>
<polygon fill="#63b8ff" stroke="#63b8ff" points="196.87,-681.77 206.38,-677.12 196.04,-674.82 196.87,-681.77"/>
</g>
<!-- Node22&#45;&gt;Node4 -->
<g id="edge22" class="edge">
<title>Node22&#45;&gt;Node4</title>
<path fill="none" stroke="#63b8ff" d="M211.71,-360.07C205.02,-362.04 198.36,-364.1 192,-366.21 165.35,-375.06 135.89,-386.86 113.73,-396.16"/>
<polygon fill="#63b8ff" stroke="#63b8ff" points="212.87,-363.38 221.51,-357.26 210.94,-356.66 212.87,-363.38"/>
</g>
<!-- Node22&#45;&gt;Node15 -->
<g id="edge23" class="edge">
<title>Node22&#45;&gt;Node15</title>
<path fill="none" stroke="#63b8ff" d="M198.62,-322.46C196.34,-321.13 194.12,-319.72 192,-318.21 135.44,-278.04 98.53,-200.02 84.9,-167.26"/>
<polygon fill="#63b8ff" stroke="#63b8ff" points="197.23,-325.68 207.72,-327.14 200.43,-319.45 197.23,-325.68"/>
</g>
</g>
</svg>
