<?xml version="1.0" encoding="UTF-8" standalone="no"?>
<!DOCTYPE svg PUBLIC "-//W3C//DTD SVG 1.1//EN"
 "http://www.w3.org/Graphics/SVG/1.1/DTD/svg11.dtd">
<!-- Generated by graphviz version 2.43.0 (0)
 -->
<!-- Title: GLPointFigure Pages: 1 -->
<svg width="380pt" height="192pt"
 viewBox="0.00 0.00 379.50 192.00" xmlns="http://www.w3.org/2000/svg" xmlns:xlink="http://www.w3.org/1999/xlink">
<g id="graph0" class="graph" transform="scale(1 1) rotate(0) translate(4 188)">
<title>GLPointFigure</title>
<!-- Node1 -->
<g id="node1" class="node">
<title>Node1</title>
<g id="a_node1"><a xlink:title="Specialization of typed figure within the GLPoint} primitive.">
<polygon fill="#999999" stroke="#666666" points="197,-19 113,-19 113,0 197,0 197,-19"/>
<text text-anchor="middle" x="155" y="-7" font-family="Helvetica,sans-Serif" font-size="10.00">GLPointFigure</text>
</a>
</g>
</g>
<!-- Node2 -->
<g id="node2" class="node">
<title>Node2</title>
<g id="a_node2"><a xlink:href="class_search_a_thing_1_1_open_g_l_1_1_core_1_1_g_l_figure_type_base.html" target="_top" xlink:title=" ">
<polygon fill="white" stroke="#666666" points="166,-74 0,-74 0,-55 166,-55 166,-74"/>
<text text-anchor="middle" x="83" y="-62" font-family="Helvetica,sans-Serif" font-size="10.00">GLFigureTypeBase&lt; GLPoint &gt;</text>
</a>
</g>
</g>
<!-- Node2&#45;&gt;Node1 -->
<g id="edge1" class="edge">
<title>Node2&#45;&gt;Node1</title>
<path fill="none" stroke="#63b8ff" d="M102.87,-48.88C115.82,-39.34 132.3,-27.21 143.22,-19.17"/>
<polygon fill="#63b8ff" stroke="#63b8ff" points="100.55,-46.24 94.57,-54.98 104.7,-51.88 100.55,-46.24"/>
</g>
<!-- Node3 -->
<g id="node3" class="node">
<title>Node3</title>
<g id="a_node3"><a xlink:href="interface_search_a_thing_1_1_open_g_l_1_1_core_1_1_i_g_l_point_figure.html" target="_top" xlink:title="Specialization of IGLFigure for the type GLPoint.">
<polygon fill="white" stroke="#666666" points="271.5,-74 184.5,-74 184.5,-55 271.5,-55 271.5,-74"/>
<text text-anchor="middle" x="228" y="-62" font-family="Helvetica,sans-Serif" font-size="10.00">IGLPointFigure</text>
</a>
</g>
</g>
<!-- Node3&#45;&gt;Node1 -->
<g id="edge2" class="edge">
<title>Node3&#45;&gt;Node1</title>
<path fill="none" stroke="#63b8ff" d="M207.86,-48.88C194.72,-39.34 178.02,-27.21 166.94,-19.17"/>
<polygon fill="#63b8ff" stroke="#63b8ff" points="206.12,-51.94 216.27,-54.98 210.24,-46.28 206.12,-51.94"/>
</g>
<!-- Node4 -->
<g id="node4" class="node">
<title>Node4</title>
<g id="a_node4"><a xlink:href="interface_search_a_thing_1_1_open_g_l_1_1_core_1_1_i_g_l_figure.html" target="_top" xlink:title="This is the direct child of a vertex manager. &#160;A figure contains primitives and primitive contains ve...">
<polygon fill="white" stroke="#666666" points="259,-129 197,-129 197,-110 259,-110 259,-129"/>
<text text-anchor="middle" x="228" y="-117" font-family="Helvetica,sans-Serif" font-size="10.00">IGLFigure</text>
</a>
</g>
</g>
<!-- Node4&#45;&gt;Node3 -->
<g id="edge3" class="edge">
<title>Node4&#45;&gt;Node3</title>
<path fill="none" stroke="#63b8ff" d="M228,-99.66C228,-90.93 228,-80.99 228,-74.09"/>
<polygon fill="#63b8ff" stroke="#63b8ff" points="224.5,-99.75 228,-109.75 231.5,-99.75 224.5,-99.75"/>
</g>
<!-- Node5 -->
<g id="node5" class="node">
<title>Node5</title>
<g id="a_node5"><a xlink:href="interface_search_a_thing_1_1_open_g_l_1_1_core_1_1_i_g_l_vertex_manager_object.html" target="_top" xlink:title="Interface for GL objects such as IGLFigure, IGLPrimitive and IGLVertex. &#160;The purpose is to ensure tha...">
<polygon fill="white" stroke="#666666" points="220.5,-184 83.5,-184 83.5,-165 220.5,-165 220.5,-184"/>
<text text-anchor="middle" x="152" y="-172" font-family="Helvetica,sans-Serif" font-size="10.00">IGLVertexManagerObject</text>
</a>
</g>
</g>
<!-- Node5&#45;&gt;Node4 -->
<g id="edge4" class="edge">
<title>Node5&#45;&gt;Node4</title>
<path fill="none" stroke="#63b8ff" d="M172.58,-159.15C186.31,-149.57 203.93,-137.29 215.57,-129.17"/>
<polygon fill="#63b8ff" stroke="#63b8ff" points="170.41,-156.39 164.21,-164.98 174.42,-162.14 170.41,-156.39"/>
</g>
<!-- Node6 -->
<g id="node6" class="node">
<title>Node6</title>
<g id="a_node6"><a xlink:title=" ">
<polygon fill="white" stroke="#666666" points="371.5,-184 238.5,-184 238.5,-165 371.5,-165 371.5,-184"/>
<text text-anchor="middle" x="305" y="-172" font-family="Helvetica,sans-Serif" font-size="10.00">INotifyPropertyChanged</text>
</a>
</g>
</g>
<!-- Node6&#45;&gt;Node4 -->
<g id="edge5" class="edge">
<title>Node6&#45;&gt;Node4</title>
<path fill="none" stroke="#63b8ff" d="M284.15,-159.15C270.24,-149.57 252.39,-137.29 240.6,-129.17"/>
<polygon fill="#63b8ff" stroke="#63b8ff" points="282.41,-162.2 292.63,-164.98 286.38,-156.43 282.41,-162.2"/>
</g>
</g>
</svg>
