<?xml version="1.0" encoding="UTF-8" standalone="no"?>
<!DOCTYPE svg PUBLIC "-//W3C//DTD SVG 1.1//EN"
 "http://www.w3.org/Graphics/SVG/1.1/DTD/svg11.dtd">
<!-- Generated by graphviz version 2.43.0 (0)
 -->
<!-- Title: GLTexture2D Pages: 1 -->
<svg width="302pt" height="82pt"
 viewBox="0.00 0.00 302.00 82.00" xmlns="http://www.w3.org/2000/svg" xmlns:xlink="http://www.w3.org/1999/xlink">
<g id="graph0" class="graph" transform="scale(1 1) rotate(0) translate(4 78)">
<title>GLTexture2D</title>
<!-- Node1 -->
<g id="node1" class="node">
<title>Node1</title>
<g id="a_node1"><a xlink:title="Handle reference to gl texture.">
<polygon fill="#999999" stroke="#666666" points="200,-19 122,-19 122,0 200,0 200,-19"/>
<text text-anchor="middle" x="161" y="-7" font-family="Helvetica,sans-Serif" font-size="10.00">GLTexture2D</text>
</a>
</g>
</g>
<!-- Node2 -->
<g id="node2" class="node">
<title>Node2</title>
<g id="a_node2"><a xlink:href="interface_search_a_thing_1_1_open_g_l_1_1_render_1_1_i_g_l_context_object.html" target="_top" xlink:title="General inteface for objects that carrier a reference to Gl context.">
<polygon fill="white" stroke="#666666" points="102,-74 0,-74 0,-55 102,-55 102,-74"/>
<text text-anchor="middle" x="51" y="-62" font-family="Helvetica,sans-Serif" font-size="10.00">IGLContextObject</text>
</a>
</g>
</g>
<!-- Node2&#45;&gt;Node1 -->
<g id="edge1" class="edge">
<title>Node2&#45;&gt;Node1</title>
<path fill="none" stroke="#63b8ff" d="M77.7,-50.63C97.97,-40.87 125.27,-27.71 143.01,-19.17"/>
<polygon fill="#63b8ff" stroke="#63b8ff" points="76.16,-47.49 68.67,-54.98 79.2,-53.8 76.16,-47.49"/>
</g>
<!-- Node3 -->
<g id="node3" class="node">
<title>Node3</title>
<g id="a_node3"><a xlink:title=" ">
<polygon fill="white" stroke="#666666" points="201.5,-74 120.5,-74 120.5,-55 201.5,-55 201.5,-74"/>
<text text-anchor="middle" x="161" y="-62" font-family="Helvetica,sans-Serif" font-size="10.00">IGLTexture2D</text>
</a>
</g>
</g>
<!-- Node3&#45;&gt;Node1 -->
<g id="edge2" class="edge">
<title>Node3&#45;&gt;Node1</title>
<path fill="none" stroke="#63b8ff" d="M161,-44.66C161,-35.93 161,-25.99 161,-19.09"/>
<polygon fill="#63b8ff" stroke="#63b8ff" points="157.5,-44.75 161,-54.75 164.5,-44.75 157.5,-44.75"/>
</g>
<!-- Node4 -->
<g id="node4" class="node">
<title>Node4</title>
<g id="a_node4"><a xlink:title=" ">
<polygon fill="white" stroke="#666666" points="294,-74 220,-74 220,-55 294,-55 294,-74"/>
<text text-anchor="middle" x="257" y="-62" font-family="Helvetica,sans-Serif" font-size="10.00">IDisposable</text>
</a>
</g>
</g>
<!-- Node4&#45;&gt;Node1 -->
<g id="edge3" class="edge">
<title>Node4&#45;&gt;Node1</title>
<path fill="none" stroke="#63b8ff" d="M232.48,-49.97C214.94,-40.28 191.83,-27.52 176.7,-19.17"/>
<polygon fill="#63b8ff" stroke="#63b8ff" points="231.13,-53.22 241.58,-54.98 234.51,-47.09 231.13,-53.22"/>
</g>
</g>
</svg>
