<?xml version="1.0" encoding="UTF-8" standalone="no"?>
<!DOCTYPE svg PUBLIC "-//W3C//DTD SVG 1.1//EN"
 "http://www.w3.org/Graphics/SVG/1.1/DTD/svg11.dtd">
<!-- Generated by graphviz version 2.43.0 (0)
 -->
<!-- Title: RemovePrimitive Pages: 1 -->
<svg width="297pt" height="76pt"
 viewBox="0.00 0.00 297.00 75.50" xmlns="http://www.w3.org/2000/svg" xmlns:xlink="http://www.w3.org/1999/xlink">
<g id="graph0" class="graph" transform="scale(1 1) rotate(0) translate(4 71.5)">
<title>RemovePrimitive</title>
<!-- Node1 -->
<g id="node1" class="node">
<title>Node1</title>
<g id="a_node1"><a xlink:title=" ">
<polygon fill="#999999" stroke="#666666" points="289,-40 188,-40 188,-21 289,-21 289,-40"/>
<text text-anchor="middle" x="238.5" y="-28" font-family="Helvetica,sans-Serif" font-size="10.00">RemovePrimitive</text>
</a>
</g>
</g>
<!-- Node2 -->
<g id="node2" class="node">
<title>Node2</title>
<g id="a_node2"><a xlink:href="class_search_a_thing_1_1_open_g_l_1_1_core_1_1_g_l_figure_type_base.html#a29a27241e38cc76270ec233b1c96f19e" target="_top" xlink:title="Remove existing primitive from this figure.">
<polygon fill="white" stroke="#666666" points="152,-67.5 0,-67.5 0,-37.5 152,-37.5 152,-67.5"/>
<text text-anchor="start" x="8" y="-55.5" font-family="Helvetica,sans-Serif" font-size="10.00">SearchAThing.OpenGL.Core.</text>
<text text-anchor="middle" x="76" y="-44.5" font-family="Helvetica,sans-Serif" font-size="10.00">GLFigureTypeBase.Remove</text>
</a>
</g>
</g>
<!-- Node1&#45;&gt;Node2 -->
<g id="edge1" class="edge">
<title>Node1&#45;&gt;Node2</title>
<path fill="none" stroke="#63b8ff" d="M177.65,-38.7C169.35,-39.84 160.74,-41.02 152.21,-42.19"/>
<polygon fill="#63b8ff" stroke="#63b8ff" points="178.16,-42.17 187.6,-37.34 177.21,-35.23 178.16,-42.17"/>
</g>
<!-- Node3 -->
<g id="node3" class="node">
<title>Node3</title>
<g id="a_node3"><a xlink:href="class_search_a_thing_1_1_open_g_l_1_1_core_1_1_g_l_vertex_manager.html#a2fb4c6218470cf38add8dd3a062d0098" target="_top" xlink:title="Remove given figure from the vertex manager. &#160;All vertexes belonging to the figures primitives will b...">
<polygon fill="white" stroke="#666666" points="119.5,-19 32.5,-19 32.5,0 119.5,0 119.5,-19"/>
<text text-anchor="middle" x="76" y="-7" font-family="Helvetica,sans-Serif" font-size="10.00">RemoveFigure</text>
</a>
</g>
</g>
<!-- Node1&#45;&gt;Node3 -->
<g id="edge2" class="edge">
<title>Node1&#45;&gt;Node3</title>
<path fill="none" stroke="#63b8ff" d="M177.68,-22.67C158.37,-20.15 137.37,-17.4 119.57,-15.07"/>
<polygon fill="#63b8ff" stroke="#63b8ff" points="177.23,-26.14 187.6,-23.97 178.14,-19.2 177.23,-26.14"/>
</g>
</g>
</svg>
