<?xml version="1.0" encoding="UTF-8" standalone="no"?>
<!DOCTYPE svg PUBLIC "-//W3C//DTD SVG 1.1//EN"
 "http://www.w3.org/Graphics/SVG/1.1/DTD/svg11.dtd">
<!-- Generated by graphviz version 2.43.0 (0)
 -->
<!-- Title: Notify Pages: 1 -->
<svg width="321pt" height="64pt"
 viewBox="0.00 0.00 321.00 64.00" xmlns="http://www.w3.org/2000/svg" xmlns:xlink="http://www.w3.org/1999/xlink">
<g id="graph0" class="graph" transform="scale(1 1) rotate(0) translate(4 60)">
<title>Notify</title>
<!-- Node1 -->
<g id="node1" class="node">
<title>Node1</title>
<g id="a_node1"><a xlink:title="Create an avalonia notification message.">
<polygon fill="#999999" stroke="#666666" points="313,-37 267,-37 267,-18 313,-18 313,-37"/>
<text text-anchor="middle" x="290" y="-25" font-family="Helvetica,sans-Serif" font-size="10.00">Notify</text>
</a>
</g>
</g>
<!-- Node2 -->
<g id="node2" class="node">
<title>Node2</title>
<g id="a_node2"><a xlink:href="class_search_a_thing_1_1_open_g_l_1_1_g_u_i_1_1_avalonia_g_l_control.html#a779fe8b859e5f40b443acbfc761b287e" target="_top" xlink:title="Load all GLControl view config from the given pathfilename.">
<polygon fill="white" stroke="#666666" points="230.5,-56 133.5,-56 133.5,-37 230.5,-37 230.5,-56"/>
<text text-anchor="middle" x="182" y="-44" font-family="Helvetica,sans-Serif" font-size="10.00">LoadViewLayout</text>
</a>
</g>
</g>
<!-- Node1&#45;&gt;Node2 -->
<g id="edge1" class="edge">
<title>Node1&#45;&gt;Node2</title>
<path fill="none" stroke="#63b8ff" d="M256.79,-33.27C248.5,-34.76 239.4,-36.39 230.52,-37.98"/>
<polygon fill="#63b8ff" stroke="#63b8ff" points="257.55,-36.69 266.78,-31.48 256.32,-29.8 257.55,-36.69"/>
</g>
<!-- Node4 -->
<g id="node4" class="node">
<title>Node4</title>
<g id="a_node4"><a xlink:href="class_search_a_thing_1_1_open_g_l_1_1_g_u_i_1_1_avalonia_g_l_control.html#adf5cb467d2318481bab5edf66a3d5a54" target="_top" xlink:title="Save all GLControl view config to the given pathfilename.">
<polygon fill="white" stroke="#666666" points="231,-19 133,-19 133,0 231,0 231,-19"/>
<text text-anchor="middle" x="182" y="-7" font-family="Helvetica,sans-Serif" font-size="10.00">SaveViewLayout</text>
</a>
</g>
</g>
<!-- Node1&#45;&gt;Node4 -->
<g id="edge3" class="edge">
<title>Node1&#45;&gt;Node4</title>
<path fill="none" stroke="#63b8ff" d="M256.76,-22.03C248.75,-20.66 239.99,-19.18 231.39,-17.72"/>
<polygon fill="#63b8ff" stroke="#63b8ff" points="256.33,-25.5 266.78,-23.73 257.51,-18.6 256.33,-25.5"/>
</g>
<!-- Node3 -->
<g id="node3" class="node">
<title>Node3</title>
<g id="a_node3"><a xlink:href="class_search_a_thing_1_1_open_g_l_1_1_g_u_i_1_1_avalonia_g_l_control.html#a7d2bb81d6413a78c27bc49ad7ef0f158" target="_top" xlink:title=" ">
<polygon fill="white" stroke="#666666" points="97,-37 0,-37 0,-18 97,-18 97,-37"/>
<text text-anchor="middle" x="48.5" y="-25" font-family="Helvetica,sans-Serif" font-size="10.00">HandleKeyDown</text>
</a>
</g>
</g>
<!-- Node2&#45;&gt;Node3 -->
<g id="edge2" class="edge">
<title>Node2&#45;&gt;Node3</title>
<path fill="none" stroke="#63b8ff" d="M123.08,-38.13C114.4,-36.88 105.53,-35.6 97.09,-34.38"/>
<polygon fill="#63b8ff" stroke="#63b8ff" points="122.76,-41.62 133.15,-39.59 123.76,-34.69 122.76,-41.62"/>
</g>
<!-- Node4&#45;&gt;Node3 -->
<g id="edge4" class="edge">
<title>Node4&#45;&gt;Node3</title>
<path fill="none" stroke="#63b8ff" d="M122.86,-17.46C114.31,-18.63 105.58,-19.82 97.27,-20.96"/>
<polygon fill="#63b8ff" stroke="#63b8ff" points="123.35,-20.92 132.78,-16.1 122.4,-13.99 123.35,-20.92"/>
</g>
</g>
</svg>
