<?xml version="1.0" encoding="UTF-8" standalone="no"?>
<!DOCTYPE svg PUBLIC "-//W3C//DTD SVG 1.1//EN"
 "http://www.w3.org/Graphics/SVG/1.1/DTD/svg11.dtd">
<!-- Generated by graphviz version 2.43.0 (0)
 -->
<!-- Title: DummyRenderDevice Pages: 1 -->
<svg width="155pt" height="137pt"
 viewBox="0.00 0.00 154.50 137.00" xmlns="http://www.w3.org/2000/svg" xmlns:xlink="http://www.w3.org/1999/xlink">
<g id="graph0" class="graph" transform="scale(1 1) rotate(0) translate(4 133)">
<title>DummyRenderDevice</title>
<!-- Node1 -->
<g id="node1" class="node">
<title>Node1</title>
<g id="a_node1"><a xlink:title="A render device that doesn&#39;t write GL pixel anywhere. &#160;This object can be used for testing purpouse.">
<polygon fill="#999999" stroke="#666666" points="128.5,-19 4.5,-19 4.5,0 128.5,0 128.5,-19"/>
<text text-anchor="middle" x="66.5" y="-7" font-family="Helvetica,sans-Serif" font-size="10.00">DummyRenderDevice</text>
</a>
</g>
</g>
<!-- Node2 -->
<g id="node2" class="node">
<title>Node2</title>
<g id="a_node2"><a xlink:href="interface_search_a_thing_1_1_open_g_l_1_1_core_1_1_i_render_device.html" target="_top" xlink:title="A render device will read pixels from given gl context through ReadPixels and write to an appropriate...">
<polygon fill="white" stroke="#666666" points="146.5,-74 58.5,-74 58.5,-55 146.5,-55 146.5,-74"/>
<text text-anchor="middle" x="102.5" y="-62" font-family="Helvetica,sans-Serif" font-size="10.00">IRenderDevice</text>
</a>
</g>
</g>
<!-- Node2&#45;&gt;Node1 -->
<g id="edge1" class="edge">
<title>Node2&#45;&gt;Node1</title>
<path fill="none" stroke="#63b8ff" d="M90.88,-46.39C84.68,-37.27 77.33,-26.45 72.33,-19.09"/>
<polygon fill="#63b8ff" stroke="#63b8ff" points="88.04,-48.44 96.56,-54.75 93.83,-44.51 88.04,-48.44"/>
</g>
<!-- Node3 -->
<g id="node3" class="node">
<title>Node3</title>
<g id="a_node3"><a xlink:title=" ">
<polygon fill="white" stroke="#666666" points="133,-129 0,-129 0,-110 133,-110 133,-129"/>
<text text-anchor="middle" x="66.5" y="-117" font-family="Helvetica,sans-Serif" font-size="10.00">INotifyPropertyChanged</text>
</a>
</g>
</g>
<!-- Node3&#45;&gt;Node1 -->
<g id="edge3" class="edge">
<title>Node3&#45;&gt;Node1</title>
<path fill="none" stroke="#63b8ff" d="M57.94,-100.59C54.6,-92.64 51.17,-83.05 49.5,-74 45.81,-54.02 55.47,-31.13 61.7,-19.03"/>
<polygon fill="#63b8ff" stroke="#63b8ff" points="54.84,-102.22 62.13,-109.91 61.23,-99.35 54.84,-102.22"/>
</g>
<!-- Node3&#45;&gt;Node2 -->
<g id="edge2" class="edge">
<title>Node3&#45;&gt;Node2</title>
<path fill="none" stroke="#63b8ff" d="M78.12,-101.39C84.32,-92.27 91.67,-81.45 96.67,-74.09"/>
<polygon fill="#63b8ff" stroke="#63b8ff" points="75.17,-99.51 72.44,-109.75 80.96,-103.44 75.17,-99.51"/>
</g>
</g>
</svg>
