<?xml version="1.0" encoding="UTF-8" standalone="no"?>
<!DOCTYPE svg PUBLIC "-//W3C//DTD SVG 1.1//EN"
 "http://www.w3.org/Graphics/SVG/1.1/DTD/svg11.dtd">
<!-- Generated by graphviz version 2.43.0 (0)
 -->
<!-- Title: RightHandXFromYZ Pages: 1 -->
<svg width="341pt" height="27pt"
 viewBox="0.00 0.00 341.00 27.00" xmlns="http://www.w3.org/2000/svg" xmlns:xlink="http://www.w3.org/1999/xlink">
<g id="graph0" class="graph" transform="scale(1 1) rotate(0) translate(4 23)">
<title>RightHandXFromYZ</title>
<!-- Node1 -->
<g id="node1" class="node">
<title>Node1</title>
<g id="a_node1"><a xlink:title="Detect basex from given normalized basey and basez vectors using right&#45;hand rule.">
<polygon fill="#999999" stroke="#666666" points="333,-19 221,-19 221,0 333,0 333,-19"/>
<text text-anchor="middle" x="277" y="-7" font-family="Helvetica,sans-Serif" font-size="10.00">RightHandXFromYZ</text>
</a>
</g>
</g>
<!-- Node2 -->
<g id="node2" class="node">
<title>Node2</title>
<g id="a_node2"><a xlink:href="class_search_a_thing_1_1_open_g_l_1_1_core_1_1_toolkit.html#aa9b48ac54896c95fd4bbf68703b31ec8" target="_top" xlink:title="Make a world matrix that represent the one used by the camera [world]. &#160;Basey = Normalized(cameraUp) ...">
<polygon fill="white" stroke="#666666" points="185,-19 123,-19 123,0 185,0 185,-19"/>
<text text-anchor="middle" x="154" y="-7" font-family="Helvetica,sans-Serif" font-size="10.00">MakeCCS</text>
</a>
</g>
</g>
<!-- Node1&#45;&gt;Node2 -->
<g id="edge1" class="edge">
<title>Node1&#45;&gt;Node2</title>
<path fill="none" stroke="#63b8ff" d="M210.77,-9.5C201.88,-9.5 193.14,-9.5 185.3,-9.5"/>
<polygon fill="#63b8ff" stroke="#63b8ff" points="210.81,-13 220.81,-9.5 210.81,-6 210.81,-13"/>
</g>
<!-- Node3 -->
<g id="node3" class="node">
<title>Node3</title>
<g id="a_node3"><a xlink:href="class_search_a_thing_1_1_open_g_l_1_1_core_1_1_toolkit.html#add9448a2792ecb184dbf6bea89b1dbcc" target="_top" xlink:title="Rotate the camera [view] a given rotation center [local]. REVIEW: add rotation center parameter and d...">
<polygon fill="white" stroke="#666666" points="87,-19 0,-19 0,0 87,0 87,-19"/>
<text text-anchor="middle" x="43.5" y="-7" font-family="Helvetica,sans-Serif" font-size="10.00">CameraRotate</text>
</a>
</g>
</g>
<!-- Node2&#45;&gt;Node3 -->
<g id="edge2" class="edge">
<title>Node2&#45;&gt;Node3</title>
<path fill="none" stroke="#63b8ff" d="M112.57,-9.5C104.27,-9.5 95.51,-9.5 87.13,-9.5"/>
<polygon fill="#63b8ff" stroke="#63b8ff" points="112.78,-13 122.78,-9.5 112.78,-6 112.78,-13"/>
</g>
</g>
</svg>
