<?xml version="1.0" encoding="UTF-8" standalone="no"?>
<!DOCTYPE svg PUBLIC "-//W3C//DTD SVG 1.1//EN"
 "http://www.w3.org/Graphics/SVG/1.1/DTD/svg11.dtd">
<!-- Generated by graphviz version 2.43.0 (0)
 -->
<!-- Title: FromTo Pages: 1 -->
<svg width="692pt" height="134pt"
 viewBox="0.00 0.00 692.00 134.00" xmlns="http://www.w3.org/2000/svg" xmlns:xlink="http://www.w3.org/1999/xlink">
<g id="graph0" class="graph" transform="scale(1 1) rotate(0) translate(4 130)">
<title>FromTo</title>
<!-- Node1 -->
<g id="node1" class="node">
<title>Node1</title>
<g id="a_node1"><a xlink:title="Create a new opengl line by two points through given two gl vertexes.">
<polygon fill="#999999" stroke="#666666" points="684,-72.5 632,-72.5 632,-53.5 684,-53.5 684,-72.5"/>
<text text-anchor="middle" x="658" y="-60.5" font-family="Helvetica,sans-Serif" font-size="10.00">FromTo</text>
</a>
</g>
</g>
<!-- Node2 -->
<g id="node2" class="node">
<title>Node2</title>
<g id="a_node2"><a xlink:href="class_search_a_thing_1_1_open_g_l_1_1_core_1_1_g_l_triangle.html#ac5f7e59248957fafca82f095fa267a42" target="_top" xlink:title="Enumerate triangle as opengl lines (V1,V2), (V2,V3) and (V3,V1).">
<polygon fill="white" stroke="#666666" points="575.5,-126 423.5,-126 423.5,-96 575.5,-96 575.5,-126"/>
<text text-anchor="start" x="431.5" y="-114" font-family="Helvetica,sans-Serif" font-size="10.00">SearchAThing.OpenGL.Core.</text>
<text text-anchor="middle" x="499.5" y="-103" font-family="Helvetica,sans-Serif" font-size="10.00">GLTriangle.Lines</text>
</a>
</g>
</g>
<!-- Node1&#45;&gt;Node2 -->
<g id="edge1" class="edge">
<title>Node1&#45;&gt;Node2</title>
<path fill="none" stroke="#63b8ff" d="M625.32,-76.36C615.97,-80.06 605.65,-83.9 596,-87 586.07,-90.19 575.45,-93.22 565.03,-95.99"/>
<polygon fill="#63b8ff" stroke="#63b8ff" points="626.69,-79.58 634.65,-72.59 624.07,-73.09 626.69,-79.58"/>
</g>
<!-- Node3 -->
<g id="node3" class="node">
<title>Node3</title>
<g id="a_node3"><a xlink:href="class_search_a_thing_1_1_open_g_l_1_1_core_1_1_toolkit.html#aa21b12f58d8b6c6406a51954d67433be" target="_top" xlink:title="Generate a gl figure that represent the camera frustum object.">
<polygon fill="white" stroke="#666666" points="575.5,-78 423.5,-78 423.5,-48 575.5,-48 575.5,-78"/>
<text text-anchor="start" x="431.5" y="-66" font-family="Helvetica,sans-Serif" font-size="10.00">SearchAThing.OpenGL.Core.</text>
<text text-anchor="middle" x="499.5" y="-55" font-family="Helvetica,sans-Serif" font-size="10.00">Toolkit.MakeFrustum</text>
</a>
</g>
</g>
<!-- Node1&#45;&gt;Node3 -->
<g id="edge2" class="edge">
<title>Node1&#45;&gt;Node3</title>
<path fill="none" stroke="#63b8ff" d="M621.48,-63C607.81,-63 591.63,-63 575.63,-63"/>
<polygon fill="#63b8ff" stroke="#63b8ff" points="621.86,-66.5 631.86,-63 621.86,-59.5 621.86,-66.5"/>
</g>
<!-- Node4 -->
<g id="node4" class="node">
<title>Node4</title>
<g id="a_node4"><a xlink:href="class_search_a_thing_1_1_open_g_l_1_1_core_1_1_g_l_model.html#ac89b2707e17ac1dfecc94a0d92261cee" target="_top" xlink:title="Load figure primitives from simple cmd ( newlines supported ). &#160;GLPointFigure.SimpleCmd,...">
<polygon fill="white" stroke="#666666" points="596,-30 403,-30 403,0 596,0 596,-30"/>
<text text-anchor="start" x="411" y="-18" font-family="Helvetica,sans-Serif" font-size="10.00">SearchAThing.OpenGL.Core.</text>
<text text-anchor="middle" x="499.5" y="-7" font-family="Helvetica,sans-Serif" font-size="10.00">GLModel.PrimitivesFromSimpleCmd</text>
</a>
</g>
</g>
<!-- Node1&#45;&gt;Node4 -->
<g id="edge3" class="edge">
<title>Node1&#45;&gt;Node4</title>
<path fill="none" stroke="#63b8ff" d="M625.32,-49.64C615.97,-45.94 605.65,-42.1 596,-39 586.07,-35.81 575.45,-32.78 565.03,-30.01"/>
<polygon fill="#63b8ff" stroke="#63b8ff" points="624.07,-52.91 634.65,-53.41 626.69,-46.42 624.07,-52.91"/>
</g>
<!-- Node5 -->
<g id="node5" class="node">
<title>Node5</title>
<g id="a_node5"><a xlink:href="class_search_a_thing_1_1_open_g_l_1_1_core_1_1_g_l_model.html#ad753878315dd94704362e08f4d1f1da4" target="_top" xlink:title="Load primitives from given simgple cmd and group them by primitive type creating figures ( newlines s...">
<polygon fill="white" stroke="#666666" points="367,-30 188,-30 188,0 367,0 367,-30"/>
<text text-anchor="start" x="196" y="-18" font-family="Helvetica,sans-Serif" font-size="10.00">SearchAThing.OpenGL.Core.</text>
<text text-anchor="middle" x="277.5" y="-7" font-family="Helvetica,sans-Serif" font-size="10.00">GLModel.FiguresFromSimpleCmd</text>
</a>
</g>
</g>
<!-- Node4&#45;&gt;Node5 -->
<g id="edge4" class="edge">
<title>Node4&#45;&gt;Node5</title>
<path fill="none" stroke="#63b8ff" d="M392.84,-15C384.2,-15 375.52,-15 367.01,-15"/>
<polygon fill="#63b8ff" stroke="#63b8ff" points="392.96,-18.5 402.96,-15 392.96,-11.5 392.96,-18.5"/>
</g>
<!-- Node6 -->
<g id="node6" class="node">
<title>Node6</title>
<g id="a_node6"><a xlink:href="class_search_a_thing_1_1_open_g_l_1_1_core_1_1_g_l_model.html#a9ff391662dfefb1dc39ee3f08574a69c" target="_top" xlink:title="Add to the model figures coming from given IGLPrimitive.SimpleCmd(bool). &#160;Generated figures are primi...">
<polygon fill="white" stroke="#666666" points="152,-30 0,-30 0,0 152,0 152,-30"/>
<text text-anchor="start" x="8" y="-18" font-family="Helvetica,sans-Serif" font-size="10.00">SearchAThing.OpenGL.Core.</text>
<text text-anchor="middle" x="76" y="-7" font-family="Helvetica,sans-Serif" font-size="10.00">GLModel.PasteSimpleCmd</text>
</a>
</g>
</g>
<!-- Node5&#45;&gt;Node6 -->
<g id="edge5" class="edge">
<title>Node5&#45;&gt;Node6</title>
<path fill="none" stroke="#63b8ff" d="M177.79,-15C169.22,-15 160.63,-15 152.29,-15"/>
<polygon fill="#63b8ff" stroke="#63b8ff" points="177.83,-18.5 187.83,-15 177.83,-11.5 177.83,-18.5"/>
</g>
</g>
</svg>
