<?xml version="1.0" encoding="UTF-8" standalone="no"?>
<!DOCTYPE svg PUBLIC "-//W3C//DTD SVG 1.1//EN"
 "http://www.w3.org/Graphics/SVG/1.1/DTD/svg11.dtd">
<!-- Generated by graphviz version 2.43.0 (0)
 -->
<!-- Title: GLTriangleFigure Pages: 1 -->
<svg width="399pt" height="192pt"
 viewBox="0.00 0.00 399.00 192.00" xmlns="http://www.w3.org/2000/svg" xmlns:xlink="http://www.w3.org/1999/xlink">
<g id="graph0" class="graph" transform="scale(1 1) rotate(0) translate(4 188)">
<title>GLTriangleFigure</title>
<!-- Node1 -->
<g id="node1" class="node">
<title>Node1</title>
<g id="a_node1"><a xlink:title="Specialization of typed figure within the GLTriangle primitive.">
<polygon fill="#999999" stroke="#666666" points="217,-19 120,-19 120,0 217,0 217,-19"/>
<text text-anchor="middle" x="168.5" y="-7" font-family="Helvetica,sans-Serif" font-size="10.00">GLTriangleFigure</text>
</a>
</g>
</g>
<!-- Node2 -->
<g id="node2" class="node">
<title>Node2</title>
<g id="a_node2"><a xlink:href="class_search_a_thing_1_1_open_g_l_1_1_core_1_1_g_l_figure_type_base.html" target="_top" xlink:title=" ">
<polygon fill="white" stroke="#666666" points="179,-74 0,-74 0,-55 179,-55 179,-74"/>
<text text-anchor="middle" x="89.5" y="-62" font-family="Helvetica,sans-Serif" font-size="10.00">GLFigureTypeBase&lt; GLTriangle &gt;</text>
</a>
</g>
</g>
<!-- Node2&#45;&gt;Node1 -->
<g id="edge1" class="edge">
<title>Node2&#45;&gt;Node1</title>
<path fill="none" stroke="#63b8ff" d="M110.89,-49.15C125.17,-39.57 143.47,-27.29 155.58,-19.17"/>
<polygon fill="#63b8ff" stroke="#63b8ff" points="108.55,-46.51 102.19,-54.98 112.45,-52.32 108.55,-46.51"/>
</g>
<!-- Node3 -->
<g id="node3" class="node">
<title>Node3</title>
<g id="a_node3"><a xlink:href="interface_search_a_thing_1_1_open_g_l_1_1_core_1_1_i_g_l_triangle_figure.html" target="_top" xlink:title="Specialization of IGLFigure for the type GLTriangle.">
<polygon fill="white" stroke="#666666" points="297.5,-74 197.5,-74 197.5,-55 297.5,-55 297.5,-74"/>
<text text-anchor="middle" x="247.5" y="-62" font-family="Helvetica,sans-Serif" font-size="10.00">IGLTriangleFigure</text>
</a>
</g>
</g>
<!-- Node3&#45;&gt;Node1 -->
<g id="edge2" class="edge">
<title>Node3&#45;&gt;Node1</title>
<path fill="none" stroke="#63b8ff" d="M226.11,-49.15C211.83,-39.57 193.53,-27.29 181.42,-19.17"/>
<polygon fill="#63b8ff" stroke="#63b8ff" points="224.55,-52.32 234.81,-54.98 228.45,-46.51 224.55,-52.32"/>
</g>
<!-- Node4 -->
<g id="node4" class="node">
<title>Node4</title>
<g id="a_node4"><a xlink:href="interface_search_a_thing_1_1_open_g_l_1_1_core_1_1_i_g_l_figure.html" target="_top" xlink:title="This is the direct child of a vertex manager. &#160;A figure contains primitives and primitive contains ve...">
<polygon fill="white" stroke="#666666" points="278.5,-129 216.5,-129 216.5,-110 278.5,-110 278.5,-129"/>
<text text-anchor="middle" x="247.5" y="-117" font-family="Helvetica,sans-Serif" font-size="10.00">IGLFigure</text>
</a>
</g>
</g>
<!-- Node4&#45;&gt;Node3 -->
<g id="edge3" class="edge">
<title>Node4&#45;&gt;Node3</title>
<path fill="none" stroke="#63b8ff" d="M247.5,-99.66C247.5,-90.93 247.5,-80.99 247.5,-74.09"/>
<polygon fill="#63b8ff" stroke="#63b8ff" points="244,-99.75 247.5,-109.75 251,-99.75 244,-99.75"/>
</g>
<!-- Node5 -->
<g id="node5" class="node">
<title>Node5</title>
<g id="a_node5"><a xlink:href="interface_search_a_thing_1_1_open_g_l_1_1_core_1_1_i_g_l_vertex_manager_object.html" target="_top" xlink:title="Interface for GL objects such as IGLFigure, IGLPrimitive and IGLVertex. &#160;The purpose is to ensure tha...">
<polygon fill="white" stroke="#666666" points="240,-184 103,-184 103,-165 240,-165 240,-184"/>
<text text-anchor="middle" x="171.5" y="-172" font-family="Helvetica,sans-Serif" font-size="10.00">IGLVertexManagerObject</text>
</a>
</g>
</g>
<!-- Node5&#45;&gt;Node4 -->
<g id="edge4" class="edge">
<title>Node5&#45;&gt;Node4</title>
<path fill="none" stroke="#63b8ff" d="M192.08,-159.15C205.81,-149.57 223.43,-137.29 235.07,-129.17"/>
<polygon fill="#63b8ff" stroke="#63b8ff" points="189.91,-156.39 183.71,-164.98 193.92,-162.14 189.91,-156.39"/>
</g>
<!-- Node6 -->
<g id="node6" class="node">
<title>Node6</title>
<g id="a_node6"><a xlink:title=" ">
<polygon fill="white" stroke="#666666" points="391,-184 258,-184 258,-165 391,-165 391,-184"/>
<text text-anchor="middle" x="324.5" y="-172" font-family="Helvetica,sans-Serif" font-size="10.00">INotifyPropertyChanged</text>
</a>
</g>
</g>
<!-- Node6&#45;&gt;Node4 -->
<g id="edge5" class="edge">
<title>Node6&#45;&gt;Node4</title>
<path fill="none" stroke="#63b8ff" d="M303.65,-159.15C289.74,-149.57 271.89,-137.29 260.1,-129.17"/>
<polygon fill="#63b8ff" stroke="#63b8ff" points="301.91,-162.2 312.13,-164.98 305.88,-156.43 301.91,-162.2"/>
</g>
</g>
</svg>
