<?xml version="1.0" encoding="UTF-8" standalone="no"?>
<!DOCTYPE svg PUBLIC "-//W3C//DTD SVG 1.1//EN"
 "http://www.w3.org/Graphics/SVG/1.1/DTD/svg11.dtd">
<!-- Generated by graphviz version 2.43.0 (0)
 -->
<!-- Title: PerspectivePan Pages: 1 -->
<svg width="391pt" height="27pt"
 viewBox="0.00 0.00 391.00 27.00" xmlns="http://www.w3.org/2000/svg" xmlns:xlink="http://www.w3.org/1999/xlink">
<g id="graph0" class="graph" transform="scale(1 1) rotate(0) translate(4 23)">
<title>PerspectivePan</title>
<!-- Node1 -->
<g id="node1" class="node">
<title>Node1</title>
<g id="a_node1"><a xlink:title="Pan the view ( Perspective mode ) by the given screen translation coord generating new camera config.">
<polygon fill="#999999" stroke="#666666" points="383,-19 292,-19 292,0 383,0 383,-19"/>
<text text-anchor="middle" x="337.5" y="-7" font-family="Helvetica,sans-Serif" font-size="10.00">PerspectivePan</text>
</a>
</g>
</g>
<!-- Node2 -->
<g id="node2" class="node">
<title>Node2</title>
<g id="a_node2"><a xlink:href="class_search_a_thing_1_1_open_g_l_1_1_core_1_1_toolkit.html#ab44681ff016fe9da0ba9a13dd4b01278" target="_top" xlink:title="Center the view ( Perspective mode ) by computing camera [world] position and target.">
<polygon fill="white" stroke="#666666" points="256,-19 150,-19 150,0 256,0 256,-19"/>
<text text-anchor="middle" x="203" y="-7" font-family="Helvetica,sans-Serif" font-size="10.00">PerspectiveCenter</text>
</a>
</g>
</g>
<!-- Node1&#45;&gt;Node2 -->
<g id="edge1" class="edge">
<title>Node1&#45;&gt;Node2</title>
<path fill="none" stroke="#63b8ff" d="M281.55,-9.5C273.14,-9.5 264.48,-9.5 256.13,-9.5"/>
<polygon fill="#63b8ff" stroke="#63b8ff" points="281.64,-13 291.64,-9.5 281.64,-6 281.64,-13"/>
</g>
<!-- Node3 -->
<g id="node3" class="node">
<title>Node3</title>
<g id="a_node3"><a xlink:href="class_search_a_thing_1_1_open_g_l_1_1_core_1_1_toolkit.html#aa11500be262e3a1d3ac6911e302b7861" target="_top" xlink:title="Fit current model view for perspective projection.">
<polygon fill="white" stroke="#666666" points="114,-19 0,-19 0,0 114,0 114,-19"/>
<text text-anchor="middle" x="57" y="-7" font-family="Helvetica,sans-Serif" font-size="10.00">PerspectiveZoomFit</text>
</a>
</g>
</g>
<!-- Node2&#45;&gt;Node3 -->
<g id="edge2" class="edge">
<title>Node2&#45;&gt;Node3</title>
<path fill="none" stroke="#63b8ff" d="M139.56,-9.5C131.22,-9.5 122.71,-9.5 114.48,-9.5"/>
<polygon fill="#63b8ff" stroke="#63b8ff" points="139.61,-13 149.61,-9.5 139.61,-6 139.61,-13"/>
</g>
</g>
</svg>
