<?xml version="1.0" encoding="UTF-8" standalone="no"?>
<!DOCTYPE svg PUBLIC "-//W3C//DTD SVG 1.1//EN"
 "http://www.w3.org/Graphics/SVG/1.1/DTD/svg11.dtd">
<!-- Generated by graphviz version 2.43.0 (0)
 -->
<!-- Title: OnPropertyChanged Pages: 1 -->
<svg width="471pt" height="70pt"
 viewBox="0.00 0.00 471.00 69.50" xmlns="http://www.w3.org/2000/svg" xmlns:xlink="http://www.w3.org/1999/xlink">
<g id="graph0" class="graph" transform="scale(1 1) rotate(0) translate(4 65.5)">
<title>OnPropertyChanged</title>
<!-- Node1 -->
<g id="node1" class="node">
<title>Node1</title>
<g id="a_node1"><a xlink:title="invoke this method to forward propertchanged event notification. note: not needed to specify property...">
<polygon fill="#999999" stroke="#666666" points="463,-37 349,-37 349,-18 463,-18 463,-37"/>
<text text-anchor="middle" x="406" y="-25" font-family="Helvetica,sans-Serif" font-size="10.00">OnPropertyChanged</text>
</a>
</g>
</g>
<!-- Node2 -->
<g id="node2" class="node">
<title>Node2</title>
<g id="a_node2"><a xlink:href="class_search_a_thing_1_1_open_g_l_1_1_core_1_1_g_l_model.html#a3b7cc83d35fd3e50f9d5addf978ce010" target="_top" xlink:title=" ">
<polygon fill="white" stroke="#666666" points="290.5,-56 210.5,-56 210.5,-37 290.5,-37 290.5,-56"/>
<text text-anchor="middle" x="250.5" y="-44" font-family="Helvetica,sans-Serif" font-size="10.00">EnsureModel</text>
</a>
</g>
</g>
<!-- Node1&#45;&gt;Node2 -->
<g id="edge1" class="edge">
<title>Node1&#45;&gt;Node2</title>
<path fill="none" stroke="#63b8ff" d="M338.6,-35.72C322.19,-37.75 305.13,-39.86 290.51,-41.67"/>
<polygon fill="#63b8ff" stroke="#63b8ff" points="339.22,-39.17 348.71,-34.47 338.36,-32.22 339.22,-39.17"/>
</g>
<!-- Node4 -->
<g id="node4" class="node">
<title>Node4</title>
<g id="a_node4"><a xlink:href="class_search_a_thing_1_1_open_g_l_1_1_core_1_1_g_l_model.html#a353b5f13409fe49c0ce33e7ab9dc4698" target="_top" xlink:title="Configure light constant, linear, quadratic attenuation based on the model size.">
<polygon fill="white" stroke="#666666" points="313,-19 188,-19 188,0 313,0 313,-19"/>
<text text-anchor="middle" x="250.5" y="-7" font-family="Helvetica,sans-Serif" font-size="10.00">SetupLightAttenuation</text>
</a>
</g>
</g>
<!-- Node1&#45;&gt;Node4 -->
<g id="edge3" class="edge">
<title>Node1&#45;&gt;Node4</title>
<path fill="none" stroke="#63b8ff" d="M338.56,-19.71C330.14,-18.72 321.55,-17.71 313.21,-16.74"/>
<polygon fill="#63b8ff" stroke="#63b8ff" points="338.37,-23.21 348.71,-20.9 339.19,-16.26 338.37,-23.21"/>
</g>
<!-- Node3 -->
<g id="node3" class="node">
<title>Node3</title>
<g id="a_node3"><a xlink:href="class_search_a_thing_1_1_open_g_l_1_1_core_1_1_g_l_control.html#a3e2efcd721af8aba50e8e1736db54b77" target="_top" xlink:title="Main gl render process.">
<polygon fill="white" stroke="#666666" points="152,-61.5 0,-61.5 0,-31.5 152,-31.5 152,-61.5"/>
<text text-anchor="start" x="8" y="-49.5" font-family="Helvetica,sans-Serif" font-size="10.00">SearchAThing.OpenGL.Core.</text>
<text text-anchor="middle" x="76" y="-38.5" font-family="Helvetica,sans-Serif" font-size="10.00">GLControl.Render</text>
</a>
</g>
</g>
<!-- Node2&#45;&gt;Node3 -->
<g id="edge2" class="edge">
<title>Node2&#45;&gt;Node3</title>
<path fill="none" stroke="#63b8ff" d="M200.27,-46.5C185.24,-46.5 168.35,-46.5 152.01,-46.5"/>
<polygon fill="#63b8ff" stroke="#63b8ff" points="200.36,-50 210.36,-46.5 200.36,-43 200.36,-50"/>
</g>
</g>
</svg>
