<?xml version="1.0" encoding="UTF-8" standalone="no"?>
<!DOCTYPE svg PUBLIC "-//W3C//DTD SVG 1.1//EN"
 "http://www.w3.org/Graphics/SVG/1.1/DTD/svg11.dtd">
<!-- Generated by graphviz version 2.43.0 (0)
 -->
<!-- Title: Size Pages: 1 -->
<svg width="423pt" height="321pt"
 viewBox="0.00 0.00 423.00 321.00" xmlns="http://www.w3.org/2000/svg" xmlns:xlink="http://www.w3.org/1999/xlink">
<g id="graph0" class="graph" transform="scale(1 1) rotate(0) translate(4 317)">
<title>Size</title>
<!-- Node1 -->
<g id="node1" class="node">
<title>Node1</title>
<g id="a_node1"><a xlink:title="Get render surface size (pixels).">
<polygon fill="#999999" stroke="#666666" points="415,-180 378,-180 378,-161 415,-161 415,-180"/>
<text text-anchor="middle" x="396.5" y="-168" font-family="Helvetica,sans-Serif" font-size="10.00">Size</text>
</a>
</g>
</g>
<!-- Node2 -->
<g id="node2" class="node">
<title>Node2</title>
<g id="a_node2"><a xlink:href="class_search_a_thing_1_1_open_g_l_1_1_render_1_1_g_l_control.html#a0ca8f80a1d2257d7b3383f67d40cb0e1" target="_top" xlink:title=" ">
<polygon fill="white" stroke="#666666" points="309.5,-313 173.5,-313 173.5,-294 309.5,-294 309.5,-313"/>
<text text-anchor="middle" x="241.5" y="-301" font-family="Helvetica,sans-Serif" font-size="10.00">BuildScreenModelMatrix</text>
</a>
</g>
</g>
<!-- Node1&#45;&gt;Node2 -->
<g id="edge1" class="edge">
<title>Node1&#45;&gt;Node2</title>
<path fill="none" stroke="#63b8ff" d="M391.3,-190.06C384.96,-214.72 370.53,-256.64 342,-279.5 332.64,-287 321.3,-292.21 309.67,-295.83"/>
<polygon fill="#63b8ff" stroke="#63b8ff" points="394.76,-190.62 393.66,-180.08 387.95,-189 394.76,-190.62"/>
</g>
<!-- Node3 -->
<g id="node3" class="node">
<title>Node3</title>
<g id="a_node3"><a xlink:href="class_search_a_thing_1_1_open_g_l_1_1_render_1_1_g_l_control.html#afc6003d84ce56250451495e4519d569a" target="_top" xlink:title="Pan the view by the given screen translation.">
<polygon fill="white" stroke="#666666" points="258.5,-199 224.5,-199 224.5,-180 258.5,-180 258.5,-199"/>
<text text-anchor="middle" x="241.5" y="-187" font-family="Helvetica,sans-Serif" font-size="10.00">Pan</text>
</a>
</g>
</g>
<!-- Node1&#45;&gt;Node3 -->
<g id="edge2" class="edge">
<title>Node1&#45;&gt;Node3</title>
<path fill="none" stroke="#63b8ff" d="M367.99,-173.92C336.22,-177.86 285.01,-184.22 258.92,-187.46"/>
<polygon fill="#63b8ff" stroke="#63b8ff" points="368.46,-177.39 377.95,-172.68 367.59,-170.44 368.46,-177.39"/>
</g>
<!-- Node4 -->
<g id="node4" class="node">
<title>Node4</title>
<g id="a_node4"><a xlink:href="class_search_a_thing_1_1_open_g_l_1_1_render_1_1_g_l_control.html#acd591f4d52216f736d05a37967dfbb76" target="_top" xlink:title="Pan the view down of a little factor.">
<polygon fill="white" stroke="#666666" points="83.5,-265 21.5,-265 21.5,-246 83.5,-246 83.5,-265"/>
<text text-anchor="middle" x="52.5" y="-253" font-family="Helvetica,sans-Serif" font-size="10.00">PanDown</text>
</a>
</g>
</g>
<!-- Node1&#45;&gt;Node4 -->
<g id="edge7" class="edge">
<title>Node1&#45;&gt;Node4</title>
<path fill="none" stroke="#63b8ff" d="M384.41,-188.76C374.98,-202.51 360.1,-220.49 342,-229.5 256.24,-272.21 138.36,-265.75 83.65,-259.65"/>
<polygon fill="#63b8ff" stroke="#63b8ff" points="387.54,-190.37 390.04,-180.08 381.67,-186.56 387.54,-190.37"/>
</g>
<!-- Node5 -->
<g id="node5" class="node">
<title>Node5</title>
<g id="a_node5"><a xlink:href="class_search_a_thing_1_1_open_g_l_1_1_render_1_1_g_l_control.html#ac0149d9ec4eefdc825a466e47f0cdb07" target="_top" xlink:title="Pan the view left of a little factor.">
<polygon fill="white" stroke="#666666" points="78.5,-209 26.5,-209 26.5,-190 78.5,-190 78.5,-209"/>
<text text-anchor="middle" x="52.5" y="-197" font-family="Helvetica,sans-Serif" font-size="10.00">PanLeft</text>
</a>
</g>
</g>
<!-- Node1&#45;&gt;Node5 -->
<g id="edge8" class="edge">
<title>Node1&#45;&gt;Node5</title>
<path fill="none" stroke="#63b8ff" d="M378.17,-187.02C368.38,-195.19 355.43,-204.22 342,-208.5 248.67,-238.27 129.63,-217.32 78.58,-205.76"/>
<polygon fill="#63b8ff" stroke="#63b8ff" points="380.72,-189.43 385.9,-180.19 376.09,-184.19 380.72,-189.43"/>
</g>
<!-- Node6 -->
<g id="node6" class="node">
<title>Node6</title>
<g id="a_node6"><a xlink:href="class_search_a_thing_1_1_open_g_l_1_1_render_1_1_g_l_control.html#a21c11768939dccbc75ef58be240cc90b" target="_top" xlink:title="Pan the view right of a little factor.">
<polygon fill="white" stroke="#666666" points="82,-166 23,-166 23,-147 82,-147 82,-166"/>
<text text-anchor="middle" x="52.5" y="-154" font-family="Helvetica,sans-Serif" font-size="10.00">PanRight</text>
</a>
</g>
</g>
<!-- Node1&#45;&gt;Node6 -->
<g id="edge9" class="edge">
<title>Node1&#45;&gt;Node6</title>
<path fill="none" stroke="#63b8ff" d="M367.44,-169.35C303.39,-166.73 146.96,-160.33 82.25,-157.68"/>
<polygon fill="#63b8ff" stroke="#63b8ff" points="367.46,-172.85 377.59,-169.77 367.75,-165.86 367.46,-172.85"/>
</g>
<!-- Node7 -->
<g id="node7" class="node">
<title>Node7</title>
<g id="a_node7"><a xlink:href="class_search_a_thing_1_1_open_g_l_1_1_render_1_1_g_l_control.html#adbc9327929edf6458b41fb0849c41650" target="_top" xlink:title="Pan the view up of a little factor.">
<polygon fill="white" stroke="#666666" points="76,-123 29,-123 29,-104 76,-104 76,-123"/>
<text text-anchor="middle" x="52.5" y="-111" font-family="Helvetica,sans-Serif" font-size="10.00">PanUp</text>
</a>
</g>
</g>
<!-- Node1&#45;&gt;Node7 -->
<g id="edge10" class="edge">
<title>Node1&#45;&gt;Node7</title>
<path fill="none" stroke="#63b8ff" d="M368.18,-162.11C359.83,-159.74 350.59,-157.32 342,-155.5 243.96,-134.71 124.99,-120.96 76.12,-115.79"/>
<polygon fill="#63b8ff" stroke="#63b8ff" points="367.23,-165.48 377.81,-164.92 369.19,-158.76 367.23,-165.48"/>
</g>
<!-- Node8 -->
<g id="node8" class="node">
<title>Node8</title>
<g id="a_node8"><a xlink:href="class_search_a_thing_1_1_open_g_l_1_1_render_1_1_point_transform_nfo.html#ae6d06627932de666b3132e3ae82674b6" target="_top" xlink:title=" ">
<polygon fill="white" stroke="#666666" points="342,-85.5 141,-85.5 141,-55.5 342,-55.5 342,-85.5"/>
<text text-anchor="start" x="149" y="-73.5" font-family="Helvetica,sans-Serif" font-size="10.00">SearchAThing.OpenGL.Render.</text>
<text text-anchor="middle" x="241.5" y="-62.5" font-family="Helvetica,sans-Serif" font-size="10.00">PointTransformNfo.PointTransformNfo</text>
</a>
</g>
</g>
<!-- Node1&#45;&gt;Node8 -->
<g id="edge11" class="edge">
<title>Node1&#45;&gt;Node8</title>
<path fill="none" stroke="#63b8ff" d="M385.81,-151.59C376.62,-135.47 361.35,-112.86 342,-99.5 333.78,-93.83 324.45,-89.25 314.88,-85.56"/>
<polygon fill="#63b8ff" stroke="#63b8ff" points="382.88,-153.52 390.73,-160.64 389.03,-150.18 382.88,-153.52"/>
</g>
<!-- Node9 -->
<g id="node9" class="node">
<title>Node9</title>
<g id="a_node9"><a xlink:href="class_search_a_thing_1_1_open_g_l_1_1_render_1_1_g_l_control.html#a3647f3040be99a06b6a07bfeed13ad92" target="_top" xlink:title="Fit gl model into the view.">
<polygon fill="white" stroke="#666666" points="270,-37 213,-37 213,-18 270,-18 270,-37"/>
<text text-anchor="middle" x="241.5" y="-25" font-family="Helvetica,sans-Serif" font-size="10.00">ZoomFit</text>
</a>
</g>
</g>
<!-- Node1&#45;&gt;Node9 -->
<g id="edge12" class="edge">
<title>Node1&#45;&gt;Node9</title>
<path fill="none" stroke="#63b8ff" d="M392.8,-150.86C387.89,-123.09 374.79,-72.8 342,-46.5 321.83,-30.32 292.02,-26.46 270.29,-26.1"/>
<polygon fill="#63b8ff" stroke="#63b8ff" points="389.37,-151.6 394.39,-160.93 396.29,-150.51 389.37,-151.6"/>
</g>
<!-- Node3&#45;&gt;Node4 -->
<g id="edge3" class="edge">
<title>Node3&#45;&gt;Node4</title>
<path fill="none" stroke="#63b8ff" d="M214.65,-198.62C179.39,-211.07 116.49,-233.27 80.59,-245.94"/>
<polygon fill="#63b8ff" stroke="#63b8ff" points="215.97,-201.87 224.23,-195.24 213.64,-195.27 215.97,-201.87"/>
</g>
<!-- Node3&#45;&gt;Node5 -->
<g id="edge4" class="edge">
<title>Node3&#45;&gt;Node5</title>
<path fill="none" stroke="#63b8ff" d="M214.01,-190.92C177.98,-192.84 113.98,-196.27 78.66,-198.15"/>
<polygon fill="#63b8ff" stroke="#63b8ff" points="214.43,-194.4 224.23,-190.37 214.06,-187.41 214.43,-194.4"/>
</g>
<!-- Node3&#45;&gt;Node6 -->
<g id="edge5" class="edge">
<title>Node3&#45;&gt;Node6</title>
<path fill="none" stroke="#63b8ff" d="M214.35,-184.88C179.56,-178.75 118.29,-167.93 82.25,-161.57"/>
<polygon fill="#63b8ff" stroke="#63b8ff" points="213.78,-188.34 224.23,-186.63 214.99,-181.44 213.78,-188.34"/>
</g>
<!-- Node3&#45;&gt;Node7 -->
<g id="edge6" class="edge">
<title>Node3&#45;&gt;Node7</title>
<path fill="none" stroke="#63b8ff" d="M214.72,-179.02C177.97,-164.09 111.12,-136.92 76.17,-122.71"/>
<polygon fill="#63b8ff" stroke="#63b8ff" points="213.65,-182.37 224.23,-182.89 216.29,-175.88 213.65,-182.37"/>
</g>
<!-- Node10 -->
<g id="node10" class="node">
<title>Node10</title>
<g id="a_node10"><a xlink:href="class_search_a_thing_1_1_open_g_l_1_1_render_1_1_g_l_control.html#a609ac6af33cb1c1fc525aff164df9543" target="_top" xlink:title="Set the view using given cube view type.">
<polygon fill="white" stroke="#666666" points="92,-56 13,-56 13,-37 92,-37 92,-56"/>
<text text-anchor="middle" x="52.5" y="-44" font-family="Helvetica,sans-Serif" font-size="10.00">CameraView</text>
</a>
</g>
</g>
<!-- Node9&#45;&gt;Node10 -->
<g id="edge13" class="edge">
<title>Node9&#45;&gt;Node10</title>
<path fill="none" stroke="#63b8ff" d="M202.58,-31.35C170.47,-34.62 124.62,-39.27 92.27,-42.56"/>
<polygon fill="#63b8ff" stroke="#63b8ff" points="203.31,-34.8 212.91,-30.3 202.6,-27.83 203.31,-34.8"/>
</g>
<!-- Node11 -->
<g id="node11" class="node">
<title>Node11</title>
<g id="a_node11"><a xlink:href="class_search_a_thing_1_1_open_g_l_1_1_render_1_1_g_l_control.html#a809dcd2f46e1da7c985e0ba750f5c389" target="_top" xlink:title="Toggle perspective mode.">
<polygon fill="white" stroke="#666666" points="105,-19 0,-19 0,0 105,0 105,-19"/>
<text text-anchor="middle" x="52.5" y="-7" font-family="Helvetica,sans-Serif" font-size="10.00">TogglePerspective</text>
</a>
</g>
</g>
<!-- Node9&#45;&gt;Node11 -->
<g id="edge14" class="edge">
<title>Node9&#45;&gt;Node11</title>
<path fill="none" stroke="#63b8ff" d="M202.72,-23.86C174.69,-21.17 136.15,-17.46 105.26,-14.48"/>
<polygon fill="#63b8ff" stroke="#63b8ff" points="202.62,-27.37 212.91,-24.84 203.29,-20.4 202.62,-27.37"/>
</g>
</g>
</svg>
