<?xml version="1.0" encoding="UTF-8" standalone="no"?>
<!DOCTYPE svg PUBLIC "-//W3C//DTD SVG 1.1//EN"
 "http://www.w3.org/Graphics/SVG/1.1/DTD/svg11.dtd">
<!-- Generated by graphviz version 2.43.0 (0)
 -->
<!-- Title: Copy Pages: 1 -->
<svg width="260pt" height="134pt"
 viewBox="0.00 0.00 260.00 134.00" xmlns="http://www.w3.org/2000/svg" xmlns:xlink="http://www.w3.org/1999/xlink">
<g id="graph0" class="graph" transform="scale(1 1) rotate(0) translate(4 130)">
<title>Copy</title>
<!-- Node1 -->
<g id="node1" class="node">
<title>Node1</title>
<g id="a_node1"><a xlink:title="Create a copy of this gl vertex manager object copying all relevant data except the ParentVertexManag...">
<polygon fill="#999999" stroke="#666666" points="252,-72.5 211,-72.5 211,-53.5 252,-53.5 252,-72.5"/>
<text text-anchor="middle" x="231.5" y="-60.5" font-family="Helvetica,sans-Serif" font-size="10.00">Copy</text>
</a>
</g>
</g>
<!-- Node2 -->
<g id="node2" class="node">
<title>Node2</title>
<g id="a_node2"><a xlink:href="class_search_a_thing_1_1_open_g_l_1_1_core_1_1_g_l_line.html#a3bf0a7cd346a754dec0a8bc1f26bb554" target="_top" xlink:title=" ">
<polygon fill="white" stroke="#666666" points="166.5,-126 8.5,-126 8.5,-96 166.5,-96 166.5,-126"/>
<text text-anchor="start" x="16.5" y="-114" font-family="Helvetica,sans-Serif" font-size="10.00">SearchAThing.OpenGL.Core.</text>
<text text-anchor="middle" x="87.5" y="-103" font-family="Helvetica,sans-Serif" font-size="10.00">GLLine.CopyFromSpecialized</text>
</a>
</g>
</g>
<!-- Node1&#45;&gt;Node2 -->
<g id="edge1" class="edge">
<title>Node1&#45;&gt;Node2</title>
<path fill="none" stroke="#63b8ff" d="M201.81,-76.3C193.28,-80.01 183.85,-83.88 175,-87 166.04,-90.16 156.43,-93.18 147,-95.95"/>
<polygon fill="#63b8ff" stroke="#63b8ff" points="203.27,-79.48 210.98,-72.22 200.42,-73.08 203.27,-79.48"/>
</g>
<!-- Node3 -->
<g id="node3" class="node">
<title>Node3</title>
<g id="a_node3"><a xlink:href="class_search_a_thing_1_1_open_g_l_1_1_core_1_1_g_l_point.html#a3bf0a7cd346a754dec0a8bc1f26bb554" target="_top" xlink:title=" ">
<polygon fill="white" stroke="#666666" points="168.5,-78 6.5,-78 6.5,-48 168.5,-48 168.5,-78"/>
<text text-anchor="start" x="14.5" y="-66" font-family="Helvetica,sans-Serif" font-size="10.00">SearchAThing.OpenGL.Core.</text>
<text text-anchor="middle" x="87.5" y="-55" font-family="Helvetica,sans-Serif" font-size="10.00">GLPoint.CopyFromSpecialized</text>
</a>
</g>
</g>
<!-- Node1&#45;&gt;Node3 -->
<g id="edge2" class="edge">
<title>Node1&#45;&gt;Node3</title>
<path fill="none" stroke="#63b8ff" d="M200.67,-63C191.1,-63 180.01,-63 168.6,-63"/>
<polygon fill="#63b8ff" stroke="#63b8ff" points="200.76,-66.5 210.76,-63 200.76,-59.5 200.76,-66.5"/>
</g>
<!-- Node4 -->
<g id="node4" class="node">
<title>Node4</title>
<g id="a_node4"><a xlink:href="class_search_a_thing_1_1_open_g_l_1_1_core_1_1_g_l_triangle.html#a3bf0a7cd346a754dec0a8bc1f26bb554" target="_top" xlink:title=" ">
<polygon fill="white" stroke="#666666" points="175,-30 0,-30 0,0 175,0 175,-30"/>
<text text-anchor="start" x="8" y="-18" font-family="Helvetica,sans-Serif" font-size="10.00">SearchAThing.OpenGL.Core.</text>
<text text-anchor="middle" x="87.5" y="-7" font-family="Helvetica,sans-Serif" font-size="10.00">GLTriangle.CopyFromSpecialized</text>
</a>
</g>
</g>
<!-- Node1&#45;&gt;Node4 -->
<g id="edge3" class="edge">
<title>Node1&#45;&gt;Node4</title>
<path fill="none" stroke="#63b8ff" d="M201.81,-49.7C193.28,-45.99 183.85,-42.12 175,-39 166.04,-35.84 156.43,-32.82 147,-30.05"/>
<polygon fill="#63b8ff" stroke="#63b8ff" points="200.42,-52.92 210.98,-53.78 203.27,-46.52 200.42,-52.92"/>
</g>
</g>
</svg>
