<?xml version="1.0" encoding="UTF-8" standalone="no"?>
<!DOCTYPE svg PUBLIC "-//W3C//DTD SVG 1.1//EN"
 "http://www.w3.org/Graphics/SVG/1.1/DTD/svg11.dtd">
<!-- Generated by graphviz version 2.43.0 (0)
 -->
<!-- Title: GLLine Pages: 1 -->
<svg width="191pt" height="64pt"
 viewBox="0.00 0.00 191.00 64.00" xmlns="http://www.w3.org/2000/svg" xmlns:xlink="http://www.w3.org/1999/xlink">
<g id="graph0" class="graph" transform="scale(1 1) rotate(0) translate(4 60)">
<title>GLLine</title>
<!-- Node1 -->
<g id="node1" class="node">
<title>Node1</title>
<g id="a_node1"><a xlink:title="Create an opengl line.">
<polygon fill="#999999" stroke="#666666" points="183,-37 133,-37 133,-18 183,-18 183,-37"/>
<text text-anchor="middle" x="158" y="-25" font-family="Helvetica,sans-Serif" font-size="10.00">GLLine</text>
</a>
</g>
</g>
<!-- Node2 -->
<g id="node2" class="node">
<title>Node2</title>
<g id="a_node2"><a xlink:href="class_search_a_thing_1_1_open_g_l_1_1_core_1_1_g_l_line.html#a9af0a1d9692cafa87cb3b00548ddf0a4" target="_top" xlink:title=" ">
<polygon fill="white" stroke="#666666" points="97,-56 0,-56 0,-37 97,-37 97,-56"/>
<text text-anchor="middle" x="48.5" y="-44" font-family="Helvetica,sans-Serif" font-size="10.00">CopySpecialized</text>
</a>
</g>
</g>
<!-- Node1&#45;&gt;Node2 -->
<g id="edge1" class="edge">
<title>Node1&#45;&gt;Node2</title>
<path fill="none" stroke="#63b8ff" d="M122.99,-33.51C114.83,-34.95 105.97,-36.52 97.32,-38.05"/>
<polygon fill="#63b8ff" stroke="#63b8ff" points="123.64,-36.95 132.87,-31.76 122.42,-30.06 123.64,-36.95"/>
</g>
<!-- Node3 -->
<g id="node3" class="node">
<title>Node3</title>
<g id="a_node3"><a xlink:href="class_search_a_thing_1_1_open_g_l_1_1_core_1_1_g_l_line.html#ac32ce99edf2f5e2f77d9cf0922bb7c4e" target="_top" xlink:title="Create a mirrored primitive against given xy plane.">
<polygon fill="white" stroke="#666666" points="71.5,-19 25.5,-19 25.5,0 71.5,0 71.5,-19"/>
<text text-anchor="middle" x="48.5" y="-7" font-family="Helvetica,sans-Serif" font-size="10.00">Mirror</text>
</a>
</g>
</g>
<!-- Node1&#45;&gt;Node3 -->
<g id="edge2" class="edge">
<title>Node1&#45;&gt;Node3</title>
<path fill="none" stroke="#63b8ff" d="M122.91,-21.79C106.17,-18.99 86.48,-15.69 71.71,-13.22"/>
<polygon fill="#63b8ff" stroke="#63b8ff" points="122.43,-25.26 132.87,-23.46 123.59,-18.36 122.43,-25.26"/>
</g>
</g>
</svg>
