<?xml version="1.0" encoding="UTF-8" standalone="no"?>
<!DOCTYPE svg PUBLIC "-//W3C//DTD SVG 1.1//EN"
 "http://www.w3.org/Graphics/SVG/1.1/DTD/svg11.dtd">
<!-- Generated by graphviz version 2.43.0 (0)
 -->
<!-- Title: LostFocusUpdateBindingBehavior Pages: 1 -->
<svg width="212pt" height="93pt"
 viewBox="0.00 0.00 212.00 93.00" xmlns="http://www.w3.org/2000/svg" xmlns:xlink="http://www.w3.org/1999/xlink">
<g id="graph0" class="graph" transform="scale(1 1) rotate(0) translate(4 89)">
<title>LostFocusUpdateBindingBehavior</title>
<!-- Node1 -->
<g id="node1" class="node">
<title>Node1</title>
<g id="a_node1"><a xlink:title=" ">
<polygon fill="#999999" stroke="#666666" points="201,-19 21,-19 21,0 201,0 201,-19"/>
<text text-anchor="middle" x="111" y="-7" font-family="Helvetica,sans-Serif" font-size="10.00">LostFocusUpdateBindingBehavior</text>
</a>
</g>
</g>
<!-- Node2 -->
<g id="node2" class="node">
<title>Node2</title>
<g id="a_node2"><a xlink:title=" ">
<polygon fill="white" stroke="#666666" points="122,-85 0,-85 0,-66 122,-66 122,-85"/>
<text text-anchor="middle" x="61" y="-73" font-family="Helvetica,sans-Serif" font-size="10.00">Behavior&lt; TextBox &gt;</text>
</a>
</g>
</g>
<!-- Node2&#45;&gt;Node1 -->
<g id="edge1" class="edge">
<title>Node2&#45;&gt;Node1</title>
<path fill="none" stroke="#63b8ff" d="M74.07,-57.77C83.66,-45.49 96.31,-29.3 104.04,-19.41"/>
<polygon fill="#63b8ff" stroke="#63b8ff" points="71.14,-55.83 67.74,-65.87 76.66,-60.14 71.14,-55.83"/>
</g>
<!-- Node3 -->
<g id="node3" class="node">
<title>Node3</title>
<g id="a_node3"><a xlink:title=" ">
<polygon fill="white" stroke="#666666" points="184,-85 140,-85 140,-66 184,-66 184,-85"/>
<text text-anchor="middle" x="162" y="-73" font-family="Helvetica,sans-Serif" font-size="10.00">static</text>
</a>
</g>
</g>
<!-- Node3&#45;&gt;Node1 -->
<g id="edge2" class="edge">
<title>Node3&#45;&gt;Node1</title>
<path fill="none" stroke="#9a32cd" stroke-dasharray="5,2" d="M148.67,-57.77C138.88,-45.49 125.98,-29.3 118.1,-19.41"/>
<polygon fill="#9a32cd" stroke="#9a32cd" points="146.15,-60.23 155.12,-65.87 151.63,-55.87 146.15,-60.23"/>
<text text-anchor="middle" x="171.5" y="-40" font-family="Helvetica,sans-Serif" font-size="10.00" fill="grey"> TextProperty</text>
</g>
</g>
</svg>
