<?xml version="1.0" encoding="UTF-8" standalone="no"?>
<!DOCTYPE svg PUBLIC "-//W3C//DTD SVG 1.1//EN"
 "http://www.w3.org/Graphics/SVG/1.1/DTD/svg11.dtd">
<!-- Generated by graphviz version 2.43.0 (0)
 -->
<!-- Title: GetUniformLocation Pages: 1 -->
<svg width="616pt" height="249pt"
 viewBox="0.00 0.00 616.00 249.00" xmlns="http://www.w3.org/2000/svg" xmlns:xlink="http://www.w3.org/1999/xlink">
<g id="graph0" class="graph" transform="scale(1 1) rotate(0) translate(4 245)">
<title>GetUniformLocation</title>
<!-- Node1 -->
<g id="node1" class="node">
<title>Node1</title>
<g id="a_node1"><a xlink:title="Retrieve the uniform id by the given uniform name.">
<polygon fill="#999999" stroke="#666666" points="608,-130 493,-130 493,-111 608,-111 608,-130"/>
<text text-anchor="middle" x="550.5" y="-118" font-family="Helvetica,sans-Serif" font-size="10.00">GetUniformLocation</text>
</a>
</g>
</g>
<!-- Node2 -->
<g id="node2" class="node">
<title>Node2</title>
<g id="a_node2"><a xlink:href="class_search_a_thing_1_1_open_g_l_1_1_render_1_1_g_l_pipeline.html#adfa13508422ac343d1d7fddcd3e939b8" target="_top" xlink:title="Set bool uniform variable.">
<polygon fill="white" stroke="#666666" points="455.5,-241 401.5,-241 401.5,-222 455.5,-222 455.5,-241"/>
<text text-anchor="middle" x="428.5" y="-229" font-family="Helvetica,sans-Serif" font-size="10.00">SetBool</text>
</a>
</g>
</g>
<!-- Node1&#45;&gt;Node2 -->
<g id="edge1" class="edge">
<title>Node1&#45;&gt;Node2</title>
<path fill="none" stroke="#63b8ff" d="M534.46,-137.65C516.91,-157.17 486.5,-189.46 457,-213.5 453.37,-216.46 449.25,-219.37 445.32,-221.95"/>
<polygon fill="#63b8ff" stroke="#63b8ff" points="537.12,-139.92 541.16,-130.13 531.9,-135.27 537.12,-139.92"/>
</g>
<!-- Node3 -->
<g id="node3" class="node">
<title>Node3</title>
<g id="a_node3"><a xlink:href="class_search_a_thing_1_1_open_g_l_1_1_render_1_1_g_l_pipeline.html#a5a59f34b0a434ff0a798349d4edd6bc6" target="_top" xlink:title="Set float uniform variable.">
<polygon fill="white" stroke="#666666" points="457,-204 400,-204 400,-185 457,-185 457,-204"/>
<text text-anchor="middle" x="428.5" y="-192" font-family="Helvetica,sans-Serif" font-size="10.00">SetFloat</text>
</a>
</g>
</g>
<!-- Node1&#45;&gt;Node3 -->
<g id="edge2" class="edge">
<title>Node1&#45;&gt;Node3</title>
<path fill="none" stroke="#63b8ff" d="M525.3,-135.42C501.41,-150.16 465.59,-172.25 445.19,-184.82"/>
<polygon fill="#63b8ff" stroke="#63b8ff" points="527.14,-138.4 533.81,-130.17 523.46,-132.44 527.14,-138.4"/>
</g>
<!-- Node7 -->
<g id="node7" class="node">
<title>Node7</title>
<g id="a_node7"><a xlink:href="class_search_a_thing_1_1_open_g_l_1_1_render_1_1_g_l_pipeline.html#ae385fa40242c870118ec75699bc53482" target="_top" xlink:title="Set int uniform variable.">
<polygon fill="white" stroke="#666666" points="451,-167 406,-167 406,-148 451,-148 451,-167"/>
<text text-anchor="middle" x="428.5" y="-155" font-family="Helvetica,sans-Serif" font-size="10.00">SetInt</text>
</a>
</g>
</g>
<!-- Node1&#45;&gt;Node7 -->
<g id="edge6" class="edge">
<title>Node1&#45;&gt;Node7</title>
<path fill="none" stroke="#63b8ff" d="M508.83,-133.04C489.53,-138.99 467.24,-145.86 451.21,-150.8"/>
<polygon fill="#63b8ff" stroke="#63b8ff" points="510.07,-136.32 518.6,-130.03 508.01,-129.63 510.07,-136.32"/>
</g>
<!-- Node8 -->
<g id="node8" class="node">
<title>Node8</title>
<g id="a_node8"><a xlink:href="class_search_a_thing_1_1_open_g_l_1_1_render_1_1_g_l_pipeline.html#a3b0f4752492455375acd961e2dbbccde" target="_top" xlink:title="Set Matrix4x4 uniform variable.">
<polygon fill="white" stroke="#666666" points="457,-130 400,-130 400,-111 457,-111 457,-130"/>
<text text-anchor="middle" x="428.5" y="-118" font-family="Helvetica,sans-Serif" font-size="10.00">SetMat4</text>
</a>
</g>
</g>
<!-- Node1&#45;&gt;Node8 -->
<g id="edge8" class="edge">
<title>Node1&#45;&gt;Node8</title>
<path fill="none" stroke="#63b8ff" d="M482.53,-120.5C473.59,-120.5 464.87,-120.5 457.16,-120.5"/>
<polygon fill="#63b8ff" stroke="#63b8ff" points="482.66,-124 492.66,-120.5 482.66,-117 482.66,-124"/>
</g>
<!-- Node9 -->
<g id="node9" class="node">
<title>Node9</title>
<g id="a_node9"><a xlink:href="class_search_a_thing_1_1_open_g_l_1_1_render_1_1_g_l_pipeline.html#a8502e973fb35ab23fea09977dc23c4ab" target="_top" xlink:title="Set Vector2 uniform variable.">
<polygon fill="white" stroke="#666666" points="456.5,-93 400.5,-93 400.5,-74 456.5,-74 456.5,-93"/>
<text text-anchor="middle" x="428.5" y="-81" font-family="Helvetica,sans-Serif" font-size="10.00">SetVec2</text>
</a>
</g>
</g>
<!-- Node1&#45;&gt;Node9 -->
<g id="edge10" class="edge">
<title>Node1&#45;&gt;Node9</title>
<path fill="none" stroke="#63b8ff" d="M508.79,-107.95C491.59,-102.64 472.02,-96.61 456.62,-91.86"/>
<polygon fill="#63b8ff" stroke="#63b8ff" points="508.01,-111.37 518.6,-110.97 510.07,-104.68 508.01,-111.37"/>
</g>
<!-- Node10 -->
<g id="node10" class="node">
<title>Node10</title>
<g id="a_node10"><a xlink:href="class_search_a_thing_1_1_open_g_l_1_1_render_1_1_g_l_pipeline.html#afb440e1fc212f10787d5b7dfc63a1d92" target="_top" xlink:title="Set Vector3 uniform variable.">
<polygon fill="white" stroke="#666666" points="456.5,-56 400.5,-56 400.5,-37 456.5,-37 456.5,-56"/>
<text text-anchor="middle" x="428.5" y="-44" font-family="Helvetica,sans-Serif" font-size="10.00">SetVec3</text>
</a>
</g>
</g>
<!-- Node1&#45;&gt;Node10 -->
<g id="edge11" class="edge">
<title>Node1&#45;&gt;Node10</title>
<path fill="none" stroke="#63b8ff" d="M525.3,-105.58C501.41,-90.84 465.59,-68.75 445.19,-56.18"/>
<polygon fill="#63b8ff" stroke="#63b8ff" points="523.46,-108.56 533.81,-110.83 527.14,-102.6 523.46,-108.56"/>
</g>
<!-- Node11 -->
<g id="node11" class="node">
<title>Node11</title>
<g id="a_node11"><a xlink:href="class_search_a_thing_1_1_open_g_l_1_1_render_1_1_g_l_pipeline.html#a14eaeb7c685c6d8a03aa923fec7f3341" target="_top" xlink:title="Set Vector4 uniform variable.">
<polygon fill="white" stroke="#666666" points="456.5,-19 400.5,-19 400.5,0 456.5,0 456.5,-19"/>
<text text-anchor="middle" x="428.5" y="-7" font-family="Helvetica,sans-Serif" font-size="10.00">SetVec4</text>
</a>
</g>
</g>
<!-- Node1&#45;&gt;Node11 -->
<g id="edge12" class="edge">
<title>Node1&#45;&gt;Node11</title>
<path fill="none" stroke="#63b8ff" d="M534.04,-103.38C516.31,-84.18 485.95,-52.57 457,-28.5 453.07,-25.24 448.6,-21.97 444.41,-19.09"/>
<polygon fill="#63b8ff" stroke="#63b8ff" points="531.49,-105.78 540.82,-110.79 536.65,-101.05 531.49,-105.78"/>
</g>
<!-- Node4 -->
<g id="node4" class="node">
<title>Node4</title>
<g id="a_node4"><a xlink:href="class_search_a_thing_1_1_open_g_l_1_1_render_1_1_g_l_control.html#a3e2efcd721af8aba50e8e1736db54b77" target="_top" xlink:title="Main gl render process.">
<polygon fill="white" stroke="#666666" points="364,-172.5 200,-172.5 200,-142.5 364,-142.5 364,-172.5"/>
<text text-anchor="start" x="208" y="-160.5" font-family="Helvetica,sans-Serif" font-size="10.00">SearchAThing.OpenGL.Render.</text>
<text text-anchor="middle" x="282" y="-149.5" font-family="Helvetica,sans-Serif" font-size="10.00">GLControl.Render</text>
</a>
</g>
</g>
<!-- Node3&#45;&gt;Node4 -->
<g id="edge3" class="edge">
<title>Node3&#45;&gt;Node4</title>
<path fill="none" stroke="#63b8ff" d="M390.23,-184.96C375.49,-181.18 358.18,-176.75 341.83,-172.56"/>
<polygon fill="#63b8ff" stroke="#63b8ff" points="389.42,-188.36 399.98,-187.45 391.16,-181.58 389.42,-188.36"/>
</g>
<!-- Node5 -->
<g id="node5" class="node">
<title>Node5</title>
<g id="a_node5"><a xlink:href="class_search_a_thing_1_1_open_g_l_1_1_render_1_1_g_l_control.html#abc7ba7c829d73293844b8d0b84dcf2f5" target="_top" xlink:title="Capture an image of current control using offscreen render device and actual rendere device size.">
<polygon fill="white" stroke="#666666" points="164,-196.5 0,-196.5 0,-166.5 164,-166.5 164,-196.5"/>
<text text-anchor="start" x="8" y="-184.5" font-family="Helvetica,sans-Serif" font-size="10.00">SearchAThing.OpenGL.Render.</text>
<text text-anchor="middle" x="82" y="-173.5" font-family="Helvetica,sans-Serif" font-size="10.00">GLControl.CaptureImage</text>
</a>
</g>
</g>
<!-- Node4&#45;&gt;Node5 -->
<g id="edge4" class="edge">
<title>Node4&#45;&gt;Node5</title>
<path fill="none" stroke="#63b8ff" d="M189.92,-168.54C181.37,-169.58 172.75,-170.62 164.3,-171.65"/>
<polygon fill="#63b8ff" stroke="#63b8ff" points="190.39,-172.01 199.89,-167.33 189.55,-165.06 190.39,-172.01"/>
</g>
<!-- Node6 -->
<g id="node6" class="node">
<title>Node6</title>
<g id="a_node6"><a xlink:href="class_search_a_thing_1_1_open_g_l_1_1_render_1_1_g_l_control.html#a6e1066020a6e35c62b91d19d7414ecab" target="_top" xlink:title="Capture an image of current control using offscreen render device with given render device size.">
<polygon fill="white" stroke="#666666" points="164,-148.5 0,-148.5 0,-118.5 164,-118.5 164,-148.5"/>
<text text-anchor="start" x="8" y="-136.5" font-family="Helvetica,sans-Serif" font-size="10.00">SearchAThing.OpenGL.Render.</text>
<text text-anchor="middle" x="82" y="-125.5" font-family="Helvetica,sans-Serif" font-size="10.00">GLControl.CaptureImage</text>
</a>
</g>
</g>
<!-- Node4&#45;&gt;Node6 -->
<g id="edge5" class="edge">
<title>Node4&#45;&gt;Node6</title>
<path fill="none" stroke="#63b8ff" d="M189.92,-146.46C181.37,-145.42 172.75,-144.38 164.3,-143.35"/>
<polygon fill="#63b8ff" stroke="#63b8ff" points="189.55,-149.94 199.89,-147.67 190.39,-142.99 189.55,-149.94"/>
</g>
<!-- Node7&#45;&gt;Node4 -->
<g id="edge7" class="edge">
<title>Node7&#45;&gt;Node4</title>
<path fill="none" stroke="#63b8ff" d="M395.8,-157.5C386.31,-157.5 375.45,-157.5 364.29,-157.5"/>
<polygon fill="#63b8ff" stroke="#63b8ff" points="395.87,-161 405.87,-157.5 395.87,-154 395.87,-161"/>
</g>
<!-- Node8&#45;&gt;Node4 -->
<g id="edge9" class="edge">
<title>Node8&#45;&gt;Node4</title>
<path fill="none" stroke="#63b8ff" d="M390.23,-130.04C375.49,-133.82 358.18,-138.25 341.83,-142.44"/>
<polygon fill="#63b8ff" stroke="#63b8ff" points="391.16,-133.42 399.98,-127.55 389.42,-126.64 391.16,-133.42"/>
</g>
</g>
</svg>
