<?xml version="1.0" encoding="UTF-8" standalone="no"?>
<!DOCTYPE svg PUBLIC "-//W3C//DTD SVG 1.1//EN"
 "http://www.w3.org/Graphics/SVG/1.1/DTD/svg11.dtd">
<!-- Generated by graphviz version 2.43.0 (0)
 -->
<!-- Title: Render Pages: 1 -->
<svg width="181pt" height="64pt"
 viewBox="0.00 0.00 181.00 64.00" xmlns="http://www.w3.org/2000/svg" xmlns:xlink="http://www.w3.org/1999/xlink">
<g id="graph0" class="graph" transform="scale(1 1) rotate(0) translate(4 60)">
<title>Render</title>
<!-- Node1 -->
<g id="node1" class="node">
<title>Node1</title>
<g id="a_node1"><a xlink:title="Main gl render process.">
<polygon fill="#999999" stroke="#666666" points="173,-37 122,-37 122,-18 173,-18 173,-37"/>
<text text-anchor="middle" x="147.5" y="-25" font-family="Helvetica,sans-Serif" font-size="10.00">Render</text>
</a>
</g>
</g>
<!-- Node2 -->
<g id="node2" class="node">
<title>Node2</title>
<g id="a_node2"><a xlink:href="class_search_a_thing_1_1_open_g_l_1_1_render_1_1_g_l_control.html#abc7ba7c829d73293844b8d0b84dcf2f5" target="_top" xlink:title="Capture an image of current control using offscreen render device and actual rendere device size.">
<polygon fill="white" stroke="#666666" points="86,-56 0,-56 0,-37 86,-37 86,-56"/>
<text text-anchor="middle" x="43" y="-44" font-family="Helvetica,sans-Serif" font-size="10.00">CaptureImage</text>
</a>
</g>
</g>
<!-- Node1&#45;&gt;Node2 -->
<g id="edge1" class="edge">
<title>Node1&#45;&gt;Node2</title>
<path fill="none" stroke="#63b8ff" d="M111.96,-33.9C103.75,-35.42 94.89,-37.07 86.37,-38.65"/>
<polygon fill="#63b8ff" stroke="#63b8ff" points="112.75,-37.32 121.95,-32.05 111.48,-30.43 112.75,-37.32"/>
</g>
<!-- Node3 -->
<g id="node3" class="node">
<title>Node3</title>
<g id="a_node3"><a xlink:href="class_search_a_thing_1_1_open_g_l_1_1_render_1_1_g_l_control.html#a6e1066020a6e35c62b91d19d7414ecab" target="_top" xlink:title="Capture an image of current control using offscreen render device with given render device size.">
<polygon fill="white" stroke="#666666" points="86,-19 0,-19 0,0 86,0 86,-19"/>
<text text-anchor="middle" x="43" y="-7" font-family="Helvetica,sans-Serif" font-size="10.00">CaptureImage</text>
</a>
</g>
</g>
<!-- Node1&#45;&gt;Node3 -->
<g id="edge2" class="edge">
<title>Node1&#45;&gt;Node3</title>
<path fill="none" stroke="#63b8ff" d="M111.96,-21.43C103.75,-19.99 94.89,-18.44 86.37,-16.94"/>
<polygon fill="#63b8ff" stroke="#63b8ff" points="111.49,-24.91 121.95,-23.19 112.7,-18.01 111.49,-24.91"/>
</g>
</g>
</svg>
