<?xml version="1.0" encoding="UTF-8" standalone="no"?>
<!DOCTYPE svg PUBLIC "-//W3C//DTD SVG 1.1//EN"
 "http://www.w3.org/Graphics/SVG/1.1/DTD/svg11.dtd">
<!-- Generated by graphviz version 2.43.0 (0)
 -->
<!-- Title: SetNormal Pages: 1 -->
<svg width="895pt" height="86pt"
 viewBox="0.00 0.00 895.00 86.00" xmlns="http://www.w3.org/2000/svg" xmlns:xlink="http://www.w3.org/1999/xlink">
<g id="graph0" class="graph" transform="scale(1 1) rotate(0) translate(4 82)">
<title>SetNormal</title>
<!-- Node1 -->
<g id="node1" class="node">
<title>Node1</title>
<g id="a_node1"><a xlink:title=" ">
<polygon fill="#999999" stroke="#666666" points="887,-48.5 819,-48.5 819,-29.5 887,-29.5 887,-48.5"/>
<text text-anchor="middle" x="853" y="-36.5" font-family="Helvetica,sans-Serif" font-size="10.00">SetNormal</text>
</a>
</g>
</g>
<!-- Node2 -->
<g id="node2" class="node">
<title>Node2</title>
<g id="a_node2"><a xlink:href="class_search_a_thing_1_1_open_g_l_1_1_core_1_1_g_l_vertex_manager.html#a80a0f1dc40e83819a36c1e43ae4f9ac5" target="_top" xlink:title=" ">
<polygon fill="white" stroke="#666666" points="783,-54 628,-54 628,-24 783,-24 783,-54"/>
<text text-anchor="start" x="636" y="-42" font-family="Helvetica,sans-Serif" font-size="10.00">SearchAThing.OpenGL.Core.</text>
<text text-anchor="middle" x="705.5" y="-31" font-family="Helvetica,sans-Serif" font-size="10.00">GLVertexManager.AddVertex</text>
</a>
</g>
</g>
<!-- Node1&#45;&gt;Node2 -->
<g id="edge1" class="edge">
<title>Node1&#45;&gt;Node2</title>
<path fill="none" stroke="#63b8ff" d="M808.94,-39C800.73,-39 791.9,-39 783,-39"/>
<polygon fill="#63b8ff" stroke="#63b8ff" points="808.98,-42.5 818.98,-39 808.98,-35.5 808.98,-42.5"/>
</g>
<!-- Node3 -->
<g id="node3" class="node">
<title>Node3</title>
<g id="a_node3"><a xlink:href="class_search_a_thing_1_1_open_g_l_1_1_core_1_1_g_l_vertex_manager.html#a42f143b4256f6d3cc598b9218dd2483f" target="_top" xlink:title=" ">
<polygon fill="white" stroke="#666666" points="592,-54 424,-54 424,-24 592,-24 592,-54"/>
<text text-anchor="start" x="432" y="-42" font-family="Helvetica,sans-Serif" font-size="10.00">SearchAThing.OpenGL.Core.</text>
<text text-anchor="middle" x="508" y="-31" font-family="Helvetica,sans-Serif" font-size="10.00">GLVertexManager.AddPrimitive</text>
</a>
</g>
</g>
<!-- Node2&#45;&gt;Node3 -->
<g id="edge2" class="edge">
<title>Node2&#45;&gt;Node3</title>
<path fill="none" stroke="#63b8ff" d="M617.59,-39C609.17,-39 600.65,-39 592.26,-39"/>
<polygon fill="#63b8ff" stroke="#63b8ff" points="617.79,-42.5 627.79,-39 617.79,-35.5 617.79,-42.5"/>
</g>
<!-- Node4 -->
<g id="node4" class="node">
<title>Node4</title>
<g id="a_node4"><a xlink:href="class_search_a_thing_1_1_open_g_l_1_1_core_1_1_g_l_figure_type_base.html#ad529f19fecdcea43428f6d5760e549df" target="_top" xlink:title="Add given primitive to this figure.">
<polygon fill="white" stroke="#666666" points="387,-78 235,-78 235,-48 387,-48 387,-78"/>
<text text-anchor="start" x="243" y="-66" font-family="Helvetica,sans-Serif" font-size="10.00">SearchAThing.OpenGL.Core.</text>
<text text-anchor="middle" x="311" y="-55" font-family="Helvetica,sans-Serif" font-size="10.00">GLFigureTypeBase.Add</text>
</a>
</g>
</g>
<!-- Node3&#45;&gt;Node4 -->
<g id="edge3" class="edge">
<title>Node3&#45;&gt;Node4</title>
<path fill="none" stroke="#63b8ff" d="M413.75,-50.48C404.87,-51.57 395.95,-52.67 387.27,-53.74"/>
<polygon fill="#63b8ff" stroke="#63b8ff" points="414.24,-53.94 423.74,-49.25 413.38,-47 414.24,-53.94"/>
</g>
<!-- Node6 -->
<g id="node6" class="node">
<title>Node6</title>
<g id="a_node6"><a xlink:href="class_search_a_thing_1_1_open_g_l_1_1_core_1_1_g_l_vertex_manager.html#a2bbcedb4cd4febc767698ccea6ee4d9a" target="_top" xlink:title="Adds given figure to the vertex manager. &#160;All vertexes belonging to the figure&#39;s primitives will be a...">
<polygon fill="white" stroke="#666666" points="388,-30 234,-30 234,0 388,0 388,-30"/>
<text text-anchor="start" x="242" y="-18" font-family="Helvetica,sans-Serif" font-size="10.00">SearchAThing.OpenGL.Core.</text>
<text text-anchor="middle" x="311" y="-7" font-family="Helvetica,sans-Serif" font-size="10.00">GLVertexManager.AddFigure</text>
</a>
</g>
</g>
<!-- Node3&#45;&gt;Node6 -->
<g id="edge5" class="edge">
<title>Node3&#45;&gt;Node6</title>
<path fill="none" stroke="#63b8ff" d="M413.73,-27.52C405.17,-26.47 396.57,-25.41 388.19,-24.38"/>
<polygon fill="#63b8ff" stroke="#63b8ff" points="413.38,-31 423.74,-28.75 414.24,-24.06 413.38,-31"/>
</g>
<!-- Node5 -->
<g id="node5" class="node">
<title>Node5</title>
<g id="a_node5"><a xlink:href="class_search_a_thing_1_1_open_g_l_1_1_core_1_1_g_l_figure_type_base.html#a1703c83158a56d8cdcb362ec0208aa8d" target="_top" xlink:title="Create a figure with the set of given primitives all of the same type.">
<polygon fill="white" stroke="#666666" points="198,-78 0,-78 0,-48 198,-48 198,-78"/>
<text text-anchor="start" x="8" y="-66" font-family="Helvetica,sans-Serif" font-size="10.00">SearchAThing.OpenGL.Core.</text>
<text text-anchor="middle" x="99" y="-55" font-family="Helvetica,sans-Serif" font-size="10.00">GLFigureTypeBase.GLFigureTypeBase</text>
</a>
</g>
</g>
<!-- Node4&#45;&gt;Node5 -->
<g id="edge4" class="edge">
<title>Node4&#45;&gt;Node5</title>
<path fill="none" stroke="#63b8ff" d="M224.63,-63C215.9,-63 206.99,-63 198.13,-63"/>
<polygon fill="#63b8ff" stroke="#63b8ff" points="224.78,-66.5 234.78,-63 224.78,-59.5 224.78,-66.5"/>
</g>
</g>
</svg>
