<?xml version="1.0" encoding="UTF-8" standalone="no"?>
<!DOCTYPE svg PUBLIC "-//W3C//DTD SVG 1.1//EN"
 "http://www.w3.org/Graphics/SVG/1.1/DTD/svg11.dtd">
<!-- Generated by graphviz version 2.43.0 (0)
 -->
<!-- Title: Invalidate Pages: 1 -->
<svg width="380pt" height="599pt"
 viewBox="0.00 0.00 380.00 598.72" xmlns="http://www.w3.org/2000/svg" xmlns:xlink="http://www.w3.org/1999/xlink">
<g id="graph0" class="graph" transform="scale(1 1) rotate(0) translate(4 594.72)">
<title>Invalidate</title>
<!-- Node1 -->
<g id="node1" class="node">
<title>Node1</title>
<g id="a_node1"><a xlink:title="Regenerate the model with GLModel.BuildModel if this is the first invalidation or the invalidate argu...">
<polygon fill="#999999" stroke="#666666" points="372,-292.72 307,-292.72 307,-273.72 372,-273.72 372,-292.72"/>
<text text-anchor="middle" x="339.5" y="-280.72" font-family="Helvetica,sans-Serif" font-size="10.00">Invalidate</text>
</a>
</g>
</g>
<!-- Node2 -->
<g id="node2" class="node">
<title>Node2</title>
<g id="a_node2"><a xlink:href="class_search_a_thing_1_1_open_g_l_1_1_render_1_1_g_l_control.html#a4393fa83b725fcac29a5bc6ab5832ac5" target="_top" xlink:title="Rotate the camera [view] a given rotation center [local]. ( not yet tested )">
<polygon fill="white" stroke="#666666" points="249.5,-572.72 162.5,-572.72 162.5,-553.72 249.5,-553.72 249.5,-572.72"/>
<text text-anchor="middle" x="206" y="-560.72" font-family="Helvetica,sans-Serif" font-size="10.00">CameraRotate</text>
</a>
</g>
</g>
<!-- Node1&#45;&gt;Node2 -->
<g id="edge1" class="edge">
<title>Node1&#45;&gt;Node2</title>
<path fill="none" stroke="#63b8ff" d="M335.91,-303.09C328.38,-357.83 304.91,-509.08 271,-544.22 265.2,-550.22 257.61,-554.35 249.68,-557.19"/>
<polygon fill="#63b8ff" stroke="#63b8ff" points="339.41,-303.33 337.27,-292.95 332.47,-302.4 339.41,-303.33"/>
</g>
<!-- Node3 -->
<g id="node3" class="node">
<title>Node3</title>
<g id="a_node3"><a xlink:href="class_search_a_thing_1_1_open_g_l_1_1_render_1_1_g_l_control.html#a609ac6af33cb1c1fc525aff164df9543" target="_top" xlink:title="Set the view using given cube view type.">
<polygon fill="white" stroke="#666666" points="92,-330.72 13,-330.72 13,-311.72 92,-311.72 92,-330.72"/>
<text text-anchor="middle" x="52.5" y="-318.72" font-family="Helvetica,sans-Serif" font-size="10.00">CameraView</text>
</a>
</g>
</g>
<!-- Node1&#45;&gt;Node3 -->
<g id="edge2" class="edge">
<title>Node1&#45;&gt;Node3</title>
<path fill="none" stroke="#63b8ff" d="M327.95,-301.79C316.54,-319.79 296.5,-345.96 271,-357.22 201.84,-387.74 109.94,-349.74 71.55,-330.78"/>
<polygon fill="#63b8ff" stroke="#63b8ff" points="331.21,-303.15 333.38,-292.78 325.22,-299.54 331.21,-303.15"/>
</g>
<!-- Node4 -->
<g id="node4" class="node">
<title>Node4</title>
<g id="a_node4"><a xlink:href="class_search_a_thing_1_1_open_g_l_1_1_render_1_1_g_l_control.html#a5e5904b44d1b553f27e0079fe42d5ac7" target="_top" xlink:title="Zoom eye space by given scale factor.">
<polygon fill="white" stroke="#666666" points="247.5,-498.72 164.5,-498.72 164.5,-479.72 247.5,-479.72 247.5,-498.72"/>
<text text-anchor="middle" x="206" y="-486.72" font-family="Helvetica,sans-Serif" font-size="10.00">CameraZoom</text>
</a>
</g>
</g>
<!-- Node1&#45;&gt;Node4 -->
<g id="edge3" class="edge">
<title>Node1&#45;&gt;Node4</title>
<path fill="none" stroke="#63b8ff" d="M337.05,-303.3C333.21,-341.4 319.45,-424.49 271,-470.22 264.51,-476.35 256.13,-480.5 247.59,-483.33"/>
<polygon fill="#63b8ff" stroke="#63b8ff" points="340.57,-303.27 337.95,-293 333.59,-302.66 340.57,-303.27"/>
</g>
<!-- Node5 -->
<g id="node5" class="node">
<title>Node5</title>
<g id="a_node5"><a xlink:href="class_search_a_thing_1_1_open_g_l_1_1_render_1_1_g_l_control.html#a28291bb40e52fa94a0d72eaf84bb6307" target="_top" xlink:title="Restore current view config from given pathfilename.">
<polygon fill="white" stroke="#666666" points="238,-461.72 174,-461.72 174,-442.72 238,-442.72 238,-461.72"/>
<text text-anchor="middle" x="206" y="-449.72" font-family="Helvetica,sans-Serif" font-size="10.00">LoadView</text>
</a>
</g>
</g>
<!-- Node1&#45;&gt;Node5 -->
<g id="edge4" class="edge">
<title>Node1&#45;&gt;Node5</title>
<path fill="none" stroke="#63b8ff" d="M335.1,-302.86C328.52,-334.88 311.01,-398.25 271,-433.22 261.92,-441.15 249.66,-445.78 238.3,-448.47"/>
<polygon fill="#63b8ff" stroke="#63b8ff" points="338.55,-303.42 336.99,-292.94 331.68,-302.11 338.55,-303.42"/>
</g>
<!-- Node6 -->
<g id="node6" class="node">
<title>Node6</title>
<g id="a_node6"><a xlink:href="class_search_a_thing_1_1_open_g_l_1_1_render_1_1_g_l_control.html#aac473598b86094d90e33249499313225" target="_top" xlink:title="Rotate the model by given [eye] x,y angles around given [local] rotation center.">
<polygon fill="white" stroke="#666666" points="245.5,-424.72 166.5,-424.72 166.5,-405.72 245.5,-405.72 245.5,-424.72"/>
<text text-anchor="middle" x="206" y="-412.72" font-family="Helvetica,sans-Serif" font-size="10.00">ModelRotate</text>
</a>
</g>
</g>
<!-- Node1&#45;&gt;Node6 -->
<g id="edge5" class="edge">
<title>Node1&#45;&gt;Node6</title>
<path fill="none" stroke="#63b8ff" d="M331.21,-302.14C321.11,-326.03 300.67,-366.96 271,-391.22 263.38,-397.45 253.97,-402.17 244.73,-405.69"/>
<polygon fill="#63b8ff" stroke="#63b8ff" points="334.5,-303.34 335.02,-292.76 328.02,-300.71 334.5,-303.34"/>
</g>
<!-- Node7 -->
<g id="node7" class="node">
<title>Node7</title>
<g id="a_node7"><a xlink:href="class_search_a_thing_1_1_open_g_l_1_1_render_1_1_g_l_control.html#afc6003d84ce56250451495e4519d569a" target="_top" xlink:title="Pan the view by the given screen translation.">
<polygon fill="white" stroke="#666666" points="223,-535.72 189,-535.72 189,-516.72 223,-516.72 223,-535.72"/>
<text text-anchor="middle" x="206" y="-523.72" font-family="Helvetica,sans-Serif" font-size="10.00">Pan</text>
</a>
</g>
</g>
<!-- Node1&#45;&gt;Node7 -->
<g id="edge6" class="edge">
<title>Node1&#45;&gt;Node7</title>
<path fill="none" stroke="#63b8ff" d="M338.47,-302.98C337.31,-346.26 328.33,-450.13 271,-507.22 258.27,-519.9 237.49,-524.19 223.08,-525.6"/>
<polygon fill="#63b8ff" stroke="#63b8ff" points="341.97,-302.95 338.63,-292.9 334.97,-302.85 341.97,-302.95"/>
</g>
<!-- Node12 -->
<g id="node12" class="node">
<title>Node12</title>
<g id="a_node12"><a xlink:href="class_search_a_thing_1_1_open_g_l_1_1_render_1_1_g_l_control.html#a46550daf1e758d55af170aaf35181ab6" target="_top" xlink:title="Tilt camera [view] by rotating it&#39;s up vector around [view] z axis.">
<polygon fill="white" stroke="#666666" points="222,-348.72 190,-348.72 190,-329.72 222,-329.72 222,-348.72"/>
<text text-anchor="middle" x="206" y="-336.72" font-family="Helvetica,sans-Serif" font-size="10.00">Tilt</text>
</a>
</g>
</g>
<!-- Node1&#45;&gt;Node12 -->
<g id="edge11" class="edge">
<title>Node1&#45;&gt;Node12</title>
<path fill="none" stroke="#63b8ff" d="M314.23,-298.17C301.64,-305.49 285.84,-314.03 271,-320.22 254.74,-327 235.23,-332.43 222.05,-335.72"/>
<polygon fill="#63b8ff" stroke="#63b8ff" points="316.34,-300.98 323.15,-292.87 312.76,-294.96 316.34,-300.98"/>
</g>
<!-- Node13 -->
<g id="node13" class="node">
<title>Node13</title>
<g id="a_node13"><a xlink:href="class_search_a_thing_1_1_open_g_l_1_1_render_1_1_g_l_control.html#a856e4e130210a03cd970f7a57d28f99f" target="_top" xlink:title="Toggle display of camera frustum object ( generated at runtime through a temporary vertex manager ).">
<polygon fill="white" stroke="#666666" points="265,-311.72 147,-311.72 147,-292.72 265,-292.72 265,-311.72"/>
<text text-anchor="middle" x="206" y="-299.72" font-family="Helvetica,sans-Serif" font-size="10.00">ToggleCameraObject</text>
</a>
</g>
</g>
<!-- Node1&#45;&gt;Node13 -->
<g id="edge12" class="edge">
<title>Node1&#45;&gt;Node13</title>
<path fill="none" stroke="#63b8ff" d="M296.56,-289.28C286.52,-290.73 275.63,-292.3 265,-293.84"/>
<polygon fill="#63b8ff" stroke="#63b8ff" points="297.27,-292.71 306.67,-287.82 296.27,-285.79 297.27,-292.71"/>
</g>
<!-- Node14 -->
<g id="node14" class="node">
<title>Node14</title>
<g id="a_node14"><a xlink:href="class_search_a_thing_1_1_open_g_l_1_1_render_1_1_g_l_control.html#a809dcd2f46e1da7c985e0ba750f5c389" target="_top" xlink:title="Toggle perspective mode.">
<polygon fill="white" stroke="#666666" points="105,-182.72 0,-182.72 0,-163.72 105,-163.72 105,-182.72"/>
<text text-anchor="middle" x="52.5" y="-170.72" font-family="Helvetica,sans-Serif" font-size="10.00">TogglePerspective</text>
</a>
</g>
</g>
<!-- Node1&#45;&gt;Node14 -->
<g id="edge13" class="edge">
<title>Node1&#45;&gt;Node14</title>
<path fill="none" stroke="#63b8ff" d="M336.41,-263.34C330.12,-207.93 309.45,-53.93 271,-24.22 225.28,11.11 191.14,4.48 141,-24.22 86.33,-55.52 62.47,-135.73 55.66,-163.55"/>
<polygon fill="#63b8ff" stroke="#63b8ff" points="332.96,-264.02 337.53,-273.58 339.92,-263.26 332.96,-264.02"/>
</g>
<!-- Node15 -->
<g id="node15" class="node">
<title>Node15</title>
<g id="a_node15"><a xlink:href="class_search_a_thing_1_1_open_g_l_1_1_render_1_1_g_l_control.html#aaf887d3cb7075f3b39074bc09f2af646" target="_top" xlink:title="Toggle shade with edge.">
<polygon fill="white" stroke="#666666" points="268.5,-237.72 143.5,-237.72 143.5,-218.72 268.5,-218.72 268.5,-237.72"/>
<text text-anchor="middle" x="206" y="-225.72" font-family="Helvetica,sans-Serif" font-size="10.00">ToggleShadeWithEdge</text>
</a>
</g>
</g>
<!-- Node1&#45;&gt;Node15 -->
<g id="edge14" class="edge">
<title>Node1&#45;&gt;Node15</title>
<path fill="none" stroke="#63b8ff" d="M314.51,-268.33C301.9,-260.95 285.98,-252.34 271,-246.22 263.2,-243.03 254.64,-240.2 246.4,-237.78"/>
<polygon fill="#63b8ff" stroke="#63b8ff" points="313.06,-271.54 323.44,-273.66 316.65,-265.53 313.06,-271.54"/>
</g>
<!-- Node16 -->
<g id="node16" class="node">
<title>Node16</title>
<g id="a_node16"><a xlink:href="class_search_a_thing_1_1_open_g_l_1_1_render_1_1_g_l_control.html#a76c43e4f8ae0b22ca87fbe6ab37c3c23" target="_top" xlink:title="Toggle display of model bounding box ( generated at runtime through a temporary vertex manager ).">
<polygon fill="white" stroke="#666666" points="271,-200.72 141,-200.72 141,-181.72 271,-181.72 271,-200.72"/>
<text text-anchor="middle" x="206" y="-188.72" font-family="Helvetica,sans-Serif" font-size="10.00">ToggleShowModelBBox</text>
</a>
</g>
</g>
<!-- Node1&#45;&gt;Node16 -->
<g id="edge15" class="edge">
<title>Node1&#45;&gt;Node16</title>
<path fill="none" stroke="#63b8ff" d="M326.63,-265.26C314.56,-248.38 294.35,-223.62 271,-209.22 265.5,-205.83 259.34,-203.06 253.08,-200.8"/>
<polygon fill="#63b8ff" stroke="#63b8ff" points="323.9,-267.47 332.46,-273.71 329.66,-263.49 323.9,-267.47"/>
</g>
<!-- Node17 -->
<g id="node17" class="node">
<title>Node17</title>
<g id="a_node17"><a xlink:href="class_search_a_thing_1_1_open_g_l_1_1_render_1_1_g_l_control.html#a2a71dcd049526738239381c0d2ce9345" target="_top" xlink:title="Toggle show normals.">
<polygon fill="white" stroke="#666666" points="264,-163.72 148,-163.72 148,-144.72 264,-144.72 264,-163.72"/>
<text text-anchor="middle" x="206" y="-151.72" font-family="Helvetica,sans-Serif" font-size="10.00">ToggleShowNormals</text>
</a>
</g>
</g>
<!-- Node1&#45;&gt;Node17 -->
<g id="edge16" class="edge">
<title>Node1&#45;&gt;Node17</title>
<path fill="none" stroke="#63b8ff" d="M331.95,-264.08C322.44,-239.19 302.44,-196.08 271,-172.22 266.5,-168.8 261.37,-166.03 256.03,-163.79"/>
<polygon fill="#63b8ff" stroke="#63b8ff" points="328.67,-265.32 335.38,-273.52 335.25,-262.93 328.67,-265.32"/>
</g>
<!-- Node18 -->
<g id="node18" class="node">
<title>Node18</title>
<g id="a_node18"><a xlink:href="class_search_a_thing_1_1_open_g_l_1_1_render_1_1_g_l_control.html#a1a983cc95609136123b361f3ed2ebe96" target="_top" xlink:title="Toggle shadows generation.">
<polygon fill="white" stroke="#666666" points="258.5,-126.72 153.5,-126.72 153.5,-107.72 258.5,-107.72 258.5,-126.72"/>
<text text-anchor="middle" x="206" y="-114.72" font-family="Helvetica,sans-Serif" font-size="10.00">ToggleUseShadow</text>
</a>
</g>
</g>
<!-- Node1&#45;&gt;Node18 -->
<g id="edge17" class="edge">
<title>Node1&#45;&gt;Node18</title>
<path fill="none" stroke="#63b8ff" d="M335.07,-263.77C328.46,-232.08 310.9,-169.41 271,-135.22 267.06,-131.84 262.52,-129.09 257.72,-126.86"/>
<polygon fill="#63b8ff" stroke="#63b8ff" points="331.64,-264.44 336.97,-273.59 338.51,-263.11 331.64,-264.44"/>
</g>
<!-- Node19 -->
<g id="node19" class="node">
<title>Node19</title>
<g id="a_node19"><a xlink:href="class_search_a_thing_1_1_open_g_l_1_1_render_1_1_g_l_control.html#a2ceddd0bec1b455a5fe13ba85af6df19" target="_top" xlink:title="Toggle use of textures.">
<polygon fill="white" stroke="#666666" points="257.5,-89.72 154.5,-89.72 154.5,-70.72 257.5,-70.72 257.5,-89.72"/>
<text text-anchor="middle" x="206" y="-77.72" font-family="Helvetica,sans-Serif" font-size="10.00">ToggleUseTexture</text>
</a>
</g>
</g>
<!-- Node1&#45;&gt;Node19 -->
<g id="edge18" class="edge">
<title>Node1&#45;&gt;Node19</title>
<path fill="none" stroke="#63b8ff" d="M337.04,-263.29C333.19,-225.48 319.4,-143.09 271,-98.22 267.11,-94.61 262.55,-91.72 257.68,-89.4"/>
<polygon fill="#63b8ff" stroke="#63b8ff" points="333.58,-263.85 337.95,-273.5 340.55,-263.24 333.58,-263.85"/>
</g>
<!-- Node20 -->
<g id="node20" class="node">
<title>Node20</title>
<g id="a_node20"><a xlink:href="class_search_a_thing_1_1_open_g_l_1_1_render_1_1_g_l_control.html#a0b013ae153047446187737c929853f36" target="_top" xlink:title="Toggle wireframe mode.">
<polygon fill="white" stroke="#666666" points="256,-52.72 156,-52.72 156,-33.72 256,-33.72 256,-52.72"/>
<text text-anchor="middle" x="206" y="-40.72" font-family="Helvetica,sans-Serif" font-size="10.00">ToggleWireframe</text>
</a>
</g>
</g>
<!-- Node1&#45;&gt;Node20 -->
<g id="edge19" class="edge">
<title>Node1&#45;&gt;Node20</title>
<path fill="none" stroke="#63b8ff" d="M338.47,-263.57C337.31,-220.55 328.33,-117.36 271,-61.22 266.79,-57.1 261.72,-53.91 256.3,-51.44"/>
<polygon fill="#63b8ff" stroke="#63b8ff" points="334.97,-263.65 338.63,-273.59 341.97,-263.54 334.97,-263.65"/>
</g>
<!-- Node21 -->
<g id="node21" class="node">
<title>Node21</title>
<g id="a_node21"><a xlink:href="class_search_a_thing_1_1_open_g_l_1_1_render_1_1_g_l_control.html#a3647f3040be99a06b6a07bfeed13ad92" target="_top" xlink:title="Fit gl model into the view.">
<polygon fill="white" stroke="#666666" points="234.5,-274.72 177.5,-274.72 177.5,-255.72 234.5,-255.72 234.5,-274.72"/>
<text text-anchor="middle" x="206" y="-262.72" font-family="Helvetica,sans-Serif" font-size="10.00">ZoomFit</text>
</a>
</g>
</g>
<!-- Node1&#45;&gt;Node21 -->
<g id="edge20" class="edge">
<title>Node1&#45;&gt;Node21</title>
<path fill="none" stroke="#63b8ff" d="M296.72,-277.5C276.39,-274.72 252.54,-271.45 234.53,-268.99"/>
<polygon fill="#63b8ff" stroke="#63b8ff" points="296.29,-280.97 306.67,-278.86 297.23,-274.04 296.29,-280.97"/>
</g>
<!-- Node8 -->
<g id="node8" class="node">
<title>Node8</title>
<g id="a_node8"><a xlink:href="class_search_a_thing_1_1_open_g_l_1_1_render_1_1_g_l_control.html#acd591f4d52216f736d05a37967dfbb76" target="_top" xlink:title="Pan the view down of a little factor.">
<polygon fill="white" stroke="#666666" points="83.5,-516.72 21.5,-516.72 21.5,-497.72 83.5,-497.72 83.5,-516.72"/>
<text text-anchor="middle" x="52.5" y="-504.72" font-family="Helvetica,sans-Serif" font-size="10.00">PanDown</text>
</a>
</g>
</g>
<!-- Node7&#45;&gt;Node8 -->
<g id="edge7" class="edge">
<title>Node7&#45;&gt;Node8</title>
<path fill="none" stroke="#63b8ff" d="M178.73,-522.93C152.26,-519.6 111.44,-514.49 83.66,-511"/>
<polygon fill="#63b8ff" stroke="#63b8ff" points="178.43,-526.41 188.79,-524.19 179.3,-519.47 178.43,-526.41"/>
</g>
<!-- Node9 -->
<g id="node9" class="node">
<title>Node9</title>
<g id="a_node9"><a xlink:href="class_search_a_thing_1_1_open_g_l_1_1_render_1_1_g_l_control.html#ac0149d9ec4eefdc825a466e47f0cdb07" target="_top" xlink:title="Pan the view left of a little factor.">
<polygon fill="white" stroke="#666666" points="78.5,-479.72 26.5,-479.72 26.5,-460.72 78.5,-460.72 78.5,-479.72"/>
<text text-anchor="middle" x="52.5" y="-467.72" font-family="Helvetica,sans-Serif" font-size="10.00">PanLeft</text>
</a>
</g>
</g>
<!-- Node7&#45;&gt;Node9 -->
<g id="edge8" class="edge">
<title>Node7&#45;&gt;Node9</title>
<path fill="none" stroke="#63b8ff" d="M179.21,-519.81C167.38,-516.56 153.29,-512.23 141,-507.22 124.25,-500.39 121.59,-495.45 105,-488.22 96.58,-484.55 87.14,-481.08 78.67,-478.18"/>
<polygon fill="#63b8ff" stroke="#63b8ff" points="178.36,-523.21 188.92,-522.39 180.15,-516.44 178.36,-523.21"/>
</g>
<!-- Node10 -->
<g id="node10" class="node">
<title>Node10</title>
<g id="a_node10"><a xlink:href="class_search_a_thing_1_1_open_g_l_1_1_render_1_1_g_l_control.html#a21c11768939dccbc75ef58be240cc90b" target="_top" xlink:title="Pan the view right of a little factor.">
<polygon fill="white" stroke="#666666" points="82,-590.72 23,-590.72 23,-571.72 82,-571.72 82,-590.72"/>
<text text-anchor="middle" x="52.5" y="-578.72" font-family="Helvetica,sans-Serif" font-size="10.00">PanRight</text>
</a>
</g>
</g>
<!-- Node7&#45;&gt;Node10 -->
<g id="edge9" class="edge">
<title>Node7&#45;&gt;Node10</title>
<path fill="none" stroke="#63b8ff" d="M179.2,-532.15C167.36,-535.2 153.27,-539.32 141,-544.22 124.2,-550.93 121.59,-555.99 105,-563.22 97.71,-566.4 89.65,-569.43 82.13,-572.07"/>
<polygon fill="#63b8ff" stroke="#63b8ff" points="180.04,-535.54 188.91,-529.75 178.36,-528.75 180.04,-535.54"/>
</g>
<!-- Node11 -->
<g id="node11" class="node">
<title>Node11</title>
<g id="a_node11"><a xlink:href="class_search_a_thing_1_1_open_g_l_1_1_render_1_1_g_l_control.html#adbc9327929edf6458b41fb0849c41650" target="_top" xlink:title="Pan the view up of a little factor.">
<polygon fill="white" stroke="#666666" points="76,-553.72 29,-553.72 29,-534.72 76,-534.72 76,-553.72"/>
<text text-anchor="middle" x="52.5" y="-541.72" font-family="Helvetica,sans-Serif" font-size="10.00">PanUp</text>
</a>
</g>
</g>
<!-- Node7&#45;&gt;Node11 -->
<g id="edge10" class="edge">
<title>Node7&#45;&gt;Node11</title>
<path fill="none" stroke="#63b8ff" d="M178.59,-529.36C149.63,-532.8 103.63,-538.26 76.22,-541.52"/>
<polygon fill="#63b8ff" stroke="#63b8ff" points="179.27,-532.8 188.79,-528.15 178.44,-525.85 179.27,-532.8"/>
</g>
<!-- Node21&#45;&gt;Node3 -->
<g id="edge21" class="edge">
<title>Node21&#45;&gt;Node3</title>
<path fill="none" stroke="#63b8ff" d="M167.66,-274.8C158.85,-277.32 149.53,-280.18 141,-283.22 117.28,-291.66 90.88,-303.47 73.35,-311.68"/>
<polygon fill="#63b8ff" stroke="#63b8ff" points="168.63,-278.16 177.34,-272.12 166.76,-271.42 168.63,-278.16"/>
</g>
<!-- Node21&#45;&gt;Node14 -->
<g id="edge22" class="edge">
<title>Node21&#45;&gt;Node14</title>
<path fill="none" stroke="#63b8ff" d="M167.41,-256.83C158.47,-254.09 149.16,-250.6 141,-246.22 108.92,-229.03 77.75,-198.84 62.76,-183.21"/>
<polygon fill="#63b8ff" stroke="#63b8ff" points="166.69,-260.26 177.26,-259.61 168.58,-253.52 166.69,-260.26"/>
</g>
</g>
</svg>
