<?xml version="1.0" encoding="UTF-8" standalone="no"?>
<!DOCTYPE svg PUBLIC "-//W3C//DTD SVG 1.1//EN"
 "http://www.w3.org/Graphics/SVG/1.1/DTD/svg11.dtd">
<!-- Generated by graphviz version 2.43.0 (0)
 -->
<!-- Title: MakeInstance Pages: 1 -->
<svg width="381pt" height="172pt"
 viewBox="0.00 0.00 381.00 171.50" xmlns="http://www.w3.org/2000/svg" xmlns:xlink="http://www.w3.org/1999/xlink">
<g id="graph0" class="graph" transform="scale(1 1) rotate(0) translate(4 167.5)">
<title>MakeInstance</title>
<!-- Node1 -->
<g id="node1" class="node">
<title>Node1</title>
<g id="a_node1"><a xlink:title=" ">
<polygon fill="#999999" stroke="#666666" points="373,-96.5 289,-96.5 289,-77.5 373,-77.5 373,-96.5"/>
<text text-anchor="middle" x="331" y="-84.5" font-family="Helvetica,sans-Serif" font-size="10.00">MakeInstance</text>
</a>
</g>
</g>
<!-- Node2 -->
<g id="node2" class="node">
<title>Node2</title>
<g id="a_node2"><a xlink:href="class_search_a_thing_1_1_open_g_l_1_1_core_1_1_g_l_primitive_base.html#ad7b22f699d2d0b40652c5cf60be8445b" target="_top" xlink:title="Creates a copy with all elements down the hierarchy until GLPrimitiveBase included.">
<polygon fill="white" stroke="#666666" points="253,-96.5 188,-96.5 188,-77.5 253,-77.5 253,-96.5"/>
<text text-anchor="middle" x="220.5" y="-84.5" font-family="Helvetica,sans-Serif" font-size="10.00">CopyBase</text>
</a>
</g>
</g>
<!-- Node1&#45;&gt;Node2 -->
<g id="edge1" class="edge">
<title>Node1&#45;&gt;Node2</title>
<path fill="none" stroke="#63b8ff" d="M278.8,-87C270.03,-87 261.16,-87 253.1,-87"/>
<polygon fill="#63b8ff" stroke="#63b8ff" points="278.98,-90.5 288.98,-87 278.98,-83.5 278.98,-90.5"/>
</g>
<!-- Node3 -->
<g id="node3" class="node">
<title>Node3</title>
<g id="a_node3"><a xlink:href="class_search_a_thing_1_1_open_g_l_1_1_core_1_1_g_l_primitive_base.html#ab455657ff8fe6ab2ad42f00cac28404c" target="_top" xlink:title="Create a copy of this gl vertex manager object copying all relevant data except the ParentVertexManag...">
<polygon fill="white" stroke="#666666" points="96.5,-163.5 55.5,-163.5 55.5,-144.5 96.5,-144.5 96.5,-163.5"/>
<text text-anchor="middle" x="76" y="-151.5" font-family="Helvetica,sans-Serif" font-size="10.00">Copy</text>
</a>
</g>
</g>
<!-- Node2&#45;&gt;Node3 -->
<g id="edge2" class="edge">
<title>Node2&#45;&gt;Node3</title>
<path fill="none" stroke="#63b8ff" d="M201.12,-102.93C188.17,-113.41 169.99,-126.68 152,-135 134.2,-143.23 112.31,-148.25 96.78,-151.05"/>
<polygon fill="#63b8ff" stroke="#63b8ff" points="203.38,-105.61 208.83,-96.52 198.9,-100.22 203.38,-105.61"/>
</g>
<!-- Node4 -->
<g id="node4" class="node">
<title>Node4</title>
<g id="a_node4"><a xlink:href="class_search_a_thing_1_1_open_g_l_1_1_core_1_1_g_l_line.html#ac32ce99edf2f5e2f77d9cf0922bb7c4e" target="_top" xlink:title="Create a mirrored primitive against given xy plane.">
<polygon fill="white" stroke="#666666" points="152,-126 0,-126 0,-96 152,-96 152,-126"/>
<text text-anchor="start" x="8" y="-114" font-family="Helvetica,sans-Serif" font-size="10.00">SearchAThing.OpenGL.Core.</text>
<text text-anchor="middle" x="76" y="-103" font-family="Helvetica,sans-Serif" font-size="10.00">GLLine.Mirror</text>
</a>
</g>
</g>
<!-- Node2&#45;&gt;Node4 -->
<g id="edge3" class="edge">
<title>Node2&#45;&gt;Node4</title>
<path fill="none" stroke="#63b8ff" d="M177.96,-94C169.84,-95.36 161.09,-96.84 152.26,-98.32"/>
<polygon fill="#63b8ff" stroke="#63b8ff" points="178.59,-97.44 187.87,-92.33 177.43,-90.54 178.59,-97.44"/>
</g>
<!-- Node5 -->
<g id="node5" class="node">
<title>Node5</title>
<g id="a_node5"><a xlink:href="class_search_a_thing_1_1_open_g_l_1_1_core_1_1_g_l_point.html#ac32ce99edf2f5e2f77d9cf0922bb7c4e" target="_top" xlink:title="Create a mirrored primitive against given xy plane.">
<polygon fill="white" stroke="#666666" points="152,-78 0,-78 0,-48 152,-48 152,-78"/>
<text text-anchor="start" x="8" y="-66" font-family="Helvetica,sans-Serif" font-size="10.00">SearchAThing.OpenGL.Core.</text>
<text text-anchor="middle" x="76" y="-55" font-family="Helvetica,sans-Serif" font-size="10.00">GLPoint.Mirror</text>
</a>
</g>
</g>
<!-- Node2&#45;&gt;Node5 -->
<g id="edge4" class="edge">
<title>Node2&#45;&gt;Node5</title>
<path fill="none" stroke="#63b8ff" d="M177.96,-80C169.84,-78.64 161.09,-77.16 152.26,-75.68"/>
<polygon fill="#63b8ff" stroke="#63b8ff" points="177.43,-83.46 187.87,-81.67 178.59,-76.56 177.43,-83.46"/>
</g>
<!-- Node6 -->
<g id="node6" class="node">
<title>Node6</title>
<g id="a_node6"><a xlink:href="class_search_a_thing_1_1_open_g_l_1_1_core_1_1_g_l_triangle.html#ac32ce99edf2f5e2f77d9cf0922bb7c4e" target="_top" xlink:title="Create a mirrored primitive against given xy plane.">
<polygon fill="white" stroke="#666666" points="152,-30 0,-30 0,0 152,0 152,-30"/>
<text text-anchor="start" x="8" y="-18" font-family="Helvetica,sans-Serif" font-size="10.00">SearchAThing.OpenGL.Core.</text>
<text text-anchor="middle" x="76" y="-7" font-family="Helvetica,sans-Serif" font-size="10.00">GLTriangle.Mirror</text>
</a>
</g>
</g>
<!-- Node2&#45;&gt;Node6 -->
<g id="edge5" class="edge">
<title>Node2&#45;&gt;Node6</title>
<path fill="none" stroke="#63b8ff" d="M200.12,-70.76C187.15,-60.54 169.34,-47.68 152,-39 145.4,-35.7 138.24,-32.72 131.06,-30.08"/>
<polygon fill="#63b8ff" stroke="#63b8ff" points="198.27,-73.77 208.25,-77.33 202.67,-68.33 198.27,-73.77"/>
</g>
</g>
</svg>
