<?xml version="1.0" encoding="UTF-8" standalone="no"?>
<!DOCTYPE svg PUBLIC "-//W3C//DTD SVG 1.1//EN"
 "http://www.w3.org/Graphics/SVG/1.1/DTD/svg11.dtd">
<!-- Generated by graphviz version 2.43.0 (0)
 -->
<!-- Title: GLVertex Pages: 1 -->
<svg width="338pt" height="134pt"
 viewBox="0.00 0.00 338.00 134.00" xmlns="http://www.w3.org/2000/svg" xmlns:xlink="http://www.w3.org/1999/xlink">
<g id="graph0" class="graph" transform="scale(1 1) rotate(0) translate(4 130)">
<title>GLVertex</title>
<!-- Node1 -->
<g id="node1" class="node">
<title>Node1</title>
<g id="a_node1"><a xlink:title="Create a gl vertex ( default 0,0,0 ) [object].">
<polygon fill="#999999" stroke="#666666" points="330,-72.5 270,-72.5 270,-53.5 330,-53.5 330,-72.5"/>
<text text-anchor="middle" x="300" y="-60.5" font-family="Helvetica,sans-Serif" font-size="10.00">GLVertex</text>
</a>
</g>
</g>
<!-- Node2 -->
<g id="node2" class="node">
<title>Node2</title>
<g id="a_node2"><a xlink:href="class_search_a_thing_1_1_open_g_l_1_1_core_1_1_g_l_vertex.html#a2e16cf662a2a097070a6a803e4d1fd58" target="_top" xlink:title="Mirror this vertex to the other side of given xy plane.">
<polygon fill="white" stroke="#666666" points="234,-72.5 188,-72.5 188,-53.5 234,-53.5 234,-72.5"/>
<text text-anchor="middle" x="211" y="-60.5" font-family="Helvetica,sans-Serif" font-size="10.00">Mirror</text>
</a>
</g>
</g>
<!-- Node1&#45;&gt;Node2 -->
<g id="edge1" class="edge">
<title>Node1&#45;&gt;Node2</title>
<path fill="none" stroke="#63b8ff" d="M259.26,-63C250.68,-63 241.9,-63 234.27,-63"/>
<polygon fill="#63b8ff" stroke="#63b8ff" points="259.55,-66.5 269.55,-63 259.55,-59.5 259.55,-66.5"/>
</g>
<!-- Node3 -->
<g id="node3" class="node">
<title>Node3</title>
<g id="a_node3"><a xlink:href="class_search_a_thing_1_1_open_g_l_1_1_core_1_1_g_l_line.html#ac32ce99edf2f5e2f77d9cf0922bb7c4e" target="_top" xlink:title="Create a mirrored primitive against given xy plane.">
<polygon fill="white" stroke="#666666" points="152,-126 0,-126 0,-96 152,-96 152,-126"/>
<text text-anchor="start" x="8" y="-114" font-family="Helvetica,sans-Serif" font-size="10.00">SearchAThing.OpenGL.Core.</text>
<text text-anchor="middle" x="76" y="-103" font-family="Helvetica,sans-Serif" font-size="10.00">GLLine.Mirror</text>
</a>
</g>
</g>
<!-- Node2&#45;&gt;Node3 -->
<g id="edge2" class="edge">
<title>Node2&#45;&gt;Node3</title>
<path fill="none" stroke="#63b8ff" d="M178.8,-76.46C170.18,-80.03 160.77,-83.79 152,-87 143.66,-90.06 134.71,-93.11 126.01,-95.96"/>
<polygon fill="#63b8ff" stroke="#63b8ff" points="180.27,-79.64 188.13,-72.55 177.56,-73.19 180.27,-79.64"/>
</g>
<!-- Node4 -->
<g id="node4" class="node">
<title>Node4</title>
<g id="a_node4"><a xlink:href="class_search_a_thing_1_1_open_g_l_1_1_core_1_1_g_l_point.html#ac32ce99edf2f5e2f77d9cf0922bb7c4e" target="_top" xlink:title="Create a mirrored primitive against given xy plane.">
<polygon fill="white" stroke="#666666" points="152,-78 0,-78 0,-48 152,-48 152,-78"/>
<text text-anchor="start" x="8" y="-66" font-family="Helvetica,sans-Serif" font-size="10.00">SearchAThing.OpenGL.Core.</text>
<text text-anchor="middle" x="76" y="-55" font-family="Helvetica,sans-Serif" font-size="10.00">GLPoint.Mirror</text>
</a>
</g>
</g>
<!-- Node2&#45;&gt;Node4 -->
<g id="edge3" class="edge">
<title>Node2&#45;&gt;Node4</title>
<path fill="none" stroke="#63b8ff" d="M177.65,-63C169.81,-63 161.1,-63 152.18,-63"/>
<polygon fill="#63b8ff" stroke="#63b8ff" points="177.74,-66.5 187.74,-63 177.74,-59.5 177.74,-66.5"/>
</g>
<!-- Node5 -->
<g id="node5" class="node">
<title>Node5</title>
<g id="a_node5"><a xlink:href="class_search_a_thing_1_1_open_g_l_1_1_core_1_1_g_l_triangle.html#ac32ce99edf2f5e2f77d9cf0922bb7c4e" target="_top" xlink:title="Create a mirrored primitive against given xy plane.">
<polygon fill="white" stroke="#666666" points="152,-30 0,-30 0,0 152,0 152,-30"/>
<text text-anchor="start" x="8" y="-18" font-family="Helvetica,sans-Serif" font-size="10.00">SearchAThing.OpenGL.Core.</text>
<text text-anchor="middle" x="76" y="-7" font-family="Helvetica,sans-Serif" font-size="10.00">GLTriangle.Mirror</text>
</a>
</g>
</g>
<!-- Node2&#45;&gt;Node5 -->
<g id="edge4" class="edge">
<title>Node2&#45;&gt;Node5</title>
<path fill="none" stroke="#63b8ff" d="M178.8,-49.54C170.18,-45.97 160.77,-42.21 152,-39 143.66,-35.94 134.71,-32.89 126.01,-30.04"/>
<polygon fill="#63b8ff" stroke="#63b8ff" points="177.56,-52.81 188.13,-53.45 180.27,-46.36 177.56,-52.81"/>
</g>
</g>
</svg>
