<?xml version="1.0" encoding="UTF-8" standalone="no"?>
<!DOCTYPE svg PUBLIC "-//W3C//DTD SVG 1.1//EN"
 "http://www.w3.org/Graphics/SVG/1.1/DTD/svg11.dtd">
<!-- Generated by graphviz version 2.43.0 (0)
 -->
<!-- Title: OnPropertyChanged Pages: 1 -->
<svg width="763pt" height="76pt"
 viewBox="0.00 0.00 763.00 75.50" xmlns="http://www.w3.org/2000/svg" xmlns:xlink="http://www.w3.org/1999/xlink">
<g id="graph0" class="graph" transform="scale(1 1) rotate(0) translate(4 71.5)">
<title>OnPropertyChanged</title>
<!-- Node1 -->
<g id="node1" class="node">
<title>Node1</title>
<g id="a_node1"><a xlink:title="invoke this method to forward propertchanged event notification. note: not needed to specify property...">
<polygon fill="#999999" stroke="#666666" points="755,-40 641,-40 641,-21 755,-21 755,-40"/>
<text text-anchor="middle" x="698" y="-28" font-family="Helvetica,sans-Serif" font-size="10.00">OnPropertyChanged</text>
</a>
</g>
</g>
<!-- Node2 -->
<g id="node2" class="node">
<title>Node2</title>
<g id="a_node2"><a xlink:href="class_search_a_thing_1_1_open_g_l_1_1_core_1_1_g_l_vertex_manager.html#a4cace370a2a4e2ed7955207d2190d772" target="_top" xlink:title=" ">
<polygon fill="white" stroke="#666666" points="605,-40 538,-40 538,-21 605,-21 605,-40"/>
<text text-anchor="middle" x="571.5" y="-28" font-family="Helvetica,sans-Serif" font-size="10.00">AddVertex</text>
</a>
</g>
</g>
<!-- Node1&#45;&gt;Node2 -->
<g id="edge1" class="edge">
<title>Node1&#45;&gt;Node2</title>
<path fill="none" stroke="#63b8ff" d="M630.85,-30.5C621.92,-30.5 613.09,-30.5 605.11,-30.5"/>
<polygon fill="#63b8ff" stroke="#63b8ff" points="630.94,-34 640.94,-30.5 630.94,-27 630.94,-34"/>
</g>
<!-- Node3 -->
<g id="node3" class="node">
<title>Node3</title>
<g id="a_node3"><a xlink:href="class_search_a_thing_1_1_open_g_l_1_1_core_1_1_g_l_vertex_manager.html#a42f143b4256f6d3cc598b9218dd2483f" target="_top" xlink:title=" ">
<polygon fill="white" stroke="#666666" points="502,-40 422,-40 422,-21 502,-21 502,-40"/>
<text text-anchor="middle" x="462" y="-28" font-family="Helvetica,sans-Serif" font-size="10.00">AddPrimitive</text>
</a>
</g>
</g>
<!-- Node2&#45;&gt;Node3 -->
<g id="edge2" class="edge">
<title>Node2&#45;&gt;Node3</title>
<path fill="none" stroke="#63b8ff" d="M527.89,-30.5C519.44,-30.5 510.6,-30.5 502.26,-30.5"/>
<polygon fill="#63b8ff" stroke="#63b8ff" points="527.95,-34 537.95,-30.5 527.95,-27 527.95,-34"/>
</g>
<!-- Node4 -->
<g id="node4" class="node">
<title>Node4</title>
<g id="a_node4"><a xlink:href="class_search_a_thing_1_1_open_g_l_1_1_core_1_1_g_l_figure_type_base.html#ad529f19fecdcea43428f6d5760e549df" target="_top" xlink:title="Add given primitive to this figure.">
<polygon fill="white" stroke="#666666" points="386,-67.5 234,-67.5 234,-37.5 386,-37.5 386,-67.5"/>
<text text-anchor="start" x="242" y="-55.5" font-family="Helvetica,sans-Serif" font-size="10.00">SearchAThing.OpenGL.Core.</text>
<text text-anchor="middle" x="310" y="-44.5" font-family="Helvetica,sans-Serif" font-size="10.00">GLFigureTypeBase.Add</text>
</a>
</g>
</g>
<!-- Node3&#45;&gt;Node4 -->
<g id="edge3" class="edge">
<title>Node3&#45;&gt;Node4</title>
<path fill="none" stroke="#63b8ff" d="M411.84,-37.71C403.6,-38.92 394.89,-40.2 386.18,-41.47"/>
<polygon fill="#63b8ff" stroke="#63b8ff" points="412.59,-41.14 421.98,-36.22 411.58,-34.21 412.59,-41.14"/>
</g>
<!-- Node6 -->
<g id="node6" class="node">
<title>Node6</title>
<g id="a_node6"><a xlink:href="class_search_a_thing_1_1_open_g_l_1_1_core_1_1_g_l_vertex_manager.html#a2bbcedb4cd4febc767698ccea6ee4d9a" target="_top" xlink:title="Adds given figure to the vertex manager. &#160;All vertexes belonging to the figure&#39;s primitives will be a...">
<polygon fill="white" stroke="#666666" points="342.5,-19 277.5,-19 277.5,0 342.5,0 342.5,-19"/>
<text text-anchor="middle" x="310" y="-7" font-family="Helvetica,sans-Serif" font-size="10.00">AddFigure</text>
</a>
</g>
</g>
<!-- Node3&#45;&gt;Node6 -->
<g id="edge5" class="edge">
<title>Node3&#45;&gt;Node6</title>
<path fill="none" stroke="#63b8ff" d="M411.83,-23.62C389.12,-20.44 362.81,-16.75 342.76,-13.95"/>
<polygon fill="#63b8ff" stroke="#63b8ff" points="411.59,-27.12 421.98,-25.04 412.56,-20.18 411.59,-27.12"/>
</g>
<!-- Node5 -->
<g id="node5" class="node">
<title>Node5</title>
<g id="a_node5"><a xlink:href="class_search_a_thing_1_1_open_g_l_1_1_core_1_1_g_l_figure_type_base.html#a1703c83158a56d8cdcb362ec0208aa8d" target="_top" xlink:title="Create a figure with the set of given primitives all of the same type.">
<polygon fill="white" stroke="#666666" points="198,-67.5 0,-67.5 0,-37.5 198,-37.5 198,-67.5"/>
<text text-anchor="start" x="8" y="-55.5" font-family="Helvetica,sans-Serif" font-size="10.00">SearchAThing.OpenGL.Core.</text>
<text text-anchor="middle" x="99" y="-44.5" font-family="Helvetica,sans-Serif" font-size="10.00">GLFigureTypeBase.GLFigureTypeBase</text>
</a>
</g>
</g>
<!-- Node4&#45;&gt;Node5 -->
<g id="edge4" class="edge">
<title>Node4&#45;&gt;Node5</title>
<path fill="none" stroke="#63b8ff" d="M223.68,-52.5C215.26,-52.5 206.68,-52.5 198.15,-52.5"/>
<polygon fill="#63b8ff" stroke="#63b8ff" points="223.84,-56 233.84,-52.5 223.84,-49 223.84,-56"/>
</g>
</g>
</svg>
