<?xml version="1.0" encoding="UTF-8" standalone="no"?>
<!DOCTYPE svg PUBLIC "-//W3C//DTD SVG 1.1//EN"
 "http://www.w3.org/Graphics/SVG/1.1/DTD/svg11.dtd">
<!-- Generated by graphviz version 2.43.0 (0)
 -->
<!-- Title: ClearSelection Pages: 1 -->
<svg width="288pt" height="76pt"
 viewBox="0.00 0.00 288.00 75.50" xmlns="http://www.w3.org/2000/svg" xmlns:xlink="http://www.w3.org/1999/xlink">
<g id="graph0" class="graph" transform="scale(1 1) rotate(0) translate(4 71.5)">
<title>ClearSelection</title>
<!-- Node1 -->
<g id="node1" class="node">
<title>Node1</title>
<g id="a_node1"><a xlink:title="Clear current selection ( of figures, primitives ) and cancel select command.">
<polygon fill="#999999" stroke="#666666" points="280,-45.5 193,-45.5 193,-26.5 280,-26.5 280,-45.5"/>
<text text-anchor="middle" x="236.5" y="-33.5" font-family="Helvetica,sans-Serif" font-size="10.00">ClearSelection</text>
</a>
</g>
</g>
<!-- Node2 -->
<g id="node2" class="node">
<title>Node2</title>
<g id="a_node2"><a xlink:href="class_search_a_thing_1_1_open_g_l_1_1_core_1_1_g_l_model.html#aa8624fb66af820e280c7457b6e1c814d" target="_top" xlink:title="Delete selected primitives/figures.">
<polygon fill="white" stroke="#666666" points="124,-67.5 33,-67.5 33,-48.5 124,-48.5 124,-67.5"/>
<text text-anchor="middle" x="78.5" y="-55.5" font-family="Helvetica,sans-Serif" font-size="10.00">DeleteSelected</text>
</a>
</g>
</g>
<!-- Node1&#45;&gt;Node2 -->
<g id="edge1" class="edge">
<title>Node1&#45;&gt;Node2</title>
<path fill="none" stroke="#63b8ff" d="M182.86,-43.42C163.83,-46.11 142.54,-49.11 124.26,-51.69"/>
<polygon fill="#63b8ff" stroke="#63b8ff" points="183.46,-46.87 192.87,-42.01 182.48,-39.94 183.46,-46.87"/>
</g>
<!-- Node3 -->
<g id="node3" class="node">
<title>Node3</title>
<g id="a_node3"><a xlink:href="class_search_a_thing_1_1_open_g_l_1_1_core_1_1_g_l_control.html#a1f9d3b563e9020640d0bc4ed4680e7fe" target="_top" xlink:title="Set the rotation center for model and camera.">
<polygon fill="white" stroke="#666666" points="157,-30 0,-30 0,0 157,0 157,-30"/>
<text text-anchor="start" x="8" y="-18" font-family="Helvetica,sans-Serif" font-size="10.00">SearchAThing.OpenGL.Core.</text>
<text text-anchor="middle" x="78.5" y="-7" font-family="Helvetica,sans-Serif" font-size="10.00">GLControl.SetRotationCenter</text>
</a>
</g>
</g>
<!-- Node1&#45;&gt;Node3 -->
<g id="edge2" class="edge">
<title>Node1&#45;&gt;Node3</title>
<path fill="none" stroke="#63b8ff" d="M182.7,-28.89C174.47,-27.78 165.82,-26.62 157.17,-25.46"/>
<polygon fill="#63b8ff" stroke="#63b8ff" points="182.49,-32.4 192.87,-30.26 183.43,-25.46 182.49,-32.4"/>
</g>
</g>
</svg>
