<?xml version="1.0" encoding="UTF-8" standalone="no"?>
<!DOCTYPE svg PUBLIC "-//W3C//DTD SVG 1.1//EN"
 "http://www.w3.org/Graphics/SVG/1.1/DTD/svg11.dtd">
<!-- Generated by graphviz version 2.43.0 (0)
 -->
<!-- Title: Invalidate Pages: 1 -->
<svg width="690pt" height="763pt"
 viewBox="0.00 0.00 690.00 762.78" xmlns="http://www.w3.org/2000/svg" xmlns:xlink="http://www.w3.org/1999/xlink">
<g id="graph0" class="graph" transform="scale(1 1) rotate(0) translate(4 758.78)">
<title>Invalidate</title>
<!-- Node1 -->
<g id="node1" class="node">
<title>Node1</title>
<g id="a_node1"><a xlink:title="Invalidate the gl model.">
<polygon fill="#999999" stroke="#666666" points="682,-375.28 617,-375.28 617,-356.28 682,-356.28 682,-375.28"/>
<text text-anchor="middle" x="649.5" y="-363.28" font-family="Helvetica,sans-Serif" font-size="10.00">Invalidate</text>
</a>
</g>
</g>
<!-- Node2 -->
<g id="node2" class="node">
<title>Node2</title>
<g id="a_node2"><a xlink:href="class_search_a_thing_1_1_open_g_l_1_1_render_1_1_g_l_control.html#af92032621553c72b62673dbc9bbd43fd" target="_top" xlink:title="Regenerate the model with GLModel.BuildModel if this is the first invalidation or the invalidate argu...">
<polygon fill="white" stroke="#666666" points="581,-380.78 417,-380.78 417,-350.78 581,-350.78 581,-380.78"/>
<text text-anchor="start" x="425" y="-368.78" font-family="Helvetica,sans-Serif" font-size="10.00">SearchAThing.OpenGL.Render.</text>
<text text-anchor="middle" x="499" y="-357.78" font-family="Helvetica,sans-Serif" font-size="10.00">GLControl.Invalidate</text>
</a>
</g>
</g>
<!-- Node1&#45;&gt;Node2 -->
<g id="edge1" class="edge">
<title>Node1&#45;&gt;Node2</title>
<path fill="none" stroke="#63b8ff" d="M606.54,-365.78C598.56,-365.78 589.96,-365.78 581.23,-365.78"/>
<polygon fill="#63b8ff" stroke="#63b8ff" points="606.64,-369.28 616.64,-365.78 606.64,-362.28 606.64,-369.28"/>
</g>
<!-- Node3 -->
<g id="node3" class="node">
<title>Node3</title>
<g id="a_node3"><a xlink:href="class_search_a_thing_1_1_open_g_l_1_1_render_1_1_g_l_control.html#a4393fa83b725fcac29a5bc6ab5832ac5" target="_top" xlink:title="Rotate the camera [view] a given rotation center [local]. ( not yet tested )">
<polygon fill="white" stroke="#666666" points="372.5,-730.78 208.5,-730.78 208.5,-700.78 372.5,-700.78 372.5,-730.78"/>
<text text-anchor="start" x="216.5" y="-718.78" font-family="Helvetica,sans-Serif" font-size="10.00">SearchAThing.OpenGL.Render.</text>
<text text-anchor="middle" x="290.5" y="-707.78" font-family="Helvetica,sans-Serif" font-size="10.00">GLControl.CameraRotate</text>
</a>
</g>
</g>
<!-- Node2&#45;&gt;Node3 -->
<g id="edge2" class="edge">
<title>Node2&#45;&gt;Node3</title>
<path fill="none" stroke="#63b8ff" d="M496.57,-391.4C491.73,-452.75 470.75,-609.15 381,-691.78 377.33,-695.16 373.24,-698.07 368.88,-700.58"/>
<polygon fill="#63b8ff" stroke="#63b8ff" points="500.09,-391.31 497.3,-381.09 493.1,-390.81 500.09,-391.31"/>
</g>
<!-- Node4 -->
<g id="node4" class="node">
<title>Node4</title>
<g id="a_node4"><a xlink:href="class_search_a_thing_1_1_open_g_l_1_1_render_1_1_g_l_control.html#a609ac6af33cb1c1fc525aff164df9543" target="_top" xlink:title="Set the view using given cube view type.">
<polygon fill="white" stroke="#666666" points="164,-425.78 0,-425.78 0,-395.78 164,-395.78 164,-425.78"/>
<text text-anchor="start" x="8" y="-413.78" font-family="Helvetica,sans-Serif" font-size="10.00">SearchAThing.OpenGL.Render.</text>
<text text-anchor="middle" x="82" y="-402.78" font-family="Helvetica,sans-Serif" font-size="10.00">GLControl.CameraView</text>
</a>
</g>
</g>
<!-- Node2&#45;&gt;Node4 -->
<g id="edge3" class="edge">
<title>Node2&#45;&gt;Node4</title>
<path fill="none" stroke="#63b8ff" d="M479.13,-388.57C458.04,-412.08 421.5,-447.29 381,-461.78 305.26,-488.88 278.75,-478.2 200,-461.78 167.03,-454.91 131.96,-438.22 108.91,-425.79"/>
<polygon fill="#63b8ff" stroke="#63b8ff" points="481.98,-390.63 485.93,-380.8 476.71,-386.02 481.98,-390.63"/>
</g>
<!-- Node5 -->
<g id="node5" class="node">
<title>Node5</title>
<g id="a_node5"><a xlink:href="class_search_a_thing_1_1_open_g_l_1_1_render_1_1_g_l_control.html#a5e5904b44d1b553f27e0079fe42d5ac7" target="_top" xlink:title="Zoom eye space by given scale factor.">
<polygon fill="white" stroke="#666666" points="372.5,-634.78 208.5,-634.78 208.5,-604.78 372.5,-604.78 372.5,-634.78"/>
<text text-anchor="start" x="216.5" y="-622.78" font-family="Helvetica,sans-Serif" font-size="10.00">SearchAThing.OpenGL.Render.</text>
<text text-anchor="middle" x="290.5" y="-611.78" font-family="Helvetica,sans-Serif" font-size="10.00">GLControl.CameraZoom</text>
</a>
</g>
</g>
<!-- Node2&#45;&gt;Node5 -->
<g id="edge4" class="edge">
<title>Node2&#45;&gt;Node5</title>
<path fill="none" stroke="#63b8ff" d="M492.5,-390.55C480.69,-437.86 448.3,-541.23 381,-595.78 376.75,-599.22 372.05,-602.18 367.1,-604.71"/>
<polygon fill="#63b8ff" stroke="#63b8ff" points="495.91,-391.36 494.84,-380.82 489.1,-389.72 495.91,-391.36"/>
</g>
<!-- Node6 -->
<g id="node6" class="node">
<title>Node6</title>
<g id="a_node6"><a xlink:href="class_search_a_thing_1_1_open_g_l_1_1_render_1_1_g_l_control.html#a28291bb40e52fa94a0d72eaf84bb6307" target="_top" xlink:title="Restore current view config from given pathfilename.">
<polygon fill="white" stroke="#666666" points="372.5,-586.78 208.5,-586.78 208.5,-556.78 372.5,-556.78 372.5,-586.78"/>
<text text-anchor="start" x="216.5" y="-574.78" font-family="Helvetica,sans-Serif" font-size="10.00">SearchAThing.OpenGL.Render.</text>
<text text-anchor="middle" x="290.5" y="-563.78" font-family="Helvetica,sans-Serif" font-size="10.00">GLControl.LoadView</text>
</a>
</g>
</g>
<!-- Node2&#45;&gt;Node6 -->
<g id="edge5" class="edge">
<title>Node2&#45;&gt;Node6</title>
<path fill="none" stroke="#63b8ff" d="M489.04,-390.32C473.37,-429.7 437.23,-506.72 381,-547.78 376.32,-551.2 371.19,-554.13 365.83,-556.64"/>
<polygon fill="#63b8ff" stroke="#63b8ff" points="492.32,-391.53 492.66,-380.95 485.79,-389.01 492.32,-391.53"/>
</g>
<!-- Node7 -->
<g id="node7" class="node">
<title>Node7</title>
<g id="a_node7"><a xlink:href="class_search_a_thing_1_1_open_g_l_1_1_render_1_1_g_l_control.html#aac473598b86094d90e33249499313225" target="_top" xlink:title="Rotate the model by given [eye] x,y angles around given [local] rotation center.">
<polygon fill="white" stroke="#666666" points="372.5,-538.78 208.5,-538.78 208.5,-508.78 372.5,-508.78 372.5,-538.78"/>
<text text-anchor="start" x="216.5" y="-526.78" font-family="Helvetica,sans-Serif" font-size="10.00">SearchAThing.OpenGL.Render.</text>
<text text-anchor="middle" x="290.5" y="-515.78" font-family="Helvetica,sans-Serif" font-size="10.00">GLControl.ModelRotate</text>
</a>
</g>
</g>
<!-- Node2&#45;&gt;Node7 -->
<g id="edge6" class="edge">
<title>Node2&#45;&gt;Node7</title>
<path fill="none" stroke="#63b8ff" d="M482.65,-389.12C462.56,-417.92 424.73,-466.52 381,-494.78 372.36,-500.37 362.55,-504.96 352.67,-508.71"/>
<polygon fill="#63b8ff" stroke="#63b8ff" points="485.54,-391.09 488.3,-380.86 479.76,-387.14 485.54,-391.09"/>
</g>
<!-- Node8 -->
<g id="node8" class="node">
<title>Node8</title>
<g id="a_node8"><a xlink:href="class_search_a_thing_1_1_open_g_l_1_1_render_1_1_g_l_control.html#afc6003d84ce56250451495e4519d569a" target="_top" xlink:title="Pan the view by the given screen translation.">
<polygon fill="white" stroke="#666666" points="372.5,-682.78 208.5,-682.78 208.5,-652.78 372.5,-652.78 372.5,-682.78"/>
<text text-anchor="start" x="216.5" y="-670.78" font-family="Helvetica,sans-Serif" font-size="10.00">SearchAThing.OpenGL.Render.</text>
<text text-anchor="middle" x="290.5" y="-659.78" font-family="Helvetica,sans-Serif" font-size="10.00">GLControl.Pan</text>
</a>
</g>
</g>
<!-- Node2&#45;&gt;Node8 -->
<g id="edge7" class="edge">
<title>Node2&#45;&gt;Node8</title>
<path fill="none" stroke="#63b8ff" d="M494.84,-390.96C486.62,-445.55 459.46,-575.36 381,-643.78 377.12,-647.16 372.81,-650.08 368.24,-652.58"/>
<polygon fill="#63b8ff" stroke="#63b8ff" points="498.34,-391.19 496.28,-380.8 491.41,-390.21 498.34,-391.19"/>
</g>
<!-- Node13 -->
<g id="node13" class="node">
<title>Node13</title>
<g id="a_node13"><a xlink:href="class_search_a_thing_1_1_open_g_l_1_1_render_1_1_g_l_control.html#a46550daf1e758d55af170aaf35181ab6" target="_top" xlink:title="Tilt camera [view] by rotating it&#39;s up vector around [view] z axis.">
<polygon fill="white" stroke="#666666" points="372.5,-452.78 208.5,-452.78 208.5,-422.78 372.5,-422.78 372.5,-452.78"/>
<text text-anchor="start" x="216.5" y="-440.78" font-family="Helvetica,sans-Serif" font-size="10.00">SearchAThing.OpenGL.Render.</text>
<text text-anchor="middle" x="290.5" y="-429.78" font-family="Helvetica,sans-Serif" font-size="10.00">GLControl.Tilt</text>
</a>
</g>
</g>
<!-- Node2&#45;&gt;Node13 -->
<g id="edge12" class="edge">
<title>Node2&#45;&gt;Node13</title>
<path fill="none" stroke="#63b8ff" d="M455.27,-384.84C433.33,-394.24 406.01,-405.34 381,-413.78 371.7,-416.92 361.75,-419.93 351.99,-422.68"/>
<polygon fill="#63b8ff" stroke="#63b8ff" points="456.85,-387.97 464.64,-380.8 454.07,-381.55 456.85,-387.97"/>
</g>
<!-- Node14 -->
<g id="node14" class="node">
<title>Node14</title>
<g id="a_node14"><a xlink:href="class_search_a_thing_1_1_open_g_l_1_1_render_1_1_g_l_control.html#a856e4e130210a03cd970f7a57d28f99f" target="_top" xlink:title="Toggle display of camera frustum object ( generated at runtime through a temporary vertex manager ).">
<polygon fill="white" stroke="#666666" points="375,-404.78 206,-404.78 206,-374.78 375,-374.78 375,-404.78"/>
<text text-anchor="start" x="214" y="-392.78" font-family="Helvetica,sans-Serif" font-size="10.00">SearchAThing.OpenGL.Render.</text>
<text text-anchor="middle" x="290.5" y="-381.78" font-family="Helvetica,sans-Serif" font-size="10.00">GLControl.ToggleCameraObject</text>
</a>
</g>
</g>
<!-- Node2&#45;&gt;Node14 -->
<g id="edge13" class="edge">
<title>Node2&#45;&gt;Node14</title>
<path fill="none" stroke="#63b8ff" d="M406.88,-376.37C396.28,-377.6 385.5,-378.86 375.01,-380.08"/>
<polygon fill="#63b8ff" stroke="#63b8ff" points="407.45,-379.83 416.98,-375.2 406.64,-372.87 407.45,-379.83"/>
</g>
<!-- Node15 -->
<g id="node15" class="node">
<title>Node15</title>
<g id="a_node15"><a xlink:href="class_search_a_thing_1_1_open_g_l_1_1_render_1_1_g_l_control.html#a809dcd2f46e1da7c985e0ba750f5c389" target="_top" xlink:title="Toggle perspective mode.">
<polygon fill="white" stroke="#666666" points="164,-166.78 0,-166.78 0,-136.78 164,-136.78 164,-166.78"/>
<text text-anchor="start" x="8" y="-154.78" font-family="Helvetica,sans-Serif" font-size="10.00">SearchAThing.OpenGL.Render.</text>
<text text-anchor="middle" x="82" y="-143.78" font-family="Helvetica,sans-Serif" font-size="10.00">GLControl.TogglePerspective</text>
</a>
</g>
</g>
<!-- Node2&#45;&gt;Node15 -->
<g id="edge14" class="edge">
<title>Node2&#45;&gt;Node15</title>
<path fill="none" stroke="#63b8ff" d="M498.22,-340.4C497.23,-275.48 484.52,-103.35 381,-29.78 315.43,16.82 273.99,1.78 200,-29.78 148.44,-51.77 108.69,-108.86 91.83,-136.43"/>
<polygon fill="#63b8ff" stroke="#63b8ff" points="494.72,-340.57 498.29,-350.55 501.72,-340.52 494.72,-340.57"/>
</g>
<!-- Node16 -->
<g id="node16" class="node">
<title>Node16</title>
<g id="a_node16"><a xlink:href="class_search_a_thing_1_1_open_g_l_1_1_render_1_1_g_l_control.html#aaf887d3cb7075f3b39074bc09f2af646" target="_top" xlink:title="Toggle shade with edge.">
<polygon fill="white" stroke="#666666" points="378.5,-308.78 202.5,-308.78 202.5,-278.78 378.5,-278.78 378.5,-308.78"/>
<text text-anchor="start" x="210.5" y="-296.78" font-family="Helvetica,sans-Serif" font-size="10.00">SearchAThing.OpenGL.Render.</text>
<text text-anchor="middle" x="290.5" y="-285.78" font-family="Helvetica,sans-Serif" font-size="10.00">GLControl.ToggleShadeWithEdge</text>
</a>
</g>
</g>
<!-- Node2&#45;&gt;Node16 -->
<g id="edge15" class="edge">
<title>Node2&#45;&gt;Node16</title>
<path fill="none" stroke="#63b8ff" d="M455.27,-346.72C433.33,-337.32 406.01,-326.22 381,-317.78 371.7,-314.64 361.75,-311.63 351.99,-308.88"/>
<polygon fill="#63b8ff" stroke="#63b8ff" points="454.07,-350.01 464.64,-350.77 456.85,-343.59 454.07,-350.01"/>
</g>
<!-- Node17 -->
<g id="node17" class="node">
<title>Node17</title>
<g id="a_node17"><a xlink:href="class_search_a_thing_1_1_open_g_l_1_1_render_1_1_g_l_control.html#a76c43e4f8ae0b22ca87fbe6ab37c3c23" target="_top" xlink:title="Toggle display of model bounding box ( generated at runtime through a temporary vertex manager ).">
<polygon fill="white" stroke="#666666" points="381,-260.78 200,-260.78 200,-230.78 381,-230.78 381,-260.78"/>
<text text-anchor="start" x="208" y="-248.78" font-family="Helvetica,sans-Serif" font-size="10.00">SearchAThing.OpenGL.Render.</text>
<text text-anchor="middle" x="290.5" y="-237.78" font-family="Helvetica,sans-Serif" font-size="10.00">GLControl.ToggleShowModelBBox</text>
</a>
</g>
</g>
<!-- Node2&#45;&gt;Node17 -->
<g id="edge16" class="edge">
<title>Node2&#45;&gt;Node17</title>
<path fill="none" stroke="#63b8ff" d="M476.44,-343.19C454.4,-321.37 418.21,-288.9 381,-269.78 374.42,-266.4 367.31,-263.46 360.08,-260.91"/>
<polygon fill="#63b8ff" stroke="#63b8ff" points="474.09,-345.8 483.62,-350.43 479.06,-340.86 474.09,-345.8"/>
</g>
<!-- Node18 -->
<g id="node18" class="node">
<title>Node18</title>
<g id="a_node18"><a xlink:href="class_search_a_thing_1_1_open_g_l_1_1_render_1_1_g_l_control.html#a2a71dcd049526738239381c0d2ce9345" target="_top" xlink:title="Toggle show normals.">
<polygon fill="white" stroke="#666666" points="374,-212.78 207,-212.78 207,-182.78 374,-182.78 374,-212.78"/>
<text text-anchor="start" x="215" y="-200.78" font-family="Helvetica,sans-Serif" font-size="10.00">SearchAThing.OpenGL.Render.</text>
<text text-anchor="middle" x="290.5" y="-189.78" font-family="Helvetica,sans-Serif" font-size="10.00">GLControl.ToggleShowNormals</text>
</a>
</g>
</g>
<!-- Node2&#45;&gt;Node18 -->
<g id="edge17" class="edge">
<title>Node2&#45;&gt;Node18</title>
<path fill="none" stroke="#63b8ff" d="M484.98,-341.73C466.27,-309.49 428.72,-252.72 381,-221.78 375.74,-218.37 370,-215.44 364.05,-212.92"/>
<polygon fill="#63b8ff" stroke="#63b8ff" points="481.99,-343.54 489.96,-350.51 488.07,-340.09 481.99,-343.54"/>
</g>
<!-- Node19 -->
<g id="node19" class="node">
<title>Node19</title>
<g id="a_node19"><a xlink:href="class_search_a_thing_1_1_open_g_l_1_1_render_1_1_g_l_control.html#a1a983cc95609136123b361f3ed2ebe96" target="_top" xlink:title="Toggle shadows generation.">
<polygon fill="white" stroke="#666666" points="372.5,-164.78 208.5,-164.78 208.5,-134.78 372.5,-134.78 372.5,-164.78"/>
<text text-anchor="start" x="216.5" y="-152.78" font-family="Helvetica,sans-Serif" font-size="10.00">SearchAThing.OpenGL.Render.</text>
<text text-anchor="middle" x="290.5" y="-141.78" font-family="Helvetica,sans-Serif" font-size="10.00">GLControl.ToggleUseShadow</text>
</a>
</g>
</g>
<!-- Node2&#45;&gt;Node19 -->
<g id="edge18" class="edge">
<title>Node2&#45;&gt;Node19</title>
<path fill="none" stroke="#63b8ff" d="M489.85,-341.08C474.98,-299.94 439.47,-217.57 381,-173.78 376.36,-170.31 371.26,-167.34 365.92,-164.8"/>
<polygon fill="#63b8ff" stroke="#63b8ff" points="486.58,-342.33 493.19,-350.61 493.18,-340.01 486.58,-342.33"/>
</g>
<!-- Node20 -->
<g id="node20" class="node">
<title>Node20</title>
<g id="a_node20"><a xlink:href="class_search_a_thing_1_1_open_g_l_1_1_render_1_1_g_l_control.html#a2ceddd0bec1b455a5fe13ba85af6df19" target="_top" xlink:title="Toggle use of textures.">
<polygon fill="white" stroke="#666666" points="372.5,-116.78 208.5,-116.78 208.5,-86.78 372.5,-86.78 372.5,-116.78"/>
<text text-anchor="start" x="216.5" y="-104.78" font-family="Helvetica,sans-Serif" font-size="10.00">SearchAThing.OpenGL.Render.</text>
<text text-anchor="middle" x="290.5" y="-93.78" font-family="Helvetica,sans-Serif" font-size="10.00">GLControl.ToggleUseTexture</text>
</a>
</g>
</g>
<!-- Node2&#45;&gt;Node20 -->
<g id="edge19" class="edge">
<title>Node2&#45;&gt;Node20</title>
<path fill="none" stroke="#63b8ff" d="M493,-340.67C481.89,-291.66 450.49,-183.08 381,-125.78 376.9,-122.4 372.38,-119.5 367.6,-117"/>
<polygon fill="#63b8ff" stroke="#63b8ff" points="489.64,-341.68 495.18,-350.71 496.48,-340.2 489.64,-341.68"/>
</g>
<!-- Node21 -->
<g id="node21" class="node">
<title>Node21</title>
<g id="a_node21"><a xlink:href="class_search_a_thing_1_1_open_g_l_1_1_render_1_1_g_l_control.html#a0b013ae153047446187737c929853f36" target="_top" xlink:title="Toggle wireframe mode.">
<polygon fill="white" stroke="#666666" points="372.5,-68.78 208.5,-68.78 208.5,-38.78 372.5,-38.78 372.5,-68.78"/>
<text text-anchor="start" x="216.5" y="-56.78" font-family="Helvetica,sans-Serif" font-size="10.00">SearchAThing.OpenGL.Render.</text>
<text text-anchor="middle" x="290.5" y="-45.78" font-family="Helvetica,sans-Serif" font-size="10.00">GLControl.ToggleWireframe</text>
</a>
</g>
</g>
<!-- Node2&#45;&gt;Node21 -->
<g id="edge20" class="edge">
<title>Node2&#45;&gt;Node21</title>
<path fill="none" stroke="#63b8ff" d="M495.23,-340.46C487.72,-284.4 461.77,-149.12 381,-77.78 377.14,-74.37 372.85,-71.44 368.29,-68.92"/>
<polygon fill="#63b8ff" stroke="#63b8ff" points="491.78,-341.09 496.5,-350.57 498.73,-340.22 491.78,-341.09"/>
</g>
<!-- Node22 -->
<g id="node22" class="node">
<title>Node22</title>
<g id="a_node22"><a xlink:href="class_search_a_thing_1_1_open_g_l_1_1_render_1_1_g_l_control.html#a3647f3040be99a06b6a07bfeed13ad92" target="_top" xlink:title="Fit gl model into the view.">
<polygon fill="white" stroke="#666666" points="372.5,-356.78 208.5,-356.78 208.5,-326.78 372.5,-326.78 372.5,-356.78"/>
<text text-anchor="start" x="216.5" y="-344.78" font-family="Helvetica,sans-Serif" font-size="10.00">SearchAThing.OpenGL.Render.</text>
<text text-anchor="middle" x="290.5" y="-333.78" font-family="Helvetica,sans-Serif" font-size="10.00">GLControl.ZoomFit</text>
</a>
</g>
</g>
<!-- Node2&#45;&gt;Node22 -->
<g id="edge21" class="edge">
<title>Node2&#45;&gt;Node22</title>
<path fill="none" stroke="#63b8ff" d="M406.99,-355.2C395.55,-353.87 383.9,-352.52 372.63,-351.21"/>
<polygon fill="#63b8ff" stroke="#63b8ff" points="406.64,-358.69 416.98,-356.36 407.45,-351.73 406.64,-358.69"/>
</g>
<!-- Node9 -->
<g id="node9" class="node">
<title>Node9</title>
<g id="a_node9"><a xlink:href="class_search_a_thing_1_1_open_g_l_1_1_render_1_1_g_l_control.html#acd591f4d52216f736d05a37967dfbb76" target="_top" xlink:title="Pan the view down of a little factor.">
<polygon fill="white" stroke="#666666" points="164,-658.78 0,-658.78 0,-628.78 164,-628.78 164,-658.78"/>
<text text-anchor="start" x="8" y="-646.78" font-family="Helvetica,sans-Serif" font-size="10.00">SearchAThing.OpenGL.Render.</text>
<text text-anchor="middle" x="82" y="-635.78" font-family="Helvetica,sans-Serif" font-size="10.00">GLControl.PanDown</text>
</a>
</g>
</g>
<!-- Node8&#45;&gt;Node9 -->
<g id="edge8" class="edge">
<title>Node8&#45;&gt;Node9</title>
<path fill="none" stroke="#63b8ff" d="M198.49,-657.2C187.05,-655.87 175.4,-654.52 164.13,-653.21"/>
<polygon fill="#63b8ff" stroke="#63b8ff" points="198.14,-660.69 208.48,-658.36 198.95,-653.73 198.14,-660.69"/>
</g>
<!-- Node10 -->
<g id="node10" class="node">
<title>Node10</title>
<g id="a_node10"><a xlink:href="class_search_a_thing_1_1_open_g_l_1_1_render_1_1_g_l_control.html#ac0149d9ec4eefdc825a466e47f0cdb07" target="_top" xlink:title="Pan the view left of a little factor.">
<polygon fill="white" stroke="#666666" points="164,-610.78 0,-610.78 0,-580.78 164,-580.78 164,-610.78"/>
<text text-anchor="start" x="8" y="-598.78" font-family="Helvetica,sans-Serif" font-size="10.00">SearchAThing.OpenGL.Render.</text>
<text text-anchor="middle" x="82" y="-587.78" font-family="Helvetica,sans-Serif" font-size="10.00">GLControl.PanLeft</text>
</a>
</g>
</g>
<!-- Node8&#45;&gt;Node10 -->
<g id="edge9" class="edge">
<title>Node8&#45;&gt;Node10</title>
<path fill="none" stroke="#63b8ff" d="M213.81,-649.39C209.08,-647.66 204.44,-645.79 200,-643.78 182.48,-635.85 181.41,-627.94 164,-619.78 156.96,-616.48 149.36,-613.52 141.74,-610.9"/>
<polygon fill="#63b8ff" stroke="#63b8ff" points="213.03,-652.82 223.62,-652.77 215.3,-646.2 213.03,-652.82"/>
</g>
<!-- Node11 -->
<g id="node11" class="node">
<title>Node11</title>
<g id="a_node11"><a xlink:href="class_search_a_thing_1_1_open_g_l_1_1_render_1_1_g_l_control.html#a21c11768939dccbc75ef58be240cc90b" target="_top" xlink:title="Pan the view right of a little factor.">
<polygon fill="white" stroke="#666666" points="164,-754.78 0,-754.78 0,-724.78 164,-724.78 164,-754.78"/>
<text text-anchor="start" x="8" y="-742.78" font-family="Helvetica,sans-Serif" font-size="10.00">SearchAThing.OpenGL.Render.</text>
<text text-anchor="middle" x="82" y="-731.78" font-family="Helvetica,sans-Serif" font-size="10.00">GLControl.PanRight</text>
</a>
</g>
</g>
<!-- Node8&#45;&gt;Node11 -->
<g id="edge10" class="edge">
<title>Node8&#45;&gt;Node11</title>
<path fill="none" stroke="#63b8ff" d="M213.81,-686.17C209.08,-687.9 204.44,-689.77 200,-691.78 182.48,-699.71 181.41,-707.62 164,-715.78 156.96,-719.08 149.36,-722.04 141.74,-724.66"/>
<polygon fill="#63b8ff" stroke="#63b8ff" points="215.3,-689.36 223.62,-682.79 213.03,-682.74 215.3,-689.36"/>
</g>
<!-- Node12 -->
<g id="node12" class="node">
<title>Node12</title>
<g id="a_node12"><a xlink:href="class_search_a_thing_1_1_open_g_l_1_1_render_1_1_g_l_control.html#adbc9327929edf6458b41fb0849c41650" target="_top" xlink:title="Pan the view up of a little factor.">
<polygon fill="white" stroke="#666666" points="164,-706.78 0,-706.78 0,-676.78 164,-676.78 164,-706.78"/>
<text text-anchor="start" x="8" y="-694.78" font-family="Helvetica,sans-Serif" font-size="10.00">SearchAThing.OpenGL.Render.</text>
<text text-anchor="middle" x="82" y="-683.78" font-family="Helvetica,sans-Serif" font-size="10.00">GLControl.PanUp</text>
</a>
</g>
</g>
<!-- Node8&#45;&gt;Node12 -->
<g id="edge11" class="edge">
<title>Node8&#45;&gt;Node12</title>
<path fill="none" stroke="#63b8ff" d="M198.49,-678.36C187.05,-679.69 175.4,-681.04 164.13,-682.35"/>
<polygon fill="#63b8ff" stroke="#63b8ff" points="198.95,-681.83 208.48,-677.2 198.14,-674.87 198.95,-681.83"/>
</g>
<!-- Node22&#45;&gt;Node4 -->
<g id="edge22" class="edge">
<title>Node22&#45;&gt;Node4</title>
<path fill="none" stroke="#63b8ff" d="M220.06,-359.63C213.26,-361.61 206.48,-363.67 200,-365.78 172.58,-374.7 142.2,-386.44 119.27,-395.7"/>
<polygon fill="#63b8ff" stroke="#63b8ff" points="221.37,-362.89 230.03,-356.79 219.45,-356.16 221.37,-362.89"/>
</g>
<!-- Node22&#45;&gt;Node15 -->
<g id="edge23" class="edge">
<title>Node22&#45;&gt;Node15</title>
<path fill="none" stroke="#63b8ff" d="M206.65,-321.98C204.36,-320.67 202.14,-319.27 200,-317.78 142.47,-277.62 103.68,-199.59 89.26,-166.83"/>
<polygon fill="#63b8ff" stroke="#63b8ff" points="205.28,-325.21 215.78,-326.62 208.45,-318.97 205.28,-325.21"/>
</g>
</g>
</svg>
