<?xml version="1.0" encoding="UTF-8" standalone="no"?>
<!DOCTYPE svg PUBLIC "-//W3C//DTD SVG 1.1//EN"
 "http://www.w3.org/Graphics/SVG/1.1/DTD/svg11.dtd">
<!-- Generated by graphviz version 2.43.0 (0)
 -->
<!-- Title: EyeToWorld Pages: 1 -->
<svg width="511pt" height="177pt"
 viewBox="0.00 0.00 511.00 177.00" xmlns="http://www.w3.org/2000/svg" xmlns:xlink="http://www.w3.org/1999/xlink">
<g id="graph0" class="graph" transform="scale(1 1) rotate(0) translate(4 173)">
<title>EyeToWorld</title>
<!-- Node1 -->
<g id="node1" class="node">
<title>Node1</title>
<g id="a_node1"><a xlink:title="Converts given eye space coord to the corresponding world space coord. &#160;Makes use of the inverse of t...">
<polygon fill="#999999" stroke="#666666" points="503,-95 430,-95 430,-76 503,-76 503,-95"/>
<text text-anchor="middle" x="466.5" y="-83" font-family="Helvetica,sans-Serif" font-size="10.00">EyeToWorld</text>
</a>
</g>
</g>
<!-- Node2 -->
<g id="node2" class="node">
<title>Node2</title>
<g id="a_node2"><a xlink:href="class_search_a_thing_1_1_open_g_l_1_1_core_1_1_toolkit.html#a871817cfbd07ac87181ef5fc87e5b21f" target="_top" xlink:title="Rotate the model by given [eye] x,y angles around given [local] rotation center.">
<polygon fill="white" stroke="#666666" points="382.5,-169 303.5,-169 303.5,-150 382.5,-150 382.5,-169"/>
<text text-anchor="middle" x="343" y="-157" font-family="Helvetica,sans-Serif" font-size="10.00">ModelRotate</text>
</a>
</g>
</g>
<!-- Node1&#45;&gt;Node2 -->
<g id="edge1" class="edge">
<title>Node1&#45;&gt;Node2</title>
<path fill="none" stroke="#63b8ff" d="M447.38,-102.37C433.57,-114.52 413.66,-130.63 394,-141.5 388.19,-144.71 381.69,-147.54 375.35,-149.95"/>
<polygon fill="#63b8ff" stroke="#63b8ff" points="450.03,-104.69 455.12,-95.39 445.35,-99.48 450.03,-104.69"/>
</g>
<!-- Node3 -->
<g id="node3" class="node">
<title>Node3</title>
<g id="a_node3"><a xlink:href="class_search_a_thing_1_1_open_g_l_1_1_core_1_1_toolkit.html#ad9a376fbd100ab9feaf7101e98992043" target="_top" xlink:title="Pan the view ( Orthogonal mode ) by the given screen translation coord generating new camera config.">
<polygon fill="white" stroke="#666666" points="373.5,-132 312.5,-132 312.5,-113 373.5,-113 373.5,-132"/>
<text text-anchor="middle" x="343" y="-120" font-family="Helvetica,sans-Serif" font-size="10.00">OrthoPan</text>
</a>
</g>
</g>
<!-- Node1&#45;&gt;Node3 -->
<g id="edge2" class="edge">
<title>Node1&#45;&gt;Node3</title>
<path fill="none" stroke="#63b8ff" d="M424.18,-98.08C407.54,-103.15 388.73,-108.88 373.51,-113.51"/>
<polygon fill="#63b8ff" stroke="#63b8ff" points="425.66,-101.29 434.21,-95.03 423.62,-94.59 425.66,-101.29"/>
</g>
<!-- Node5 -->
<g id="node5" class="node">
<title>Node5</title>
<g id="a_node5"><a xlink:href="class_search_a_thing_1_1_open_g_l_1_1_core_1_1_toolkit.html#a29118a66237c094ddfd5a935d5470dc5" target="_top" xlink:title="Pan the view ( Perspective mode ) by the given screen translation coord generating new camera config.">
<polygon fill="white" stroke="#666666" points="388.5,-95 297.5,-95 297.5,-76 388.5,-76 388.5,-95"/>
<text text-anchor="middle" x="343" y="-83" font-family="Helvetica,sans-Serif" font-size="10.00">PerspectivePan</text>
</a>
</g>
</g>
<!-- Node1&#45;&gt;Node5 -->
<g id="edge4" class="edge">
<title>Node1&#45;&gt;Node5</title>
<path fill="none" stroke="#63b8ff" d="M419.43,-85.5C409.32,-85.5 398.64,-85.5 388.6,-85.5"/>
<polygon fill="#63b8ff" stroke="#63b8ff" points="419.7,-89 429.7,-85.5 419.7,-82 419.7,-89"/>
</g>
<!-- Node7 -->
<g id="node7" class="node">
<title>Node7</title>
<g id="a_node7"><a xlink:href="class_search_a_thing_1_1_open_g_l_1_1_core_1_1_toolkit.html#aa11500be262e3a1d3ac6911e302b7861" target="_top" xlink:title="Fit current model view for perspective projection.">
<polygon fill="white" stroke="#666666" points="114,-76 0,-76 0,-57 114,-57 114,-76"/>
<text text-anchor="middle" x="57" y="-64" font-family="Helvetica,sans-Serif" font-size="10.00">PerspectiveZoomFit</text>
</a>
</g>
</g>
<!-- Node1&#45;&gt;Node7 -->
<g id="edge8" class="edge">
<title>Node1&#45;&gt;Node7</title>
<path fill="none" stroke="#63b8ff" d="M426.86,-73.27C416.31,-70.48 404.81,-67.91 394,-66.5 296.25,-53.73 181.13,-57.82 114.17,-62.08"/>
<polygon fill="#63b8ff" stroke="#63b8ff" points="426.05,-76.68 436.62,-76 427.93,-69.94 426.05,-76.68"/>
</g>
<!-- Node8 -->
<g id="node8" class="node">
<title>Node8</title>
<g id="a_node8"><a xlink:href="class_search_a_thing_1_1_open_g_l_1_1_core_1_1_toolkit.html#a20cf96faf25b8c9335c595ddb25533bd" target="_top" xlink:title="Zoom the view [eye] ( Perspective mode ) by the given scale factor.">
<polygon fill="white" stroke="#666666" points="394,-19 292,-19 292,0 394,0 394,-19"/>
<text text-anchor="middle" x="343" y="-7" font-family="Helvetica,sans-Serif" font-size="10.00">PerspectiveZoom</text>
</a>
</g>
</g>
<!-- Node1&#45;&gt;Node8 -->
<g id="edge7" class="edge">
<title>Node1&#45;&gt;Node8</title>
<path fill="none" stroke="#63b8ff" d="M445.86,-69.73C431.86,-58.85 412.34,-44.45 394,-33.5 385.24,-28.27 375.16,-23.25 366.36,-19.18"/>
<polygon fill="#63b8ff" stroke="#63b8ff" points="443.79,-72.54 453.81,-75.98 448.12,-67.04 443.79,-72.54"/>
</g>
<!-- Node4 -->
<g id="node4" class="node">
<title>Node4</title>
<g id="a_node4"><a xlink:href="class_search_a_thing_1_1_open_g_l_1_1_core_1_1_toolkit.html#a477f49b72ab0d89c78fc58cae4895f37" target="_top" xlink:title="Fit current model view for orthographic projection.">
<polygon fill="white" stroke="#666666" points="245,-132 161,-132 161,-113 245,-113 245,-132"/>
<text text-anchor="middle" x="203" y="-120" font-family="Helvetica,sans-Serif" font-size="10.00">OrthoZoomFit</text>
</a>
</g>
</g>
<!-- Node3&#45;&gt;Node4 -->
<g id="edge3" class="edge">
<title>Node3&#45;&gt;Node4</title>
<path fill="none" stroke="#63b8ff" d="M302.26,-122.5C284.33,-122.5 263.16,-122.5 245.07,-122.5"/>
<polygon fill="#63b8ff" stroke="#63b8ff" points="302.4,-126 312.4,-122.5 302.4,-119 302.4,-126"/>
</g>
<!-- Node6 -->
<g id="node6" class="node">
<title>Node6</title>
<g id="a_node6"><a xlink:href="class_search_a_thing_1_1_open_g_l_1_1_core_1_1_toolkit.html#aa0108f9e641ec868a0bcf4c83c449366" target="_top" xlink:title="Center the view ( Perspective mode ) by computing camera [world] position and target.">
<polygon fill="white" stroke="#666666" points="256,-95 150,-95 150,-76 256,-76 256,-95"/>
<text text-anchor="middle" x="203" y="-83" font-family="Helvetica,sans-Serif" font-size="10.00">PerspectiveCenter</text>
</a>
</g>
</g>
<!-- Node5&#45;&gt;Node6 -->
<g id="edge5" class="edge">
<title>Node5&#45;&gt;Node6</title>
<path fill="none" stroke="#63b8ff" d="M287.18,-85.5C276.99,-85.5 266.37,-85.5 256.26,-85.5"/>
<polygon fill="#63b8ff" stroke="#63b8ff" points="287.2,-89 297.2,-85.5 287.2,-82 287.2,-89"/>
</g>
<!-- Node6&#45;&gt;Node7 -->
<g id="edge6" class="edge">
<title>Node6&#45;&gt;Node7</title>
<path fill="none" stroke="#63b8ff" d="M139.56,-77.26C131.22,-76.16 122.71,-75.04 114.48,-73.95"/>
<polygon fill="#63b8ff" stroke="#63b8ff" points="139.23,-80.75 149.61,-78.59 140.15,-73.81 139.23,-80.75"/>
</g>
</g>
</svg>
