<?xml version="1.0" encoding="UTF-8" standalone="no"?>
<!DOCTYPE svg PUBLIC "-//W3C//DTD SVG 1.1//EN"
 "http://www.w3.org/Graphics/SVG/1.1/DTD/svg11.dtd">
<!-- Generated by graphviz version 2.43.0 (0)
 -->
<!-- Title: GetUniformLocation Pages: 1 -->
<svg width="404pt" height="249pt"
 viewBox="0.00 0.00 404.00 249.00" xmlns="http://www.w3.org/2000/svg" xmlns:xlink="http://www.w3.org/1999/xlink">
<g id="graph0" class="graph" transform="scale(1 1) rotate(0) translate(4 245)">
<title>GetUniformLocation</title>
<!-- Node1 -->
<g id="node1" class="node">
<title>Node1</title>
<g id="a_node1"><a xlink:title="Retrieve the uniform id by the given uniform name.">
<polygon fill="#999999" stroke="#666666" points="396,-130 281,-130 281,-111 396,-111 396,-130"/>
<text text-anchor="middle" x="338.5" y="-118" font-family="Helvetica,sans-Serif" font-size="10.00">GetUniformLocation</text>
</a>
</g>
</g>
<!-- Node2 -->
<g id="node2" class="node">
<title>Node2</title>
<g id="a_node2"><a xlink:href="class_search_a_thing_1_1_open_g_l_1_1_core_1_1_g_l_pipeline.html#adfa13508422ac343d1d7fddcd3e939b8" target="_top" xlink:title="Set bool uniform variable.">
<polygon fill="white" stroke="#666666" points="243.5,-241 189.5,-241 189.5,-222 243.5,-222 243.5,-241"/>
<text text-anchor="middle" x="216.5" y="-229" font-family="Helvetica,sans-Serif" font-size="10.00">SetBool</text>
</a>
</g>
</g>
<!-- Node1&#45;&gt;Node2 -->
<g id="edge1" class="edge">
<title>Node1&#45;&gt;Node2</title>
<path fill="none" stroke="#63b8ff" d="M322.46,-137.65C304.91,-157.17 274.5,-189.46 245,-213.5 241.37,-216.46 237.25,-219.37 233.32,-221.95"/>
<polygon fill="#63b8ff" stroke="#63b8ff" points="325.12,-139.92 329.16,-130.13 319.9,-135.27 325.12,-139.92"/>
</g>
<!-- Node3 -->
<g id="node3" class="node">
<title>Node3</title>
<g id="a_node3"><a xlink:href="class_search_a_thing_1_1_open_g_l_1_1_core_1_1_g_l_pipeline.html#a5a59f34b0a434ff0a798349d4edd6bc6" target="_top" xlink:title="Set float uniform variable.">
<polygon fill="white" stroke="#666666" points="245,-204 188,-204 188,-185 245,-185 245,-204"/>
<text text-anchor="middle" x="216.5" y="-192" font-family="Helvetica,sans-Serif" font-size="10.00">SetFloat</text>
</a>
</g>
</g>
<!-- Node1&#45;&gt;Node3 -->
<g id="edge2" class="edge">
<title>Node1&#45;&gt;Node3</title>
<path fill="none" stroke="#63b8ff" d="M313.3,-135.42C289.41,-150.16 253.59,-172.25 233.19,-184.82"/>
<polygon fill="#63b8ff" stroke="#63b8ff" points="315.14,-138.4 321.81,-130.17 311.46,-132.44 315.14,-138.4"/>
</g>
<!-- Node5 -->
<g id="node5" class="node">
<title>Node5</title>
<g id="a_node5"><a xlink:href="class_search_a_thing_1_1_open_g_l_1_1_core_1_1_g_l_pipeline.html#ae385fa40242c870118ec75699bc53482" target="_top" xlink:title="Set int uniform variable.">
<polygon fill="white" stroke="#666666" points="239,-167 194,-167 194,-148 239,-148 239,-167"/>
<text text-anchor="middle" x="216.5" y="-155" font-family="Helvetica,sans-Serif" font-size="10.00">SetInt</text>
</a>
</g>
</g>
<!-- Node1&#45;&gt;Node5 -->
<g id="edge4" class="edge">
<title>Node1&#45;&gt;Node5</title>
<path fill="none" stroke="#63b8ff" d="M296.83,-133.04C277.53,-138.99 255.24,-145.86 239.21,-150.8"/>
<polygon fill="#63b8ff" stroke="#63b8ff" points="298.07,-136.32 306.6,-130.03 296.01,-129.63 298.07,-136.32"/>
</g>
<!-- Node6 -->
<g id="node6" class="node">
<title>Node6</title>
<g id="a_node6"><a xlink:href="class_search_a_thing_1_1_open_g_l_1_1_core_1_1_g_l_pipeline.html#a3b0f4752492455375acd961e2dbbccde" target="_top" xlink:title="Set Matrix4x4 uniform variable.">
<polygon fill="white" stroke="#666666" points="245,-130 188,-130 188,-111 245,-111 245,-130"/>
<text text-anchor="middle" x="216.5" y="-118" font-family="Helvetica,sans-Serif" font-size="10.00">SetMat4</text>
</a>
</g>
</g>
<!-- Node1&#45;&gt;Node6 -->
<g id="edge6" class="edge">
<title>Node1&#45;&gt;Node6</title>
<path fill="none" stroke="#63b8ff" d="M270.53,-120.5C261.59,-120.5 252.87,-120.5 245.16,-120.5"/>
<polygon fill="#63b8ff" stroke="#63b8ff" points="270.66,-124 280.66,-120.5 270.66,-117 270.66,-124"/>
</g>
<!-- Node7 -->
<g id="node7" class="node">
<title>Node7</title>
<g id="a_node7"><a xlink:href="class_search_a_thing_1_1_open_g_l_1_1_core_1_1_g_l_pipeline.html#a8502e973fb35ab23fea09977dc23c4ab" target="_top" xlink:title="Set Vector2 uniform variable.">
<polygon fill="white" stroke="#666666" points="244.5,-93 188.5,-93 188.5,-74 244.5,-74 244.5,-93"/>
<text text-anchor="middle" x="216.5" y="-81" font-family="Helvetica,sans-Serif" font-size="10.00">SetVec2</text>
</a>
</g>
</g>
<!-- Node1&#45;&gt;Node7 -->
<g id="edge8" class="edge">
<title>Node1&#45;&gt;Node7</title>
<path fill="none" stroke="#63b8ff" d="M296.79,-107.95C279.59,-102.64 260.02,-96.61 244.62,-91.86"/>
<polygon fill="#63b8ff" stroke="#63b8ff" points="296.01,-111.37 306.6,-110.97 298.07,-104.68 296.01,-111.37"/>
</g>
<!-- Node8 -->
<g id="node8" class="node">
<title>Node8</title>
<g id="a_node8"><a xlink:href="class_search_a_thing_1_1_open_g_l_1_1_core_1_1_g_l_pipeline.html#afb440e1fc212f10787d5b7dfc63a1d92" target="_top" xlink:title="Set Vector3 uniform variable.">
<polygon fill="white" stroke="#666666" points="244.5,-56 188.5,-56 188.5,-37 244.5,-37 244.5,-56"/>
<text text-anchor="middle" x="216.5" y="-44" font-family="Helvetica,sans-Serif" font-size="10.00">SetVec3</text>
</a>
</g>
</g>
<!-- Node1&#45;&gt;Node8 -->
<g id="edge9" class="edge">
<title>Node1&#45;&gt;Node8</title>
<path fill="none" stroke="#63b8ff" d="M313.3,-105.58C289.41,-90.84 253.59,-68.75 233.19,-56.18"/>
<polygon fill="#63b8ff" stroke="#63b8ff" points="311.46,-108.56 321.81,-110.83 315.14,-102.6 311.46,-108.56"/>
</g>
<!-- Node9 -->
<g id="node9" class="node">
<title>Node9</title>
<g id="a_node9"><a xlink:href="class_search_a_thing_1_1_open_g_l_1_1_core_1_1_g_l_pipeline.html#a14eaeb7c685c6d8a03aa923fec7f3341" target="_top" xlink:title="Set Vector4 uniform variable.">
<polygon fill="white" stroke="#666666" points="244.5,-19 188.5,-19 188.5,0 244.5,0 244.5,-19"/>
<text text-anchor="middle" x="216.5" y="-7" font-family="Helvetica,sans-Serif" font-size="10.00">SetVec4</text>
</a>
</g>
</g>
<!-- Node1&#45;&gt;Node9 -->
<g id="edge10" class="edge">
<title>Node1&#45;&gt;Node9</title>
<path fill="none" stroke="#63b8ff" d="M322.04,-103.38C304.31,-84.18 273.95,-52.57 245,-28.5 241.07,-25.24 236.6,-21.97 232.41,-19.09"/>
<polygon fill="#63b8ff" stroke="#63b8ff" points="319.49,-105.78 328.82,-110.79 324.65,-101.05 319.49,-105.78"/>
</g>
<!-- Node4 -->
<g id="node4" class="node">
<title>Node4</title>
<g id="a_node4"><a xlink:href="class_search_a_thing_1_1_open_g_l_1_1_core_1_1_g_l_control.html#a3e2efcd721af8aba50e8e1736db54b77" target="_top" xlink:title="Main gl render process.">
<polygon fill="white" stroke="#666666" points="152,-172.5 0,-172.5 0,-142.5 152,-142.5 152,-172.5"/>
<text text-anchor="start" x="8" y="-160.5" font-family="Helvetica,sans-Serif" font-size="10.00">SearchAThing.OpenGL.Core.</text>
<text text-anchor="middle" x="76" y="-149.5" font-family="Helvetica,sans-Serif" font-size="10.00">GLControl.Render</text>
</a>
</g>
</g>
<!-- Node3&#45;&gt;Node4 -->
<g id="edge3" class="edge">
<title>Node3&#45;&gt;Node4</title>
<path fill="none" stroke="#63b8ff" d="M177.77,-184.42C164.06,-180.76 148.25,-176.53 133.27,-172.53"/>
<polygon fill="#63b8ff" stroke="#63b8ff" points="177.24,-187.9 187.81,-187.1 179.05,-181.14 177.24,-187.9"/>
</g>
<!-- Node5&#45;&gt;Node4 -->
<g id="edge5" class="edge">
<title>Node5&#45;&gt;Node4</title>
<path fill="none" stroke="#63b8ff" d="M183.74,-157.5C174.21,-157.5 163.32,-157.5 152.23,-157.5"/>
<polygon fill="#63b8ff" stroke="#63b8ff" points="183.86,-161 193.86,-157.5 183.86,-154 183.86,-161"/>
</g>
<!-- Node6&#45;&gt;Node4 -->
<g id="edge7" class="edge">
<title>Node6&#45;&gt;Node4</title>
<path fill="none" stroke="#63b8ff" d="M177.77,-130.58C164.06,-134.24 148.25,-138.47 133.27,-142.47"/>
<polygon fill="#63b8ff" stroke="#63b8ff" points="179.05,-133.86 187.81,-127.9 177.24,-127.1 179.05,-133.86"/>
</g>
</g>
</svg>
