<?xml version="1.0" encoding="UTF-8" standalone="no"?>
<!DOCTYPE svg PUBLIC "-//W3C//DTD SVG 1.1//EN"
 "http://www.w3.org/Graphics/SVG/1.1/DTD/svg11.dtd">
<!-- Generated by graphviz version 2.43.0 (0)
 -->
<!-- Title: LocalToScreen Pages: 1 -->
<svg width="514pt" height="83pt"
 viewBox="0.00 0.00 514.00 83.00" xmlns="http://www.w3.org/2000/svg" xmlns:xlink="http://www.w3.org/1999/xlink">
<g id="graph0" class="graph" transform="scale(1 1) rotate(0) translate(4 79)">
<title>LocalToScreen</title>
<!-- Node1 -->
<g id="node1" class="node">
<title>Node1</title>
<g id="a_node1"><a xlink:title="Converts given local space coord to the corresponding screen coord.">
<polygon fill="#999999" stroke="#666666" points="506,-38 420,-38 420,-19 506,-19 506,-38"/>
<text text-anchor="middle" x="463" y="-26" font-family="Helvetica,sans-Serif" font-size="10.00">LocalToScreen</text>
</a>
</g>
</g>
<!-- Node2 -->
<g id="node2" class="node">
<title>Node2</title>
<g id="a_node2"><a xlink:href="class_search_a_thing_1_1_open_g_l_1_1_core_1_1_toolkit.html#a150f72f58dbe549c08e8b0b9105b573c" target="_top" xlink:title="Compute the screen space bounding box (x,y) of all local space coordinates (x,y,z) given.">
<polygon fill="white" stroke="#666666" points="384,-38 292,-38 292,-19 384,-19 384,-38"/>
<text text-anchor="middle" x="338" y="-26" font-family="Helvetica,sans-Serif" font-size="10.00">ComputeSBBox</text>
</a>
</g>
</g>
<!-- Node1&#45;&gt;Node2 -->
<g id="edge1" class="edge">
<title>Node1&#45;&gt;Node2</title>
<path fill="none" stroke="#63b8ff" d="M409.59,-28.5C401.19,-28.5 392.56,-28.5 384.35,-28.5"/>
<polygon fill="#63b8ff" stroke="#63b8ff" points="409.67,-32 419.67,-28.5 409.67,-25 409.67,-32"/>
</g>
<!-- Node3 -->
<g id="node3" class="node">
<title>Node3</title>
<g id="a_node3"><a xlink:href="class_search_a_thing_1_1_open_g_l_1_1_core_1_1_toolkit.html#a477f49b72ab0d89c78fc58cae4895f37" target="_top" xlink:title="Fit current model view for orthographic projection.">
<polygon fill="white" stroke="#666666" points="245,-75 161,-75 161,-56 245,-56 245,-75"/>
<text text-anchor="middle" x="203" y="-63" font-family="Helvetica,sans-Serif" font-size="10.00">OrthoZoomFit</text>
</a>
</g>
</g>
<!-- Node2&#45;&gt;Node3 -->
<g id="edge2" class="edge">
<title>Node2&#45;&gt;Node3</title>
<path fill="none" stroke="#63b8ff" d="M292.69,-40.83C275.08,-45.73 255.12,-51.28 238.6,-55.88"/>
<polygon fill="#63b8ff" stroke="#63b8ff" points="294.05,-44.08 302.75,-38.03 292.18,-37.34 294.05,-44.08"/>
</g>
<!-- Node4 -->
<g id="node4" class="node">
<title>Node4</title>
<g id="a_node4"><a xlink:href="class_search_a_thing_1_1_open_g_l_1_1_core_1_1_toolkit.html#aa0108f9e641ec868a0bcf4c83c449366" target="_top" xlink:title="Center the view ( Perspective mode ) by computing camera [world] position and target.">
<polygon fill="white" stroke="#666666" points="256,-38 150,-38 150,-19 256,-19 256,-38"/>
<text text-anchor="middle" x="203" y="-26" font-family="Helvetica,sans-Serif" font-size="10.00">PerspectiveCenter</text>
</a>
</g>
</g>
<!-- Node2&#45;&gt;Node4 -->
<g id="edge3" class="edge">
<title>Node2&#45;&gt;Node4</title>
<path fill="none" stroke="#63b8ff" d="M281.84,-28.5C273.4,-28.5 264.7,-28.5 256.33,-28.5"/>
<polygon fill="#63b8ff" stroke="#63b8ff" points="281.97,-32 291.97,-28.5 281.97,-25 281.97,-32"/>
</g>
<!-- Node5 -->
<g id="node5" class="node">
<title>Node5</title>
<g id="a_node5"><a xlink:href="class_search_a_thing_1_1_open_g_l_1_1_core_1_1_toolkit.html#aa11500be262e3a1d3ac6911e302b7861" target="_top" xlink:title="Fit current model view for perspective projection.">
<polygon fill="white" stroke="#666666" points="114,-19 0,-19 0,0 114,0 114,-19"/>
<text text-anchor="middle" x="57" y="-7" font-family="Helvetica,sans-Serif" font-size="10.00">PerspectiveZoomFit</text>
</a>
</g>
</g>
<!-- Node2&#45;&gt;Node5 -->
<g id="edge5" class="edge">
<title>Node2&#45;&gt;Node5</title>
<path fill="none" stroke="#63b8ff" d="M291.87,-16.68C280.26,-14.14 267.74,-11.82 256,-10.5 208.35,-5.15 153.83,-5.33 114.09,-6.61"/>
<polygon fill="#63b8ff" stroke="#63b8ff" points="291.26,-20.13 301.79,-18.96 292.83,-13.31 291.26,-20.13"/>
</g>
<!-- Node4&#45;&gt;Node5 -->
<g id="edge4" class="edge">
<title>Node4&#45;&gt;Node5</title>
<path fill="none" stroke="#63b8ff" d="M139.56,-20.26C131.22,-19.16 122.71,-18.04 114.48,-16.95"/>
<polygon fill="#63b8ff" stroke="#63b8ff" points="139.23,-23.75 149.61,-21.59 140.15,-16.81 139.23,-23.75"/>
</g>
</g>
</svg>
