<?xml version="1.0" encoding="UTF-8" standalone="no"?>
<!DOCTYPE svg PUBLIC "-//W3C//DTD SVG 1.1//EN"
 "http://www.w3.org/Graphics/SVG/1.1/DTD/svg11.dtd">
<!-- Generated by graphviz version 2.43.0 (0)
 -->
<!-- Title: GLTextCharFigure Pages: 1 -->
<svg width="427pt" height="261pt"
 viewBox="0.00 0.00 426.50 261.00" xmlns="http://www.w3.org/2000/svg" xmlns:xlink="http://www.w3.org/1999/xlink">
<g id="graph0" class="graph" transform="scale(1 1) rotate(0) translate(4 257)">
<title>GLTextCharFigure</title>
<!-- Node1 -->
<g id="node1" class="node">
<title>Node1</title>
<g id="a_node1"><a xlink:title="Triangles figure with texture mapped to represent a char.">
<polygon fill="#999999" stroke="#666666" points="298,-19 197,-19 197,0 298,0 298,-19"/>
<text text-anchor="middle" x="247.5" y="-7" font-family="Helvetica,sans-Serif" font-size="10.00">GLTextCharFigure</text>
</a>
</g>
</g>
<!-- Node2 -->
<g id="node2" class="node">
<title>Node2</title>
<g id="a_node2"><a xlink:href="class_search_a_thing_1_1_open_g_l_1_1_core_1_1_g_l_triangle_figure.html" target="_top" xlink:title="Specialization of typed figure within the GLTriangle primitive.">
<polygon fill="white" stroke="#666666" points="296,-75 199,-75 199,-56 296,-56 296,-75"/>
<text text-anchor="middle" x="247.5" y="-63" font-family="Helvetica,sans-Serif" font-size="10.00">GLTriangleFigure</text>
</a>
</g>
</g>
<!-- Node2&#45;&gt;Node1 -->
<g id="edge1" class="edge">
<title>Node2&#45;&gt;Node1</title>
<path fill="none" stroke="#63b8ff" d="M247.5,-45.3C247.5,-36.41 247.5,-26.28 247.5,-19.25"/>
<polygon fill="#63b8ff" stroke="#63b8ff" points="244,-45.58 247.5,-55.58 251,-45.58 244,-45.58"/>
</g>
<!-- Node3 -->
<g id="node3" class="node">
<title>Node3</title>
<g id="a_node3"><a xlink:href="class_search_a_thing_1_1_open_g_l_1_1_core_1_1_g_l_figure_type_base.html" target="_top" xlink:title=" ">
<polygon fill="white" stroke="#666666" points="179,-141 0,-141 0,-122 179,-122 179,-141"/>
<text text-anchor="middle" x="89.5" y="-129" font-family="Helvetica,sans-Serif" font-size="10.00">GLFigureTypeBase&lt; GLTriangle &gt;</text>
</a>
</g>
</g>
<!-- Node3&#45;&gt;Node2 -->
<g id="edge2" class="edge">
<title>Node3&#45;&gt;Node2</title>
<path fill="none" stroke="#63b8ff" d="M120.33,-118.01C151.56,-105.36 199.03,-86.13 226.28,-75.1"/>
<polygon fill="#63b8ff" stroke="#63b8ff" points="118.76,-114.87 110.81,-121.87 121.39,-121.36 118.76,-114.87"/>
</g>
<!-- Node4 -->
<g id="node4" class="node">
<title>Node4</title>
<g id="a_node4"><a xlink:href="interface_search_a_thing_1_1_open_g_l_1_1_core_1_1_i_g_l_triangle_figure.html" target="_top" xlink:title="Specialization of IGLFigure for the type GLTriangle.">
<polygon fill="white" stroke="#666666" points="297.5,-141 197.5,-141 197.5,-122 297.5,-122 297.5,-141"/>
<text text-anchor="middle" x="247.5" y="-129" font-family="Helvetica,sans-Serif" font-size="10.00">IGLTriangleFigure</text>
</a>
</g>
</g>
<!-- Node4&#45;&gt;Node2 -->
<g id="edge3" class="edge">
<title>Node4&#45;&gt;Node2</title>
<path fill="none" stroke="#63b8ff" d="M247.5,-111.58C247.5,-99.63 247.5,-84.72 247.5,-75.41"/>
<polygon fill="#63b8ff" stroke="#63b8ff" points="244,-111.87 247.5,-121.87 251,-111.87 244,-111.87"/>
</g>
<!-- Node5 -->
<g id="node5" class="node">
<title>Node5</title>
<g id="a_node5"><a xlink:href="interface_search_a_thing_1_1_open_g_l_1_1_core_1_1_i_g_l_figure.html" target="_top" xlink:title="This is the direct child of a vertex manager. &#160;A figure contains primitives and primitive contains ve...">
<polygon fill="white" stroke="#666666" points="278.5,-197 216.5,-197 216.5,-178 278.5,-178 278.5,-197"/>
<text text-anchor="middle" x="247.5" y="-185" font-family="Helvetica,sans-Serif" font-size="10.00">IGLFigure</text>
</a>
</g>
</g>
<!-- Node5&#45;&gt;Node4 -->
<g id="edge4" class="edge">
<title>Node5&#45;&gt;Node4</title>
<path fill="none" stroke="#63b8ff" d="M247.5,-167.3C247.5,-158.41 247.5,-148.28 247.5,-141.25"/>
<polygon fill="#63b8ff" stroke="#63b8ff" points="244,-167.58 247.5,-177.58 251,-167.58 244,-167.58"/>
</g>
<!-- Node6 -->
<g id="node6" class="node">
<title>Node6</title>
<g id="a_node6"><a xlink:href="interface_search_a_thing_1_1_open_g_l_1_1_core_1_1_i_g_l_vertex_manager_object.html" target="_top" xlink:title="Interface for GL objects such as IGLFigure, IGLPrimitive and IGLVertex. &#160;The purpose is to ensure tha...">
<polygon fill="white" stroke="#666666" points="240,-253 103,-253 103,-234 240,-234 240,-253"/>
<text text-anchor="middle" x="171.5" y="-241" font-family="Helvetica,sans-Serif" font-size="10.00">IGLVertexManagerObject</text>
</a>
</g>
</g>
<!-- Node6&#45;&gt;Node5 -->
<g id="edge5" class="edge">
<title>Node6&#45;&gt;Node5</title>
<path fill="none" stroke="#63b8ff" d="M192.08,-227.88C205.81,-218.12 223.43,-205.61 235.07,-197.33"/>
<polygon fill="#63b8ff" stroke="#63b8ff" points="189.84,-225.18 183.71,-233.82 193.89,-230.88 189.84,-225.18"/>
</g>
<!-- Node7 -->
<g id="node7" class="node">
<title>Node7</title>
<g id="a_node7"><a xlink:title=" ">
<polygon fill="white" stroke="#666666" points="391,-253 258,-253 258,-234 391,-234 391,-253"/>
<text text-anchor="middle" x="324.5" y="-241" font-family="Helvetica,sans-Serif" font-size="10.00">INotifyPropertyChanged</text>
</a>
</g>
</g>
<!-- Node7&#45;&gt;Node5 -->
<g id="edge6" class="edge">
<title>Node7&#45;&gt;Node5</title>
<path fill="none" stroke="#63b8ff" d="M303.6,-227.84C289.59,-218.02 271.62,-205.41 259.84,-197.15"/>
<polygon fill="#63b8ff" stroke="#63b8ff" points="301.93,-230.95 312.13,-233.82 305.95,-225.22 301.93,-230.95"/>
</g>
<!-- Node8 -->
<g id="node8" class="node">
<title>Node8</title>
<g id="a_node8"><a xlink:title=" ">
<polygon fill="white" stroke="#666666" points="359.5,-141 315.5,-141 315.5,-122 359.5,-122 359.5,-141"/>
<text text-anchor="middle" x="337.5" y="-129" font-family="Helvetica,sans-Serif" font-size="10.00">static</text>
</a>
</g>
</g>
<!-- Node8&#45;&gt;Node2 -->
<g id="edge7" class="edge">
<title>Node8&#45;&gt;Node2</title>
<path fill="none" stroke="#9a32cd" stroke-dasharray="5,2" d="M316.88,-115.83C299.22,-103.28 274.4,-85.63 259.73,-75.2"/>
<polygon fill="#9a32cd" stroke="#9a32cd" points="315.18,-118.93 325.36,-121.87 319.24,-113.22 315.18,-118.93"/>
<text text-anchor="middle" x="358.5" y="-96" font-family="Helvetica,sans-Serif" font-size="10.00" fill="grey"> DefaultComputeNormal</text>
</g>
</g>
</svg>
