<?xml version="1.0" encoding="UTF-8" standalone="no"?>
<!DOCTYPE svg PUBLIC "-//W3C//DTD SVG 1.1//EN"
 "http://www.w3.org/Graphics/SVG/1.1/DTD/svg11.dtd">
<!-- Generated by graphviz version 2.43.0 (0)
 -->
<!-- Title: Constants Pages: 1 -->
<svg width="185pt" height="159pt"
 viewBox="0.00 0.00 184.50 159.00" xmlns="http://www.w3.org/2000/svg" xmlns:xlink="http://www.w3.org/1999/xlink">
<g id="graph0" class="graph" transform="scale(1 1) rotate(0) translate(4 155)">
<title>Constants</title>
<!-- Node1 -->
<g id="node1" class="node">
<title>Node1</title>
<g id="a_node1"><a xlink:title=" ">
<polygon fill="#999999" stroke="#666666" points="65,-19 0,-19 0,0 65,0 65,-19"/>
<text text-anchor="middle" x="32.5" y="-7" font-family="Helvetica,sans-Serif" font-size="10.00">Constants</text>
</a>
</g>
</g>
<!-- Node2 -->
<g id="node2" class="node">
<title>Node2</title>
<g id="a_node2"><a xlink:title=" ">
<polygon fill="white" stroke="#666666" points="54.5,-151 10.5,-151 10.5,-132 54.5,-132 54.5,-151"/>
<text text-anchor="middle" x="32.5" y="-139" font-family="Helvetica,sans-Serif" font-size="10.00">static</text>
</a>
</g>
</g>
<!-- Node2&#45;&gt;Node1 -->
<g id="edge1" class="edge">
<title>Node2&#45;&gt;Node1</title>
<path fill="none" stroke="#9a32cd" stroke-dasharray="5,2" d="M32.5,-121.73C32.5,-93.22 32.5,-40.09 32.5,-19.23"/>
<polygon fill="#9a32cd" stroke="#9a32cd" points="29,-121.97 32.5,-131.97 36,-121.97 29,-121.97"/>
<text text-anchor="middle" x="104.5" y="-106" font-family="Helvetica,sans-Serif" font-size="10.00" fill="grey"> DEFAULT_CAMERA_POS</text>
<text text-anchor="middle" x="104.5" y="-95" font-family="Helvetica,sans-Serif" font-size="10.00" fill="grey">DEFAULT_CAMERA_TARGET</text>
<text text-anchor="middle" x="104.5" y="-84" font-family="Helvetica,sans-Serif" font-size="10.00" fill="grey">DEFAULT_CAMERA_UP</text>
<text text-anchor="middle" x="104.5" y="-73" font-family="Helvetica,sans-Serif" font-size="10.00" fill="grey">DEFAULT_CameraObjectColor</text>
<text text-anchor="middle" x="104.5" y="-62" font-family="Helvetica,sans-Serif" font-size="10.00" fill="grey">DEFAULT_ClearColor</text>
<text text-anchor="middle" x="104.5" y="-51" font-family="Helvetica,sans-Serif" font-size="10.00" fill="grey">DEFAULT_LIGHT_COLOR</text>
<text text-anchor="middle" x="104.5" y="-40" font-family="Helvetica,sans-Serif" font-size="10.00" fill="grey">DEFAULT_TextColor</text>
</g>
</g>
</svg>
