<?xml version="1.0" encoding="UTF-8" standalone="no"?>
<!DOCTYPE svg PUBLIC "-//W3C//DTD SVG 1.1//EN"
 "http://www.w3.org/Graphics/SVG/1.1/DTD/svg11.dtd">
<!-- Generated by graphviz version 2.43.0 (0)
 -->
<!-- Title: GLModel Pages: 1 -->
<svg width="262pt" height="82pt"
 viewBox="0.00 0.00 261.50 82.00" xmlns="http://www.w3.org/2000/svg" xmlns:xlink="http://www.w3.org/1999/xlink">
<g id="graph0" class="graph" transform="scale(1 1) rotate(0) translate(4 78)">
<title>GLModel</title>
<!-- Node1 -->
<g id="node1" class="node">
<title>Node1</title>
<g id="a_node1"><a xlink:title="Gl model.">
<polygon fill="#999999" stroke="#666666" points="148.5,-19 89.5,-19 89.5,0 148.5,0 148.5,-19"/>
<text text-anchor="middle" x="119" y="-7" font-family="Helvetica,sans-Serif" font-size="10.00">GLModel</text>
</a>
</g>
</g>
<!-- Node2 -->
<g id="node2" class="node">
<title>Node2</title>
<g id="a_node2"><a xlink:href="interface_search_a_thing_1_1_open_g_l_1_1_render_1_1_i_g_l_context_object.html" target="_top" xlink:title="General inteface for objects that carrier a reference to Gl context.">
<polygon fill="white" stroke="#666666" points="102,-74 0,-74 0,-55 102,-55 102,-74"/>
<text text-anchor="middle" x="51" y="-62" font-family="Helvetica,sans-Serif" font-size="10.00">IGLContextObject</text>
</a>
</g>
</g>
<!-- Node2&#45;&gt;Node1 -->
<g id="edge1" class="edge">
<title>Node2&#45;&gt;Node1</title>
<path fill="none" stroke="#63b8ff" d="M70.12,-48.6C82.3,-39.11 97.66,-27.13 107.88,-19.17"/>
<polygon fill="#63b8ff" stroke="#63b8ff" points="67.66,-46.08 61.93,-54.98 71.96,-51.6 67.66,-46.08"/>
</g>
<!-- Node3 -->
<g id="node3" class="node">
<title>Node3</title>
<g id="a_node3"><a xlink:title=" ">
<polygon fill="white" stroke="#666666" points="253.5,-74 120.5,-74 120.5,-55 253.5,-55 253.5,-74"/>
<text text-anchor="middle" x="187" y="-62" font-family="Helvetica,sans-Serif" font-size="10.00">INotifyPropertyChanged</text>
</a>
</g>
</g>
<!-- Node3&#45;&gt;Node1 -->
<g id="edge2" class="edge">
<title>Node3&#45;&gt;Node1</title>
<path fill="none" stroke="#63b8ff" d="M167.88,-48.6C155.7,-39.11 140.34,-27.13 130.12,-19.17"/>
<polygon fill="#63b8ff" stroke="#63b8ff" points="166.04,-51.6 176.07,-54.98 170.34,-46.08 166.04,-51.6"/>
</g>
</g>
</svg>
