<?xml version="1.0" encoding="UTF-8" standalone="no"?>
<!DOCTYPE svg PUBLIC "-//W3C//DTD SVG 1.1//EN"
 "http://www.w3.org/Graphics/SVG/1.1/DTD/svg11.dtd">
<!-- Generated by graphviz version 2.43.0 (0)
 -->
<!-- Title: AutoCleanup Pages: 1 -->
<svg width="704pt" height="810pt"
 viewBox="0.00 0.00 704.00 810.00" xmlns="http://www.w3.org/2000/svg" xmlns:xlink="http://www.w3.org/1999/xlink">
<g id="graph0" class="graph" transform="scale(1 1) rotate(0) translate(4 806)">
<title>AutoCleanup</title>
<!-- Node1 -->
<g id="node1" class="node">
<title>Node1</title>
<g id="a_node1"><a xlink:title="release disposed resources ( texture, ... ) ; this will be called during GL2DTexture() constructor or...">
<polygon fill="#999999" stroke="#666666" points="696,-590.5 617,-590.5 617,-571.5 696,-571.5 696,-590.5"/>
<text text-anchor="middle" x="656.5" y="-578.5" font-family="Helvetica,sans-Serif" font-size="10.00">AutoCleanup</text>
</a>
</g>
</g>
<!-- Node2 -->
<g id="node2" class="node">
<title>Node2</title>
<g id="a_node2"><a xlink:href="class_search_a_thing_1_1_open_g_l_1_1_render_1_1_g_l_model.html#a3b7cc83d35fd3e50f9d5addf978ce010" target="_top" xlink:title=" ">
<polygon fill="white" stroke="#666666" points="581,-711 417,-711 417,-681 581,-681 581,-711"/>
<text text-anchor="start" x="425" y="-699" font-family="Helvetica,sans-Serif" font-size="10.00">SearchAThing.OpenGL.Render.</text>
<text text-anchor="middle" x="499" y="-688" font-family="Helvetica,sans-Serif" font-size="10.00">GLModel.EnsureModel</text>
</a>
</g>
</g>
<!-- Node1&#45;&gt;Node2 -->
<g id="edge1" class="edge">
<title>Node1&#45;&gt;Node2</title>
<path fill="none" stroke="#63b8ff" d="M634.4,-596.61C604.41,-618.78 549.85,-659.13 520.31,-680.98"/>
<polygon fill="#63b8ff" stroke="#63b8ff" points="636.55,-599.37 642.51,-590.61 632.39,-593.74 636.55,-599.37"/>
</g>
<!-- Node6 -->
<g id="node6" class="node">
<title>Node6</title>
<g id="a_node6"><a xlink:href="class_search_a_thing_1_1_open_g_l_1_1_render_1_1_g_l_texture2_d.html#a7ffe1402446f81977f1de661bfecc505" target="_top" xlink:title="Create gl texture 2d.">
<polygon fill="white" stroke="#666666" points="581,-596 417,-596 417,-566 581,-566 581,-596"/>
<text text-anchor="start" x="425" y="-584" font-family="Helvetica,sans-Serif" font-size="10.00">SearchAThing.OpenGL.Render.</text>
<text text-anchor="middle" x="499" y="-573" font-family="Helvetica,sans-Serif" font-size="10.00">GLTexture2D.GLTexture2D</text>
</a>
</g>
</g>
<!-- Node1&#45;&gt;Node6 -->
<g id="edge5" class="edge">
<title>Node1&#45;&gt;Node6</title>
<path fill="none" stroke="#63b8ff" d="M606.64,-581C598.49,-581 589.85,-581 581.15,-581"/>
<polygon fill="#63b8ff" stroke="#63b8ff" points="606.66,-584.5 616.66,-581 606.66,-577.5 606.66,-584.5"/>
</g>
<!-- Node7 -->
<g id="node7" class="node">
<title>Node7</title>
<g id="a_node7"><a xlink:href="class_search_a_thing_1_1_open_g_l_1_1_render_1_1_g_l_control.html#af92032621553c72b62673dbc9bbd43fd" target="_top" xlink:title="Regenerate the model with GLModel.BuildModel if this is the first invalidation or the invalidate argu...">
<polygon fill="white" stroke="#666666" points="581,-414 417,-414 417,-384 581,-384 581,-414"/>
<text text-anchor="start" x="425" y="-402" font-family="Helvetica,sans-Serif" font-size="10.00">SearchAThing.OpenGL.Render.</text>
<text text-anchor="middle" x="499" y="-391" font-family="Helvetica,sans-Serif" font-size="10.00">GLControl.Invalidate</text>
</a>
</g>
</g>
<!-- Node1&#45;&gt;Node7 -->
<g id="edge6" class="edge">
<title>Node1&#45;&gt;Node7</title>
<path fill="none" stroke="#63b8ff" d="M640.62,-563.58C610.28,-528.07 541.71,-447.82 513.02,-414.23"/>
<polygon fill="#63b8ff" stroke="#63b8ff" points="637.98,-565.89 647.14,-571.21 643.3,-561.34 637.98,-565.89"/>
</g>
<!-- Node3 -->
<g id="node3" class="node">
<title>Node3</title>
<g id="a_node3"><a xlink:href="class_search_a_thing_1_1_open_g_l_1_1_render_1_1_g_l_control.html#a3e2efcd721af8aba50e8e1736db54b77" target="_top" xlink:title="Main gl render process.">
<polygon fill="white" stroke="#666666" points="372.5,-778 208.5,-778 208.5,-748 372.5,-748 372.5,-778"/>
<text text-anchor="start" x="216.5" y="-766" font-family="Helvetica,sans-Serif" font-size="10.00">SearchAThing.OpenGL.Render.</text>
<text text-anchor="middle" x="290.5" y="-755" font-family="Helvetica,sans-Serif" font-size="10.00">GLControl.Render</text>
</a>
</g>
</g>
<!-- Node2&#45;&gt;Node3 -->
<g id="edge2" class="edge">
<title>Node2&#45;&gt;Node3</title>
<path fill="none" stroke="#63b8ff" d="M442.03,-714.19C422.7,-720.47 400.9,-727.54 381,-734 367.02,-738.54 351.8,-743.47 337.95,-747.95"/>
<polygon fill="#63b8ff" stroke="#63b8ff" points="443.17,-717.5 451.6,-711.08 441.01,-710.84 443.17,-717.5"/>
</g>
<!-- Node4 -->
<g id="node4" class="node">
<title>Node4</title>
<g id="a_node4"><a xlink:href="class_search_a_thing_1_1_open_g_l_1_1_render_1_1_g_l_control.html#abc7ba7c829d73293844b8d0b84dcf2f5" target="_top" xlink:title="Capture an image of current control using offscreen render device and actual rendere device size.">
<polygon fill="white" stroke="#666666" points="164,-802 0,-802 0,-772 164,-772 164,-802"/>
<text text-anchor="start" x="8" y="-790" font-family="Helvetica,sans-Serif" font-size="10.00">SearchAThing.OpenGL.Render.</text>
<text text-anchor="middle" x="82" y="-779" font-family="Helvetica,sans-Serif" font-size="10.00">GLControl.CaptureImage</text>
</a>
</g>
</g>
<!-- Node3&#45;&gt;Node4 -->
<g id="edge3" class="edge">
<title>Node3&#45;&gt;Node4</title>
<path fill="none" stroke="#63b8ff" d="M198.49,-773.58C187.05,-774.91 175.4,-776.26 164.13,-777.57"/>
<polygon fill="#63b8ff" stroke="#63b8ff" points="198.95,-777.05 208.48,-772.42 198.14,-770.09 198.95,-777.05"/>
</g>
<!-- Node5 -->
<g id="node5" class="node">
<title>Node5</title>
<g id="a_node5"><a xlink:href="class_search_a_thing_1_1_open_g_l_1_1_render_1_1_g_l_control.html#a6e1066020a6e35c62b91d19d7414ecab" target="_top" xlink:title="Capture an image of current control using offscreen render device with given render device size.">
<polygon fill="white" stroke="#666666" points="164,-754 0,-754 0,-724 164,-724 164,-754"/>
<text text-anchor="start" x="8" y="-742" font-family="Helvetica,sans-Serif" font-size="10.00">SearchAThing.OpenGL.Render.</text>
<text text-anchor="middle" x="82" y="-731" font-family="Helvetica,sans-Serif" font-size="10.00">GLControl.CaptureImage</text>
</a>
</g>
</g>
<!-- Node3&#45;&gt;Node5 -->
<g id="edge4" class="edge">
<title>Node3&#45;&gt;Node5</title>
<path fill="none" stroke="#63b8ff" d="M198.49,-752.42C187.05,-751.09 175.4,-749.74 164.13,-748.43"/>
<polygon fill="#63b8ff" stroke="#63b8ff" points="198.14,-755.91 208.48,-753.58 198.95,-748.95 198.14,-755.91"/>
</g>
<!-- Node8 -->
<g id="node8" class="node">
<title>Node8</title>
<g id="a_node8"><a xlink:href="class_search_a_thing_1_1_open_g_l_1_1_render_1_1_g_l_control.html#a4393fa83b725fcac29a5bc6ab5832ac5" target="_top" xlink:title="Rotate the camera [view] a given rotation center [local]. ( not yet tested )">
<polygon fill="white" stroke="#666666" points="372.5,-692 208.5,-692 208.5,-662 372.5,-662 372.5,-692"/>
<text text-anchor="start" x="216.5" y="-680" font-family="Helvetica,sans-Serif" font-size="10.00">SearchAThing.OpenGL.Render.</text>
<text text-anchor="middle" x="290.5" y="-669" font-family="Helvetica,sans-Serif" font-size="10.00">GLControl.CameraRotate</text>
</a>
</g>
</g>
<!-- Node7&#45;&gt;Node8 -->
<g id="edge7" class="edge">
<title>Node7&#45;&gt;Node8</title>
<path fill="none" stroke="#63b8ff" d="M484.32,-423.5C467.44,-454.21 438.37,-508.66 417,-557 398.58,-598.68 414.74,-622.37 381,-653 377.19,-656.46 372.93,-659.43 368.4,-661.98"/>
<polygon fill="#63b8ff" stroke="#63b8ff" points="487.57,-424.85 489.35,-414.41 481.45,-421.47 487.57,-424.85"/>
</g>
<!-- Node9 -->
<g id="node9" class="node">
<title>Node9</title>
<g id="a_node9"><a xlink:href="class_search_a_thing_1_1_open_g_l_1_1_render_1_1_g_l_control.html#a609ac6af33cb1c1fc525aff164df9543" target="_top" xlink:title="Set the view using given cube view type.">
<polygon fill="white" stroke="#666666" points="164,-687 0,-687 0,-657 164,-657 164,-687"/>
<text text-anchor="start" x="8" y="-675" font-family="Helvetica,sans-Serif" font-size="10.00">SearchAThing.OpenGL.Render.</text>
<text text-anchor="middle" x="82" y="-664" font-family="Helvetica,sans-Serif" font-size="10.00">GLControl.CameraView</text>
</a>
</g>
</g>
<!-- Node7&#45;&gt;Node9 -->
<g id="edge8" class="edge">
<title>Node7&#45;&gt;Node9</title>
<path fill="none" stroke="#63b8ff" d="M483.41,-423.13C465.61,-453.45 435.58,-507.53 417,-557 393.8,-618.76 433,-660.4 381,-701 301.52,-763.06 171.36,-714.41 112.98,-687.2"/>
<polygon fill="#63b8ff" stroke="#63b8ff" points="486.64,-424.54 488.73,-414.16 480.62,-420.97 486.64,-424.54"/>
</g>
<!-- Node10 -->
<g id="node10" class="node">
<title>Node10</title>
<g id="a_node10"><a xlink:href="class_search_a_thing_1_1_open_g_l_1_1_render_1_1_g_l_control.html#a5e5904b44d1b553f27e0079fe42d5ac7" target="_top" xlink:title="Zoom eye space by given scale factor.">
<polygon fill="white" stroke="#666666" points="372.5,-596 208.5,-596 208.5,-566 372.5,-566 372.5,-596"/>
<text text-anchor="start" x="216.5" y="-584" font-family="Helvetica,sans-Serif" font-size="10.00">SearchAThing.OpenGL.Render.</text>
<text text-anchor="middle" x="290.5" y="-573" font-family="Helvetica,sans-Serif" font-size="10.00">GLControl.CameraZoom</text>
</a>
</g>
</g>
<!-- Node7&#45;&gt;Node10 -->
<g id="edge9" class="edge">
<title>Node7&#45;&gt;Node10</title>
<path fill="none" stroke="#63b8ff" d="M486.64,-423.33C469.03,-458.31 431.81,-522.41 381,-557 375.95,-560.44 370.42,-563.39 364.68,-565.91"/>
<polygon fill="#63b8ff" stroke="#63b8ff" points="489.81,-424.8 491.08,-414.28 483.53,-421.71 489.81,-424.8"/>
</g>
<!-- Node11 -->
<g id="node11" class="node">
<title>Node11</title>
<g id="a_node11"><a xlink:href="class_search_a_thing_1_1_open_g_l_1_1_render_1_1_g_l_control.html#a28291bb40e52fa94a0d72eaf84bb6307" target="_top" xlink:title="Restore current view config from given pathfilename.">
<polygon fill="white" stroke="#666666" points="372.5,-548 208.5,-548 208.5,-518 372.5,-518 372.5,-548"/>
<text text-anchor="start" x="216.5" y="-536" font-family="Helvetica,sans-Serif" font-size="10.00">SearchAThing.OpenGL.Render.</text>
<text text-anchor="middle" x="290.5" y="-525" font-family="Helvetica,sans-Serif" font-size="10.00">GLControl.LoadView</text>
</a>
</g>
</g>
<!-- Node7&#45;&gt;Node11 -->
<g id="edge10" class="edge">
<title>Node7&#45;&gt;Node11</title>
<path fill="none" stroke="#63b8ff" d="M479.51,-422.19C458.31,-447.24 421.26,-486.57 381,-509 374.82,-512.44 368.11,-515.41 361.26,-517.97"/>
<polygon fill="#63b8ff" stroke="#63b8ff" points="482.38,-424.21 486.08,-414.28 476.99,-419.74 482.38,-424.21"/>
</g>
<!-- Node12 -->
<g id="node12" class="node">
<title>Node12</title>
<g id="a_node12"><a xlink:href="class_search_a_thing_1_1_open_g_l_1_1_render_1_1_g_l_control.html#aac473598b86094d90e33249499313225" target="_top" xlink:title="Rotate the model by given [eye] x,y angles around given [local] rotation center.">
<polygon fill="white" stroke="#666666" points="372.5,-500 208.5,-500 208.5,-470 372.5,-470 372.5,-500"/>
<text text-anchor="start" x="216.5" y="-488" font-family="Helvetica,sans-Serif" font-size="10.00">SearchAThing.OpenGL.Render.</text>
<text text-anchor="middle" x="290.5" y="-477" font-family="Helvetica,sans-Serif" font-size="10.00">GLControl.ModelRotate</text>
</a>
</g>
</g>
<!-- Node7&#45;&gt;Node12 -->
<g id="edge11" class="edge">
<title>Node7&#45;&gt;Node12</title>
<path fill="none" stroke="#63b8ff" d="M460.71,-418.83C438.02,-430.47 408.26,-445.01 381,-456 368.58,-461.01 354.93,-465.79 342.12,-469.96"/>
<polygon fill="#63b8ff" stroke="#63b8ff" points="462.39,-421.9 469.66,-414.2 459.17,-415.68 462.39,-421.9"/>
</g>
<!-- Node13 -->
<g id="node13" class="node">
<title>Node13</title>
<g id="a_node13"><a xlink:href="class_search_a_thing_1_1_open_g_l_1_1_render_1_1_g_l_control.html#afc6003d84ce56250451495e4519d569a" target="_top" xlink:title="Pan the view by the given screen translation.">
<polygon fill="white" stroke="#666666" points="372.5,-318 208.5,-318 208.5,-288 372.5,-288 372.5,-318"/>
<text text-anchor="start" x="216.5" y="-306" font-family="Helvetica,sans-Serif" font-size="10.00">SearchAThing.OpenGL.Render.</text>
<text text-anchor="middle" x="290.5" y="-295" font-family="Helvetica,sans-Serif" font-size="10.00">GLControl.Pan</text>
</a>
</g>
</g>
<!-- Node7&#45;&gt;Node13 -->
<g id="edge12" class="edge">
<title>Node7&#45;&gt;Node13</title>
<path fill="none" stroke="#63b8ff" d="M469.2,-377.99C446.27,-362.09 412.85,-340.72 381,-327 373.32,-323.69 365.06,-320.73 356.79,-318.13"/>
<polygon fill="#63b8ff" stroke="#63b8ff" points="467.25,-380.9 477.45,-383.78 471.28,-375.17 467.25,-380.9"/>
</g>
<!-- Node18 -->
<g id="node18" class="node">
<title>Node18</title>
<g id="a_node18"><a xlink:href="class_search_a_thing_1_1_open_g_l_1_1_render_1_1_g_l_control.html#a46550daf1e758d55af170aaf35181ab6" target="_top" xlink:title="Tilt camera [view] by rotating it&#39;s up vector around [view] z axis.">
<polygon fill="white" stroke="#666666" points="372.5,-414 208.5,-414 208.5,-384 372.5,-384 372.5,-414"/>
<text text-anchor="start" x="216.5" y="-402" font-family="Helvetica,sans-Serif" font-size="10.00">SearchAThing.OpenGL.Render.</text>
<text text-anchor="middle" x="290.5" y="-391" font-family="Helvetica,sans-Serif" font-size="10.00">GLControl.Tilt</text>
</a>
</g>
</g>
<!-- Node7&#45;&gt;Node18 -->
<g id="edge17" class="edge">
<title>Node7&#45;&gt;Node18</title>
<path fill="none" stroke="#63b8ff" d="M406.64,-399C395.31,-399 383.79,-399 372.63,-399"/>
<polygon fill="#63b8ff" stroke="#63b8ff" points="406.98,-402.5 416.98,-399 406.98,-395.5 406.98,-402.5"/>
</g>
<!-- Node19 -->
<g id="node19" class="node">
<title>Node19</title>
<g id="a_node19"><a xlink:href="class_search_a_thing_1_1_open_g_l_1_1_render_1_1_g_l_control.html#a856e4e130210a03cd970f7a57d28f99f" target="_top" xlink:title="Toggle display of camera frustum object ( generated at runtime through a temporary vertex manager ).">
<polygon fill="white" stroke="#666666" points="375,-366 206,-366 206,-336 375,-336 375,-366"/>
<text text-anchor="start" x="214" y="-354" font-family="Helvetica,sans-Serif" font-size="10.00">SearchAThing.OpenGL.Render.</text>
<text text-anchor="middle" x="290.5" y="-343" font-family="Helvetica,sans-Serif" font-size="10.00">GLControl.ToggleCameraObject</text>
</a>
</g>
</g>
<!-- Node7&#45;&gt;Node19 -->
<g id="edge18" class="edge">
<title>Node7&#45;&gt;Node19</title>
<path fill="none" stroke="#63b8ff" d="M423.26,-381.63C401.25,-376.51 377.36,-370.96 356.04,-366"/>
<polygon fill="#63b8ff" stroke="#63b8ff" points="422.7,-385.09 433.23,-383.94 424.28,-378.27 422.7,-385.09"/>
</g>
<!-- Node20 -->
<g id="node20" class="node">
<title>Node20</title>
<g id="a_node20"><a xlink:href="class_search_a_thing_1_1_open_g_l_1_1_render_1_1_g_l_control.html#a809dcd2f46e1da7c985e0ba750f5c389" target="_top" xlink:title="Toggle perspective mode.">
<polygon fill="white" stroke="#666666" points="164,-551 0,-551 0,-521 164,-521 164,-551"/>
<text text-anchor="start" x="8" y="-539" font-family="Helvetica,sans-Serif" font-size="10.00">SearchAThing.OpenGL.Render.</text>
<text text-anchor="middle" x="82" y="-528" font-family="Helvetica,sans-Serif" font-size="10.00">GLControl.TogglePerspective</text>
</a>
</g>
</g>
<!-- Node7&#45;&gt;Node20 -->
<g id="edge19" class="edge">
<title>Node7&#45;&gt;Node20</title>
<path fill="none" stroke="#63b8ff" d="M414.88,-416.11C327.59,-434.1 202.54,-459.96 200,-461 162.47,-476.32 123.81,-503.83 101.67,-520.94"/>
<polygon fill="#63b8ff" stroke="#63b8ff" points="415.7,-419.51 424.79,-414.06 414.29,-412.65 415.7,-419.51"/>
</g>
<!-- Node21 -->
<g id="node21" class="node">
<title>Node21</title>
<g id="a_node21"><a xlink:href="class_search_a_thing_1_1_open_g_l_1_1_render_1_1_g_l_control.html#aaf887d3cb7075f3b39074bc09f2af646" target="_top" xlink:title="Toggle shade with edge.">
<polygon fill="white" stroke="#666666" points="378.5,-270 202.5,-270 202.5,-240 378.5,-240 378.5,-270"/>
<text text-anchor="start" x="210.5" y="-258" font-family="Helvetica,sans-Serif" font-size="10.00">SearchAThing.OpenGL.Render.</text>
<text text-anchor="middle" x="290.5" y="-247" font-family="Helvetica,sans-Serif" font-size="10.00">GLControl.ToggleShadeWithEdge</text>
</a>
</g>
</g>
<!-- Node7&#45;&gt;Node21 -->
<g id="edge20" class="edge">
<title>Node7&#45;&gt;Node21</title>
<path fill="none" stroke="#63b8ff" d="M481.58,-375.76C461.11,-348.53 423.59,-303.95 381,-279 375.17,-275.58 368.84,-272.64 362.34,-270.11"/>
<polygon fill="#63b8ff" stroke="#63b8ff" points="478.86,-377.98 487.61,-383.95 484.5,-373.82 478.86,-377.98"/>
</g>
<!-- Node22 -->
<g id="node22" class="node">
<title>Node22</title>
<g id="a_node22"><a xlink:href="class_search_a_thing_1_1_open_g_l_1_1_render_1_1_g_l_control.html#a76c43e4f8ae0b22ca87fbe6ab37c3c23" target="_top" xlink:title="Toggle display of model bounding box ( generated at runtime through a temporary vertex manager ).">
<polygon fill="white" stroke="#666666" points="381,-222 200,-222 200,-192 381,-192 381,-222"/>
<text text-anchor="start" x="208" y="-210" font-family="Helvetica,sans-Serif" font-size="10.00">SearchAThing.OpenGL.Render.</text>
<text text-anchor="middle" x="290.5" y="-199" font-family="Helvetica,sans-Serif" font-size="10.00">GLControl.ToggleShowModelBBox</text>
</a>
</g>
</g>
<!-- Node7&#45;&gt;Node22 -->
<g id="edge21" class="edge">
<title>Node7&#45;&gt;Node22</title>
<path fill="none" stroke="#63b8ff" d="M487.57,-374.26C470.7,-337.33 433.91,-268.16 381,-231 376.13,-227.58 370.8,-224.65 365.24,-222.13"/>
<polygon fill="#63b8ff" stroke="#63b8ff" points="484.53,-376.05 491.79,-383.77 490.93,-373.21 484.53,-376.05"/>
</g>
<!-- Node23 -->
<g id="node23" class="node">
<title>Node23</title>
<g id="a_node23"><a xlink:href="class_search_a_thing_1_1_open_g_l_1_1_render_1_1_g_l_control.html#a2a71dcd049526738239381c0d2ce9345" target="_top" xlink:title="Toggle show normals.">
<polygon fill="white" stroke="#666666" points="374,-174 207,-174 207,-144 374,-144 374,-174"/>
<text text-anchor="start" x="215" y="-162" font-family="Helvetica,sans-Serif" font-size="10.00">SearchAThing.OpenGL.Render.</text>
<text text-anchor="middle" x="290.5" y="-151" font-family="Helvetica,sans-Serif" font-size="10.00">GLControl.ToggleShowNormals</text>
</a>
</g>
</g>
<!-- Node7&#45;&gt;Node23 -->
<g id="edge22" class="edge">
<title>Node7&#45;&gt;Node23</title>
<path fill="none" stroke="#63b8ff" d="M491.51,-373.85C478.5,-328.58 444.84,-233.39 381,-183 376.71,-179.61 371.97,-176.7 367,-174.2"/>
<polygon fill="#63b8ff" stroke="#63b8ff" points="488.2,-375.03 494.25,-383.73 494.95,-373.16 488.2,-375.03"/>
</g>
<!-- Node24 -->
<g id="node24" class="node">
<title>Node24</title>
<g id="a_node24"><a xlink:href="class_search_a_thing_1_1_open_g_l_1_1_render_1_1_g_l_control.html#a1a983cc95609136123b361f3ed2ebe96" target="_top" xlink:title="Toggle shadows generation.">
<polygon fill="white" stroke="#666666" points="372.5,-126 208.5,-126 208.5,-96 372.5,-96 372.5,-126"/>
<text text-anchor="start" x="216.5" y="-114" font-family="Helvetica,sans-Serif" font-size="10.00">SearchAThing.OpenGL.Render.</text>
<text text-anchor="middle" x="290.5" y="-103" font-family="Helvetica,sans-Serif" font-size="10.00">GLControl.ToggleUseShadow</text>
</a>
</g>
</g>
<!-- Node7&#45;&gt;Node24 -->
<g id="edge23" class="edge">
<title>Node7&#45;&gt;Node24</title>
<path fill="none" stroke="#63b8ff" d="M494.18,-373.62C484.87,-320.92 456.03,-199.21 381,-135 376.97,-131.55 372.49,-128.59 367.74,-126.05"/>
<polygon fill="#63b8ff" stroke="#63b8ff" points="490.77,-374.49 495.88,-383.77 497.68,-373.33 490.77,-374.49"/>
</g>
<!-- Node25 -->
<g id="node25" class="node">
<title>Node25</title>
<g id="a_node25"><a xlink:href="class_search_a_thing_1_1_open_g_l_1_1_render_1_1_g_l_control.html#a2ceddd0bec1b455a5fe13ba85af6df19" target="_top" xlink:title="Toggle use of textures.">
<polygon fill="white" stroke="#666666" points="372.5,-78 208.5,-78 208.5,-48 372.5,-48 372.5,-78"/>
<text text-anchor="start" x="216.5" y="-66" font-family="Helvetica,sans-Serif" font-size="10.00">SearchAThing.OpenGL.Render.</text>
<text text-anchor="middle" x="290.5" y="-55" font-family="Helvetica,sans-Serif" font-size="10.00">GLControl.ToggleUseTexture</text>
</a>
</g>
</g>
<!-- Node7&#45;&gt;Node25 -->
<g id="edge24" class="edge">
<title>Node7&#45;&gt;Node25</title>
<path fill="none" stroke="#63b8ff" d="M496.13,-373.68C490.35,-314.36 467.52,-165.53 381,-87 377.19,-83.54 372.93,-80.57 368.4,-78.02"/>
<polygon fill="#63b8ff" stroke="#63b8ff" points="492.67,-374.34 497.05,-383.99 499.64,-373.72 492.67,-374.34"/>
</g>
<!-- Node26 -->
<g id="node26" class="node">
<title>Node26</title>
<g id="a_node26"><a xlink:href="class_search_a_thing_1_1_open_g_l_1_1_render_1_1_g_l_control.html#a0b013ae153047446187737c929853f36" target="_top" xlink:title="Toggle wireframe mode.">
<polygon fill="white" stroke="#666666" points="372.5,-30 208.5,-30 208.5,0 372.5,0 372.5,-30"/>
<text text-anchor="start" x="216.5" y="-18" font-family="Helvetica,sans-Serif" font-size="10.00">SearchAThing.OpenGL.Render.</text>
<text text-anchor="middle" x="290.5" y="-7" font-family="Helvetica,sans-Serif" font-size="10.00">GLControl.ToggleWireframe</text>
</a>
</g>
</g>
<!-- Node7&#45;&gt;Node26 -->
<g id="edge25" class="edge">
<title>Node7&#45;&gt;Node26</title>
<path fill="none" stroke="#63b8ff" d="M497.58,-373.45C495.06,-307.84 479.01,-132.02 381,-39 377.38,-35.57 373.33,-32.61 369,-30.07"/>
<polygon fill="#63b8ff" stroke="#63b8ff" points="494.09,-373.81 497.89,-383.7 501.08,-373.6 494.09,-373.81"/>
</g>
<!-- Node27 -->
<g id="node27" class="node">
<title>Node27</title>
<g id="a_node27"><a xlink:href="class_search_a_thing_1_1_open_g_l_1_1_render_1_1_g_l_control.html#a3647f3040be99a06b6a07bfeed13ad92" target="_top" xlink:title="Fit gl model into the view.">
<polygon fill="white" stroke="#666666" points="372.5,-644 208.5,-644 208.5,-614 372.5,-614 372.5,-644"/>
<text text-anchor="start" x="216.5" y="-632" font-family="Helvetica,sans-Serif" font-size="10.00">SearchAThing.OpenGL.Render.</text>
<text text-anchor="middle" x="290.5" y="-621" font-family="Helvetica,sans-Serif" font-size="10.00">GLControl.ZoomFit</text>
</a>
</g>
</g>
<!-- Node7&#45;&gt;Node27 -->
<g id="edge26" class="edge">
<title>Node7&#45;&gt;Node27</title>
<path fill="none" stroke="#63b8ff" d="M485.47,-423.47C458.72,-475.31 397.16,-592.5 381,-605 376.55,-608.44 371.64,-611.39 366.48,-613.92"/>
<polygon fill="#63b8ff" stroke="#63b8ff" points="488.72,-424.8 490.18,-414.3 482.49,-421.59 488.72,-424.8"/>
</g>
<!-- Node14 -->
<g id="node14" class="node">
<title>Node14</title>
<g id="a_node14"><a xlink:href="class_search_a_thing_1_1_open_g_l_1_1_render_1_1_g_l_control.html#acd591f4d52216f736d05a37967dfbb76" target="_top" xlink:title="Pan the view down of a little factor.">
<polygon fill="white" stroke="#666666" points="164,-246 0,-246 0,-216 164,-216 164,-246"/>
<text text-anchor="start" x="8" y="-234" font-family="Helvetica,sans-Serif" font-size="10.00">SearchAThing.OpenGL.Render.</text>
<text text-anchor="middle" x="82" y="-223" font-family="Helvetica,sans-Serif" font-size="10.00">GLControl.PanDown</text>
</a>
</g>
</g>
<!-- Node13&#45;&gt;Node14 -->
<g id="edge13" class="edge">
<title>Node13&#45;&gt;Node14</title>
<path fill="none" stroke="#63b8ff" d="M213.81,-284.61C209.08,-282.88 204.44,-281.01 200,-279 182.48,-271.07 181.41,-263.16 164,-255 156.96,-251.7 149.36,-248.74 141.74,-246.12"/>
<polygon fill="#63b8ff" stroke="#63b8ff" points="213.03,-288.04 223.62,-287.99 215.3,-281.42 213.03,-288.04"/>
</g>
<!-- Node15 -->
<g id="node15" class="node">
<title>Node15</title>
<g id="a_node15"><a xlink:href="class_search_a_thing_1_1_open_g_l_1_1_render_1_1_g_l_control.html#ac0149d9ec4eefdc825a466e47f0cdb07" target="_top" xlink:title="Pan the view left of a little factor.">
<polygon fill="white" stroke="#666666" points="164,-390 0,-390 0,-360 164,-360 164,-390"/>
<text text-anchor="start" x="8" y="-378" font-family="Helvetica,sans-Serif" font-size="10.00">SearchAThing.OpenGL.Render.</text>
<text text-anchor="middle" x="82" y="-367" font-family="Helvetica,sans-Serif" font-size="10.00">GLControl.PanLeft</text>
</a>
</g>
</g>
<!-- Node13&#45;&gt;Node15 -->
<g id="edge14" class="edge">
<title>Node13&#45;&gt;Node15</title>
<path fill="none" stroke="#63b8ff" d="M213.81,-321.39C209.08,-323.12 204.44,-324.99 200,-327 182.48,-334.93 181.41,-342.84 164,-351 156.96,-354.3 149.36,-357.26 141.74,-359.88"/>
<polygon fill="#63b8ff" stroke="#63b8ff" points="215.3,-324.58 223.62,-318.01 213.03,-317.96 215.3,-324.58"/>
</g>
<!-- Node16 -->
<g id="node16" class="node">
<title>Node16</title>
<g id="a_node16"><a xlink:href="class_search_a_thing_1_1_open_g_l_1_1_render_1_1_g_l_control.html#a21c11768939dccbc75ef58be240cc90b" target="_top" xlink:title="Pan the view right of a little factor.">
<polygon fill="white" stroke="#666666" points="164,-342 0,-342 0,-312 164,-312 164,-342"/>
<text text-anchor="start" x="8" y="-330" font-family="Helvetica,sans-Serif" font-size="10.00">SearchAThing.OpenGL.Render.</text>
<text text-anchor="middle" x="82" y="-319" font-family="Helvetica,sans-Serif" font-size="10.00">GLControl.PanRight</text>
</a>
</g>
</g>
<!-- Node13&#45;&gt;Node16 -->
<g id="edge15" class="edge">
<title>Node13&#45;&gt;Node16</title>
<path fill="none" stroke="#63b8ff" d="M198.49,-313.58C187.05,-314.91 175.4,-316.26 164.13,-317.57"/>
<polygon fill="#63b8ff" stroke="#63b8ff" points="198.95,-317.05 208.48,-312.42 198.14,-310.09 198.95,-317.05"/>
</g>
<!-- Node17 -->
<g id="node17" class="node">
<title>Node17</title>
<g id="a_node17"><a xlink:href="class_search_a_thing_1_1_open_g_l_1_1_render_1_1_g_l_control.html#adbc9327929edf6458b41fb0849c41650" target="_top" xlink:title="Pan the view up of a little factor.">
<polygon fill="white" stroke="#666666" points="164,-294 0,-294 0,-264 164,-264 164,-294"/>
<text text-anchor="start" x="8" y="-282" font-family="Helvetica,sans-Serif" font-size="10.00">SearchAThing.OpenGL.Render.</text>
<text text-anchor="middle" x="82" y="-271" font-family="Helvetica,sans-Serif" font-size="10.00">GLControl.PanUp</text>
</a>
</g>
</g>
<!-- Node13&#45;&gt;Node17 -->
<g id="edge16" class="edge">
<title>Node13&#45;&gt;Node17</title>
<path fill="none" stroke="#63b8ff" d="M198.49,-292.42C187.05,-291.09 175.4,-289.74 164.13,-288.43"/>
<polygon fill="#63b8ff" stroke="#63b8ff" points="198.14,-295.91 208.48,-293.58 198.95,-288.95 198.14,-295.91"/>
</g>
<!-- Node27&#45;&gt;Node9 -->
<g id="edge27" class="edge">
<title>Node27&#45;&gt;Node9</title>
<path fill="none" stroke="#63b8ff" d="M207.25,-646.13C190.03,-649.71 172,-653.47 155.18,-656.97"/>
<polygon fill="#63b8ff" stroke="#63b8ff" points="208.2,-649.5 217.28,-644.04 206.77,-642.65 208.2,-649.5"/>
</g>
<!-- Node27&#45;&gt;Node20 -->
<g id="edge28" class="edge">
<title>Node27&#45;&gt;Node20</title>
<path fill="none" stroke="#63b8ff" d="M214.89,-610.66C209.8,-608.9 204.79,-607.01 200,-605 164.77,-590.21 127.28,-566.51 104.49,-551.1"/>
<polygon fill="#63b8ff" stroke="#63b8ff" points="214.16,-614.1 224.75,-613.89 216.34,-607.45 214.16,-614.1"/>
</g>
</g>
</svg>
