<?xml version="1.0" encoding="UTF-8" standalone="no"?>
<!DOCTYPE svg PUBLIC "-//W3C//DTD SVG 1.1//EN"
 "http://www.w3.org/Graphics/SVG/1.1/DTD/svg11.dtd">
<!-- Generated by graphviz version 2.43.0 (0)
 -->
<!-- Title: Invalidate Pages: 1 -->
<svg width="299pt" height="76pt"
 viewBox="0.00 0.00 299.00 75.50" xmlns="http://www.w3.org/2000/svg" xmlns:xlink="http://www.w3.org/1999/xlink">
<g id="graph0" class="graph" transform="scale(1 1) rotate(0) translate(4 71.5)">
<title>Invalidate</title>
<!-- Node1 -->
<g id="node1" class="node">
<title>Node1</title>
<g id="a_node1"><a xlink:title="Invalidates all gl controls children of this gl split.">
<polygon fill="#999999" stroke="#666666" points="291,-45.5 226,-45.5 226,-26.5 291,-26.5 291,-45.5"/>
<text text-anchor="middle" x="258.5" y="-33.5" font-family="Helvetica,sans-Serif" font-size="10.00">Invalidate</text>
</a>
</g>
</g>
<!-- Node2 -->
<g id="node2" class="node">
<title>Node2</title>
<g id="a_node2"><a xlink:href="class_search_a_thing_1_1_open_g_l_1_1_g_u_i_1_1_avalonia_g_l_control_split.html#a985dae0286202c50e2edf19b303f8d63" target="_top" xlink:title=" ">
<polygon fill="white" stroke="#666666" points="159,-67.5 31,-67.5 31,-48.5 159,-48.5 159,-67.5"/>
<text text-anchor="middle" x="95" y="-55.5" font-family="Helvetica,sans-Serif" font-size="10.00">AvaloniaGLControlSplit</text>
</a>
</g>
</g>
<!-- Node1&#45;&gt;Node2 -->
<g id="edge1" class="edge">
<title>Node1&#45;&gt;Node2</title>
<path fill="none" stroke="#63b8ff" d="M215.7,-41.69C198.48,-44.04 178.16,-46.81 159.19,-49.39"/>
<polygon fill="#63b8ff" stroke="#63b8ff" points="216.54,-45.11 225.98,-40.29 215.6,-38.18 216.54,-45.11"/>
</g>
<!-- Node3 -->
<g id="node3" class="node">
<title>Node3</title>
<g id="a_node3"><a xlink:href="class_search_a_thing_1_1_open_g_l_1_1_g_u_i_1_1_avalonia_g_l_control.html#a7d2bb81d6413a78c27bc49ad7ef0f158" target="_top" xlink:title=" ">
<polygon fill="white" stroke="#666666" points="190,-30 0,-30 0,0 190,0 190,-30"/>
<text text-anchor="start" x="8" y="-18" font-family="Helvetica,sans-Serif" font-size="10.00">SearchAThing.OpenGL.GUI.</text>
<text text-anchor="middle" x="95" y="-7" font-family="Helvetica,sans-Serif" font-size="10.00">AvaloniaGLControl.HandleKeyDown</text>
</a>
</g>
</g>
<!-- Node1&#45;&gt;Node3 -->
<g id="edge2" class="edge">
<title>Node1&#45;&gt;Node3</title>
<path fill="none" stroke="#63b8ff" d="M215.86,-30.59C207.84,-29.54 199.14,-28.41 190.21,-27.25"/>
<polygon fill="#63b8ff" stroke="#63b8ff" points="215.61,-34.08 225.98,-31.9 216.51,-27.14 215.61,-34.08"/>
</g>
</g>
</svg>
