<?xml version="1.0" encoding="UTF-8" standalone="no"?>
<!DOCTYPE svg PUBLIC "-//W3C//DTD SVG 1.1//EN"
 "http://www.w3.org/Graphics/SVG/1.1/DTD/svg11.dtd">
<!-- Generated by graphviz version 2.43.0 (0)
 -->
<!-- Title: WorldToLocal Pages: 1 -->
<svg width="207pt" height="101pt"
 viewBox="0.00 0.00 207.00 101.00" xmlns="http://www.w3.org/2000/svg" xmlns:xlink="http://www.w3.org/1999/xlink">
<g id="graph0" class="graph" transform="scale(1 1) rotate(0) translate(4 97)">
<title>WorldToLocal</title>
<!-- Node1 -->
<g id="node1" class="node">
<title>Node1</title>
<g id="a_node1"><a xlink:title="Converts given world space coord to the corresponding local space coord. &#160;Makes use of the inverse of...">
<polygon fill="#999999" stroke="#666666" points="199,-56 119,-56 119,-37 199,-37 199,-56"/>
<text text-anchor="middle" x="159" y="-44" font-family="Helvetica,sans-Serif" font-size="10.00">WorldToLocal</text>
</a>
</g>
</g>
<!-- Node2 -->
<g id="node2" class="node">
<title>Node2</title>
<g id="a_node2"><a xlink:href="class_search_a_thing_1_1_open_g_l_1_1_core_1_1_toolkit.html#aa21b12f58d8b6c6406a51954d67433be" target="_top" xlink:title="Generate a gl figure that represent the camera frustum object.">
<polygon fill="white" stroke="#666666" points="83,-93 0,-93 0,-74 83,-74 83,-93"/>
<text text-anchor="middle" x="41.5" y="-81" font-family="Helvetica,sans-Serif" font-size="10.00">MakeFrustum</text>
</a>
</g>
</g>
<!-- Node1&#45;&gt;Node2 -->
<g id="edge1" class="edge">
<title>Node1&#45;&gt;Node2</title>
<path fill="none" stroke="#63b8ff" d="M118.66,-59.1C103.58,-63.93 86.62,-69.37 72.54,-73.88"/>
<polygon fill="#63b8ff" stroke="#63b8ff" points="119.8,-62.41 128.26,-56.03 117.66,-55.75 119.8,-62.41"/>
</g>
<!-- Node3 -->
<g id="node3" class="node">
<title>Node3</title>
<g id="a_node3"><a xlink:href="class_search_a_thing_1_1_open_g_l_1_1_core_1_1_toolkit.html#a871817cfbd07ac87181ef5fc87e5b21f" target="_top" xlink:title="Rotate the model by given [eye] x,y angles around given [local] rotation center.">
<polygon fill="white" stroke="#666666" points="81,-56 2,-56 2,-37 81,-37 81,-56"/>
<text text-anchor="middle" x="41.5" y="-44" font-family="Helvetica,sans-Serif" font-size="10.00">ModelRotate</text>
</a>
</g>
</g>
<!-- Node1&#45;&gt;Node3 -->
<g id="edge2" class="edge">
<title>Node1&#45;&gt;Node3</title>
<path fill="none" stroke="#63b8ff" d="M108.69,-46.5C99.49,-46.5 89.99,-46.5 81.17,-46.5"/>
<polygon fill="#63b8ff" stroke="#63b8ff" points="108.9,-50 118.9,-46.5 108.9,-43 108.9,-50"/>
</g>
<!-- Node4 -->
<g id="node4" class="node">
<title>Node4</title>
<g id="a_node4"><a xlink:href="class_search_a_thing_1_1_open_g_l_1_1_core_1_1_toolkit.html#a8b88bca5ca7377d6aca5657c0c7a59a6" target="_top" xlink:title="Create a raycast line [local] suitable to hit test of figure primitives.">
<polygon fill="white" stroke="#666666" points="83,-19 0,-19 0,0 83,0 83,-19"/>
<text text-anchor="middle" x="41.5" y="-7" font-family="Helvetica,sans-Serif" font-size="10.00">RayCastLocal</text>
</a>
</g>
</g>
<!-- Node1&#45;&gt;Node4 -->
<g id="edge3" class="edge">
<title>Node1&#45;&gt;Node4</title>
<path fill="none" stroke="#63b8ff" d="M118.66,-33.9C103.58,-29.07 86.62,-23.63 72.54,-19.12"/>
<polygon fill="#63b8ff" stroke="#63b8ff" points="117.66,-37.25 128.26,-36.97 119.8,-30.59 117.66,-37.25"/>
</g>
</g>
</svg>
