<?xml version="1.0" encoding="UTF-8" standalone="no"?>
<!DOCTYPE svg PUBLIC "-//W3C//DTD SVG 1.1//EN"
 "http://www.w3.org/Graphics/SVG/1.1/DTD/svg11.dtd">
<!-- Generated by graphviz version 2.43.0 (0)
 -->
<!-- Title: GetGLMatrixes Pages: 1 -->
<svg width="383pt" height="168pt"
 viewBox="0.00 0.00 383.00 168.00" xmlns="http://www.w3.org/2000/svg" xmlns:xlink="http://www.w3.org/1999/xlink">
<g id="graph0" class="graph" transform="scale(1 1) rotate(0) translate(4 164)">
<title>GetGLMatrixes</title>
<!-- Node1 -->
<g id="node1" class="node">
<title>Node1</title>
<g id="a_node1"><a xlink:title="Retrieve model/view/projection matrixes and camera pos/target/up through a single object.">
<polygon fill="#999999" stroke="#666666" points="375,-117 286,-117 286,-98 375,-98 375,-117"/>
<text text-anchor="middle" x="330.5" y="-105" font-family="Helvetica,sans-Serif" font-size="10.00">GetGLMatrixes</text>
</a>
</g>
</g>
<!-- Node2 -->
<g id="node2" class="node">
<title>Node2</title>
<g id="a_node2"><a xlink:href="class_search_a_thing_1_1_open_g_l_1_1_core_1_1_g_l_control.html#aac473598b86094d90e33249499313225" target="_top" xlink:title="Rotate the model by given [eye] x,y angles around given [local] rotation center.">
<polygon fill="white" stroke="#666666" points="213.5,-160 134.5,-160 134.5,-141 213.5,-141 213.5,-160"/>
<text text-anchor="middle" x="174" y="-148" font-family="Helvetica,sans-Serif" font-size="10.00">ModelRotate</text>
</a>
</g>
</g>
<!-- Node1&#45;&gt;Node2 -->
<g id="edge1" class="edge">
<title>Node1&#45;&gt;Node2</title>
<path fill="none" stroke="#63b8ff" d="M289.29,-120.02C276.74,-123.83 262.83,-127.94 250,-131.5 238.22,-134.77 225.34,-138.11 213.63,-141.07"/>
<polygon fill="#63b8ff" stroke="#63b8ff" points="290.47,-123.32 299.01,-117.05 288.43,-116.63 290.47,-123.32"/>
</g>
<!-- Node3 -->
<g id="node3" class="node">
<title>Node3</title>
<g id="a_node3"><a xlink:href="class_search_a_thing_1_1_open_g_l_1_1_core_1_1_mouse_start.html#afbc89f029670a9fd7e17a542128e9871" target="_top" xlink:title=" ">
<polygon fill="white" stroke="#666666" points="250,-122.5 98,-122.5 98,-92.5 250,-92.5 250,-122.5"/>
<text text-anchor="start" x="106" y="-110.5" font-family="Helvetica,sans-Serif" font-size="10.00">SearchAThing.OpenGL.Core.</text>
<text text-anchor="middle" x="174" y="-99.5" font-family="Helvetica,sans-Serif" font-size="10.00">MouseStart.MouseStart</text>
</a>
</g>
</g>
<!-- Node1&#45;&gt;Node3 -->
<g id="edge2" class="edge">
<title>Node1&#45;&gt;Node3</title>
<path fill="none" stroke="#63b8ff" d="M275.52,-107.5C267.34,-107.5 258.78,-107.5 250.26,-107.5"/>
<polygon fill="#63b8ff" stroke="#63b8ff" points="275.64,-111 285.64,-107.5 275.64,-104 275.64,-111"/>
</g>
<!-- Node4 -->
<g id="node4" class="node">
<title>Node4</title>
<g id="a_node4"><a xlink:href="class_search_a_thing_1_1_open_g_l_1_1_core_1_1_g_l_control.html#afc6003d84ce56250451495e4519d569a" target="_top" xlink:title="Pan the view by the given screen translation.">
<polygon fill="white" stroke="#666666" points="191,-74 157,-74 157,-55 191,-55 191,-74"/>
<text text-anchor="middle" x="174" y="-62" font-family="Helvetica,sans-Serif" font-size="10.00">Pan</text>
</a>
</g>
</g>
<!-- Node1&#45;&gt;Node4 -->
<g id="edge3" class="edge">
<title>Node1&#45;&gt;Node4</title>
<path fill="none" stroke="#63b8ff" d="M289.29,-94.98C276.74,-91.17 262.83,-87.06 250,-83.5 229.81,-77.9 206.38,-72.07 191.15,-68.37"/>
<polygon fill="#63b8ff" stroke="#63b8ff" points="288.43,-98.37 299.01,-97.95 290.47,-91.68 288.43,-98.37"/>
</g>
<!-- Node5 -->
<g id="node5" class="node">
<title>Node5</title>
<g id="a_node5"><a xlink:href="class_search_a_thing_1_1_open_g_l_1_1_core_1_1_g_l_control.html#acd591f4d52216f736d05a37967dfbb76" target="_top" xlink:title="Pan the view down of a little factor.">
<polygon fill="white" stroke="#666666" points="62,-130 0,-130 0,-111 62,-111 62,-130"/>
<text text-anchor="middle" x="31" y="-118" font-family="Helvetica,sans-Serif" font-size="10.00">PanDown</text>
</a>
</g>
</g>
<!-- Node4&#45;&gt;Node5 -->
<g id="edge4" class="edge">
<title>Node4&#45;&gt;Node5</title>
<path fill="none" stroke="#63b8ff" d="M146.9,-69.35C132.23,-72.5 113.76,-77.21 98,-83.5 88.06,-87.47 64.02,-101.38 47.87,-110.97"/>
<polygon fill="#63b8ff" stroke="#63b8ff" points="147.72,-72.75 156.81,-67.32 146.32,-65.89 147.72,-72.75"/>
</g>
<!-- Node6 -->
<g id="node6" class="node">
<title>Node6</title>
<g id="a_node6"><a xlink:href="class_search_a_thing_1_1_open_g_l_1_1_core_1_1_g_l_control.html#ac0149d9ec4eefdc825a466e47f0cdb07" target="_top" xlink:title="Pan the view left of a little factor.">
<polygon fill="white" stroke="#666666" points="57,-93 5,-93 5,-74 57,-74 57,-93"/>
<text text-anchor="middle" x="31" y="-81" font-family="Helvetica,sans-Serif" font-size="10.00">PanLeft</text>
</a>
</g>
</g>
<!-- Node4&#45;&gt;Node6 -->
<g id="edge5" class="edge">
<title>Node4&#45;&gt;Node6</title>
<path fill="none" stroke="#63b8ff" d="M146.73,-68.04C121.13,-71.49 82.48,-76.7 57.24,-80.1"/>
<polygon fill="#63b8ff" stroke="#63b8ff" points="147.38,-71.48 156.83,-66.68 146.45,-64.55 147.38,-71.48"/>
</g>
<!-- Node7 -->
<g id="node7" class="node">
<title>Node7</title>
<g id="a_node7"><a xlink:href="class_search_a_thing_1_1_open_g_l_1_1_core_1_1_g_l_control.html#a21c11768939dccbc75ef58be240cc90b" target="_top" xlink:title="Pan the view right of a little factor.">
<polygon fill="white" stroke="#666666" points="60.5,-56 1.5,-56 1.5,-37 60.5,-37 60.5,-56"/>
<text text-anchor="middle" x="31" y="-44" font-family="Helvetica,sans-Serif" font-size="10.00">PanRight</text>
</a>
</g>
</g>
<!-- Node4&#45;&gt;Node7 -->
<g id="edge6" class="edge">
<title>Node4&#45;&gt;Node7</title>
<path fill="none" stroke="#63b8ff" d="M146.82,-61.16C122.35,-58.03 85.89,-53.38 60.65,-50.16"/>
<polygon fill="#63b8ff" stroke="#63b8ff" points="146.46,-64.64 156.83,-62.44 147.35,-57.7 146.46,-64.64"/>
</g>
<!-- Node8 -->
<g id="node8" class="node">
<title>Node8</title>
<g id="a_node8"><a xlink:href="class_search_a_thing_1_1_open_g_l_1_1_core_1_1_g_l_control.html#adbc9327929edf6458b41fb0849c41650" target="_top" xlink:title="Pan the view up of a little factor.">
<polygon fill="white" stroke="#666666" points="54.5,-19 7.5,-19 7.5,0 54.5,0 54.5,-19"/>
<text text-anchor="middle" x="31" y="-7" font-family="Helvetica,sans-Serif" font-size="10.00">PanUp</text>
</a>
</g>
</g>
<!-- Node4&#45;&gt;Node8 -->
<g id="edge7" class="edge">
<title>Node4&#45;&gt;Node8</title>
<path fill="none" stroke="#63b8ff" d="M147.49,-54.55C121.13,-44.27 80.35,-28.36 54.96,-18.46"/>
<polygon fill="#63b8ff" stroke="#63b8ff" points="146.24,-57.82 156.83,-58.19 148.78,-51.3 146.24,-57.82"/>
</g>
</g>
</svg>
