<?xml version="1.0" encoding="UTF-8" standalone="no"?>
<!DOCTYPE svg PUBLIC "-//W3C//DTD SVG 1.1//EN"
 "http://www.w3.org/Graphics/SVG/1.1/DTD/svg11.dtd">
<!-- Generated by graphviz version 2.43.0 (0)
 -->
<!-- Title: MakeCCS Pages: 1 -->
<svg width="193pt" height="64pt"
 viewBox="0.00 0.00 193.00 64.00" xmlns="http://www.w3.org/2000/svg" xmlns:xlink="http://www.w3.org/1999/xlink">
<g id="graph0" class="graph" transform="scale(1 1) rotate(0) translate(4 60)">
<title>MakeCCS</title>
<!-- Node1 -->
<g id="node1" class="node">
<title>Node1</title>
<g id="a_node1"><a xlink:title="Make a world matrix that represent the one used by the camera [world]. &#160;Basey = Normalized(cameraUp) ...">
<polygon fill="#999999" stroke="#666666" points="185,-37 123,-37 123,-18 185,-18 185,-37"/>
<text text-anchor="middle" x="154" y="-25" font-family="Helvetica,sans-Serif" font-size="10.00">MakeCCS</text>
</a>
</g>
</g>
<!-- Node2 -->
<g id="node2" class="node">
<title>Node2</title>
<g id="a_node2"><a xlink:href="class_search_a_thing_1_1_open_g_l_1_1_core_1_1_toolkit.html#add9448a2792ecb184dbf6bea89b1dbcc" target="_top" xlink:title="Rotate the camera [view] a given rotation center [local].">
<polygon fill="white" stroke="#666666" points="87,-56 0,-56 0,-37 87,-37 87,-56"/>
<text text-anchor="middle" x="43.5" y="-44" font-family="Helvetica,sans-Serif" font-size="10.00">CameraRotate</text>
</a>
</g>
</g>
<!-- Node1&#45;&gt;Node2 -->
<g id="edge1" class="edge">
<title>Node1&#45;&gt;Node2</title>
<path fill="none" stroke="#63b8ff" d="M112.85,-34.53C104.47,-36 95.6,-37.55 87.13,-39.04"/>
<polygon fill="#63b8ff" stroke="#63b8ff" points="113.53,-37.97 122.78,-32.79 112.32,-31.07 113.53,-37.97"/>
</g>
<!-- Node3 -->
<g id="node3" class="node">
<title>Node3</title>
<g id="a_node3"><a xlink:href="class_search_a_thing_1_1_open_g_l_1_1_core_1_1_toolkit.html#aa21b12f58d8b6c6406a51954d67433be" target="_top" xlink:title="Generate a gl figure that represent the camera frustum object.">
<polygon fill="white" stroke="#666666" points="85,-19 2,-19 2,0 85,0 85,-19"/>
<text text-anchor="middle" x="43.5" y="-7" font-family="Helvetica,sans-Serif" font-size="10.00">MakeFrustum</text>
</a>
</g>
</g>
<!-- Node1&#45;&gt;Node3 -->
<g id="edge2" class="edge">
<title>Node1&#45;&gt;Node3</title>
<path fill="none" stroke="#63b8ff" d="M112.85,-20.84C103.8,-19.34 94.18,-17.74 85.11,-16.24"/>
<polygon fill="#63b8ff" stroke="#63b8ff" points="112.34,-24.3 122.78,-22.49 113.48,-17.4 112.34,-24.3"/>
</g>
</g>
</svg>
