<?xml version="1.0" encoding="UTF-8" standalone="no"?>
<!DOCTYPE svg PUBLIC "-//W3C//DTD SVG 1.1//EN"
 "http://www.w3.org/Graphics/SVG/1.1/DTD/svg11.dtd">
<!-- Generated by graphviz version 2.43.0 (0)
 -->
<!-- Title: Copy Pages: 1 -->
<svg width="425pt" height="225pt"
 viewBox="0.00 0.00 425.00 225.00" xmlns="http://www.w3.org/2000/svg" xmlns:xlink="http://www.w3.org/1999/xlink">
<g id="graph0" class="graph" transform="scale(1 1) rotate(0) translate(4 221)">
<title>Copy</title>
<!-- Node1 -->
<g id="node1" class="node">
<title>Node1</title>
<g id="a_node1"><a xlink:title="Create a copy of this gl vertex manager object copying all relevant data except the ParentVertexManag...">
<polygon fill="#999999" stroke="#666666" points="417,-139.5 376,-139.5 376,-120.5 417,-120.5 417,-139.5"/>
<text text-anchor="middle" x="396.5" y="-127.5" font-family="Helvetica,sans-Serif" font-size="10.00">Copy</text>
</a>
</g>
</g>
<!-- Node2 -->
<g id="node2" class="node">
<title>Node2</title>
<g id="a_node2"><a xlink:href="class_search_a_thing_1_1_open_g_l_1_1_core_1_1_g_l_line.html#a9af0a1d9692cafa87cb3b00548ddf0a4" target="_top" xlink:title=" ">
<polygon fill="white" stroke="#666666" points="340,-217 188,-217 188,-187 340,-187 340,-217"/>
<text text-anchor="start" x="196" y="-205" font-family="Helvetica,sans-Serif" font-size="10.00">SearchAThing.OpenGL.Core.</text>
<text text-anchor="middle" x="264" y="-194" font-family="Helvetica,sans-Serif" font-size="10.00">GLLine.CopySpecialized</text>
</a>
</g>
</g>
<!-- Node1&#45;&gt;Node2 -->
<g id="edge1" class="edge">
<title>Node1&#45;&gt;Node2</title>
<path fill="none" stroke="#63b8ff" d="M379.44,-147.02C369.02,-157.21 354.7,-169.75 340,-178 334.04,-181.35 327.55,-184.3 320.95,-186.89"/>
<polygon fill="#63b8ff" stroke="#63b8ff" points="382.04,-149.36 386.58,-139.79 377.06,-144.44 382.04,-149.36"/>
</g>
<!-- Node3 -->
<g id="node3" class="node">
<title>Node3</title>
<g id="a_node3"><a xlink:href="class_search_a_thing_1_1_open_g_l_1_1_core_1_1_g_l_point.html#a9af0a1d9692cafa87cb3b00548ddf0a4" target="_top" xlink:title=" ">
<polygon fill="white" stroke="#666666" points="340,-169 188,-169 188,-139 340,-139 340,-169"/>
<text text-anchor="start" x="196" y="-157" font-family="Helvetica,sans-Serif" font-size="10.00">SearchAThing.OpenGL.Core.</text>
<text text-anchor="middle" x="264" y="-146" font-family="Helvetica,sans-Serif" font-size="10.00">GLPoint.CopySpecialized</text>
</a>
</g>
</g>
<!-- Node1&#45;&gt;Node3 -->
<g id="edge2" class="edge">
<title>Node1&#45;&gt;Node3</title>
<path fill="none" stroke="#63b8ff" d="M365.94,-135.44C358.09,-136.88 349.24,-138.51 340.13,-140.18"/>
<polygon fill="#63b8ff" stroke="#63b8ff" points="366.76,-138.84 375.96,-133.59 365.49,-131.96 366.76,-138.84"/>
</g>
<!-- Node4 -->
<g id="node4" class="node">
<title>Node4</title>
<g id="a_node4"><a xlink:href="class_search_a_thing_1_1_open_g_l_1_1_core_1_1_g_l_triangle.html#a9af0a1d9692cafa87cb3b00548ddf0a4" target="_top" xlink:title=" ">
<polygon fill="white" stroke="#666666" points="340,-121 188,-121 188,-91 340,-91 340,-121"/>
<text text-anchor="start" x="196" y="-109" font-family="Helvetica,sans-Serif" font-size="10.00">SearchAThing.OpenGL.Core.</text>
<text text-anchor="middle" x="264" y="-98" font-family="Helvetica,sans-Serif" font-size="10.00">GLTriangle.CopySpecialized</text>
</a>
</g>
</g>
<!-- Node1&#45;&gt;Node4 -->
<g id="edge3" class="edge">
<title>Node1&#45;&gt;Node4</title>
<path fill="none" stroke="#63b8ff" d="M365.94,-124.56C358.09,-123.12 349.24,-121.49 340.13,-119.82"/>
<polygon fill="#63b8ff" stroke="#63b8ff" points="365.49,-128.04 375.96,-126.41 366.76,-121.16 365.49,-128.04"/>
</g>
<!-- Node5 -->
<g id="node5" class="node">
<title>Node5</title>
<g id="a_node5"><a xlink:href="class_search_a_thing_1_1_open_g_l_1_1_core_1_1_g_l_vertex.html#a2e16cf662a2a097070a6a803e4d1fd58" target="_top" xlink:title="Mirror this vertex to the other side of given xy plane.">
<polygon fill="white" stroke="#666666" points="287,-72.5 241,-72.5 241,-53.5 287,-53.5 287,-72.5"/>
<text text-anchor="middle" x="264" y="-60.5" font-family="Helvetica,sans-Serif" font-size="10.00">Mirror</text>
</a>
</g>
</g>
<!-- Node1&#45;&gt;Node5 -->
<g id="edge4" class="edge">
<title>Node1&#45;&gt;Node5</title>
<path fill="none" stroke="#63b8ff" d="M379.98,-113.03C369.61,-102.65 355.12,-89.88 340,-82 323.44,-73.37 302.76,-68.51 287.3,-65.87"/>
<polygon fill="#63b8ff" stroke="#63b8ff" points="377.61,-115.61 387.06,-120.39 382.65,-110.76 377.61,-115.61"/>
</g>
<!-- Node6 -->
<g id="node6" class="node">
<title>Node6</title>
<g id="a_node6"><a xlink:href="class_search_a_thing_1_1_open_g_l_1_1_core_1_1_g_l_line.html#ac32ce99edf2f5e2f77d9cf0922bb7c4e" target="_top" xlink:title="Create a mirrored primitive against given xy plane.">
<polygon fill="white" stroke="#666666" points="152,-126 0,-126 0,-96 152,-96 152,-126"/>
<text text-anchor="start" x="8" y="-114" font-family="Helvetica,sans-Serif" font-size="10.00">SearchAThing.OpenGL.Core.</text>
<text text-anchor="middle" x="76" y="-103" font-family="Helvetica,sans-Serif" font-size="10.00">GLLine.Mirror</text>
</a>
</g>
</g>
<!-- Node5&#45;&gt;Node6 -->
<g id="edge5" class="edge">
<title>Node5&#45;&gt;Node6</title>
<path fill="none" stroke="#63b8ff" d="M230.62,-71.15C217.39,-74.49 201.96,-78.41 188,-82 170.54,-86.49 151.56,-91.43 134.3,-95.94"/>
<polygon fill="#63b8ff" stroke="#63b8ff" points="231.83,-74.45 240.67,-68.61 230.12,-67.66 231.83,-74.45"/>
</g>
<!-- Node7 -->
<g id="node7" class="node">
<title>Node7</title>
<g id="a_node7"><a xlink:href="class_search_a_thing_1_1_open_g_l_1_1_core_1_1_g_l_point.html#ac32ce99edf2f5e2f77d9cf0922bb7c4e" target="_top" xlink:title="Create a mirrored primitive against given xy plane.">
<polygon fill="white" stroke="#666666" points="152,-78 0,-78 0,-48 152,-48 152,-78"/>
<text text-anchor="start" x="8" y="-66" font-family="Helvetica,sans-Serif" font-size="10.00">SearchAThing.OpenGL.Core.</text>
<text text-anchor="middle" x="76" y="-55" font-family="Helvetica,sans-Serif" font-size="10.00">GLPoint.Mirror</text>
</a>
</g>
</g>
<!-- Node5&#45;&gt;Node7 -->
<g id="edge6" class="edge">
<title>Node5&#45;&gt;Node7</title>
<path fill="none" stroke="#63b8ff" d="M230.66,-63C208.96,-63 179.46,-63 152.11,-63"/>
<polygon fill="#63b8ff" stroke="#63b8ff" points="230.93,-66.5 240.93,-63 230.93,-59.5 230.93,-66.5"/>
</g>
<!-- Node8 -->
<g id="node8" class="node">
<title>Node8</title>
<g id="a_node8"><a xlink:href="class_search_a_thing_1_1_open_g_l_1_1_core_1_1_g_l_triangle.html#ac32ce99edf2f5e2f77d9cf0922bb7c4e" target="_top" xlink:title="Create a mirrored primitive against given xy plane.">
<polygon fill="white" stroke="#666666" points="152,-30 0,-30 0,0 152,0 152,-30"/>
<text text-anchor="start" x="8" y="-18" font-family="Helvetica,sans-Serif" font-size="10.00">SearchAThing.OpenGL.Core.</text>
<text text-anchor="middle" x="76" y="-7" font-family="Helvetica,sans-Serif" font-size="10.00">GLTriangle.Mirror</text>
</a>
</g>
</g>
<!-- Node5&#45;&gt;Node8 -->
<g id="edge7" class="edge">
<title>Node5&#45;&gt;Node8</title>
<path fill="none" stroke="#63b8ff" d="M231.13,-54.78C204.86,-48 166.91,-38.2 135.24,-30.03"/>
<polygon fill="#63b8ff" stroke="#63b8ff" points="230.38,-58.2 240.93,-57.31 232.12,-51.42 230.38,-58.2"/>
</g>
</g>
</svg>
