<?xml version="1.0" encoding="UTF-8" standalone="no"?>
<!DOCTYPE svg PUBLIC "-//W3C//DTD SVG 1.1//EN"
 "http://www.w3.org/Graphics/SVG/1.1/DTD/svg11.dtd">
<!-- Generated by graphviz version 2.43.0 (0)
 -->
<!-- Title: ZoomFit Pages: 1 -->
<svg width="206pt" height="64pt"
 viewBox="0.00 0.00 206.00 64.00" xmlns="http://www.w3.org/2000/svg" xmlns:xlink="http://www.w3.org/1999/xlink">
<g id="graph0" class="graph" transform="scale(1 1) rotate(0) translate(4 60)">
<title>ZoomFit</title>
<!-- Node1 -->
<g id="node1" class="node">
<title>Node1</title>
<g id="a_node1"><a xlink:title="Fit gl model into the view.">
<polygon fill="#999999" stroke="#666666" points="198,-37 141,-37 141,-18 198,-18 198,-37"/>
<text text-anchor="middle" x="169.5" y="-25" font-family="Helvetica,sans-Serif" font-size="10.00">ZoomFit</text>
</a>
</g>
</g>
<!-- Node2 -->
<g id="node2" class="node">
<title>Node2</title>
<g id="a_node2"><a xlink:href="class_search_a_thing_1_1_open_g_l_1_1_core_1_1_g_l_control.html#a609ac6af33cb1c1fc525aff164df9543" target="_top" xlink:title="Set the view using given cube view type.">
<polygon fill="white" stroke="#666666" points="92,-56 13,-56 13,-37 92,-37 92,-56"/>
<text text-anchor="middle" x="52.5" y="-44" font-family="Helvetica,sans-Serif" font-size="10.00">CameraView</text>
</a>
</g>
</g>
<!-- Node1&#45;&gt;Node2 -->
<g id="edge1" class="edge">
<title>Node1&#45;&gt;Node2</title>
<path fill="none" stroke="#63b8ff" d="M130.91,-33.71C118.48,-35.76 104.63,-38.05 92.13,-40.12"/>
<polygon fill="#63b8ff" stroke="#63b8ff" points="131.66,-37.13 140.95,-32.05 130.52,-30.23 131.66,-37.13"/>
</g>
<!-- Node3 -->
<g id="node3" class="node">
<title>Node3</title>
<g id="a_node3"><a xlink:href="class_search_a_thing_1_1_open_g_l_1_1_core_1_1_g_l_control.html#a809dcd2f46e1da7c985e0ba750f5c389" target="_top" xlink:title="Toggle perspective mode.">
<polygon fill="white" stroke="#666666" points="105,-19 0,-19 0,0 105,0 105,-19"/>
<text text-anchor="middle" x="52.5" y="-7" font-family="Helvetica,sans-Serif" font-size="10.00">TogglePerspective</text>
</a>
</g>
</g>
<!-- Node1&#45;&gt;Node3 -->
<g id="edge2" class="edge">
<title>Node1&#45;&gt;Node3</title>
<path fill="none" stroke="#63b8ff" d="M130.91,-21.62C122.68,-20.33 113.82,-18.94 105.14,-17.58"/>
<polygon fill="#63b8ff" stroke="#63b8ff" points="130.53,-25.1 140.95,-23.19 131.62,-18.18 130.53,-25.1"/>
</g>
</g>
</svg>
