<?xml version="1.0" encoding="UTF-8" standalone="no"?>
<!DOCTYPE svg PUBLIC "-//W3C//DTD SVG 1.1//EN"
 "http://www.w3.org/Graphics/SVG/1.1/DTD/svg11.dtd">
<!-- Generated by graphviz version 2.43.0 (0)
 -->
<!-- Title: GetGLMatrixes Pages: 1 -->
<svg width="395pt" height="168pt"
 viewBox="0.00 0.00 395.00 168.00" xmlns="http://www.w3.org/2000/svg" xmlns:xlink="http://www.w3.org/1999/xlink">
<g id="graph0" class="graph" transform="scale(1 1) rotate(0) translate(4 164)">
<title>GetGLMatrixes</title>
<!-- Node1 -->
<g id="node1" class="node">
<title>Node1</title>
<g id="a_node1"><a xlink:title="Retrieve model/view/projection matrixes and camera pos/target/up through a single object.">
<polygon fill="#999999" stroke="#666666" points="387,-117 298,-117 298,-98 387,-98 387,-117"/>
<text text-anchor="middle" x="342.5" y="-105" font-family="Helvetica,sans-Serif" font-size="10.00">GetGLMatrixes</text>
</a>
</g>
</g>
<!-- Node2 -->
<g id="node2" class="node">
<title>Node2</title>
<g id="a_node2"><a xlink:href="class_search_a_thing_1_1_open_g_l_1_1_render_1_1_g_l_control.html#aac473598b86094d90e33249499313225" target="_top" xlink:title="Rotate the model by given [eye] x,y angles around given [local] rotation center.">
<polygon fill="white" stroke="#666666" points="219.5,-160 140.5,-160 140.5,-141 219.5,-141 219.5,-160"/>
<text text-anchor="middle" x="180" y="-148" font-family="Helvetica,sans-Serif" font-size="10.00">ModelRotate</text>
</a>
</g>
</g>
<!-- Node1&#45;&gt;Node2 -->
<g id="edge1" class="edge">
<title>Node1&#45;&gt;Node2</title>
<path fill="none" stroke="#63b8ff" d="M301.65,-120.07C289.02,-123.9 274.97,-128.03 262,-131.5 248.33,-135.16 233.25,-138.81 219.85,-141.91"/>
<polygon fill="#63b8ff" stroke="#63b8ff" points="302.89,-123.34 311.43,-117.06 300.84,-116.65 302.89,-123.34"/>
</g>
<!-- Node3 -->
<g id="node3" class="node">
<title>Node3</title>
<g id="a_node3"><a xlink:href="class_search_a_thing_1_1_open_g_l_1_1_render_1_1_mouse_start.html#afdf42bff5dda5ffdc719ccde42638992" target="_top" xlink:title=" ">
<polygon fill="white" stroke="#666666" points="262,-122.5 98,-122.5 98,-92.5 262,-92.5 262,-122.5"/>
<text text-anchor="start" x="106" y="-110.5" font-family="Helvetica,sans-Serif" font-size="10.00">SearchAThing.OpenGL.Render.</text>
<text text-anchor="middle" x="180" y="-99.5" font-family="Helvetica,sans-Serif" font-size="10.00">MouseStart.MouseStart</text>
</a>
</g>
</g>
<!-- Node1&#45;&gt;Node3 -->
<g id="edge2" class="edge">
<title>Node1&#45;&gt;Node3</title>
<path fill="none" stroke="#63b8ff" d="M287.53,-107.5C279.34,-107.5 270.75,-107.5 262.15,-107.5"/>
<polygon fill="#63b8ff" stroke="#63b8ff" points="287.64,-111 297.64,-107.5 287.64,-104 287.64,-111"/>
</g>
<!-- Node4 -->
<g id="node4" class="node">
<title>Node4</title>
<g id="a_node4"><a xlink:href="class_search_a_thing_1_1_open_g_l_1_1_render_1_1_g_l_control.html#afc6003d84ce56250451495e4519d569a" target="_top" xlink:title="Pan the view by the given screen translation.">
<polygon fill="white" stroke="#666666" points="197,-74 163,-74 163,-55 197,-55 197,-74"/>
<text text-anchor="middle" x="180" y="-62" font-family="Helvetica,sans-Serif" font-size="10.00">Pan</text>
</a>
</g>
</g>
<!-- Node1&#45;&gt;Node4 -->
<g id="edge3" class="edge">
<title>Node1&#45;&gt;Node4</title>
<path fill="none" stroke="#63b8ff" d="M301.65,-94.93C289.02,-91.1 274.97,-86.97 262,-83.5 239.68,-77.52 213.62,-71.59 197.21,-67.99"/>
<polygon fill="#63b8ff" stroke="#63b8ff" points="300.84,-98.35 311.43,-97.94 302.89,-91.66 300.84,-98.35"/>
</g>
<!-- Node5 -->
<g id="node5" class="node">
<title>Node5</title>
<g id="a_node5"><a xlink:href="class_search_a_thing_1_1_open_g_l_1_1_render_1_1_g_l_control.html#acd591f4d52216f736d05a37967dfbb76" target="_top" xlink:title="Pan the view down of a little factor.">
<polygon fill="white" stroke="#666666" points="62,-130 0,-130 0,-111 62,-111 62,-130"/>
<text text-anchor="middle" x="31" y="-118" font-family="Helvetica,sans-Serif" font-size="10.00">PanDown</text>
</a>
</g>
</g>
<!-- Node4&#45;&gt;Node5 -->
<g id="edge4" class="edge">
<title>Node4&#45;&gt;Node5</title>
<path fill="none" stroke="#63b8ff" d="M152.47,-68.78C136.37,-71.84 115.61,-76.66 98,-83.5 88.02,-87.38 63.99,-101.32 47.85,-110.93"/>
<polygon fill="#63b8ff" stroke="#63b8ff" points="153.55,-72.14 162.77,-66.93 152.31,-65.25 153.55,-72.14"/>
</g>
<!-- Node6 -->
<g id="node6" class="node">
<title>Node6</title>
<g id="a_node6"><a xlink:href="class_search_a_thing_1_1_open_g_l_1_1_render_1_1_g_l_control.html#ac0149d9ec4eefdc825a466e47f0cdb07" target="_top" xlink:title="Pan the view left of a little factor.">
<polygon fill="white" stroke="#666666" points="57,-93 5,-93 5,-74 57,-74 57,-93"/>
<text text-anchor="middle" x="31" y="-81" font-family="Helvetica,sans-Serif" font-size="10.00">PanLeft</text>
</a>
</g>
</g>
<!-- Node4&#45;&gt;Node6 -->
<g id="edge5" class="edge">
<title>Node4&#45;&gt;Node6</title>
<path fill="none" stroke="#63b8ff" d="M152.71,-67.9C125.62,-71.4 83.68,-76.82 57.05,-80.26"/>
<polygon fill="#63b8ff" stroke="#63b8ff" points="153.52,-71.32 162.99,-66.57 152.62,-64.38 153.52,-71.32"/>
</g>
<!-- Node7 -->
<g id="node7" class="node">
<title>Node7</title>
<g id="a_node7"><a xlink:href="class_search_a_thing_1_1_open_g_l_1_1_render_1_1_g_l_control.html#a21c11768939dccbc75ef58be240cc90b" target="_top" xlink:title="Pan the view right of a little factor.">
<polygon fill="white" stroke="#666666" points="60.5,-56 1.5,-56 1.5,-37 60.5,-37 60.5,-56"/>
<text text-anchor="middle" x="31" y="-44" font-family="Helvetica,sans-Serif" font-size="10.00">PanRight</text>
</a>
</g>
</g>
<!-- Node4&#45;&gt;Node7 -->
<g id="edge6" class="edge">
<title>Node4&#45;&gt;Node7</title>
<path fill="none" stroke="#63b8ff" d="M152.79,-61.29C126.87,-58.12 87.3,-53.27 60.58,-50"/>
<polygon fill="#63b8ff" stroke="#63b8ff" points="152.64,-64.8 162.99,-62.54 153.49,-57.85 152.64,-64.8"/>
</g>
<!-- Node8 -->
<g id="node8" class="node">
<title>Node8</title>
<g id="a_node8"><a xlink:href="class_search_a_thing_1_1_open_g_l_1_1_render_1_1_g_l_control.html#adbc9327929edf6458b41fb0849c41650" target="_top" xlink:title="Pan the view up of a little factor.">
<polygon fill="white" stroke="#666666" points="54.5,-19 7.5,-19 7.5,0 54.5,0 54.5,-19"/>
<text text-anchor="middle" x="31" y="-7" font-family="Helvetica,sans-Serif" font-size="10.00">PanUp</text>
</a>
</g>
</g>
<!-- Node4&#45;&gt;Node8 -->
<g id="edge7" class="edge">
<title>Node4&#45;&gt;Node8</title>
<path fill="none" stroke="#63b8ff" d="M153.53,-54.97C125.66,-44.54 81.42,-27.99 54.71,-18"/>
<polygon fill="#63b8ff" stroke="#63b8ff" points="152.4,-58.28 162.99,-58.51 154.85,-51.73 152.4,-58.28"/>
</g>
</g>
</svg>
