<?xml version="1.0" encoding="UTF-8" standalone="no"?>
<!DOCTYPE svg PUBLIC "-//W3C//DTD SVG 1.1//EN"
 "http://www.w3.org/Graphics/SVG/1.1/DTD/svg11.dtd">
<!-- Generated by graphviz version 2.43.0 (0)
 -->
<!-- Title: SetInt Pages: 1 -->
<svg width="453pt" height="86pt"
 viewBox="0.00 0.00 453.00 86.00" xmlns="http://www.w3.org/2000/svg" xmlns:xlink="http://www.w3.org/1999/xlink">
<g id="graph0" class="graph" transform="scale(1 1) rotate(0) translate(4 82)">
<title>SetInt</title>
<!-- Node1 -->
<g id="node1" class="node">
<title>Node1</title>
<g id="a_node1"><a xlink:title="Set int uniform variable.">
<polygon fill="#999999" stroke="#666666" points="445,-48.5 400,-48.5 400,-29.5 445,-29.5 445,-48.5"/>
<text text-anchor="middle" x="422.5" y="-36.5" font-family="Helvetica,sans-Serif" font-size="10.00">SetInt</text>
</a>
</g>
</g>
<!-- Node2 -->
<g id="node2" class="node">
<title>Node2</title>
<g id="a_node2"><a xlink:href="class_search_a_thing_1_1_open_g_l_1_1_render_1_1_g_l_control.html#a3e2efcd721af8aba50e8e1736db54b77" target="_top" xlink:title="Main gl render process.">
<polygon fill="white" stroke="#666666" points="364,-54 200,-54 200,-24 364,-24 364,-54"/>
<text text-anchor="start" x="208" y="-42" font-family="Helvetica,sans-Serif" font-size="10.00">SearchAThing.OpenGL.Render.</text>
<text text-anchor="middle" x="282" y="-31" font-family="Helvetica,sans-Serif" font-size="10.00">GLControl.Render</text>
</a>
</g>
</g>
<!-- Node1&#45;&gt;Node2 -->
<g id="edge1" class="edge">
<title>Node1&#45;&gt;Node2</title>
<path fill="none" stroke="#63b8ff" d="M389.83,-39C382.01,-39 373.28,-39 364.27,-39"/>
<polygon fill="#63b8ff" stroke="#63b8ff" points="389.86,-42.5 399.86,-39 389.86,-35.5 389.86,-42.5"/>
</g>
<!-- Node3 -->
<g id="node3" class="node">
<title>Node3</title>
<g id="a_node3"><a xlink:href="class_search_a_thing_1_1_open_g_l_1_1_render_1_1_g_l_control.html#abc7ba7c829d73293844b8d0b84dcf2f5" target="_top" xlink:title="Capture an image of current control using offscreen render device and actual rendere device size.">
<polygon fill="white" stroke="#666666" points="164,-78 0,-78 0,-48 164,-48 164,-78"/>
<text text-anchor="start" x="8" y="-66" font-family="Helvetica,sans-Serif" font-size="10.00">SearchAThing.OpenGL.Render.</text>
<text text-anchor="middle" x="82" y="-55" font-family="Helvetica,sans-Serif" font-size="10.00">GLControl.CaptureImage</text>
</a>
</g>
</g>
<!-- Node2&#45;&gt;Node3 -->
<g id="edge2" class="edge">
<title>Node2&#45;&gt;Node3</title>
<path fill="none" stroke="#63b8ff" d="M189.92,-50.04C181.37,-51.08 172.75,-52.12 164.3,-53.15"/>
<polygon fill="#63b8ff" stroke="#63b8ff" points="190.39,-53.51 199.89,-48.83 189.55,-46.56 190.39,-53.51"/>
</g>
<!-- Node4 -->
<g id="node4" class="node">
<title>Node4</title>
<g id="a_node4"><a xlink:href="class_search_a_thing_1_1_open_g_l_1_1_render_1_1_g_l_control.html#a6e1066020a6e35c62b91d19d7414ecab" target="_top" xlink:title="Capture an image of current control using offscreen render device with given render device size.">
<polygon fill="white" stroke="#666666" points="164,-30 0,-30 0,0 164,0 164,-30"/>
<text text-anchor="start" x="8" y="-18" font-family="Helvetica,sans-Serif" font-size="10.00">SearchAThing.OpenGL.Render.</text>
<text text-anchor="middle" x="82" y="-7" font-family="Helvetica,sans-Serif" font-size="10.00">GLControl.CaptureImage</text>
</a>
</g>
</g>
<!-- Node2&#45;&gt;Node4 -->
<g id="edge3" class="edge">
<title>Node2&#45;&gt;Node4</title>
<path fill="none" stroke="#63b8ff" d="M189.92,-27.96C181.37,-26.92 172.75,-25.88 164.3,-24.85"/>
<polygon fill="#63b8ff" stroke="#63b8ff" points="189.55,-31.44 199.89,-29.17 190.39,-24.49 189.55,-31.44"/>
</g>
</g>
</svg>
