<?xml version="1.0" encoding="UTF-8" standalone="no"?>
<!DOCTYPE svg PUBLIC "-//W3C//DTD SVG 1.1//EN"
 "http://www.w3.org/Graphics/SVG/1.1/DTD/svg11.dtd">
<!-- Generated by graphviz version 2.43.0 (0)
 -->
<!-- Title: InvalidateModel Pages: 1 -->
<svg width="700pt" height="813pt"
 viewBox="0.00 0.00 700.00 812.59" xmlns="http://www.w3.org/2000/svg" xmlns:xlink="http://www.w3.org/1999/xlink">
<g id="graph0" class="graph" transform="scale(1 1) rotate(0) translate(4 808.59)">
<title>InvalidateModel</title>
<!-- Node1 -->
<g id="node1" class="node">
<title>Node1</title>
<g id="a_node1"><a xlink:title="Invalidate the gl model. &#160;&#160;&#160;This cause BuildModel to be invoked at next render.">
<polygon fill="#999999" stroke="#666666" points="692,-401.09 597,-401.09 597,-382.09 692,-382.09 692,-401.09"/>
<text text-anchor="middle" x="644.5" y="-389.09" font-family="Helvetica,sans-Serif" font-size="10.00">InvalidateModel</text>
</a>
</g>
</g>
<!-- Node2 -->
<g id="node2" class="node">
<title>Node2</title>
<g id="a_node2"><a xlink:href="class_search_a_thing_1_1_open_g_l_1_1_core_1_1_g_l_control.html#af92032621553c72b62673dbc9bbd43fd" target="_top" xlink:title="Regenerate the model with GLModel.BuildModel if this is the first invalidation or the invalidate argu...">
<polygon fill="white" stroke="#666666" points="561,-406.59 409,-406.59 409,-376.59 561,-376.59 561,-406.59"/>
<text text-anchor="start" x="417" y="-394.59" font-family="Helvetica,sans-Serif" font-size="10.00">SearchAThing.OpenGL.Core.</text>
<text text-anchor="middle" x="485" y="-383.59" font-family="Helvetica,sans-Serif" font-size="10.00">GLControl.Invalidate</text>
</a>
</g>
</g>
<!-- Node1&#45;&gt;Node2 -->
<g id="edge1" class="edge">
<title>Node1&#45;&gt;Node2</title>
<path fill="none" stroke="#63b8ff" d="M586.5,-391.59C578.29,-391.59 569.75,-391.59 561.26,-391.59"/>
<polygon fill="#63b8ff" stroke="#63b8ff" points="586.67,-395.09 596.67,-391.59 586.67,-388.09 586.67,-395.09"/>
</g>
<!-- Node3 -->
<g id="node3" class="node">
<title>Node3</title>
<g id="a_node3"><a xlink:href="class_search_a_thing_1_1_open_g_l_1_1_core_1_1_g_l_control.html#a4393fa83b725fcac29a5bc6ab5832ac5" target="_top" xlink:title="Rotate the camera [view] a given rotation center [local]. ( not yet tested )">
<polygon fill="white" stroke="#666666" points="358.5,-780.59 206.5,-780.59 206.5,-750.59 358.5,-750.59 358.5,-780.59"/>
<text text-anchor="start" x="214.5" y="-768.59" font-family="Helvetica,sans-Serif" font-size="10.00">SearchAThing.OpenGL.Core.</text>
<text text-anchor="middle" x="282.5" y="-757.59" font-family="Helvetica,sans-Serif" font-size="10.00">GLControl.CameraRotate</text>
</a>
</g>
</g>
<!-- Node2&#45;&gt;Node3 -->
<g id="edge2" class="edge">
<title>Node2&#45;&gt;Node3</title>
<path fill="none" stroke="#63b8ff" d="M483.79,-416.85C481.84,-480.95 467.53,-651.23 373,-741.59 368.81,-745.59 364.03,-748.94 358.91,-751.74"/>
<polygon fill="#63b8ff" stroke="#63b8ff" points="487.29,-416.9 484.02,-406.83 480.29,-416.74 487.29,-416.9"/>
</g>
<!-- Node4 -->
<g id="node4" class="node">
<title>Node4</title>
<g id="a_node4"><a xlink:href="class_search_a_thing_1_1_open_g_l_1_1_core_1_1_g_l_control.html#a609ac6af33cb1c1fc525aff164df9543" target="_top" xlink:title="Set the view using given cube view type.">
<polygon fill="white" stroke="#666666" points="154,-475.59 2,-475.59 2,-445.59 154,-445.59 154,-475.59"/>
<text text-anchor="start" x="10" y="-463.59" font-family="Helvetica,sans-Serif" font-size="10.00">SearchAThing.OpenGL.Core.</text>
<text text-anchor="middle" x="78" y="-452.59" font-family="Helvetica,sans-Serif" font-size="10.00">GLControl.CameraView</text>
</a>
</g>
</g>
<!-- Node2&#45;&gt;Node4 -->
<g id="edge3" class="edge">
<title>Node2&#45;&gt;Node4</title>
<path fill="none" stroke="#63b8ff" d="M470.54,-415.38C452.6,-444.39 417.82,-491.99 373,-511.59 299.29,-543.81 270.64,-528.51 192,-511.59 160.02,-504.7 126.18,-488.01 103.96,-475.59"/>
<polygon fill="#63b8ff" stroke="#63b8ff" points="473.63,-417.04 475.77,-406.67 467.62,-413.44 473.63,-417.04"/>
</g>
<!-- Node5 -->
<g id="node5" class="node">
<title>Node5</title>
<g id="a_node5"><a xlink:href="class_search_a_thing_1_1_open_g_l_1_1_core_1_1_g_l_control.html#a5e5904b44d1b553f27e0079fe42d5ac7" target="_top" xlink:title="Zoom eye space by given scale factor.">
<polygon fill="white" stroke="#666666" points="358.5,-684.59 206.5,-684.59 206.5,-654.59 358.5,-654.59 358.5,-684.59"/>
<text text-anchor="start" x="214.5" y="-672.59" font-family="Helvetica,sans-Serif" font-size="10.00">SearchAThing.OpenGL.Core.</text>
<text text-anchor="middle" x="282.5" y="-661.59" font-family="Helvetica,sans-Serif" font-size="10.00">GLControl.CameraZoom</text>
</a>
</g>
</g>
<!-- Node2&#45;&gt;Node5 -->
<g id="edge4" class="edge">
<title>Node2&#45;&gt;Node5</title>
<path fill="none" stroke="#63b8ff" d="M480.3,-417.05C471.49,-468.28 444.38,-584.19 373,-645.59 368.73,-649.26 363.96,-652.37 358.9,-655.02"/>
<polygon fill="#63b8ff" stroke="#63b8ff" points="483.81,-417.29 481.96,-406.86 476.9,-416.17 483.81,-417.29"/>
</g>
<!-- Node6 -->
<g id="node6" class="node">
<title>Node6</title>
<g id="a_node6"><a xlink:href="class_search_a_thing_1_1_open_g_l_1_1_core_1_1_g_l_control.html#a28291bb40e52fa94a0d72eaf84bb6307" target="_top" xlink:title="Restore current view config from given pathfilename.">
<polygon fill="white" stroke="#666666" points="358.5,-636.59 206.5,-636.59 206.5,-606.59 358.5,-606.59 358.5,-636.59"/>
<text text-anchor="start" x="214.5" y="-624.59" font-family="Helvetica,sans-Serif" font-size="10.00">SearchAThing.OpenGL.Core.</text>
<text text-anchor="middle" x="282.5" y="-613.59" font-family="Helvetica,sans-Serif" font-size="10.00">GLControl.LoadView</text>
</a>
</g>
</g>
<!-- Node2&#45;&gt;Node6 -->
<g id="edge5" class="edge">
<title>Node2&#45;&gt;Node6</title>
<path fill="none" stroke="#63b8ff" d="M477.62,-416.48C465.15,-460 433.34,-549.85 373,-597.59 368.58,-601.08 363.7,-604.07 358.57,-606.62"/>
<polygon fill="#63b8ff" stroke="#63b8ff" points="481.03,-417.28 480.32,-406.7 474.28,-415.41 481.03,-417.28"/>
</g>
<!-- Node7 -->
<g id="node7" class="node">
<title>Node7</title>
<g id="a_node7"><a xlink:href="class_search_a_thing_1_1_open_g_l_1_1_core_1_1_g_l_control.html#aac473598b86094d90e33249499313225" target="_top" xlink:title="Rotate the model by given [eye] x,y angles around given [local] rotation center.">
<polygon fill="white" stroke="#666666" points="358.5,-588.59 206.5,-588.59 206.5,-558.59 358.5,-558.59 358.5,-588.59"/>
<text text-anchor="start" x="214.5" y="-576.59" font-family="Helvetica,sans-Serif" font-size="10.00">SearchAThing.OpenGL.Core.</text>
<text text-anchor="middle" x="282.5" y="-565.59" font-family="Helvetica,sans-Serif" font-size="10.00">GLControl.ModelRotate</text>
</a>
</g>
</g>
<!-- Node2&#45;&gt;Node7 -->
<g id="edge6" class="edge">
<title>Node2&#45;&gt;Node7</title>
<path fill="none" stroke="#63b8ff" d="M472.64,-415.76C455.62,-449.43 420.36,-510.18 373,-544.59 365.2,-550.25 356.25,-554.84 347.08,-558.56"/>
<polygon fill="#63b8ff" stroke="#63b8ff" points="475.86,-417.15 477.14,-406.63 469.58,-414.05 475.86,-417.15"/>
</g>
<!-- Node8 -->
<g id="node8" class="node">
<title>Node8</title>
<g id="a_node8"><a xlink:href="class_search_a_thing_1_1_open_g_l_1_1_core_1_1_g_l_control.html#afc6003d84ce56250451495e4519d569a" target="_top" xlink:title="Pan the view by the given screen translation.">
<polygon fill="white" stroke="#666666" points="358.5,-732.59 206.5,-732.59 206.5,-702.59 358.5,-702.59 358.5,-732.59"/>
<text text-anchor="start" x="214.5" y="-720.59" font-family="Helvetica,sans-Serif" font-size="10.00">SearchAThing.OpenGL.Core.</text>
<text text-anchor="middle" x="282.5" y="-709.59" font-family="Helvetica,sans-Serif" font-size="10.00">GLControl.Pan</text>
</a>
</g>
</g>
<!-- Node2&#45;&gt;Node8 -->
<g id="edge7" class="edge">
<title>Node2&#45;&gt;Node8</title>
<path fill="none" stroke="#63b8ff" d="M482.31,-416.89C477.06,-474.81 455.91,-617.84 373,-693.59 368.72,-697.49 363.88,-700.78 358.72,-703.53"/>
<polygon fill="#63b8ff" stroke="#63b8ff" points="485.81,-417.05 483.14,-406.79 478.84,-416.47 485.81,-417.05"/>
</g>
<!-- Node13 -->
<g id="node13" class="node">
<title>Node13</title>
<g id="a_node13"><a xlink:href="class_search_a_thing_1_1_open_g_l_1_1_core_1_1_g_l_control.html#a496bd7a18ca3ccf8a4168430fbf21ca0" target="_top" xlink:title="Switch (model) selection mode.">
<polygon fill="white" stroke="#666666" points="368.5,-502.59 196.5,-502.59 196.5,-472.59 368.5,-472.59 368.5,-502.59"/>
<text text-anchor="start" x="204.5" y="-490.59" font-family="Helvetica,sans-Serif" font-size="10.00">SearchAThing.OpenGL.Core.</text>
<text text-anchor="middle" x="282.5" y="-479.59" font-family="Helvetica,sans-Serif" font-size="10.00">GLControl.SwitchSelectionMode</text>
</a>
</g>
</g>
<!-- Node2&#45;&gt;Node13 -->
<g id="edge12" class="edge">
<title>Node2&#45;&gt;Node13</title>
<path fill="none" stroke="#63b8ff" d="M456.56,-412.89C434.9,-428.81 403.38,-450.07 373,-463.59 365.5,-466.92 357.44,-469.88 349.34,-472.48"/>
<polygon fill="#63b8ff" stroke="#63b8ff" points="458.71,-415.65 464.63,-406.87 454.52,-410.04 458.71,-415.65"/>
</g>
<!-- Node14 -->
<g id="node14" class="node">
<title>Node14</title>
<g id="a_node14"><a xlink:href="class_search_a_thing_1_1_open_g_l_1_1_core_1_1_g_l_control.html#a46550daf1e758d55af170aaf35181ab6" target="_top" xlink:title="Tilt camera [view] by rotating it&#39;s up vector around [view] z axis.">
<polygon fill="white" stroke="#666666" points="358.5,-454.59 206.5,-454.59 206.5,-424.59 358.5,-424.59 358.5,-454.59"/>
<text text-anchor="start" x="214.5" y="-442.59" font-family="Helvetica,sans-Serif" font-size="10.00">SearchAThing.OpenGL.Core.</text>
<text text-anchor="middle" x="282.5" y="-431.59" font-family="Helvetica,sans-Serif" font-size="10.00">GLControl.Tilt</text>
</a>
</g>
</g>
<!-- Node2&#45;&gt;Node14 -->
<g id="edge13" class="edge">
<title>Node2&#45;&gt;Node14</title>
<path fill="none" stroke="#63b8ff" d="M411.14,-409.03C389.85,-414.13 366.77,-419.65 346.17,-424.58"/>
<polygon fill="#63b8ff" stroke="#63b8ff" points="412.2,-412.37 421.11,-406.64 410.57,-405.57 412.2,-412.37"/>
</g>
<!-- Node15 -->
<g id="node15" class="node">
<title>Node15</title>
<g id="a_node15"><a xlink:href="class_search_a_thing_1_1_open_g_l_1_1_core_1_1_g_l_control.html#a809dcd2f46e1da7c985e0ba750f5c389" target="_top" xlink:title="Toggle perspective mode.">
<polygon fill="white" stroke="#666666" points="156,-192.59 0,-192.59 0,-162.59 156,-162.59 156,-192.59"/>
<text text-anchor="start" x="8" y="-180.59" font-family="Helvetica,sans-Serif" font-size="10.00">SearchAThing.OpenGL.Core.</text>
<text text-anchor="middle" x="78" y="-169.59" font-family="Helvetica,sans-Serif" font-size="10.00">GLControl.TogglePerspective</text>
</a>
</g>
</g>
<!-- Node2&#45;&gt;Node15 -->
<g id="edge14" class="edge">
<title>Node2&#45;&gt;Node15</title>
<path fill="none" stroke="#63b8ff" d="M480.16,-366.56C468.15,-291.78 428.67,-72.68 373,-31.59 308.28,16.19 264.22,3.84 192,-31.59 135.31,-59.4 98.95,-130.86 85.21,-162.33"/>
<polygon fill="#63b8ff" stroke="#63b8ff" points="476.72,-367.17 481.74,-376.5 483.63,-366.08 476.72,-367.17"/>
</g>
<!-- Node16 -->
<g id="node16" class="node">
<title>Node16</title>
<g id="a_node16"><a xlink:href="class_search_a_thing_1_1_open_g_l_1_1_core_1_1_g_l_control.html#aaf887d3cb7075f3b39074bc09f2af646" target="_top" xlink:title="Toggle shade with edge.">
<polygon fill="white" stroke="#666666" points="370.5,-358.59 194.5,-358.59 194.5,-328.59 370.5,-328.59 370.5,-358.59"/>
<text text-anchor="start" x="202.5" y="-346.59" font-family="Helvetica,sans-Serif" font-size="10.00">SearchAThing.OpenGL.Core.</text>
<text text-anchor="middle" x="282.5" y="-335.59" font-family="Helvetica,sans-Serif" font-size="10.00">GLControl.ToggleShadeWithEdge</text>
</a>
</g>
</g>
<!-- Node2&#45;&gt;Node16 -->
<g id="edge15" class="edge">
<title>Node2&#45;&gt;Node16</title>
<path fill="none" stroke="#63b8ff" d="M411.14,-374.15C389.85,-369.05 366.77,-363.52 346.17,-358.59"/>
<polygon fill="#63b8ff" stroke="#63b8ff" points="410.57,-377.61 421.11,-376.53 412.2,-370.8 410.57,-377.61"/>
</g>
<!-- Node17 -->
<g id="node17" class="node">
<title>Node17</title>
<g id="a_node17"><a xlink:href="class_search_a_thing_1_1_open_g_l_1_1_core_1_1_g_l_control.html#a76c43e4f8ae0b22ca87fbe6ab37c3c23" target="_top" xlink:title="Toggle display of model bounding box ( generated at runtime through a temporary vertex manager ).">
<polygon fill="white" stroke="#666666" points="373,-310.59 192,-310.59 192,-280.59 373,-280.59 373,-310.59"/>
<text text-anchor="start" x="200" y="-298.59" font-family="Helvetica,sans-Serif" font-size="10.00">SearchAThing.OpenGL.Core.</text>
<text text-anchor="middle" x="282.5" y="-287.59" font-family="Helvetica,sans-Serif" font-size="10.00">GLControl.ToggleShowModelBBox</text>
</a>
</g>
</g>
<!-- Node2&#45;&gt;Node17 -->
<g id="edge16" class="edge">
<title>Node2&#45;&gt;Node17</title>
<path fill="none" stroke="#63b8ff" d="M456.56,-370.28C434.9,-354.36 403.38,-333.11 373,-319.59 365.5,-316.25 357.44,-313.29 349.34,-310.69"/>
<polygon fill="#63b8ff" stroke="#63b8ff" points="454.52,-373.13 464.63,-376.31 458.71,-367.52 454.52,-373.13"/>
</g>
<!-- Node18 -->
<g id="node18" class="node">
<title>Node18</title>
<g id="a_node18"><a xlink:href="class_search_a_thing_1_1_open_g_l_1_1_core_1_1_g_l_control.html#a2a71dcd049526738239381c0d2ce9345" target="_top" xlink:title="Toggle show normals.">
<polygon fill="white" stroke="#666666" points="366,-262.59 199,-262.59 199,-232.59 366,-232.59 366,-262.59"/>
<text text-anchor="start" x="207" y="-250.59" font-family="Helvetica,sans-Serif" font-size="10.00">SearchAThing.OpenGL.Core.</text>
<text text-anchor="middle" x="282.5" y="-239.59" font-family="Helvetica,sans-Serif" font-size="10.00">GLControl.ToggleShowNormals</text>
</a>
</g>
</g>
<!-- Node2&#45;&gt;Node18 -->
<g id="edge17" class="edge">
<title>Node2&#45;&gt;Node18</title>
<path fill="none" stroke="#63b8ff" d="M468.45,-367.97C449.24,-340.68 414.04,-296.36 373,-271.59 367.35,-268.18 361.22,-265.25 354.9,-262.72"/>
<polygon fill="#63b8ff" stroke="#63b8ff" points="465.78,-370.27 474.33,-376.52 471.55,-366.3 465.78,-370.27"/>
</g>
<!-- Node19 -->
<g id="node19" class="node">
<title>Node19</title>
<g id="a_node19"><a xlink:href="class_search_a_thing_1_1_open_g_l_1_1_core_1_1_g_l_control.html#a1a983cc95609136123b361f3ed2ebe96" target="_top" xlink:title="Toggle shadows generation.">
<polygon fill="white" stroke="#666666" points="360.5,-214.59 204.5,-214.59 204.5,-184.59 360.5,-184.59 360.5,-214.59"/>
<text text-anchor="start" x="212.5" y="-202.59" font-family="Helvetica,sans-Serif" font-size="10.00">SearchAThing.OpenGL.Core.</text>
<text text-anchor="middle" x="282.5" y="-191.59" font-family="Helvetica,sans-Serif" font-size="10.00">GLControl.ToggleUseShadow</text>
</a>
</g>
</g>
<!-- Node2&#45;&gt;Node19 -->
<g id="edge18" class="edge">
<title>Node2&#45;&gt;Node19</title>
<path fill="none" stroke="#63b8ff" d="M474.45,-366.85C458.91,-329.93 424.59,-260.76 373,-223.59 368.17,-220.11 362.87,-217.13 357.33,-214.59"/>
<polygon fill="#63b8ff" stroke="#63b8ff" points="471.31,-368.43 478.34,-376.36 477.79,-365.78 471.31,-368.43"/>
</g>
<!-- Node20 -->
<g id="node20" class="node">
<title>Node20</title>
<g id="a_node20"><a xlink:href="class_search_a_thing_1_1_open_g_l_1_1_core_1_1_g_l_control.html#a2ceddd0bec1b455a5fe13ba85af6df19" target="_top" xlink:title="Toggle use of textures.">
<polygon fill="white" stroke="#666666" points="359.5,-166.59 205.5,-166.59 205.5,-136.59 359.5,-136.59 359.5,-166.59"/>
<text text-anchor="start" x="213.5" y="-154.59" font-family="Helvetica,sans-Serif" font-size="10.00">SearchAThing.OpenGL.Core.</text>
<text text-anchor="middle" x="282.5" y="-143.59" font-family="Helvetica,sans-Serif" font-size="10.00">GLControl.ToggleUseTexture</text>
</a>
</g>
</g>
<!-- Node2&#45;&gt;Node20 -->
<g id="edge19" class="edge">
<title>Node2&#45;&gt;Node20</title>
<path fill="none" stroke="#63b8ff" d="M478.23,-366.46C466.52,-321.22 435.57,-226.09 373,-175.59 368.74,-172.15 364.04,-169.21 359.08,-166.68"/>
<polygon fill="#63b8ff" stroke="#63b8ff" points="474.88,-367.47 480.69,-376.33 481.67,-365.78 474.88,-367.47"/>
</g>
<!-- Node21 -->
<g id="node21" class="node">
<title>Node21</title>
<g id="a_node21"><a xlink:href="class_search_a_thing_1_1_open_g_l_1_1_core_1_1_g_l_control.html#a10d694aff8f24ea1e1b52a95859401f7" target="_top" xlink:title="Toggle vertex visibility.">
<polygon fill="white" stroke="#666666" points="369,-118.59 196,-118.59 196,-88.59 369,-88.59 369,-118.59"/>
<text text-anchor="start" x="204" y="-106.59" font-family="Helvetica,sans-Serif" font-size="10.00">SearchAThing.OpenGL.Core.</text>
<text text-anchor="middle" x="282.5" y="-95.59" font-family="Helvetica,sans-Serif" font-size="10.00">GLControl.ToggleVertexVisibility</text>
</a>
</g>
</g>
<!-- Node2&#45;&gt;Node21 -->
<g id="edge20" class="edge">
<title>Node2&#45;&gt;Node21</title>
<path fill="none" stroke="#63b8ff" d="M480.79,-366.23C472.75,-313.59 446.8,-191.98 373,-127.59 369.12,-124.2 364.81,-121.29 360.24,-118.78"/>
<polygon fill="#63b8ff" stroke="#63b8ff" points="477.36,-366.97 482.24,-376.38 484.29,-365.98 477.36,-366.97"/>
</g>
<!-- Node22 -->
<g id="node22" class="node">
<title>Node22</title>
<g id="a_node22"><a xlink:href="class_search_a_thing_1_1_open_g_l_1_1_core_1_1_g_l_control.html#a0b013ae153047446187737c929853f36" target="_top" xlink:title="Toggle wireframe mode.">
<polygon fill="white" stroke="#666666" points="358.5,-70.59 206.5,-70.59 206.5,-40.59 358.5,-40.59 358.5,-70.59"/>
<text text-anchor="start" x="214.5" y="-58.59" font-family="Helvetica,sans-Serif" font-size="10.00">SearchAThing.OpenGL.Core.</text>
<text text-anchor="middle" x="282.5" y="-47.59" font-family="Helvetica,sans-Serif" font-size="10.00">GLControl.ToggleWireframe</text>
</a>
</g>
</g>
<!-- Node2&#45;&gt;Node22 -->
<g id="edge21" class="edge">
<title>Node2&#45;&gt;Node22</title>
<path fill="none" stroke="#63b8ff" d="M482.65,-366.25C478.1,-306.98 458.3,-158.34 373,-79.59 368.74,-75.66 363.92,-72.36 358.76,-69.59"/>
<polygon fill="#63b8ff" stroke="#63b8ff" points="479.16,-366.51 483.34,-376.24 486.15,-366.03 479.16,-366.51"/>
</g>
<!-- Node23 -->
<g id="node23" class="node">
<title>Node23</title>
<g id="a_node23"><a xlink:href="class_search_a_thing_1_1_open_g_l_1_1_core_1_1_g_l_control.html#a3647f3040be99a06b6a07bfeed13ad92" target="_top" xlink:title="Fit gl model into the view.">
<polygon fill="white" stroke="#666666" points="358.5,-406.59 206.5,-406.59 206.5,-376.59 358.5,-376.59 358.5,-406.59"/>
<text text-anchor="start" x="214.5" y="-394.59" font-family="Helvetica,sans-Serif" font-size="10.00">SearchAThing.OpenGL.Core.</text>
<text text-anchor="middle" x="282.5" y="-383.59" font-family="Helvetica,sans-Serif" font-size="10.00">GLControl.ZoomFit</text>
</a>
</g>
</g>
<!-- Node2&#45;&gt;Node23 -->
<g id="edge22" class="edge">
<title>Node2&#45;&gt;Node23</title>
<path fill="none" stroke="#63b8ff" d="M398.72,-391.59C385.45,-391.59 371.84,-391.59 358.82,-391.59"/>
<polygon fill="#63b8ff" stroke="#63b8ff" points="398.77,-395.09 408.77,-391.59 398.77,-388.09 398.77,-395.09"/>
</g>
<!-- Node9 -->
<g id="node9" class="node">
<title>Node9</title>
<g id="a_node9"><a xlink:href="class_search_a_thing_1_1_open_g_l_1_1_core_1_1_g_l_control.html#acd591f4d52216f736d05a37967dfbb76" target="_top" xlink:title="Pan the view down of a little factor.">
<polygon fill="white" stroke="#666666" points="154,-708.59 2,-708.59 2,-678.59 154,-678.59 154,-708.59"/>
<text text-anchor="start" x="10" y="-696.59" font-family="Helvetica,sans-Serif" font-size="10.00">SearchAThing.OpenGL.Core.</text>
<text text-anchor="middle" x="78" y="-685.59" font-family="Helvetica,sans-Serif" font-size="10.00">GLControl.PanDown</text>
</a>
</g>
</g>
<!-- Node8&#45;&gt;Node9 -->
<g id="edge8" class="edge">
<title>Node8&#45;&gt;Node9</title>
<path fill="none" stroke="#63b8ff" d="M196.32,-707.49C182.38,-705.84 168.02,-704.14 154.33,-702.51"/>
<polygon fill="#63b8ff" stroke="#63b8ff" points="196.04,-710.98 206.38,-708.68 196.87,-704.03 196.04,-710.98"/>
</g>
<!-- Node10 -->
<g id="node10" class="node">
<title>Node10</title>
<g id="a_node10"><a xlink:href="class_search_a_thing_1_1_open_g_l_1_1_core_1_1_g_l_control.html#ac0149d9ec4eefdc825a466e47f0cdb07" target="_top" xlink:title="Pan the view left of a little factor.">
<polygon fill="white" stroke="#666666" points="154,-660.59 2,-660.59 2,-630.59 154,-630.59 154,-660.59"/>
<text text-anchor="start" x="10" y="-648.59" font-family="Helvetica,sans-Serif" font-size="10.00">SearchAThing.OpenGL.Core.</text>
<text text-anchor="middle" x="78" y="-637.59" font-family="Helvetica,sans-Serif" font-size="10.00">GLControl.PanLeft</text>
</a>
</g>
</g>
<!-- Node8&#45;&gt;Node10 -->
<g id="edge9" class="edge">
<title>Node8&#45;&gt;Node10</title>
<path fill="none" stroke="#63b8ff" d="M205.81,-699.2C201.08,-697.46 196.44,-695.6 192,-693.59 174.48,-685.66 173.36,-677.87 156,-669.59 149.05,-666.27 141.53,-663.27 134.01,-660.61"/>
<polygon fill="#63b8ff" stroke="#63b8ff" points="205.03,-702.63 215.62,-702.57 207.3,-696.01 205.03,-702.63"/>
</g>
<!-- Node11 -->
<g id="node11" class="node">
<title>Node11</title>
<g id="a_node11"><a xlink:href="class_search_a_thing_1_1_open_g_l_1_1_core_1_1_g_l_control.html#a21c11768939dccbc75ef58be240cc90b" target="_top" xlink:title="Pan the view right of a little factor.">
<polygon fill="white" stroke="#666666" points="154,-804.59 2,-804.59 2,-774.59 154,-774.59 154,-804.59"/>
<text text-anchor="start" x="10" y="-792.59" font-family="Helvetica,sans-Serif" font-size="10.00">SearchAThing.OpenGL.Core.</text>
<text text-anchor="middle" x="78" y="-781.59" font-family="Helvetica,sans-Serif" font-size="10.00">GLControl.PanRight</text>
</a>
</g>
</g>
<!-- Node8&#45;&gt;Node11 -->
<g id="edge10" class="edge">
<title>Node8&#45;&gt;Node11</title>
<path fill="none" stroke="#63b8ff" d="M205.81,-735.97C201.08,-737.71 196.44,-739.58 192,-741.59 174.48,-749.52 173.36,-757.31 156,-765.59 149.05,-768.9 141.53,-771.9 134.01,-774.57"/>
<polygon fill="#63b8ff" stroke="#63b8ff" points="207.3,-739.16 215.62,-732.6 205.03,-732.54 207.3,-739.16"/>
</g>
<!-- Node12 -->
<g id="node12" class="node">
<title>Node12</title>
<g id="a_node12"><a xlink:href="class_search_a_thing_1_1_open_g_l_1_1_core_1_1_g_l_control.html#adbc9327929edf6458b41fb0849c41650" target="_top" xlink:title="Pan the view up of a little factor.">
<polygon fill="white" stroke="#666666" points="154,-756.59 2,-756.59 2,-726.59 154,-726.59 154,-756.59"/>
<text text-anchor="start" x="10" y="-744.59" font-family="Helvetica,sans-Serif" font-size="10.00">SearchAThing.OpenGL.Core.</text>
<text text-anchor="middle" x="78" y="-733.59" font-family="Helvetica,sans-Serif" font-size="10.00">GLControl.PanUp</text>
</a>
</g>
</g>
<!-- Node8&#45;&gt;Node12 -->
<g id="edge11" class="edge">
<title>Node8&#45;&gt;Node12</title>
<path fill="none" stroke="#63b8ff" d="M196.32,-727.68C182.38,-729.33 168.02,-731.04 154.33,-732.66"/>
<polygon fill="#63b8ff" stroke="#63b8ff" points="196.87,-731.14 206.38,-726.49 196.04,-724.19 196.87,-731.14"/>
</g>
<!-- Node23&#45;&gt;Node4 -->
<g id="edge23" class="edge">
<title>Node23&#45;&gt;Node4</title>
<path fill="none" stroke="#63b8ff" d="M211.71,-409.45C205.02,-411.42 198.36,-413.48 192,-415.59 165.35,-424.43 135.89,-436.23 113.73,-445.53"/>
<polygon fill="#63b8ff" stroke="#63b8ff" points="212.87,-412.76 221.51,-406.63 210.94,-406.03 212.87,-412.76"/>
</g>
<!-- Node23&#45;&gt;Node15 -->
<g id="edge24" class="edge">
<title>Node23&#45;&gt;Node15</title>
<path fill="none" stroke="#63b8ff" d="M197.68,-371.5C195.72,-370.27 193.82,-368.97 192,-367.59 129.89,-320.55 95.23,-228.64 83.54,-192.6"/>
<polygon fill="#63b8ff" stroke="#63b8ff" points="196.15,-374.65 206.6,-376.41 199.53,-368.52 196.15,-374.65"/>
</g>
</g>
</svg>
