<?xml version="1.0" encoding="UTF-8" standalone="no"?>
<!DOCTYPE svg PUBLIC "-//W3C//DTD SVG 1.1//EN"
 "http://www.w3.org/Graphics/SVG/1.1/DTD/svg11.dtd">
<!-- Generated by graphviz version 2.43.0 (0)
 -->
<!-- Title: AutoCleanup Pages: 1 -->
<svg width="684pt" height="834pt"
 viewBox="0.00 0.00 684.00 834.00" xmlns="http://www.w3.org/2000/svg" xmlns:xlink="http://www.w3.org/1999/xlink">
<g id="graph0" class="graph" transform="scale(1 1) rotate(0) translate(4 830)">
<title>AutoCleanup</title>
<!-- Node1 -->
<g id="node1" class="node">
<title>Node1</title>
<g id="a_node1"><a xlink:title="release disposed resources ( texture, ... ) ; this will be called during GL2DTexture() constructor or...">
<polygon fill="#999999" stroke="#666666" points="676,-626.5 597,-626.5 597,-607.5 676,-607.5 676,-626.5"/>
<text text-anchor="middle" x="636.5" y="-614.5" font-family="Helvetica,sans-Serif" font-size="10.00">AutoCleanup</text>
</a>
</g>
</g>
<!-- Node2 -->
<g id="node2" class="node">
<title>Node2</title>
<g id="a_node2"><a xlink:href="class_search_a_thing_1_1_open_g_l_1_1_core_1_1_g_l_model.html#a3b7cc83d35fd3e50f9d5addf978ce010" target="_top" xlink:title=" ">
<polygon fill="white" stroke="#666666" points="561,-753 409,-753 409,-723 561,-723 561,-753"/>
<text text-anchor="start" x="417" y="-741" font-family="Helvetica,sans-Serif" font-size="10.00">SearchAThing.OpenGL.Core.</text>
<text text-anchor="middle" x="485" y="-730" font-family="Helvetica,sans-Serif" font-size="10.00">GLModel.EnsureModel</text>
</a>
</g>
</g>
<!-- Node1&#45;&gt;Node2 -->
<g id="edge1" class="edge">
<title>Node1&#45;&gt;Node2</title>
<path fill="none" stroke="#63b8ff" d="M615.7,-633.03C586.7,-656.5 533.04,-699.92 504.69,-722.87"/>
<polygon fill="#63b8ff" stroke="#63b8ff" points="617.95,-635.71 623.52,-626.7 613.54,-630.27 617.95,-635.71"/>
</g>
<!-- Node4 -->
<g id="node4" class="node">
<title>Node4</title>
<g id="a_node4"><a xlink:href="class_search_a_thing_1_1_open_g_l_1_1_core_1_1_g_l_texture2_d.html#a7ffe1402446f81977f1de661bfecc505" target="_top" xlink:title="Create gl texture 2d.">
<polygon fill="white" stroke="#666666" points="561,-632 409,-632 409,-602 561,-602 561,-632"/>
<text text-anchor="start" x="417" y="-620" font-family="Helvetica,sans-Serif" font-size="10.00">SearchAThing.OpenGL.Core.</text>
<text text-anchor="middle" x="485" y="-609" font-family="Helvetica,sans-Serif" font-size="10.00">GLTexture2D.GLTexture2D</text>
</a>
</g>
</g>
<!-- Node1&#45;&gt;Node4 -->
<g id="edge3" class="edge">
<title>Node1&#45;&gt;Node4</title>
<path fill="none" stroke="#63b8ff" d="M586.58,-617C578.44,-617 569.84,-617 561.22,-617"/>
<polygon fill="#63b8ff" stroke="#63b8ff" points="586.61,-620.5 596.61,-617 586.61,-613.5 586.61,-620.5"/>
</g>
<!-- Node5 -->
<g id="node5" class="node">
<title>Node5</title>
<g id="a_node5"><a xlink:href="class_search_a_thing_1_1_open_g_l_1_1_core_1_1_g_l_control.html#af92032621553c72b62673dbc9bbd43fd" target="_top" xlink:title="Regenerate the model with GLModel.BuildModel if this is the first invalidation or the invalidate argu...">
<polygon fill="white" stroke="#666666" points="561,-438 409,-438 409,-408 561,-408 561,-438"/>
<text text-anchor="start" x="417" y="-426" font-family="Helvetica,sans-Serif" font-size="10.00">SearchAThing.OpenGL.Core.</text>
<text text-anchor="middle" x="485" y="-415" font-family="Helvetica,sans-Serif" font-size="10.00">GLControl.Invalidate</text>
</a>
</g>
</g>
<!-- Node1&#45;&gt;Node5 -->
<g id="edge4" class="edge">
<title>Node1&#45;&gt;Node5</title>
<path fill="none" stroke="#63b8ff" d="M621.86,-599.31C592.72,-561.48 524.79,-473.34 497.58,-438.03"/>
<polygon fill="#63b8ff" stroke="#63b8ff" points="619.21,-601.59 628.09,-607.38 624.75,-597.32 619.21,-601.59"/>
</g>
<!-- Node3 -->
<g id="node3" class="node">
<title>Node3</title>
<g id="a_node3"><a xlink:href="class_search_a_thing_1_1_open_g_l_1_1_core_1_1_g_l_control.html#a3e2efcd721af8aba50e8e1736db54b77" target="_top" xlink:title="Main gl render process.">
<polygon fill="white" stroke="#666666" points="358.5,-826 206.5,-826 206.5,-796 358.5,-796 358.5,-826"/>
<text text-anchor="start" x="214.5" y="-814" font-family="Helvetica,sans-Serif" font-size="10.00">SearchAThing.OpenGL.Core.</text>
<text text-anchor="middle" x="282.5" y="-803" font-family="Helvetica,sans-Serif" font-size="10.00">GLControl.Render</text>
</a>
</g>
</g>
<!-- Node2&#45;&gt;Node3 -->
<g id="edge2" class="edge">
<title>Node2&#45;&gt;Node3</title>
<path fill="none" stroke="#63b8ff" d="M438.27,-756.89C418.33,-764.93 394.62,-774.22 373,-782 359.78,-786.76 345.35,-791.59 332,-795.91"/>
<polygon fill="#63b8ff" stroke="#63b8ff" points="439.77,-760.06 447.73,-753.06 437.15,-753.57 439.77,-760.06"/>
</g>
<!-- Node6 -->
<g id="node6" class="node">
<title>Node6</title>
<g id="a_node6"><a xlink:href="class_search_a_thing_1_1_open_g_l_1_1_core_1_1_g_l_control.html#a4393fa83b725fcac29a5bc6ab5832ac5" target="_top" xlink:title="Rotate the camera [view] a given rotation center [local]. ( not yet tested )">
<polygon fill="white" stroke="#666666" points="358.5,-740 206.5,-740 206.5,-710 358.5,-710 358.5,-740"/>
<text text-anchor="start" x="214.5" y="-728" font-family="Helvetica,sans-Serif" font-size="10.00">SearchAThing.OpenGL.Core.</text>
<text text-anchor="middle" x="282.5" y="-717" font-family="Helvetica,sans-Serif" font-size="10.00">GLControl.CameraRotate</text>
</a>
</g>
</g>
<!-- Node5&#45;&gt;Node6 -->
<g id="edge5" class="edge">
<title>Node5&#45;&gt;Node6</title>
<path fill="none" stroke="#63b8ff" d="M472.31,-447.52C456.89,-480.3 429.33,-540.37 409,-593 390.77,-640.2 409.83,-666.31 373,-701 368.78,-704.97 363.98,-708.3 358.85,-711.09"/>
<polygon fill="#63b8ff" stroke="#63b8ff" points="475.58,-448.8 476.69,-438.27 469.25,-445.81 475.58,-448.8"/>
</g>
<!-- Node7 -->
<g id="node7" class="node">
<title>Node7</title>
<g id="a_node7"><a xlink:href="class_search_a_thing_1_1_open_g_l_1_1_core_1_1_g_l_control.html#a609ac6af33cb1c1fc525aff164df9543" target="_top" xlink:title="Set the view using given cube view type.">
<polygon fill="white" stroke="#666666" points="154,-737 2,-737 2,-707 154,-707 154,-737"/>
<text text-anchor="start" x="10" y="-725" font-family="Helvetica,sans-Serif" font-size="10.00">SearchAThing.OpenGL.Core.</text>
<text text-anchor="middle" x="78" y="-714" font-family="Helvetica,sans-Serif" font-size="10.00">GLControl.CameraView</text>
</a>
</g>
</g>
<!-- Node5&#45;&gt;Node7 -->
<g id="edge6" class="edge">
<title>Node5&#45;&gt;Node7</title>
<path fill="none" stroke="#63b8ff" d="M471.55,-447.25C455.29,-479.73 426.81,-539.46 409,-593 386.54,-660.52 428.68,-704.7 373,-749 295.38,-810.75 167.13,-763.72 109.14,-737.08"/>
<polygon fill="#63b8ff" stroke="#63b8ff" points="474.8,-448.59 476.18,-438.09 468.55,-445.44 474.8,-448.59"/>
</g>
<!-- Node8 -->
<g id="node8" class="node">
<title>Node8</title>
<g id="a_node8"><a xlink:href="class_search_a_thing_1_1_open_g_l_1_1_core_1_1_g_l_control.html#a5e5904b44d1b553f27e0079fe42d5ac7" target="_top" xlink:title="Zoom eye space by given scale factor.">
<polygon fill="white" stroke="#666666" points="358.5,-644 206.5,-644 206.5,-614 358.5,-614 358.5,-644"/>
<text text-anchor="start" x="214.5" y="-632" font-family="Helvetica,sans-Serif" font-size="10.00">SearchAThing.OpenGL.Core.</text>
<text text-anchor="middle" x="282.5" y="-621" font-family="Helvetica,sans-Serif" font-size="10.00">GLControl.CameraZoom</text>
</a>
</g>
</g>
<!-- Node5&#45;&gt;Node8 -->
<g id="edge7" class="edge">
<title>Node5&#45;&gt;Node8</title>
<path fill="none" stroke="#63b8ff" d="M475.76,-447.78C461.36,-487.22 427.8,-563.98 373,-605 368.36,-608.47 363.26,-611.44 357.92,-613.98"/>
<polygon fill="#63b8ff" stroke="#63b8ff" points="479.13,-448.75 479.17,-438.16 472.53,-446.42 479.13,-448.75"/>
</g>
<!-- Node9 -->
<g id="node9" class="node">
<title>Node9</title>
<g id="a_node9"><a xlink:href="class_search_a_thing_1_1_open_g_l_1_1_core_1_1_g_l_control.html#a28291bb40e52fa94a0d72eaf84bb6307" target="_top" xlink:title="Restore current view config from given pathfilename.">
<polygon fill="white" stroke="#666666" points="358.5,-596 206.5,-596 206.5,-566 358.5,-566 358.5,-596"/>
<text text-anchor="start" x="214.5" y="-584" font-family="Helvetica,sans-Serif" font-size="10.00">SearchAThing.OpenGL.Core.</text>
<text text-anchor="middle" x="282.5" y="-573" font-family="Helvetica,sans-Serif" font-size="10.00">GLControl.LoadView</text>
</a>
</g>
</g>
<!-- Node5&#45;&gt;Node9 -->
<g id="edge8" class="edge">
<title>Node5&#45;&gt;Node9</title>
<path fill="none" stroke="#63b8ff" d="M470.75,-446.7C452.62,-476.91 417.24,-528.61 373,-557 367.58,-560.48 361.68,-563.45 355.56,-566"/>
<polygon fill="#63b8ff" stroke="#63b8ff" points="473.77,-448.46 475.81,-438.06 467.73,-444.92 473.77,-448.46"/>
</g>
<!-- Node10 -->
<g id="node10" class="node">
<title>Node10</title>
<g id="a_node10"><a xlink:href="class_search_a_thing_1_1_open_g_l_1_1_core_1_1_g_l_control.html#aac473598b86094d90e33249499313225" target="_top" xlink:title="Rotate the model by given [eye] x,y angles around given [local] rotation center.">
<polygon fill="white" stroke="#666666" points="358.5,-548 206.5,-548 206.5,-518 358.5,-518 358.5,-548"/>
<text text-anchor="start" x="214.5" y="-536" font-family="Helvetica,sans-Serif" font-size="10.00">SearchAThing.OpenGL.Core.</text>
<text text-anchor="middle" x="282.5" y="-525" font-family="Helvetica,sans-Serif" font-size="10.00">GLControl.ModelRotate</text>
</a>
</g>
</g>
<!-- Node5&#45;&gt;Node10 -->
<g id="edge9" class="edge">
<title>Node5&#45;&gt;Node10</title>
<path fill="none" stroke="#63b8ff" d="M459.38,-444.53C437.83,-462.47 405.03,-487.65 373,-504 362.53,-509.35 350.86,-513.98 339.51,-517.88"/>
<polygon fill="#63b8ff" stroke="#63b8ff" points="461.68,-447.17 467.07,-438.04 457.17,-441.82 461.68,-447.17"/>
</g>
<!-- Node11 -->
<g id="node11" class="node">
<title>Node11</title>
<g id="a_node11"><a xlink:href="class_search_a_thing_1_1_open_g_l_1_1_core_1_1_g_l_control.html#afc6003d84ce56250451495e4519d569a" target="_top" xlink:title="Pan the view by the given screen translation.">
<polygon fill="white" stroke="#666666" points="358.5,-366 206.5,-366 206.5,-336 358.5,-336 358.5,-366"/>
<text text-anchor="start" x="214.5" y="-354" font-family="Helvetica,sans-Serif" font-size="10.00">SearchAThing.OpenGL.Core.</text>
<text text-anchor="middle" x="282.5" y="-343" font-family="Helvetica,sans-Serif" font-size="10.00">GLControl.Pan</text>
</a>
</g>
</g>
<!-- Node5&#45;&gt;Node11 -->
<g id="edge10" class="edge">
<title>Node5&#45;&gt;Node11</title>
<path fill="none" stroke="#63b8ff" d="M443.28,-403.69C422.53,-394.29 396.73,-383.26 373,-375 363.88,-371.83 354.13,-368.82 344.53,-366.08"/>
<polygon fill="#63b8ff" stroke="#63b8ff" points="441.88,-406.9 452.43,-407.88 444.8,-400.54 441.88,-406.9"/>
</g>
<!-- Node16 -->
<g id="node16" class="node">
<title>Node16</title>
<g id="a_node16"><a xlink:href="class_search_a_thing_1_1_open_g_l_1_1_core_1_1_g_l_control.html#a496bd7a18ca3ccf8a4168430fbf21ca0" target="_top" xlink:title="Switch (model) selection mode.">
<polygon fill="white" stroke="#666666" points="368.5,-462 196.5,-462 196.5,-432 368.5,-432 368.5,-462"/>
<text text-anchor="start" x="204.5" y="-450" font-family="Helvetica,sans-Serif" font-size="10.00">SearchAThing.OpenGL.Core.</text>
<text text-anchor="middle" x="282.5" y="-439" font-family="Helvetica,sans-Serif" font-size="10.00">GLControl.SwitchSelectionMode</text>
</a>
</g>
</g>
<!-- Node5&#45;&gt;Node16 -->
<g id="edge15" class="edge">
<title>Node5&#45;&gt;Node16</title>
<path fill="none" stroke="#63b8ff" d="M398.84,-433.19C388.82,-434.39 378.6,-435.62 368.58,-436.82"/>
<polygon fill="#63b8ff" stroke="#63b8ff" points="399.26,-436.67 408.77,-432 398.43,-429.72 399.26,-436.67"/>
</g>
<!-- Node17 -->
<g id="node17" class="node">
<title>Node17</title>
<g id="a_node17"><a xlink:href="class_search_a_thing_1_1_open_g_l_1_1_core_1_1_g_l_control.html#a46550daf1e758d55af170aaf35181ab6" target="_top" xlink:title="Tilt camera [view] by rotating it&#39;s up vector around [view] z axis.">
<polygon fill="white" stroke="#666666" points="358.5,-414 206.5,-414 206.5,-384 358.5,-384 358.5,-414"/>
<text text-anchor="start" x="214.5" y="-402" font-family="Helvetica,sans-Serif" font-size="10.00">SearchAThing.OpenGL.Core.</text>
<text text-anchor="middle" x="282.5" y="-391" font-family="Helvetica,sans-Serif" font-size="10.00">GLControl.Tilt</text>
</a>
</g>
</g>
<!-- Node5&#45;&gt;Node17 -->
<g id="edge16" class="edge">
<title>Node5&#45;&gt;Node17</title>
<path fill="none" stroke="#63b8ff" d="M398.72,-412.79C385.45,-411.2 371.84,-409.57 358.82,-408.02"/>
<polygon fill="#63b8ff" stroke="#63b8ff" points="398.43,-416.28 408.77,-414 399.26,-409.33 398.43,-416.28"/>
</g>
<!-- Node18 -->
<g id="node18" class="node">
<title>Node18</title>
<g id="a_node18"><a xlink:href="class_search_a_thing_1_1_open_g_l_1_1_core_1_1_g_l_control.html#a809dcd2f46e1da7c985e0ba750f5c389" target="_top" xlink:title="Toggle perspective mode.">
<polygon fill="white" stroke="#666666" points="156,-620 0,-620 0,-590 156,-590 156,-620"/>
<text text-anchor="start" x="8" y="-608" font-family="Helvetica,sans-Serif" font-size="10.00">SearchAThing.OpenGL.Core.</text>
<text text-anchor="middle" x="78" y="-597" font-family="Helvetica,sans-Serif" font-size="10.00">GLControl.TogglePerspective</text>
</a>
</g>
</g>
<!-- Node5&#45;&gt;Node18 -->
<g id="edge17" class="edge">
<title>Node5&#45;&gt;Node18</title>
<path fill="none" stroke="#63b8ff" d="M444.36,-442.45C423.51,-452.09 397.29,-463.28 373,-471 294.66,-495.88 265.81,-472.83 192,-509 150.62,-529.27 111.86,-568.13 92.29,-589.67"/>
<polygon fill="#63b8ff" stroke="#63b8ff" points="445.97,-445.57 453.54,-438.15 443,-439.23 445.97,-445.57"/>
</g>
<!-- Node19 -->
<g id="node19" class="node">
<title>Node19</title>
<g id="a_node19"><a xlink:href="class_search_a_thing_1_1_open_g_l_1_1_core_1_1_g_l_control.html#aaf887d3cb7075f3b39074bc09f2af646" target="_top" xlink:title="Toggle shade with edge.">
<polygon fill="white" stroke="#666666" points="370.5,-318 194.5,-318 194.5,-288 370.5,-288 370.5,-318"/>
<text text-anchor="start" x="202.5" y="-306" font-family="Helvetica,sans-Serif" font-size="10.00">SearchAThing.OpenGL.Core.</text>
<text text-anchor="middle" x="282.5" y="-295" font-family="Helvetica,sans-Serif" font-size="10.00">GLControl.ToggleShadeWithEdge</text>
</a>
</g>
</g>
<!-- Node5&#45;&gt;Node19 -->
<g id="edge18" class="edge">
<title>Node5&#45;&gt;Node19</title>
<path fill="none" stroke="#63b8ff" d="M463.85,-400.44C443.12,-378.59 408.89,-346.03 373,-327 366.6,-323.61 359.69,-320.67 352.64,-318.12"/>
<polygon fill="#63b8ff" stroke="#63b8ff" points="461.48,-403.03 470.85,-407.97 466.6,-398.26 461.48,-403.03"/>
</g>
<!-- Node20 -->
<g id="node20" class="node">
<title>Node20</title>
<g id="a_node20"><a xlink:href="class_search_a_thing_1_1_open_g_l_1_1_core_1_1_g_l_control.html#a76c43e4f8ae0b22ca87fbe6ab37c3c23" target="_top" xlink:title="Toggle display of model bounding box ( generated at runtime through a temporary vertex manager ).">
<polygon fill="white" stroke="#666666" points="373,-270 192,-270 192,-240 373,-240 373,-270"/>
<text text-anchor="start" x="200" y="-258" font-family="Helvetica,sans-Serif" font-size="10.00">SearchAThing.OpenGL.Core.</text>
<text text-anchor="middle" x="282.5" y="-247" font-family="Helvetica,sans-Serif" font-size="10.00">GLControl.ToggleShowModelBBox</text>
</a>
</g>
</g>
<!-- Node5&#45;&gt;Node20 -->
<g id="edge19" class="edge">
<title>Node5&#45;&gt;Node20</title>
<path fill="none" stroke="#63b8ff" d="M471.74,-398.53C454.28,-366.2 419.17,-309.79 373,-279 367.91,-275.61 362.37,-272.7 356.6,-270.19"/>
<polygon fill="#63b8ff" stroke="#63b8ff" points="468.83,-400.51 476.59,-407.73 475.03,-397.25 468.83,-400.51"/>
</g>
<!-- Node21 -->
<g id="node21" class="node">
<title>Node21</title>
<g id="a_node21"><a xlink:href="class_search_a_thing_1_1_open_g_l_1_1_core_1_1_g_l_control.html#a2a71dcd049526738239381c0d2ce9345" target="_top" xlink:title="Toggle show normals.">
<polygon fill="white" stroke="#666666" points="366,-222 199,-222 199,-192 366,-192 366,-222"/>
<text text-anchor="start" x="207" y="-210" font-family="Helvetica,sans-Serif" font-size="10.00">SearchAThing.OpenGL.Core.</text>
<text text-anchor="middle" x="282.5" y="-199" font-family="Helvetica,sans-Serif" font-size="10.00">GLControl.ToggleShowNormals</text>
</a>
</g>
</g>
<!-- Node5&#45;&gt;Node21 -->
<g id="edge20" class="edge">
<title>Node5&#45;&gt;Node21</title>
<path fill="none" stroke="#63b8ff" d="M476.55,-398.06C462.93,-356.84 430.05,-274.76 373,-231 368.53,-227.57 363.61,-224.63 358.45,-222.12"/>
<polygon fill="#63b8ff" stroke="#63b8ff" points="473.3,-399.37 479.67,-407.84 479.97,-397.25 473.3,-399.37"/>
</g>
<!-- Node22 -->
<g id="node22" class="node">
<title>Node22</title>
<g id="a_node22"><a xlink:href="class_search_a_thing_1_1_open_g_l_1_1_core_1_1_g_l_control.html#a1a983cc95609136123b361f3ed2ebe96" target="_top" xlink:title="Toggle shadows generation.">
<polygon fill="white" stroke="#666666" points="360.5,-174 204.5,-174 204.5,-144 360.5,-144 360.5,-174"/>
<text text-anchor="start" x="212.5" y="-162" font-family="Helvetica,sans-Serif" font-size="10.00">SearchAThing.OpenGL.Core.</text>
<text text-anchor="middle" x="282.5" y="-151" font-family="Helvetica,sans-Serif" font-size="10.00">GLControl.ToggleUseShadow</text>
</a>
</g>
</g>
<!-- Node5&#45;&gt;Node22 -->
<g id="edge21" class="edge">
<title>Node5&#45;&gt;Node22</title>
<path fill="none" stroke="#63b8ff" d="M479.66,-397.91C469.83,-348.95 441.24,-240.45 373,-183 368.94,-179.58 364.44,-176.64 359.68,-174.12"/>
<polygon fill="#63b8ff" stroke="#63b8ff" points="476.26,-398.78 481.57,-407.95 483.14,-397.47 476.26,-398.78"/>
</g>
<!-- Node23 -->
<g id="node23" class="node">
<title>Node23</title>
<g id="a_node23"><a xlink:href="class_search_a_thing_1_1_open_g_l_1_1_core_1_1_g_l_control.html#a2ceddd0bec1b455a5fe13ba85af6df19" target="_top" xlink:title="Toggle use of textures.">
<polygon fill="white" stroke="#666666" points="359.5,-126 205.5,-126 205.5,-96 359.5,-96 359.5,-126"/>
<text text-anchor="start" x="213.5" y="-114" font-family="Helvetica,sans-Serif" font-size="10.00">SearchAThing.OpenGL.Core.</text>
<text text-anchor="middle" x="282.5" y="-103" font-family="Helvetica,sans-Serif" font-size="10.00">GLControl.ToggleUseTexture</text>
</a>
</g>
</g>
<!-- Node5&#45;&gt;Node23 -->
<g id="edge22" class="edge">
<title>Node5&#45;&gt;Node23</title>
<path fill="none" stroke="#63b8ff" d="M481.8,-397.71C475.54,-341.71 452.56,-206.55 373,-135 368.93,-131.34 364.37,-128.23 359.51,-125.59"/>
<polygon fill="#63b8ff" stroke="#63b8ff" points="478.33,-398.22 482.84,-407.81 485.3,-397.51 478.33,-398.22"/>
</g>
<!-- Node24 -->
<g id="node24" class="node">
<title>Node24</title>
<g id="a_node24"><a xlink:href="class_search_a_thing_1_1_open_g_l_1_1_core_1_1_g_l_control.html#a10d694aff8f24ea1e1b52a95859401f7" target="_top" xlink:title="Toggle vertex visibility.">
<polygon fill="white" stroke="#666666" points="369,-78 196,-78 196,-48 369,-48 369,-78"/>
<text text-anchor="start" x="204" y="-66" font-family="Helvetica,sans-Serif" font-size="10.00">SearchAThing.OpenGL.Core.</text>
<text text-anchor="middle" x="282.5" y="-55" font-family="Helvetica,sans-Serif" font-size="10.00">GLControl.ToggleVertexVisibility</text>
</a>
</g>
</g>
<!-- Node5&#45;&gt;Node24 -->
<g id="edge23" class="edge">
<title>Node5&#45;&gt;Node24</title>
<path fill="none" stroke="#63b8ff" d="M483.41,-397.91C480.54,-335.7 464.22,-173.15 373,-87 369.37,-83.58 365.31,-80.63 360.98,-78.09"/>
<polygon fill="#63b8ff" stroke="#63b8ff" points="479.91,-398.13 483.79,-407.99 486.91,-397.87 479.91,-398.13"/>
</g>
<!-- Node25 -->
<g id="node25" class="node">
<title>Node25</title>
<g id="a_node25"><a xlink:href="class_search_a_thing_1_1_open_g_l_1_1_core_1_1_g_l_control.html#a0b013ae153047446187737c929853f36" target="_top" xlink:title="Toggle wireframe mode.">
<polygon fill="white" stroke="#666666" points="358.5,-30 206.5,-30 206.5,0 358.5,0 358.5,-30"/>
<text text-anchor="start" x="214.5" y="-18" font-family="Helvetica,sans-Serif" font-size="10.00">SearchAThing.OpenGL.Core.</text>
<text text-anchor="middle" x="282.5" y="-7" font-family="Helvetica,sans-Serif" font-size="10.00">GLControl.ToggleWireframe</text>
</a>
</g>
</g>
<!-- Node5&#45;&gt;Node25 -->
<g id="edge24" class="edge">
<title>Node5&#45;&gt;Node25</title>
<path fill="none" stroke="#63b8ff" d="M484.63,-397.68C484.87,-329.4 475.78,-139.8 373,-39 368.75,-34.83 363.86,-31.37 358.6,-28.49"/>
<polygon fill="#63b8ff" stroke="#63b8ff" points="481.12,-397.88 484.51,-407.92 488.12,-397.96 481.12,-397.88"/>
</g>
<!-- Node26 -->
<g id="node26" class="node">
<title>Node26</title>
<g id="a_node26"><a xlink:href="class_search_a_thing_1_1_open_g_l_1_1_core_1_1_g_l_control.html#a3647f3040be99a06b6a07bfeed13ad92" target="_top" xlink:title="Fit gl model into the view.">
<polygon fill="white" stroke="#666666" points="358.5,-692 206.5,-692 206.5,-662 358.5,-662 358.5,-692"/>
<text text-anchor="start" x="214.5" y="-680" font-family="Helvetica,sans-Serif" font-size="10.00">SearchAThing.OpenGL.Core.</text>
<text text-anchor="middle" x="282.5" y="-669" font-family="Helvetica,sans-Serif" font-size="10.00">GLControl.ZoomFit</text>
</a>
</g>
</g>
<!-- Node5&#45;&gt;Node26 -->
<g id="edge25" class="edge">
<title>Node5&#45;&gt;Node26</title>
<path fill="none" stroke="#63b8ff" d="M473.53,-447.58C449.32,-503.94 390.24,-638.73 373,-653 368.66,-656.59 363.84,-659.65 358.74,-662.25"/>
<polygon fill="#63b8ff" stroke="#63b8ff" points="476.77,-448.89 477.49,-438.32 470.34,-446.13 476.77,-448.89"/>
</g>
<!-- Node12 -->
<g id="node12" class="node">
<title>Node12</title>
<g id="a_node12"><a xlink:href="class_search_a_thing_1_1_open_g_l_1_1_core_1_1_g_l_control.html#acd591f4d52216f736d05a37967dfbb76" target="_top" xlink:title="Pan the view down of a little factor.">
<polygon fill="white" stroke="#666666" points="154,-390 2,-390 2,-360 154,-360 154,-390"/>
<text text-anchor="start" x="10" y="-378" font-family="Helvetica,sans-Serif" font-size="10.00">SearchAThing.OpenGL.Core.</text>
<text text-anchor="middle" x="78" y="-367" font-family="Helvetica,sans-Serif" font-size="10.00">GLControl.PanDown</text>
</a>
</g>
</g>
<!-- Node11&#45;&gt;Node12 -->
<g id="edge11" class="edge">
<title>Node11&#45;&gt;Node12</title>
<path fill="none" stroke="#63b8ff" d="M196.32,-361.1C182.38,-362.75 168.02,-364.45 154.33,-366.07"/>
<polygon fill="#63b8ff" stroke="#63b8ff" points="196.87,-364.56 206.38,-359.9 196.04,-357.6 196.87,-364.56"/>
</g>
<!-- Node13 -->
<g id="node13" class="node">
<title>Node13</title>
<g id="a_node13"><a xlink:href="class_search_a_thing_1_1_open_g_l_1_1_core_1_1_g_l_control.html#ac0149d9ec4eefdc825a466e47f0cdb07" target="_top" xlink:title="Pan the view left of a little factor.">
<polygon fill="white" stroke="#666666" points="154,-342 2,-342 2,-312 154,-312 154,-342"/>
<text text-anchor="start" x="10" y="-330" font-family="Helvetica,sans-Serif" font-size="10.00">SearchAThing.OpenGL.Core.</text>
<text text-anchor="middle" x="78" y="-319" font-family="Helvetica,sans-Serif" font-size="10.00">GLControl.PanLeft</text>
</a>
</g>
</g>
<!-- Node11&#45;&gt;Node13 -->
<g id="edge12" class="edge">
<title>Node11&#45;&gt;Node13</title>
<path fill="none" stroke="#63b8ff" d="M196.32,-340.9C182.38,-339.25 168.02,-337.55 154.33,-335.93"/>
<polygon fill="#63b8ff" stroke="#63b8ff" points="196.04,-344.4 206.38,-342.1 196.87,-337.44 196.04,-344.4"/>
</g>
<!-- Node14 -->
<g id="node14" class="node">
<title>Node14</title>
<g id="a_node14"><a xlink:href="class_search_a_thing_1_1_open_g_l_1_1_core_1_1_g_l_control.html#a21c11768939dccbc75ef58be240cc90b" target="_top" xlink:title="Pan the view right of a little factor.">
<polygon fill="white" stroke="#666666" points="154,-294 2,-294 2,-264 154,-264 154,-294"/>
<text text-anchor="start" x="10" y="-282" font-family="Helvetica,sans-Serif" font-size="10.00">SearchAThing.OpenGL.Core.</text>
<text text-anchor="middle" x="78" y="-271" font-family="Helvetica,sans-Serif" font-size="10.00">GLControl.PanRight</text>
</a>
</g>
</g>
<!-- Node11&#45;&gt;Node14 -->
<g id="edge13" class="edge">
<title>Node11&#45;&gt;Node14</title>
<path fill="none" stroke="#63b8ff" d="M205.81,-332.61C201.08,-330.88 196.44,-329.01 192,-327 174.48,-319.07 173.36,-311.28 156,-303 149.05,-299.68 141.53,-296.69 134.01,-294.02"/>
<polygon fill="#63b8ff" stroke="#63b8ff" points="205.03,-336.04 215.62,-335.99 207.3,-329.42 205.03,-336.04"/>
</g>
<!-- Node15 -->
<g id="node15" class="node">
<title>Node15</title>
<g id="a_node15"><a xlink:href="class_search_a_thing_1_1_open_g_l_1_1_core_1_1_g_l_control.html#adbc9327929edf6458b41fb0849c41650" target="_top" xlink:title="Pan the view up of a little factor.">
<polygon fill="white" stroke="#666666" points="154,-438 2,-438 2,-408 154,-408 154,-438"/>
<text text-anchor="start" x="10" y="-426" font-family="Helvetica,sans-Serif" font-size="10.00">SearchAThing.OpenGL.Core.</text>
<text text-anchor="middle" x="78" y="-415" font-family="Helvetica,sans-Serif" font-size="10.00">GLControl.PanUp</text>
</a>
</g>
</g>
<!-- Node11&#45;&gt;Node15 -->
<g id="edge14" class="edge">
<title>Node11&#45;&gt;Node15</title>
<path fill="none" stroke="#63b8ff" d="M205.81,-369.39C201.08,-371.12 196.44,-372.99 192,-375 174.48,-382.93 173.36,-390.72 156,-399 149.05,-402.32 141.53,-405.31 134.01,-407.98"/>
<polygon fill="#63b8ff" stroke="#63b8ff" points="207.3,-372.58 215.62,-366.01 205.03,-365.96 207.3,-372.58"/>
</g>
<!-- Node26&#45;&gt;Node7 -->
<g id="edge26" class="edge">
<title>Node26&#45;&gt;Node7</title>
<path fill="none" stroke="#63b8ff" d="M204.03,-694.22C185.12,-698.42 165.05,-702.88 146.65,-706.97"/>
<polygon fill="#63b8ff" stroke="#63b8ff" points="204.79,-697.63 213.79,-692.05 203.27,-690.8 204.79,-697.63"/>
</g>
<!-- Node26&#45;&gt;Node18 -->
<g id="edge27" class="edge">
<title>Node26&#45;&gt;Node18</title>
<path fill="none" stroke="#63b8ff" d="M210.57,-658.96C204.25,-657.06 197.99,-655.06 192,-653 164.19,-643.42 133.53,-630.22 111.17,-620.09"/>
<polygon fill="#63b8ff" stroke="#63b8ff" points="209.91,-662.42 220.49,-661.87 211.88,-655.7 209.91,-662.42"/>
</g>
</g>
</svg>
