<?xml version="1.0" encoding="UTF-8" standalone="no"?>
<!DOCTYPE svg PUBLIC "-//W3C//DTD SVG 1.1//EN"
 "http://www.w3.org/Graphics/SVG/1.1/DTD/svg11.dtd">
<!-- Generated by graphviz version 2.43.0 (0)
 -->
<!-- Title: LocalToEye Pages: 1 -->
<svg width="349pt" height="101pt"
 viewBox="0.00 0.00 349.00 101.00" xmlns="http://www.w3.org/2000/svg" xmlns:xlink="http://www.w3.org/1999/xlink">
<g id="graph0" class="graph" transform="scale(1 1) rotate(0) translate(4 97)">
<title>LocalToEye</title>
<!-- Node1 -->
<g id="node1" class="node">
<title>Node1</title>
<g id="a_node1"><a xlink:title="Converts given local space coord to the corresponding eye coord.">
<polygon fill="#999999" stroke="#666666" points="341,-56 270,-56 270,-37 341,-37 341,-56"/>
<text text-anchor="middle" x="305.5" y="-44" font-family="Helvetica,sans-Serif" font-size="10.00">LocalToEye</text>
</a>
</g>
</g>
<!-- Node2 -->
<g id="node2" class="node">
<title>Node2</title>
<g id="a_node2"><a xlink:href="class_search_a_thing_1_1_open_g_l_1_1_core_1_1_toolkit.html#a34a2be2aea992e8ed01d06dd0c8fa180" target="_top" xlink:title="Compute the eye space bounding box (x,y,z) of all local space coordinates (x,y,z) given.">
<polygon fill="white" stroke="#666666" points="223,-93 131,-93 131,-74 223,-74 223,-93"/>
<text text-anchor="middle" x="177" y="-81" font-family="Helvetica,sans-Serif" font-size="10.00">ComputeEBBox</text>
</a>
</g>
</g>
<!-- Node1&#45;&gt;Node2 -->
<g id="edge1" class="edge">
<title>Node1&#45;&gt;Node2</title>
<path fill="none" stroke="#63b8ff" d="M261.89,-58.96C245.25,-63.83 226.47,-69.32 210.91,-73.88"/>
<polygon fill="#63b8ff" stroke="#63b8ff" points="263.31,-62.2 271.92,-56.03 261.34,-55.48 263.31,-62.2"/>
</g>
<!-- Node4 -->
<g id="node4" class="node">
<title>Node4</title>
<g id="a_node4"><a xlink:href="class_search_a_thing_1_1_open_g_l_1_1_core_1_1_toolkit.html#aa11500be262e3a1d3ac6911e302b7861" target="_top" xlink:title="Fit current model view for perspective projection.">
<polygon fill="white" stroke="#666666" points="234,-56 120,-56 120,-37 234,-37 234,-56"/>
<text text-anchor="middle" x="177" y="-44" font-family="Helvetica,sans-Serif" font-size="10.00">PerspectiveZoomFit</text>
</a>
</g>
</g>
<!-- Node1&#45;&gt;Node4 -->
<g id="edge3" class="edge">
<title>Node1&#45;&gt;Node4</title>
<path fill="none" stroke="#63b8ff" d="M259.82,-46.5C251.61,-46.5 242.93,-46.5 234.43,-46.5"/>
<polygon fill="#63b8ff" stroke="#63b8ff" points="259.93,-50 269.93,-46.5 259.93,-43 259.93,-50"/>
</g>
<!-- Node5 -->
<g id="node5" class="node">
<title>Node5</title>
<g id="a_node5"><a xlink:href="class_search_a_thing_1_1_open_g_l_1_1_core_1_1_toolkit.html#a5695a180fa95a54f1310b72ad1d6343e" target="_top" xlink:title="Compute best fitting near and far values based on local space bbox given.">
<polygon fill="white" stroke="#666666" points="227,-19 127,-19 127,0 227,0 227,-19"/>
<text text-anchor="middle" x="177" y="-7" font-family="Helvetica,sans-Serif" font-size="10.00">PreventZFighting</text>
</a>
</g>
</g>
<!-- Node1&#45;&gt;Node5 -->
<g id="edge4" class="edge">
<title>Node1&#45;&gt;Node5</title>
<path fill="none" stroke="#63b8ff" d="M261.89,-34.04C245.25,-29.17 226.47,-23.68 210.91,-19.12"/>
<polygon fill="#63b8ff" stroke="#63b8ff" points="261.34,-37.52 271.92,-36.97 263.31,-30.8 261.34,-37.52"/>
</g>
<!-- Node3 -->
<g id="node3" class="node">
<title>Node3</title>
<g id="a_node3"><a xlink:href="class_search_a_thing_1_1_open_g_l_1_1_core_1_1_toolkit.html#a477f49b72ab0d89c78fc58cae4895f37" target="_top" xlink:title="Fit current model view for orthographic projection.">
<polygon fill="white" stroke="#666666" points="84,-93 0,-93 0,-74 84,-74 84,-93"/>
<text text-anchor="middle" x="42" y="-81" font-family="Helvetica,sans-Serif" font-size="10.00">OrthoZoomFit</text>
</a>
</g>
</g>
<!-- Node2&#45;&gt;Node3 -->
<g id="edge2" class="edge">
<title>Node2&#45;&gt;Node3</title>
<path fill="none" stroke="#63b8ff" d="M120.88,-83.5C108.68,-83.5 95.95,-83.5 84.4,-83.5"/>
<polygon fill="#63b8ff" stroke="#63b8ff" points="120.97,-87 130.97,-83.5 120.97,-80 120.97,-87"/>
</g>
</g>
</svg>
