<?xml version="1.0" encoding="UTF-8" standalone="no"?>
<!DOCTYPE svg PUBLIC "-//W3C//DTD SVG 1.1//EN"
 "http://www.w3.org/Graphics/SVG/1.1/DTD/svg11.dtd">
<!-- Generated by graphviz version 2.43.0 (0)
 -->
<!-- Title: MakeInstance Pages: 1 -->
<svg width="270pt" height="27pt"
 viewBox="0.00 0.00 270.00 27.00" xmlns="http://www.w3.org/2000/svg" xmlns:xlink="http://www.w3.org/1999/xlink">
<g id="graph0" class="graph" transform="scale(1 1) rotate(0) translate(4 23)">
<title>MakeInstance</title>
<!-- Node1 -->
<g id="node1" class="node">
<title>Node1</title>
<g id="a_node1"><a xlink:title="Create an instance of derived type.">
<polygon fill="#999999" stroke="#666666" points="262,-19 178,-19 178,0 262,0 262,-19"/>
<text text-anchor="middle" x="220" y="-7" font-family="Helvetica,sans-Serif" font-size="10.00">MakeInstance</text>
</a>
</g>
</g>
<!-- Node2 -->
<g id="node2" class="node">
<title>Node2</title>
<g id="a_node2"><a xlink:href="class_search_a_thing_1_1_open_g_l_1_1_core_1_1_g_l_figure_base.html#aab589478c39c1d436f3d4cb1396a5408" target="_top" xlink:title="Create a copy with all elements down the hierarchy until GLFigureBase included.">
<polygon fill="white" stroke="#666666" points="142,-19 77,-19 77,0 142,0 142,-19"/>
<text text-anchor="middle" x="109.5" y="-7" font-family="Helvetica,sans-Serif" font-size="10.00">CopyBase</text>
</a>
</g>
</g>
<!-- Node1&#45;&gt;Node2 -->
<g id="edge1" class="edge">
<title>Node1&#45;&gt;Node2</title>
<path fill="none" stroke="#63b8ff" d="M167.8,-9.5C159.03,-9.5 150.16,-9.5 142.1,-9.5"/>
<polygon fill="#63b8ff" stroke="#63b8ff" points="167.98,-13 177.98,-9.5 167.98,-6 167.98,-13"/>
</g>
<!-- Node3 -->
<g id="node3" class="node">
<title>Node3</title>
<g id="a_node3"><a xlink:href="class_search_a_thing_1_1_open_g_l_1_1_core_1_1_g_l_figure_base.html#ab455657ff8fe6ab2ad42f00cac28404c" target="_top" xlink:title="Create a copy of this gl vertex manager object copying all relevant data except the ParentVertexManag...">
<polygon fill="white" stroke="#666666" points="41,-19 0,-19 0,0 41,0 41,-19"/>
<text text-anchor="middle" x="20.5" y="-7" font-family="Helvetica,sans-Serif" font-size="10.00">Copy</text>
</a>
</g>
</g>
<!-- Node2&#45;&gt;Node3 -->
<g id="edge2" class="edge">
<title>Node2&#45;&gt;Node3</title>
<path fill="none" stroke="#63b8ff" d="M66.32,-9.5C57.47,-9.5 48.54,-9.5 41,-9.5"/>
<polygon fill="#63b8ff" stroke="#63b8ff" points="66.6,-13 76.6,-9.5 66.6,-6 66.6,-13"/>
</g>
</g>
</svg>
