<?xml version="1.0" encoding="UTF-8" standalone="no"?>
<!DOCTYPE svg PUBLIC "-//W3C//DTD SVG 1.1//EN"
 "http://www.w3.org/Graphics/SVG/1.1/DTD/svg11.dtd">
<!-- Generated by graphviz version 2.43.0 (0)
 -->
<!-- Title: AutoCleanup Pages: 1 -->
<svg width="684pt" height="786pt"
 viewBox="0.00 0.00 684.00 786.00" xmlns="http://www.w3.org/2000/svg" xmlns:xlink="http://www.w3.org/1999/xlink">
<g id="graph0" class="graph" transform="scale(1 1) rotate(0) translate(4 782)">
<title>AutoCleanup</title>
<!-- Node1 -->
<g id="node1" class="node">
<title>Node1</title>
<g id="a_node1"><a xlink:title="release disposed resources ( texture, ... ) ; this will be called during GL2DTexture() constructor or...">
<polygon fill="#999999" stroke="#666666" points="676,-590.5 597,-590.5 597,-571.5 676,-571.5 676,-590.5"/>
<text text-anchor="middle" x="636.5" y="-578.5" font-family="Helvetica,sans-Serif" font-size="10.00">AutoCleanup</text>
</a>
</g>
</g>
<!-- Node2 -->
<g id="node2" class="node">
<title>Node2</title>
<g id="a_node2"><a xlink:href="class_search_a_thing_1_1_open_g_l_1_1_core_1_1_g_l_model.html#a3b7cc83d35fd3e50f9d5addf978ce010" target="_top" xlink:title=" ">
<polygon fill="white" stroke="#666666" points="561,-711 409,-711 409,-681 561,-681 561,-711"/>
<text text-anchor="start" x="417" y="-699" font-family="Helvetica,sans-Serif" font-size="10.00">SearchAThing.OpenGL.Core.</text>
<text text-anchor="middle" x="485" y="-688" font-family="Helvetica,sans-Serif" font-size="10.00">GLModel.EnsureModel</text>
</a>
</g>
</g>
<!-- Node1&#45;&gt;Node2 -->
<g id="edge1" class="edge">
<title>Node1&#45;&gt;Node2</title>
<path fill="none" stroke="#63b8ff" d="M614.84,-596.89C585.93,-619.13 533.81,-659.23 505.53,-680.98"/>
<polygon fill="#63b8ff" stroke="#63b8ff" points="617.22,-599.48 623.01,-590.61 612.95,-593.93 617.22,-599.48"/>
</g>
<!-- Node4 -->
<g id="node4" class="node">
<title>Node4</title>
<g id="a_node4"><a xlink:href="class_search_a_thing_1_1_open_g_l_1_1_core_1_1_g_l_texture2_d.html#a7ffe1402446f81977f1de661bfecc505" target="_top" xlink:title="Create gl texture 2d.">
<polygon fill="white" stroke="#666666" points="561,-596 409,-596 409,-566 561,-566 561,-596"/>
<text text-anchor="start" x="417" y="-584" font-family="Helvetica,sans-Serif" font-size="10.00">SearchAThing.OpenGL.Core.</text>
<text text-anchor="middle" x="485" y="-573" font-family="Helvetica,sans-Serif" font-size="10.00">GLTexture2D.GLTexture2D</text>
</a>
</g>
</g>
<!-- Node1&#45;&gt;Node4 -->
<g id="edge3" class="edge">
<title>Node1&#45;&gt;Node4</title>
<path fill="none" stroke="#63b8ff" d="M586.58,-581C578.44,-581 569.84,-581 561.22,-581"/>
<polygon fill="#63b8ff" stroke="#63b8ff" points="586.61,-584.5 596.61,-581 586.61,-577.5 586.61,-584.5"/>
</g>
<!-- Node5 -->
<g id="node5" class="node">
<title>Node5</title>
<g id="a_node5"><a xlink:href="class_search_a_thing_1_1_open_g_l_1_1_core_1_1_g_l_control.html#af92032621553c72b62673dbc9bbd43fd" target="_top" xlink:title="Regenerate the model with GLModel.BuildModel if this is the first invalidation or the invalidate argu...">
<polygon fill="white" stroke="#666666" points="561,-414 409,-414 409,-384 561,-384 561,-414"/>
<text text-anchor="start" x="417" y="-402" font-family="Helvetica,sans-Serif" font-size="10.00">SearchAThing.OpenGL.Core.</text>
<text text-anchor="middle" x="485" y="-391" font-family="Helvetica,sans-Serif" font-size="10.00">GLControl.Invalidate</text>
</a>
</g>
</g>
<!-- Node1&#45;&gt;Node5 -->
<g id="edge4" class="edge">
<title>Node1&#45;&gt;Node5</title>
<path fill="none" stroke="#63b8ff" d="M620.82,-563.13C591.47,-527.39 525.99,-447.68 498.51,-414.23"/>
<polygon fill="#63b8ff" stroke="#63b8ff" points="618.41,-565.71 627.46,-571.21 623.82,-561.27 618.41,-565.71"/>
</g>
<!-- Node3 -->
<g id="node3" class="node">
<title>Node3</title>
<g id="a_node3"><a xlink:href="class_search_a_thing_1_1_open_g_l_1_1_core_1_1_g_l_control.html#a3e2efcd721af8aba50e8e1736db54b77" target="_top" xlink:title="Main gl render process.">
<polygon fill="white" stroke="#666666" points="358.5,-778 206.5,-778 206.5,-748 358.5,-748 358.5,-778"/>
<text text-anchor="start" x="214.5" y="-766" font-family="Helvetica,sans-Serif" font-size="10.00">SearchAThing.OpenGL.Core.</text>
<text text-anchor="middle" x="282.5" y="-755" font-family="Helvetica,sans-Serif" font-size="10.00">GLControl.Render</text>
</a>
</g>
</g>
<!-- Node2&#45;&gt;Node3 -->
<g id="edge2" class="edge">
<title>Node2&#45;&gt;Node3</title>
<path fill="none" stroke="#63b8ff" d="M430.93,-714.37C412.6,-720.66 391.92,-727.7 373,-734 359.21,-738.59 344.19,-743.5 330.46,-747.94"/>
<polygon fill="#63b8ff" stroke="#63b8ff" points="432.25,-717.62 440.57,-711.05 429.97,-711 432.25,-717.62"/>
</g>
<!-- Node6 -->
<g id="node6" class="node">
<title>Node6</title>
<g id="a_node6"><a xlink:href="class_search_a_thing_1_1_open_g_l_1_1_core_1_1_g_l_control.html#a4393fa83b725fcac29a5bc6ab5832ac5" target="_top" xlink:title="Rotate the camera [view] a given rotation center [local]. ( not yet tested )">
<polygon fill="white" stroke="#666666" points="358.5,-692 206.5,-692 206.5,-662 358.5,-662 358.5,-692"/>
<text text-anchor="start" x="214.5" y="-680" font-family="Helvetica,sans-Serif" font-size="10.00">SearchAThing.OpenGL.Core.</text>
<text text-anchor="middle" x="282.5" y="-669" font-family="Helvetica,sans-Serif" font-size="10.00">GLControl.CameraRotate</text>
</a>
</g>
</g>
<!-- Node5&#45;&gt;Node6 -->
<g id="edge5" class="edge">
<title>Node5&#45;&gt;Node6</title>
<path fill="none" stroke="#63b8ff" d="M471.75,-423.15C456.34,-453.9 429.43,-508.82 409,-557 391.21,-598.95 406.74,-622.37 373,-653 368.71,-656.89 363.86,-660.16 358.69,-662.91"/>
<polygon fill="#63b8ff" stroke="#63b8ff" points="474.96,-424.56 476.33,-414.06 468.71,-421.42 474.96,-424.56"/>
</g>
<!-- Node7 -->
<g id="node7" class="node">
<title>Node7</title>
<g id="a_node7"><a xlink:href="class_search_a_thing_1_1_open_g_l_1_1_core_1_1_g_l_control.html#a609ac6af33cb1c1fc525aff164df9543" target="_top" xlink:title="Set the view using given cube view type.">
<polygon fill="white" stroke="#666666" points="154,-689 2,-689 2,-659 154,-659 154,-689"/>
<text text-anchor="start" x="10" y="-677" font-family="Helvetica,sans-Serif" font-size="10.00">SearchAThing.OpenGL.Core.</text>
<text text-anchor="middle" x="78" y="-666" font-family="Helvetica,sans-Serif" font-size="10.00">GLControl.CameraView</text>
</a>
</g>
</g>
<!-- Node5&#45;&gt;Node7 -->
<g id="edge6" class="edge">
<title>Node5&#45;&gt;Node7</title>
<path fill="none" stroke="#63b8ff" d="M470.61,-423.28C454.24,-453.76 426.56,-507.99 409,-557 386.75,-619.1 425,-660.4 373,-701 295.03,-761.88 167.52,-715.62 109.49,-689.16"/>
<polygon fill="#63b8ff" stroke="#63b8ff" points="473.81,-424.72 475.5,-414.26 467.65,-421.39 473.81,-424.72"/>
</g>
<!-- Node8 -->
<g id="node8" class="node">
<title>Node8</title>
<g id="a_node8"><a xlink:href="class_search_a_thing_1_1_open_g_l_1_1_core_1_1_g_l_control.html#a5e5904b44d1b553f27e0079fe42d5ac7" target="_top" xlink:title="Zoom eye space by given scale factor.">
<polygon fill="white" stroke="#666666" points="358.5,-596 206.5,-596 206.5,-566 358.5,-566 358.5,-596"/>
<text text-anchor="start" x="214.5" y="-584" font-family="Helvetica,sans-Serif" font-size="10.00">SearchAThing.OpenGL.Core.</text>
<text text-anchor="middle" x="282.5" y="-573" font-family="Helvetica,sans-Serif" font-size="10.00">GLControl.CameraZoom</text>
</a>
</g>
</g>
<!-- Node5&#45;&gt;Node8 -->
<g id="edge7" class="edge">
<title>Node5&#45;&gt;Node8</title>
<path fill="none" stroke="#63b8ff" d="M473.34,-423.77C456.97,-458.85 422.26,-522.56 373,-557 368.12,-560.41 362.78,-563.34 357.22,-565.85"/>
<polygon fill="#63b8ff" stroke="#63b8ff" points="476.71,-424.83 477.65,-414.28 470.33,-421.94 476.71,-424.83"/>
</g>
<!-- Node9 -->
<g id="node9" class="node">
<title>Node9</title>
<g id="a_node9"><a xlink:href="class_search_a_thing_1_1_open_g_l_1_1_core_1_1_g_l_control.html#a28291bb40e52fa94a0d72eaf84bb6307" target="_top" xlink:title="Restore current view config from given pathfilename.">
<polygon fill="white" stroke="#666666" points="358.5,-548 206.5,-548 206.5,-518 358.5,-518 358.5,-548"/>
<text text-anchor="start" x="214.5" y="-536" font-family="Helvetica,sans-Serif" font-size="10.00">SearchAThing.OpenGL.Core.</text>
<text text-anchor="middle" x="282.5" y="-525" font-family="Helvetica,sans-Serif" font-size="10.00">GLControl.LoadView</text>
</a>
</g>
</g>
<!-- Node5&#45;&gt;Node9 -->
<g id="edge8" class="edge">
<title>Node5&#45;&gt;Node9</title>
<path fill="none" stroke="#63b8ff" d="M466.72,-422.22C446.84,-447.3 411.89,-486.66 373,-509 367,-512.45 360.49,-515.41 353.82,-517.96"/>
<polygon fill="#63b8ff" stroke="#63b8ff" points="469.5,-424.35 472.87,-414.31 463.97,-420.06 469.5,-424.35"/>
</g>
<!-- Node10 -->
<g id="node10" class="node">
<title>Node10</title>
<g id="a_node10"><a xlink:href="class_search_a_thing_1_1_open_g_l_1_1_core_1_1_g_l_control.html#aac473598b86094d90e33249499313225" target="_top" xlink:title="Rotate the model by given [eye] x,y angles around given [local] rotation center.">
<polygon fill="white" stroke="#666666" points="358.5,-500 206.5,-500 206.5,-470 358.5,-470 358.5,-500"/>
<text text-anchor="start" x="214.5" y="-488" font-family="Helvetica,sans-Serif" font-size="10.00">SearchAThing.OpenGL.Core.</text>
<text text-anchor="middle" x="282.5" y="-477" font-family="Helvetica,sans-Serif" font-size="10.00">GLControl.ModelRotate</text>
</a>
</g>
</g>
<!-- Node5&#45;&gt;Node10 -->
<g id="edge9" class="edge">
<title>Node5&#45;&gt;Node10</title>
<path fill="none" stroke="#63b8ff" d="M448.89,-418.88C427.39,-430.58 399.08,-445.16 373,-456 360.78,-461.08 347.34,-465.84 334.66,-469.99"/>
<polygon fill="#63b8ff" stroke="#63b8ff" points="450.58,-421.94 457.66,-414.06 447.21,-415.81 450.58,-421.94"/>
</g>
<!-- Node11 -->
<g id="node11" class="node">
<title>Node11</title>
<g id="a_node11"><a xlink:href="class_search_a_thing_1_1_open_g_l_1_1_core_1_1_g_l_control.html#afc6003d84ce56250451495e4519d569a" target="_top" xlink:title="Pan the view by the given screen translation.">
<polygon fill="white" stroke="#666666" points="358.5,-318 206.5,-318 206.5,-288 358.5,-288 358.5,-318"/>
<text text-anchor="start" x="214.5" y="-306" font-family="Helvetica,sans-Serif" font-size="10.00">SearchAThing.OpenGL.Core.</text>
<text text-anchor="middle" x="282.5" y="-295" font-family="Helvetica,sans-Serif" font-size="10.00">GLControl.Pan</text>
</a>
</g>
</g>
<!-- Node5&#45;&gt;Node11 -->
<g id="edge10" class="edge">
<title>Node5&#45;&gt;Node11</title>
<path fill="none" stroke="#63b8ff" d="M456.56,-377.7C434.9,-361.78 403.38,-340.52 373,-327 365.5,-323.66 357.44,-320.71 349.34,-318.1"/>
<polygon fill="#63b8ff" stroke="#63b8ff" points="454.52,-380.55 464.63,-383.72 458.71,-374.94 454.52,-380.55"/>
</g>
<!-- Node16 -->
<g id="node16" class="node">
<title>Node16</title>
<g id="a_node16"><a xlink:href="class_search_a_thing_1_1_open_g_l_1_1_core_1_1_g_l_control.html#a46550daf1e758d55af170aaf35181ab6" target="_top" xlink:title="Tilt camera [view] by rotating it&#39;s up vector around [view] z axis.">
<polygon fill="white" stroke="#666666" points="358.5,-414 206.5,-414 206.5,-384 358.5,-384 358.5,-414"/>
<text text-anchor="start" x="214.5" y="-402" font-family="Helvetica,sans-Serif" font-size="10.00">SearchAThing.OpenGL.Core.</text>
<text text-anchor="middle" x="282.5" y="-391" font-family="Helvetica,sans-Serif" font-size="10.00">GLControl.Tilt</text>
</a>
</g>
</g>
<!-- Node5&#45;&gt;Node16 -->
<g id="edge15" class="edge">
<title>Node5&#45;&gt;Node16</title>
<path fill="none" stroke="#63b8ff" d="M398.72,-399C385.45,-399 371.84,-399 358.82,-399"/>
<polygon fill="#63b8ff" stroke="#63b8ff" points="398.77,-402.5 408.77,-399 398.77,-395.5 398.77,-402.5"/>
</g>
<!-- Node17 -->
<g id="node17" class="node">
<title>Node17</title>
<g id="a_node17"><a xlink:href="class_search_a_thing_1_1_open_g_l_1_1_core_1_1_g_l_control.html#a856e4e130210a03cd970f7a57d28f99f" target="_top" xlink:title="Toggle display of camera frustum object ( generated at runtime through a temporary vertex manager ).">
<polygon fill="white" stroke="#666666" points="367,-366 198,-366 198,-336 367,-336 367,-366"/>
<text text-anchor="start" x="206" y="-354" font-family="Helvetica,sans-Serif" font-size="10.00">SearchAThing.OpenGL.Core.</text>
<text text-anchor="middle" x="282.5" y="-343" font-family="Helvetica,sans-Serif" font-size="10.00">GLControl.ToggleCameraObject</text>
</a>
</g>
</g>
<!-- Node5&#45;&gt;Node17 -->
<g id="edge16" class="edge">
<title>Node5&#45;&gt;Node17</title>
<path fill="none" stroke="#63b8ff" d="M411.14,-381.56C389.85,-376.46 366.77,-370.93 346.17,-366"/>
<polygon fill="#63b8ff" stroke="#63b8ff" points="410.57,-385.02 421.11,-383.94 412.2,-378.21 410.57,-385.02"/>
</g>
<!-- Node18 -->
<g id="node18" class="node">
<title>Node18</title>
<g id="a_node18"><a xlink:href="class_search_a_thing_1_1_open_g_l_1_1_core_1_1_g_l_control.html#a809dcd2f46e1da7c985e0ba750f5c389" target="_top" xlink:title="Toggle perspective mode.">
<polygon fill="white" stroke="#666666" points="156,-572 0,-572 0,-542 156,-542 156,-572"/>
<text text-anchor="start" x="8" y="-560" font-family="Helvetica,sans-Serif" font-size="10.00">SearchAThing.OpenGL.Core.</text>
<text text-anchor="middle" x="78" y="-549" font-family="Helvetica,sans-Serif" font-size="10.00">GLControl.TogglePerspective</text>
</a>
</g>
</g>
<!-- Node5&#45;&gt;Node18 -->
<g id="edge17" class="edge">
<title>Node5&#45;&gt;Node18</title>
<path fill="none" stroke="#63b8ff" d="M404.94,-416.16C394.21,-418.47 383.33,-420.8 373,-423 292.61,-440.13 265.81,-424.83 192,-461 150.62,-481.27 111.86,-520.13 92.29,-541.67"/>
<polygon fill="#63b8ff" stroke="#63b8ff" points="405.7,-419.57 414.74,-414.04 404.22,-412.73 405.7,-419.57"/>
</g>
<!-- Node19 -->
<g id="node19" class="node">
<title>Node19</title>
<g id="a_node19"><a xlink:href="class_search_a_thing_1_1_open_g_l_1_1_core_1_1_g_l_control.html#aaf887d3cb7075f3b39074bc09f2af646" target="_top" xlink:title="Toggle shade with edge.">
<polygon fill="white" stroke="#666666" points="370.5,-270 194.5,-270 194.5,-240 370.5,-240 370.5,-270"/>
<text text-anchor="start" x="202.5" y="-258" font-family="Helvetica,sans-Serif" font-size="10.00">SearchAThing.OpenGL.Core.</text>
<text text-anchor="middle" x="282.5" y="-247" font-family="Helvetica,sans-Serif" font-size="10.00">GLControl.ToggleShadeWithEdge</text>
</a>
</g>
</g>
<!-- Node5&#45;&gt;Node19 -->
<g id="edge18" class="edge">
<title>Node5&#45;&gt;Node19</title>
<path fill="none" stroke="#63b8ff" d="M468.45,-375.39C449.24,-348.1 414.04,-303.77 373,-279 367.35,-275.59 361.22,-272.66 354.9,-270.14"/>
<polygon fill="#63b8ff" stroke="#63b8ff" points="465.78,-377.68 474.33,-383.93 471.55,-373.71 465.78,-377.68"/>
</g>
<!-- Node20 -->
<g id="node20" class="node">
<title>Node20</title>
<g id="a_node20"><a xlink:href="class_search_a_thing_1_1_open_g_l_1_1_core_1_1_g_l_control.html#a76c43e4f8ae0b22ca87fbe6ab37c3c23" target="_top" xlink:title="Toggle display of model bounding box ( generated at runtime through a temporary vertex manager ).">
<polygon fill="white" stroke="#666666" points="373,-222 192,-222 192,-192 373,-192 373,-222"/>
<text text-anchor="start" x="200" y="-210" font-family="Helvetica,sans-Serif" font-size="10.00">SearchAThing.OpenGL.Core.</text>
<text text-anchor="middle" x="282.5" y="-199" font-family="Helvetica,sans-Serif" font-size="10.00">GLControl.ToggleShowModelBBox</text>
</a>
</g>
</g>
<!-- Node5&#45;&gt;Node20 -->
<g id="edge19" class="edge">
<title>Node5&#45;&gt;Node20</title>
<path fill="none" stroke="#63b8ff" d="M474.45,-374.27C458.91,-337.34 424.59,-268.18 373,-231 368.17,-227.52 362.87,-224.54 357.33,-222"/>
<polygon fill="#63b8ff" stroke="#63b8ff" points="471.31,-375.84 478.34,-383.77 477.79,-373.19 471.31,-375.84"/>
</g>
<!-- Node21 -->
<g id="node21" class="node">
<title>Node21</title>
<g id="a_node21"><a xlink:href="class_search_a_thing_1_1_open_g_l_1_1_core_1_1_g_l_control.html#a2a71dcd049526738239381c0d2ce9345" target="_top" xlink:title="Toggle show normals.">
<polygon fill="white" stroke="#666666" points="366,-174 199,-174 199,-144 366,-144 366,-174"/>
<text text-anchor="start" x="207" y="-162" font-family="Helvetica,sans-Serif" font-size="10.00">SearchAThing.OpenGL.Core.</text>
<text text-anchor="middle" x="282.5" y="-151" font-family="Helvetica,sans-Serif" font-size="10.00">GLControl.ToggleShowNormals</text>
</a>
</g>
</g>
<!-- Node5&#45;&gt;Node21 -->
<g id="edge20" class="edge">
<title>Node5&#45;&gt;Node21</title>
<path fill="none" stroke="#63b8ff" d="M478.23,-373.87C466.52,-328.63 435.57,-233.5 373,-183 368.74,-179.56 364.04,-176.62 359.08,-174.09"/>
<polygon fill="#63b8ff" stroke="#63b8ff" points="474.88,-374.88 480.69,-383.74 481.67,-373.19 474.88,-374.88"/>
</g>
<!-- Node22 -->
<g id="node22" class="node">
<title>Node22</title>
<g id="a_node22"><a xlink:href="class_search_a_thing_1_1_open_g_l_1_1_core_1_1_g_l_control.html#a1a983cc95609136123b361f3ed2ebe96" target="_top" xlink:title="Toggle shadows generation.">
<polygon fill="white" stroke="#666666" points="360.5,-126 204.5,-126 204.5,-96 360.5,-96 360.5,-126"/>
<text text-anchor="start" x="212.5" y="-114" font-family="Helvetica,sans-Serif" font-size="10.00">SearchAThing.OpenGL.Core.</text>
<text text-anchor="middle" x="282.5" y="-103" font-family="Helvetica,sans-Serif" font-size="10.00">GLControl.ToggleUseShadow</text>
</a>
</g>
</g>
<!-- Node5&#45;&gt;Node22 -->
<g id="edge21" class="edge">
<title>Node5&#45;&gt;Node22</title>
<path fill="none" stroke="#63b8ff" d="M480.79,-373.65C472.75,-321 446.8,-199.39 373,-135 369.12,-131.62 364.81,-128.7 360.24,-126.2"/>
<polygon fill="#63b8ff" stroke="#63b8ff" points="477.36,-374.39 482.24,-383.79 484.29,-373.39 477.36,-374.39"/>
</g>
<!-- Node23 -->
<g id="node23" class="node">
<title>Node23</title>
<g id="a_node23"><a xlink:href="class_search_a_thing_1_1_open_g_l_1_1_core_1_1_g_l_control.html#a2ceddd0bec1b455a5fe13ba85af6df19" target="_top" xlink:title="Toggle use of textures.">
<polygon fill="white" stroke="#666666" points="359.5,-78 205.5,-78 205.5,-48 359.5,-48 359.5,-78"/>
<text text-anchor="start" x="213.5" y="-66" font-family="Helvetica,sans-Serif" font-size="10.00">SearchAThing.OpenGL.Core.</text>
<text text-anchor="middle" x="282.5" y="-55" font-family="Helvetica,sans-Serif" font-size="10.00">GLControl.ToggleUseTexture</text>
</a>
</g>
</g>
<!-- Node5&#45;&gt;Node23 -->
<g id="edge22" class="edge">
<title>Node5&#45;&gt;Node23</title>
<path fill="none" stroke="#63b8ff" d="M482.65,-373.67C478.1,-314.39 458.3,-165.75 373,-87 368.98,-83.29 364.45,-80.14 359.62,-77.47"/>
<polygon fill="#63b8ff" stroke="#63b8ff" points="479.16,-373.92 483.34,-383.66 486.15,-373.44 479.16,-373.92"/>
</g>
<!-- Node24 -->
<g id="node24" class="node">
<title>Node24</title>
<g id="a_node24"><a xlink:href="class_search_a_thing_1_1_open_g_l_1_1_core_1_1_g_l_control.html#a0b013ae153047446187737c929853f36" target="_top" xlink:title="Toggle wireframe mode.">
<polygon fill="white" stroke="#666666" points="358.5,-30 206.5,-30 206.5,0 358.5,0 358.5,-30"/>
<text text-anchor="start" x="214.5" y="-18" font-family="Helvetica,sans-Serif" font-size="10.00">SearchAThing.OpenGL.Core.</text>
<text text-anchor="middle" x="282.5" y="-7" font-family="Helvetica,sans-Serif" font-size="10.00">GLControl.ToggleWireframe</text>
</a>
</g>
</g>
<!-- Node5&#45;&gt;Node24 -->
<g id="edge23" class="edge">
<title>Node5&#45;&gt;Node24</title>
<path fill="none" stroke="#63b8ff" d="M484.05,-373.49C482.72,-307.95 469.83,-132.31 373,-39 368.71,-34.87 363.8,-31.43 358.52,-28.57"/>
<polygon fill="#63b8ff" stroke="#63b8ff" points="480.55,-373.76 484.17,-383.72 487.55,-373.68 480.55,-373.76"/>
</g>
<!-- Node25 -->
<g id="node25" class="node">
<title>Node25</title>
<g id="a_node25"><a xlink:href="class_search_a_thing_1_1_open_g_l_1_1_core_1_1_g_l_control.html#a3647f3040be99a06b6a07bfeed13ad92" target="_top" xlink:title="Fit gl model into the view.">
<polygon fill="white" stroke="#666666" points="358.5,-644 206.5,-644 206.5,-614 358.5,-614 358.5,-644"/>
<text text-anchor="start" x="214.5" y="-632" font-family="Helvetica,sans-Serif" font-size="10.00">SearchAThing.OpenGL.Core.</text>
<text text-anchor="middle" x="282.5" y="-621" font-family="Helvetica,sans-Serif" font-size="10.00">GLControl.ZoomFit</text>
</a>
</g>
</g>
<!-- Node5&#45;&gt;Node25 -->
<g id="edge24" class="edge">
<title>Node5&#45;&gt;Node25</title>
<path fill="none" stroke="#63b8ff" d="M473.71,-423.58C452.7,-472.67 404.22,-580.3 373,-605 368.58,-608.49 363.7,-611.48 358.57,-614.03"/>
<polygon fill="#63b8ff" stroke="#63b8ff" points="476.96,-424.88 477.65,-414.31 470.52,-422.14 476.96,-424.88"/>
</g>
<!-- Node12 -->
<g id="node12" class="node">
<title>Node12</title>
<g id="a_node12"><a xlink:href="class_search_a_thing_1_1_open_g_l_1_1_core_1_1_g_l_control.html#acd591f4d52216f736d05a37967dfbb76" target="_top" xlink:title="Pan the view down of a little factor.">
<polygon fill="white" stroke="#666666" points="154,-342 2,-342 2,-312 154,-312 154,-342"/>
<text text-anchor="start" x="10" y="-330" font-family="Helvetica,sans-Serif" font-size="10.00">SearchAThing.OpenGL.Core.</text>
<text text-anchor="middle" x="78" y="-319" font-family="Helvetica,sans-Serif" font-size="10.00">GLControl.PanDown</text>
</a>
</g>
</g>
<!-- Node11&#45;&gt;Node12 -->
<g id="edge11" class="edge">
<title>Node11&#45;&gt;Node12</title>
<path fill="none" stroke="#63b8ff" d="M196.32,-313.1C182.38,-314.75 168.02,-316.45 154.33,-318.07"/>
<polygon fill="#63b8ff" stroke="#63b8ff" points="196.87,-316.56 206.38,-311.9 196.04,-309.6 196.87,-316.56"/>
</g>
<!-- Node13 -->
<g id="node13" class="node">
<title>Node13</title>
<g id="a_node13"><a xlink:href="class_search_a_thing_1_1_open_g_l_1_1_core_1_1_g_l_control.html#ac0149d9ec4eefdc825a466e47f0cdb07" target="_top" xlink:title="Pan the view left of a little factor.">
<polygon fill="white" stroke="#666666" points="154,-294 2,-294 2,-264 154,-264 154,-294"/>
<text text-anchor="start" x="10" y="-282" font-family="Helvetica,sans-Serif" font-size="10.00">SearchAThing.OpenGL.Core.</text>
<text text-anchor="middle" x="78" y="-271" font-family="Helvetica,sans-Serif" font-size="10.00">GLControl.PanLeft</text>
</a>
</g>
</g>
<!-- Node11&#45;&gt;Node13 -->
<g id="edge12" class="edge">
<title>Node11&#45;&gt;Node13</title>
<path fill="none" stroke="#63b8ff" d="M196.32,-292.9C182.38,-291.25 168.02,-289.55 154.33,-287.93"/>
<polygon fill="#63b8ff" stroke="#63b8ff" points="196.04,-296.4 206.38,-294.1 196.87,-289.44 196.04,-296.4"/>
</g>
<!-- Node14 -->
<g id="node14" class="node">
<title>Node14</title>
<g id="a_node14"><a xlink:href="class_search_a_thing_1_1_open_g_l_1_1_core_1_1_g_l_control.html#a21c11768939dccbc75ef58be240cc90b" target="_top" xlink:title="Pan the view right of a little factor.">
<polygon fill="white" stroke="#666666" points="154,-246 2,-246 2,-216 154,-216 154,-246"/>
<text text-anchor="start" x="10" y="-234" font-family="Helvetica,sans-Serif" font-size="10.00">SearchAThing.OpenGL.Core.</text>
<text text-anchor="middle" x="78" y="-223" font-family="Helvetica,sans-Serif" font-size="10.00">GLControl.PanRight</text>
</a>
</g>
</g>
<!-- Node11&#45;&gt;Node14 -->
<g id="edge13" class="edge">
<title>Node11&#45;&gt;Node14</title>
<path fill="none" stroke="#63b8ff" d="M205.81,-284.61C201.08,-282.88 196.44,-281.01 192,-279 174.48,-271.07 173.36,-263.28 156,-255 149.05,-251.68 141.53,-248.69 134.01,-246.02"/>
<polygon fill="#63b8ff" stroke="#63b8ff" points="205.03,-288.04 215.62,-287.99 207.3,-281.42 205.03,-288.04"/>
</g>
<!-- Node15 -->
<g id="node15" class="node">
<title>Node15</title>
<g id="a_node15"><a xlink:href="class_search_a_thing_1_1_open_g_l_1_1_core_1_1_g_l_control.html#adbc9327929edf6458b41fb0849c41650" target="_top" xlink:title="Pan the view up of a little factor.">
<polygon fill="white" stroke="#666666" points="154,-390 2,-390 2,-360 154,-360 154,-390"/>
<text text-anchor="start" x="10" y="-378" font-family="Helvetica,sans-Serif" font-size="10.00">SearchAThing.OpenGL.Core.</text>
<text text-anchor="middle" x="78" y="-367" font-family="Helvetica,sans-Serif" font-size="10.00">GLControl.PanUp</text>
</a>
</g>
</g>
<!-- Node11&#45;&gt;Node15 -->
<g id="edge14" class="edge">
<title>Node11&#45;&gt;Node15</title>
<path fill="none" stroke="#63b8ff" d="M205.81,-321.39C201.08,-323.12 196.44,-324.99 192,-327 174.48,-334.93 173.36,-342.72 156,-351 149.05,-354.32 141.53,-357.31 134.01,-359.98"/>
<polygon fill="#63b8ff" stroke="#63b8ff" points="207.3,-324.58 215.62,-318.01 205.03,-317.96 207.3,-324.58"/>
</g>
<!-- Node25&#45;&gt;Node7 -->
<g id="edge25" class="edge">
<title>Node25&#45;&gt;Node7</title>
<path fill="none" stroke="#63b8ff" d="M204.03,-646.22C185.12,-650.42 165.05,-654.88 146.65,-658.97"/>
<polygon fill="#63b8ff" stroke="#63b8ff" points="204.79,-649.63 213.79,-644.05 203.27,-642.8 204.79,-649.63"/>
</g>
<!-- Node25&#45;&gt;Node18 -->
<g id="edge26" class="edge">
<title>Node25&#45;&gt;Node18</title>
<path fill="none" stroke="#63b8ff" d="M210.57,-610.96C204.25,-609.06 197.99,-607.06 192,-605 164.19,-595.42 133.53,-582.22 111.17,-572.09"/>
<polygon fill="#63b8ff" stroke="#63b8ff" points="209.91,-614.42 220.49,-613.87 211.88,-607.7 209.91,-614.42"/>
</g>
</g>
</svg>
