<?xml version="1.0" encoding="UTF-8" standalone="no"?>
<!DOCTYPE svg PUBLIC "-//W3C//DTD SVG 1.1//EN"
 "http://www.w3.org/Graphics/SVG/1.1/DTD/svg11.dtd">
<!-- Generated by graphviz version 2.43.0 (0)
 -->
<!-- Title: AddFigure Pages: 1 -->
<svg width="261pt" height="76pt"
 viewBox="0.00 0.00 261.00 75.50" xmlns="http://www.w3.org/2000/svg" xmlns:xlink="http://www.w3.org/1999/xlink">
<g id="graph0" class="graph" transform="scale(1 1) rotate(0) translate(4 71.5)">
<title>AddFigure</title>
<!-- Node1 -->
<g id="node1" class="node">
<title>Node1</title>
<g id="a_node1"><a xlink:title="Adds given figures to the vertex manager. &#160;All vertexes belonging to the figures primitives will be a...">
<polygon fill="#999999" stroke="#666666" points="253,-45.5 188,-45.5 188,-26.5 253,-26.5 253,-45.5"/>
<text text-anchor="middle" x="220.5" y="-33.5" font-family="Helvetica,sans-Serif" font-size="10.00">AddFigure</text>
</a>
</g>
</g>
<!-- Node2 -->
<g id="node2" class="node">
<title>Node2</title>
<g id="a_node2"><a xlink:href="class_search_a_thing_1_1_open_g_l_1_1_core_1_1_g_l_vertex_manager.html#a77879e006e4d2fa3326e00269dafaf0e" target="_top" xlink:title="Adds given figures to the vertex manager. &#160;All vertexes belonging to the figures primitives will be a...">
<polygon fill="white" stroke="#666666" points="108.5,-67.5 43.5,-67.5 43.5,-48.5 108.5,-48.5 108.5,-67.5"/>
<text text-anchor="middle" x="76" y="-55.5" font-family="Helvetica,sans-Serif" font-size="10.00">AddFigure</text>
</a>
</g>
</g>
<!-- Node1&#45;&gt;Node2 -->
<g id="edge1" class="edge">
<title>Node1&#45;&gt;Node2</title>
<path fill="none" stroke="#63b8ff" d="M177.76,-42.44C155.63,-45.86 128.9,-49.99 108.54,-53.13"/>
<polygon fill="#63b8ff" stroke="#63b8ff" points="178.53,-45.87 187.87,-40.88 177.46,-38.95 178.53,-45.87"/>
</g>
<!-- Node3 -->
<g id="node3" class="node">
<title>Node3</title>
<g id="a_node3"><a xlink:href="class_search_a_thing_1_1_open_g_l_1_1_core_1_1_toolkit.html#a8136ef63b1bc53c6989e254d754919f0" target="_top" xlink:title=" ">
<polygon fill="white" stroke="#666666" points="152,-30 0,-30 0,0 152,0 152,-30"/>
<text text-anchor="start" x="8" y="-18" font-family="Helvetica,sans-Serif" font-size="10.00">SearchAThing.OpenGL.Core.</text>
<text text-anchor="middle" x="76" y="-7" font-family="Helvetica,sans-Serif" font-size="10.00">Toolkit.SortByAdjacency</text>
</a>
</g>
</g>
<!-- Node1&#45;&gt;Node3 -->
<g id="edge2" class="edge">
<title>Node1&#45;&gt;Node3</title>
<path fill="none" stroke="#63b8ff" d="M177.96,-29.88C169.84,-28.68 161.09,-27.39 152.26,-26.09"/>
<polygon fill="#63b8ff" stroke="#63b8ff" points="177.47,-33.34 187.87,-31.34 178.49,-26.42 177.47,-33.34"/>
</g>
</g>
</svg>
