<?xml version="1.0" encoding="UTF-8" standalone="no"?>
<!DOCTYPE svg PUBLIC "-//W3C//DTD SVG 1.1//EN"
 "http://www.w3.org/Graphics/SVG/1.1/DTD/svg11.dtd">
<!-- Generated by graphviz version 2.43.0 (0)
 -->
<!-- Title: RecomputeLBBox Pages: 1 -->
<svg width="487pt" height="38pt"
 viewBox="0.00 0.00 487.00 38.00" xmlns="http://www.w3.org/2000/svg" xmlns:xlink="http://www.w3.org/1999/xlink">
<g id="graph0" class="graph" transform="scale(1 1) rotate(0) translate(4 34)">
<title>RecomputeLBBox</title>
<!-- Node1 -->
<g id="node1" class="node">
<title>Node1</title>
<g id="a_node1"><a xlink:title="Recompute bbox [local] of all figure/primitive vertexes upading LBBox. &#160;Used internally after figure/...">
<polygon fill="#999999" stroke="#666666" points="479,-24.5 376,-24.5 376,-5.5 479,-5.5 479,-24.5"/>
<text text-anchor="middle" x="427.5" y="-12.5" font-family="Helvetica,sans-Serif" font-size="10.00">RecomputeLBBox</text>
</a>
</g>
</g>
<!-- Node2 -->
<g id="node2" class="node">
<title>Node2</title>
<g id="a_node2"><a xlink:href="class_search_a_thing_1_1_open_g_l_1_1_core_1_1_g_l_model.html#ad61a45e7bbe4b020ec08eb282dec7915" target="_top" xlink:title="Invalidate and recalc bounding box [local]. &#160;Used internally after delete of figures/primitives.">
<polygon fill="white" stroke="#666666" points="340,-30 188,-30 188,0 340,0 340,-30"/>
<text text-anchor="start" x="196" y="-18" font-family="Helvetica,sans-Serif" font-size="10.00">SearchAThing.OpenGL.Core.</text>
<text text-anchor="middle" x="264" y="-7" font-family="Helvetica,sans-Serif" font-size="10.00">GLModel.RecomputeLBBox</text>
</a>
</g>
</g>
<!-- Node1&#45;&gt;Node2 -->
<g id="edge1" class="edge">
<title>Node1&#45;&gt;Node2</title>
<path fill="none" stroke="#63b8ff" d="M365.77,-15C357.36,-15 348.65,-15 340.02,-15"/>
<polygon fill="#63b8ff" stroke="#63b8ff" points="365.84,-18.5 375.84,-15 365.84,-11.5 365.84,-18.5"/>
</g>
<!-- Node3 -->
<g id="node3" class="node">
<title>Node3</title>
<g id="a_node3"><a xlink:href="class_search_a_thing_1_1_open_g_l_1_1_core_1_1_g_l_model.html#aa8624fb66af820e280c7457b6e1c814d" target="_top" xlink:title="Delete selected primitives/figures.">
<polygon fill="white" stroke="#666666" points="152,-30 0,-30 0,0 152,0 152,-30"/>
<text text-anchor="start" x="8" y="-18" font-family="Helvetica,sans-Serif" font-size="10.00">SearchAThing.OpenGL.Core.</text>
<text text-anchor="middle" x="76" y="-7" font-family="Helvetica,sans-Serif" font-size="10.00">GLModel.DeleteSelected</text>
</a>
</g>
</g>
<!-- Node2&#45;&gt;Node3 -->
<g id="edge2" class="edge">
<title>Node2&#45;&gt;Node3</title>
<path fill="none" stroke="#63b8ff" d="M177.85,-15C169.26,-15 160.57,-15 152.1,-15"/>
<polygon fill="#63b8ff" stroke="#63b8ff" points="177.88,-18.5 187.88,-15 177.88,-11.5 177.88,-18.5"/>
</g>
</g>
</svg>
