<?xml version="1.0" encoding="UTF-8" standalone="no"?>
<!DOCTYPE svg PUBLIC "-//W3C//DTD SVG 1.1//EN"
 "http://www.w3.org/Graphics/SVG/1.1/DTD/svg11.dtd">
<!-- Generated by graphviz version 2.43.0 (0)
 -->
<!-- Title: GLLineFigure Pages: 1 -->
<svg width="372pt" height="192pt"
 viewBox="0.00 0.00 372.00 192.00" xmlns="http://www.w3.org/2000/svg" xmlns:xlink="http://www.w3.org/1999/xlink">
<g id="graph0" class="graph" transform="scale(1 1) rotate(0) translate(4 188)">
<title>GLLineFigure</title>
<!-- Node1 -->
<g id="node1" class="node">
<title>Node1</title>
<g id="a_node1"><a xlink:title="Specialization of typed figure within the GLLine primitive.">
<polygon fill="#999999" stroke="#666666" points="190.5,-19 110.5,-19 110.5,0 190.5,0 190.5,-19"/>
<text text-anchor="middle" x="150.5" y="-7" font-family="Helvetica,sans-Serif" font-size="10.00">GLLineFigure</text>
</a>
</g>
</g>
<!-- Node2 -->
<g id="node2" class="node">
<title>Node2</title>
<g id="a_node2"><a xlink:href="class_search_a_thing_1_1_open_g_l_1_1_core_1_1_g_l_figure_type_base.html" target="_top" xlink:title=" ">
<polygon fill="white" stroke="#666666" points="161,-74 0,-74 0,-55 161,-55 161,-74"/>
<text text-anchor="middle" x="80.5" y="-62" font-family="Helvetica,sans-Serif" font-size="10.00">GLFigureTypeBase&lt; GLLine &gt;</text>
</a>
</g>
</g>
<!-- Node2&#45;&gt;Node1 -->
<g id="edge1" class="edge">
<title>Node2&#45;&gt;Node1</title>
<path fill="none" stroke="#63b8ff" d="M99.81,-48.88C112.41,-39.34 128.43,-27.21 139.05,-19.17"/>
<polygon fill="#63b8ff" stroke="#63b8ff" points="97.61,-46.16 91.75,-54.98 101.83,-51.74 97.61,-46.16"/>
</g>
<!-- Node3 -->
<g id="node3" class="node">
<title>Node3</title>
<g id="a_node3"><a xlink:href="interface_search_a_thing_1_1_open_g_l_1_1_core_1_1_i_g_l_line_figure.html" target="_top" xlink:title="Specialization of IGLFigure for the type GLLine.">
<polygon fill="white" stroke="#666666" points="262,-74 179,-74 179,-55 262,-55 262,-74"/>
<text text-anchor="middle" x="220.5" y="-62" font-family="Helvetica,sans-Serif" font-size="10.00">IGLLineFigure</text>
</a>
</g>
</g>
<!-- Node3&#45;&gt;Node1 -->
<g id="edge2" class="edge">
<title>Node3&#45;&gt;Node1</title>
<path fill="none" stroke="#63b8ff" d="M201.19,-48.88C188.59,-39.34 172.57,-27.21 161.95,-19.17"/>
<polygon fill="#63b8ff" stroke="#63b8ff" points="199.17,-51.74 209.25,-54.98 203.39,-46.16 199.17,-51.74"/>
</g>
<!-- Node4 -->
<g id="node4" class="node">
<title>Node4</title>
<g id="a_node4"><a xlink:href="interface_search_a_thing_1_1_open_g_l_1_1_core_1_1_i_g_l_figure.html" target="_top" xlink:title="This is the direct child of a vertex manager. &#160;A figure contains primitives and primitive contains ve...">
<polygon fill="white" stroke="#666666" points="251.5,-129 189.5,-129 189.5,-110 251.5,-110 251.5,-129"/>
<text text-anchor="middle" x="220.5" y="-117" font-family="Helvetica,sans-Serif" font-size="10.00">IGLFigure</text>
</a>
</g>
</g>
<!-- Node4&#45;&gt;Node3 -->
<g id="edge3" class="edge">
<title>Node4&#45;&gt;Node3</title>
<path fill="none" stroke="#63b8ff" d="M220.5,-99.66C220.5,-90.93 220.5,-80.99 220.5,-74.09"/>
<polygon fill="#63b8ff" stroke="#63b8ff" points="217,-99.75 220.5,-109.75 224,-99.75 217,-99.75"/>
</g>
<!-- Node5 -->
<g id="node5" class="node">
<title>Node5</title>
<g id="a_node5"><a xlink:href="interface_search_a_thing_1_1_open_g_l_1_1_core_1_1_i_g_l_vertex_manager_object.html" target="_top" xlink:title="Interface for GL objects such as IGLFigure, IGLPrimitive and IGLVertex. &#160;The purpose is to ensure tha...">
<polygon fill="white" stroke="#666666" points="213,-184 76,-184 76,-165 213,-165 213,-184"/>
<text text-anchor="middle" x="144.5" y="-172" font-family="Helvetica,sans-Serif" font-size="10.00">IGLVertexManagerObject</text>
</a>
</g>
</g>
<!-- Node5&#45;&gt;Node4 -->
<g id="edge4" class="edge">
<title>Node5&#45;&gt;Node4</title>
<path fill="none" stroke="#63b8ff" d="M165.08,-159.15C178.81,-149.57 196.43,-137.29 208.07,-129.17"/>
<polygon fill="#63b8ff" stroke="#63b8ff" points="162.91,-156.39 156.71,-164.98 166.92,-162.14 162.91,-156.39"/>
</g>
<!-- Node6 -->
<g id="node6" class="node">
<title>Node6</title>
<g id="a_node6"><a xlink:title=" ">
<polygon fill="white" stroke="#666666" points="364,-184 231,-184 231,-165 364,-165 364,-184"/>
<text text-anchor="middle" x="297.5" y="-172" font-family="Helvetica,sans-Serif" font-size="10.00">INotifyPropertyChanged</text>
</a>
</g>
</g>
<!-- Node6&#45;&gt;Node4 -->
<g id="edge5" class="edge">
<title>Node6&#45;&gt;Node4</title>
<path fill="none" stroke="#63b8ff" d="M276.65,-159.15C262.74,-149.57 244.89,-137.29 233.1,-129.17"/>
<polygon fill="#63b8ff" stroke="#63b8ff" points="274.91,-162.2 285.13,-164.98 278.88,-156.43 274.91,-162.2"/>
</g>
</g>
</svg>
