<?xml version="1.0" encoding="UTF-8" standalone="no"?>
<!DOCTYPE svg PUBLIC "-//W3C//DTD SVG 1.1//EN"
 "http://www.w3.org/Graphics/SVG/1.1/DTD/svg11.dtd">
<!-- Generated by graphviz version 2.43.0 (0)
 -->
<!-- Title: FromTo Pages: 1 -->
<svg width="248pt" height="86pt"
 viewBox="0.00 0.00 248.00 86.00" xmlns="http://www.w3.org/2000/svg" xmlns:xlink="http://www.w3.org/1999/xlink">
<g id="graph0" class="graph" transform="scale(1 1) rotate(0) translate(4 82)">
<title>FromTo</title>
<!-- Node1 -->
<g id="node1" class="node">
<title>Node1</title>
<g id="a_node1"><a xlink:title="Create a new opengl line by two points through given two gl vertexes.">
<polygon fill="#999999" stroke="#666666" points="240,-48.5 188,-48.5 188,-29.5 240,-29.5 240,-48.5"/>
<text text-anchor="middle" x="214" y="-36.5" font-family="Helvetica,sans-Serif" font-size="10.00">FromTo</text>
</a>
</g>
</g>
<!-- Node2 -->
<g id="node2" class="node">
<title>Node2</title>
<g id="a_node2"><a xlink:href="class_search_a_thing_1_1_open_g_l_1_1_core_1_1_g_l_triangle.html#ac5f7e59248957fafca82f095fa267a42" target="_top" xlink:title="Enumerate triangle as opengl lines (V1,V2), (V2,V3) and (V3,V1).">
<polygon fill="white" stroke="#666666" points="152,-78 0,-78 0,-48 152,-48 152,-78"/>
<text text-anchor="start" x="8" y="-66" font-family="Helvetica,sans-Serif" font-size="10.00">SearchAThing.OpenGL.Core.</text>
<text text-anchor="middle" x="76" y="-55" font-family="Helvetica,sans-Serif" font-size="10.00">GLTriangle.Lines</text>
</a>
</g>
</g>
<!-- Node1&#45;&gt;Node2 -->
<g id="edge1" class="edge">
<title>Node1&#45;&gt;Node2</title>
<path fill="none" stroke="#63b8ff" d="M177.77,-45.22C169.8,-46.62 161.04,-48.17 152.12,-49.74"/>
<polygon fill="#63b8ff" stroke="#63b8ff" points="178.5,-48.64 187.74,-43.46 177.28,-41.75 178.5,-48.64"/>
</g>
<!-- Node3 -->
<g id="node3" class="node">
<title>Node3</title>
<g id="a_node3"><a xlink:href="class_search_a_thing_1_1_open_g_l_1_1_core_1_1_toolkit.html#aa21b12f58d8b6c6406a51954d67433be" target="_top" xlink:title="Generate a gl figure that represent the camera frustum object.">
<polygon fill="white" stroke="#666666" points="152,-30 0,-30 0,0 152,0 152,-30"/>
<text text-anchor="start" x="8" y="-18" font-family="Helvetica,sans-Serif" font-size="10.00">SearchAThing.OpenGL.Core.</text>
<text text-anchor="middle" x="76" y="-7" font-family="Helvetica,sans-Serif" font-size="10.00">Toolkit.MakeFrustum</text>
</a>
</g>
</g>
<!-- Node1&#45;&gt;Node3 -->
<g id="edge2" class="edge">
<title>Node1&#45;&gt;Node3</title>
<path fill="none" stroke="#63b8ff" d="M177.77,-32.78C169.8,-31.38 161.04,-29.83 152.12,-28.26"/>
<polygon fill="#63b8ff" stroke="#63b8ff" points="177.28,-36.25 187.74,-34.54 178.5,-29.36 177.28,-36.25"/>
</g>
</g>
</svg>
