<?xml version="1.0" encoding="UTF-8" standalone="no"?>
<!DOCTYPE svg PUBLIC "-//W3C//DTD SVG 1.1//EN"
 "http://www.w3.org/Graphics/SVG/1.1/DTD/svg11.dtd">
<!-- Generated by graphviz version 2.43.0 (0)
 -->
<!-- Title: Invalidate Pages: 1 -->
<svg width="380pt" height="636pt"
 viewBox="0.00 0.00 380.00 636.29" xmlns="http://www.w3.org/2000/svg" xmlns:xlink="http://www.w3.org/1999/xlink">
<g id="graph0" class="graph" transform="scale(1 1) rotate(0) translate(4 632.29)">
<title>Invalidate</title>
<!-- Node1 -->
<g id="node1" class="node">
<title>Node1</title>
<g id="a_node1"><a xlink:title="Regenerate the model with GLModel.BuildModel if this is the first invalidation or the invalidate argu...">
<polygon fill="#999999" stroke="#666666" points="372,-312.29 307,-312.29 307,-293.29 372,-293.29 372,-312.29"/>
<text text-anchor="middle" x="339.5" y="-300.29" font-family="Helvetica,sans-Serif" font-size="10.00">Invalidate</text>
</a>
</g>
</g>
<!-- Node2 -->
<g id="node2" class="node">
<title>Node2</title>
<g id="a_node2"><a xlink:href="class_search_a_thing_1_1_open_g_l_1_1_core_1_1_g_l_control.html#a4393fa83b725fcac29a5bc6ab5832ac5" target="_top" xlink:title="Rotate the camera [view] a given rotation center [local]. ( not yet tested )">
<polygon fill="white" stroke="#666666" points="249.5,-610.29 162.5,-610.29 162.5,-591.29 249.5,-591.29 249.5,-610.29"/>
<text text-anchor="middle" x="206" y="-598.29" font-family="Helvetica,sans-Serif" font-size="10.00">CameraRotate</text>
</a>
</g>
</g>
<!-- Node1&#45;&gt;Node2 -->
<g id="edge1" class="edge">
<title>Node1&#45;&gt;Node2</title>
<path fill="none" stroke="#63b8ff" d="M336.28,-322.52C329.47,-379.68 307.12,-543.77 271,-581.79 265.25,-587.84 257.67,-591.99 249.75,-594.83"/>
<polygon fill="#63b8ff" stroke="#63b8ff" points="339.76,-322.92 337.44,-312.58 332.81,-322.11 339.76,-322.92"/>
</g>
<!-- Node3 -->
<g id="node3" class="node">
<title>Node3</title>
<g id="a_node3"><a xlink:href="class_search_a_thing_1_1_open_g_l_1_1_core_1_1_g_l_control.html#a609ac6af33cb1c1fc525aff164df9543" target="_top" xlink:title="Set the view using given cube view type.">
<polygon fill="white" stroke="#666666" points="92,-368.29 13,-368.29 13,-349.29 92,-349.29 92,-368.29"/>
<text text-anchor="middle" x="52.5" y="-356.29" font-family="Helvetica,sans-Serif" font-size="10.00">CameraView</text>
</a>
</g>
</g>
<!-- Node1&#45;&gt;Node3 -->
<g id="edge2" class="edge">
<title>Node1&#45;&gt;Node3</title>
<path fill="none" stroke="#63b8ff" d="M330.95,-321.78C320.97,-343.97 301.05,-379.56 271,-394.79 202.88,-429.3 108.84,-388.16 70.65,-368.32"/>
<polygon fill="#63b8ff" stroke="#63b8ff" points="334.25,-322.96 334.94,-312.39 327.81,-320.22 334.25,-322.96"/>
</g>
<!-- Node4 -->
<g id="node4" class="node">
<title>Node4</title>
<g id="a_node4"><a xlink:href="class_search_a_thing_1_1_open_g_l_1_1_core_1_1_g_l_control.html#a5e5904b44d1b553f27e0079fe42d5ac7" target="_top" xlink:title="Zoom eye space by given scale factor.">
<polygon fill="white" stroke="#666666" points="247.5,-536.29 164.5,-536.29 164.5,-517.29 247.5,-517.29 247.5,-536.29"/>
<text text-anchor="middle" x="206" y="-524.29" font-family="Helvetica,sans-Serif" font-size="10.00">CameraZoom</text>
</a>
</g>
</g>
<!-- Node1&#45;&gt;Node4 -->
<g id="edge3" class="edge">
<title>Node1&#45;&gt;Node4</title>
<path fill="none" stroke="#63b8ff" d="M337.8,-322.8C335.28,-363.54 323.72,-456.6 271,-507.79 264.6,-514.01 256.26,-518.2 247.72,-521.03"/>
<polygon fill="#63b8ff" stroke="#63b8ff" points="341.31,-322.72 338.31,-312.56 334.32,-322.38 341.31,-322.72"/>
</g>
<!-- Node5 -->
<g id="node5" class="node">
<title>Node5</title>
<g id="a_node5"><a xlink:href="class_search_a_thing_1_1_open_g_l_1_1_core_1_1_g_l_control.html#a28291bb40e52fa94a0d72eaf84bb6307" target="_top" xlink:title="Restore current view config from given pathfilename.">
<polygon fill="white" stroke="#666666" points="238,-499.29 174,-499.29 174,-480.29 238,-480.29 238,-499.29"/>
<text text-anchor="middle" x="206" y="-487.29" font-family="Helvetica,sans-Serif" font-size="10.00">LoadView</text>
</a>
</g>
</g>
<!-- Node1&#45;&gt;Node5 -->
<g id="edge4" class="edge">
<title>Node1&#45;&gt;Node5</title>
<path fill="none" stroke="#63b8ff" d="M336.12,-322.75C330.88,-357.84 315.06,-430.67 271,-470.79 262,-478.98 249.62,-483.65 238.14,-486.31"/>
<polygon fill="#63b8ff" stroke="#63b8ff" points="339.65,-322.78 337.52,-312.4 332.71,-321.84 339.65,-322.78"/>
</g>
<!-- Node6 -->
<g id="node6" class="node">
<title>Node6</title>
<g id="a_node6"><a xlink:href="class_search_a_thing_1_1_open_g_l_1_1_core_1_1_g_l_control.html#aac473598b86094d90e33249499313225" target="_top" xlink:title="Rotate the model by given [eye] x,y angles around given [local] rotation center.">
<polygon fill="white" stroke="#666666" points="245.5,-462.29 166.5,-462.29 166.5,-443.29 245.5,-443.29 245.5,-462.29"/>
<text text-anchor="middle" x="206" y="-450.29" font-family="Helvetica,sans-Serif" font-size="10.00">ModelRotate</text>
</a>
</g>
</g>
<!-- Node1&#45;&gt;Node6 -->
<g id="edge5" class="edge">
<title>Node1&#45;&gt;Node6</title>
<path fill="none" stroke="#63b8ff" d="M332.96,-322.09C324.16,-349.47 304.47,-399.5 271,-428.79 263.77,-435.12 254.7,-439.85 245.69,-443.35"/>
<polygon fill="#63b8ff" stroke="#63b8ff" points="336.32,-323.07 335.89,-312.49 329.62,-321.03 336.32,-323.07"/>
</g>
<!-- Node7 -->
<g id="node7" class="node">
<title>Node7</title>
<g id="a_node7"><a xlink:href="class_search_a_thing_1_1_open_g_l_1_1_core_1_1_g_l_control.html#afc6003d84ce56250451495e4519d569a" target="_top" xlink:title="Pan the view by the given screen translation.">
<polygon fill="white" stroke="#666666" points="223,-573.29 189,-573.29 189,-554.29 223,-554.29 223,-573.29"/>
<text text-anchor="middle" x="206" y="-561.29" font-family="Helvetica,sans-Serif" font-size="10.00">Pan</text>
</a>
</g>
</g>
<!-- Node1&#45;&gt;Node7 -->
<g id="edge6" class="edge">
<title>Node1&#45;&gt;Node7</title>
<path fill="none" stroke="#63b8ff" d="M339,-322.87C339.03,-368.78 332.47,-482.29 271,-544.79 258.4,-557.6 237.6,-561.86 223.14,-563.23"/>
<polygon fill="#63b8ff" stroke="#63b8ff" points="342.5,-322.68 338.89,-312.72 335.5,-322.76 342.5,-322.68"/>
</g>
<!-- Node12 -->
<g id="node12" class="node">
<title>Node12</title>
<g id="a_node12"><a xlink:href="class_search_a_thing_1_1_open_g_l_1_1_core_1_1_g_l_control.html#a496bd7a18ca3ccf8a4168430fbf21ca0" target="_top" xlink:title="Switch (model) selection mode.">
<polygon fill="white" stroke="#666666" points="266.5,-386.29 145.5,-386.29 145.5,-367.29 266.5,-367.29 266.5,-386.29"/>
<text text-anchor="middle" x="206" y="-374.29" font-family="Helvetica,sans-Serif" font-size="10.00">SwitchSelectionMode</text>
</a>
</g>
</g>
<!-- Node1&#45;&gt;Node12 -->
<g id="edge11" class="edge">
<title>Node1&#45;&gt;Node12</title>
<path fill="none" stroke="#63b8ff" d="M322.12,-319.3C309.22,-331.47 290.26,-347.61 271,-357.79 263.83,-361.58 255.79,-364.72 247.9,-367.28"/>
<polygon fill="#63b8ff" stroke="#63b8ff" points="324.57,-321.79 329.32,-312.32 319.7,-316.77 324.57,-321.79"/>
</g>
<!-- Node13 -->
<g id="node13" class="node">
<title>Node13</title>
<g id="a_node13"><a xlink:href="class_search_a_thing_1_1_open_g_l_1_1_core_1_1_g_l_control.html#a46550daf1e758d55af170aaf35181ab6" target="_top" xlink:title="Tilt camera [view] by rotating it&#39;s up vector around [view] z axis.">
<polygon fill="white" stroke="#666666" points="222,-349.29 190,-349.29 190,-330.29 222,-330.29 222,-349.29"/>
<text text-anchor="middle" x="206" y="-337.29" font-family="Helvetica,sans-Serif" font-size="10.00">Tilt</text>
</a>
</g>
</g>
<!-- Node1&#45;&gt;Node13 -->
<g id="edge12" class="edge">
<title>Node1&#45;&gt;Node13</title>
<path fill="none" stroke="#63b8ff" d="M296.88,-314.5C271.45,-321.65 240.43,-330.38 222.28,-335.49"/>
<polygon fill="#63b8ff" stroke="#63b8ff" points="297.99,-317.82 306.67,-311.75 296.09,-311.08 297.99,-317.82"/>
</g>
<!-- Node14 -->
<g id="node14" class="node">
<title>Node14</title>
<g id="a_node14"><a xlink:href="class_search_a_thing_1_1_open_g_l_1_1_core_1_1_g_l_control.html#a809dcd2f46e1da7c985e0ba750f5c389" target="_top" xlink:title="Toggle perspective mode.">
<polygon fill="white" stroke="#666666" points="105,-201.29 0,-201.29 0,-182.29 105,-182.29 105,-201.29"/>
<text text-anchor="middle" x="52.5" y="-189.29" font-family="Helvetica,sans-Serif" font-size="10.00">TogglePerspective</text>
</a>
</g>
</g>
<!-- Node1&#45;&gt;Node14 -->
<g id="edge13" class="edge">
<title>Node1&#45;&gt;Node14</title>
<path fill="none" stroke="#63b8ff" d="M336.79,-282.99C331.32,-224.93 312.18,-57.17 271,-24.79 225.58,10.92 190.43,5.12 141,-24.79 81.63,-60.71 60.58,-151.66 55.1,-181.87"/>
<polygon fill="#63b8ff" stroke="#63b8ff" points="333.31,-283.42 337.7,-293.07 340.29,-282.79 333.31,-283.42"/>
</g>
<!-- Node15 -->
<g id="node15" class="node">
<title>Node15</title>
<g id="a_node15"><a xlink:href="class_search_a_thing_1_1_open_g_l_1_1_core_1_1_g_l_control.html#aaf887d3cb7075f3b39074bc09f2af646" target="_top" xlink:title="Toggle shade with edge.">
<polygon fill="white" stroke="#666666" points="268.5,-275.29 143.5,-275.29 143.5,-256.29 268.5,-256.29 268.5,-275.29"/>
<text text-anchor="middle" x="206" y="-263.29" font-family="Helvetica,sans-Serif" font-size="10.00">ToggleShadeWithEdge</text>
</a>
</g>
</g>
<!-- Node1&#45;&gt;Node15 -->
<g id="edge14" class="edge">
<title>Node1&#45;&gt;Node15</title>
<path fill="none" stroke="#63b8ff" d="M296.96,-291.1C278.87,-286.01 257.95,-280.12 240.84,-275.31"/>
<polygon fill="#63b8ff" stroke="#63b8ff" points="296.09,-294.49 306.67,-293.83 297.99,-287.75 296.09,-294.49"/>
</g>
<!-- Node16 -->
<g id="node16" class="node">
<title>Node16</title>
<g id="a_node16"><a xlink:href="class_search_a_thing_1_1_open_g_l_1_1_core_1_1_g_l_control.html#a76c43e4f8ae0b22ca87fbe6ab37c3c23" target="_top" xlink:title="Toggle display of model bounding box ( generated at runtime through a temporary vertex manager ).">
<polygon fill="white" stroke="#666666" points="271,-238.29 141,-238.29 141,-219.29 271,-219.29 271,-238.29"/>
<text text-anchor="middle" x="206" y="-226.29" font-family="Helvetica,sans-Serif" font-size="10.00">ToggleShowModelBBox</text>
</a>
</g>
</g>
<!-- Node1&#45;&gt;Node16 -->
<g id="edge15" class="edge">
<title>Node1&#45;&gt;Node16</title>
<path fill="none" stroke="#63b8ff" d="M322.22,-285.89C309.37,-273.45 290.43,-256.99 271,-246.79 264.56,-243.41 257.42,-240.6 250.3,-238.29"/>
<polygon fill="#63b8ff" stroke="#63b8ff" points="319.83,-288.44 329.38,-293.02 324.77,-283.49 319.83,-288.44"/>
</g>
<!-- Node17 -->
<g id="node17" class="node">
<title>Node17</title>
<g id="a_node17"><a xlink:href="class_search_a_thing_1_1_open_g_l_1_1_core_1_1_g_l_control.html#a2a71dcd049526738239381c0d2ce9345" target="_top" xlink:title="Toggle show normals.">
<polygon fill="white" stroke="#666666" points="264,-201.29 148,-201.29 148,-182.29 264,-182.29 264,-201.29"/>
<text text-anchor="middle" x="206" y="-189.29" font-family="Helvetica,sans-Serif" font-size="10.00">ToggleShowNormals</text>
</a>
</g>
</g>
<!-- Node1&#45;&gt;Node17 -->
<g id="edge16" class="edge">
<title>Node1&#45;&gt;Node17</title>
<path fill="none" stroke="#63b8ff" d="M329.72,-284.01C318.87,-262.84 298.43,-228.9 271,-209.79 266.08,-206.36 260.51,-203.58 254.77,-201.33"/>
<polygon fill="#63b8ff" stroke="#63b8ff" points="326.71,-285.82 334.27,-293.25 333,-282.73 326.71,-285.82"/>
</g>
<!-- Node18 -->
<g id="node18" class="node">
<title>Node18</title>
<g id="a_node18"><a xlink:href="class_search_a_thing_1_1_open_g_l_1_1_core_1_1_g_l_control.html#a1a983cc95609136123b361f3ed2ebe96" target="_top" xlink:title="Toggle shadows generation.">
<polygon fill="white" stroke="#666666" points="258.5,-164.29 153.5,-164.29 153.5,-145.29 258.5,-145.29 258.5,-164.29"/>
<text text-anchor="middle" x="206" y="-152.29" font-family="Helvetica,sans-Serif" font-size="10.00">ToggleUseShadow</text>
</a>
</g>
</g>
<!-- Node1&#45;&gt;Node18 -->
<g id="edge17" class="edge">
<title>Node1&#45;&gt;Node18</title>
<path fill="none" stroke="#63b8ff" d="M333.7,-283.32C325.66,-254.78 306.7,-201.84 271,-172.79 266.79,-169.36 261.97,-166.59 256.91,-164.35"/>
<polygon fill="#63b8ff" stroke="#63b8ff" points="330.4,-284.51 336.35,-293.28 337.17,-282.72 330.4,-284.51"/>
</g>
<!-- Node19 -->
<g id="node19" class="node">
<title>Node19</title>
<g id="a_node19"><a xlink:href="class_search_a_thing_1_1_open_g_l_1_1_core_1_1_g_l_control.html#a2ceddd0bec1b455a5fe13ba85af6df19" target="_top" xlink:title="Toggle use of textures.">
<polygon fill="white" stroke="#666666" points="257.5,-127.29 154.5,-127.29 154.5,-108.29 257.5,-108.29 257.5,-127.29"/>
<text text-anchor="middle" x="206" y="-115.29" font-family="Helvetica,sans-Serif" font-size="10.00">ToggleUseTexture</text>
</a>
</g>
</g>
<!-- Node1&#45;&gt;Node19 -->
<g id="edge18" class="edge">
<title>Node1&#45;&gt;Node19</title>
<path fill="none" stroke="#63b8ff" d="M336.14,-282.88C330.93,-247.89 315.16,-175.34 271,-135.79 267.05,-132.25 262.45,-129.4 257.56,-127.1"/>
<polygon fill="#63b8ff" stroke="#63b8ff" points="332.73,-283.76 337.53,-293.2 339.67,-282.83 332.73,-283.76"/>
</g>
<!-- Node20 -->
<g id="node20" class="node">
<title>Node20</title>
<g id="a_node20"><a xlink:href="class_search_a_thing_1_1_open_g_l_1_1_core_1_1_g_l_control.html#a10d694aff8f24ea1e1b52a95859401f7" target="_top" xlink:title="Toggle vertex visibility.">
<polygon fill="white" stroke="#666666" points="267,-90.29 145,-90.29 145,-71.29 267,-71.29 267,-90.29"/>
<text text-anchor="middle" x="206" y="-78.29" font-family="Helvetica,sans-Serif" font-size="10.00">ToggleVertexVisibility</text>
</a>
</g>
</g>
<!-- Node1&#45;&gt;Node20 -->
<g id="edge19" class="edge">
<title>Node1&#45;&gt;Node20</title>
<path fill="none" stroke="#63b8ff" d="M337.83,-282.81C335.36,-242.15 323.89,-149.33 271,-98.79 267.41,-95.36 263.22,-92.57 258.74,-90.31"/>
<polygon fill="#63b8ff" stroke="#63b8ff" points="334.34,-283.21 338.32,-293.03 341.34,-282.87 334.34,-283.21"/>
</g>
<!-- Node21 -->
<g id="node21" class="node">
<title>Node21</title>
<g id="a_node21"><a xlink:href="class_search_a_thing_1_1_open_g_l_1_1_core_1_1_g_l_control.html#a0b013ae153047446187737c929853f36" target="_top" xlink:title="Toggle wireframe mode.">
<polygon fill="white" stroke="#666666" points="256,-53.29 156,-53.29 156,-34.29 256,-34.29 256,-53.29"/>
<text text-anchor="middle" x="206" y="-41.29" font-family="Helvetica,sans-Serif" font-size="10.00">ToggleWireframe</text>
</a>
</g>
</g>
<!-- Node1&#45;&gt;Node21 -->
<g id="edge20" class="edge">
<title>Node1&#45;&gt;Node21</title>
<path fill="none" stroke="#63b8ff" d="M339.04,-282.73C339.13,-236.87 332.71,-123.57 271,-61.79 266.76,-57.54 261.6,-54.28 256.07,-51.77"/>
<polygon fill="#63b8ff" stroke="#63b8ff" points="335.54,-282.82 338.9,-292.86 342.54,-282.91 335.54,-282.82"/>
</g>
<!-- Node22 -->
<g id="node22" class="node">
<title>Node22</title>
<g id="a_node22"><a xlink:href="class_search_a_thing_1_1_open_g_l_1_1_core_1_1_g_l_control.html#a3647f3040be99a06b6a07bfeed13ad92" target="_top" xlink:title="Fit gl model into the view.">
<polygon fill="white" stroke="#666666" points="234.5,-312.29 177.5,-312.29 177.5,-293.29 234.5,-293.29 234.5,-312.29"/>
<text text-anchor="middle" x="206" y="-300.29" font-family="Helvetica,sans-Serif" font-size="10.00">ZoomFit</text>
</a>
</g>
</g>
<!-- Node1&#45;&gt;Node22 -->
<g id="edge21" class="edge">
<title>Node1&#45;&gt;Node22</title>
<path fill="none" stroke="#63b8ff" d="M296.44,-302.79C276.18,-302.79 252.45,-302.79 234.53,-302.79"/>
<polygon fill="#63b8ff" stroke="#63b8ff" points="296.67,-306.29 306.67,-302.79 296.67,-299.29 296.67,-306.29"/>
</g>
<!-- Node8 -->
<g id="node8" class="node">
<title>Node8</title>
<g id="a_node8"><a xlink:href="class_search_a_thing_1_1_open_g_l_1_1_core_1_1_g_l_control.html#acd591f4d52216f736d05a37967dfbb76" target="_top" xlink:title="Pan the view down of a little factor.">
<polygon fill="white" stroke="#666666" points="83.5,-554.29 21.5,-554.29 21.5,-535.29 83.5,-535.29 83.5,-554.29"/>
<text text-anchor="middle" x="52.5" y="-542.29" font-family="Helvetica,sans-Serif" font-size="10.00">PanDown</text>
</a>
</g>
</g>
<!-- Node7&#45;&gt;Node8 -->
<g id="edge7" class="edge">
<title>Node7&#45;&gt;Node8</title>
<path fill="none" stroke="#63b8ff" d="M178.73,-560.49C152.26,-557.17 111.44,-552.06 83.66,-548.57"/>
<polygon fill="#63b8ff" stroke="#63b8ff" points="178.43,-563.98 188.79,-561.76 179.3,-557.04 178.43,-563.98"/>
</g>
<!-- Node9 -->
<g id="node9" class="node">
<title>Node9</title>
<g id="a_node9"><a xlink:href="class_search_a_thing_1_1_open_g_l_1_1_core_1_1_g_l_control.html#ac0149d9ec4eefdc825a466e47f0cdb07" target="_top" xlink:title="Pan the view left of a little factor.">
<polygon fill="white" stroke="#666666" points="78.5,-517.29 26.5,-517.29 26.5,-498.29 78.5,-498.29 78.5,-517.29"/>
<text text-anchor="middle" x="52.5" y="-505.29" font-family="Helvetica,sans-Serif" font-size="10.00">PanLeft</text>
</a>
</g>
</g>
<!-- Node7&#45;&gt;Node9 -->
<g id="edge8" class="edge">
<title>Node7&#45;&gt;Node9</title>
<path fill="none" stroke="#63b8ff" d="M179.21,-557.38C167.38,-554.13 153.29,-549.8 141,-544.79 124.25,-537.96 121.59,-533.02 105,-525.79 96.58,-522.12 87.14,-518.65 78.67,-515.75"/>
<polygon fill="#63b8ff" stroke="#63b8ff" points="178.36,-560.78 188.92,-559.95 180.15,-554.01 178.36,-560.78"/>
</g>
<!-- Node10 -->
<g id="node10" class="node">
<title>Node10</title>
<g id="a_node10"><a xlink:href="class_search_a_thing_1_1_open_g_l_1_1_core_1_1_g_l_control.html#a21c11768939dccbc75ef58be240cc90b" target="_top" xlink:title="Pan the view right of a little factor.">
<polygon fill="white" stroke="#666666" points="82,-628.29 23,-628.29 23,-609.29 82,-609.29 82,-628.29"/>
<text text-anchor="middle" x="52.5" y="-616.29" font-family="Helvetica,sans-Serif" font-size="10.00">PanRight</text>
</a>
</g>
</g>
<!-- Node7&#45;&gt;Node10 -->
<g id="edge9" class="edge">
<title>Node7&#45;&gt;Node10</title>
<path fill="none" stroke="#63b8ff" d="M179.2,-569.72C167.36,-572.77 153.27,-576.89 141,-581.79 124.2,-588.5 121.59,-593.56 105,-600.79 97.71,-603.97 89.65,-607 82.13,-609.63"/>
<polygon fill="#63b8ff" stroke="#63b8ff" points="180.04,-573.11 188.91,-567.31 178.36,-566.32 180.04,-573.11"/>
</g>
<!-- Node11 -->
<g id="node11" class="node">
<title>Node11</title>
<g id="a_node11"><a xlink:href="class_search_a_thing_1_1_open_g_l_1_1_core_1_1_g_l_control.html#adbc9327929edf6458b41fb0849c41650" target="_top" xlink:title="Pan the view up of a little factor.">
<polygon fill="white" stroke="#666666" points="76,-591.29 29,-591.29 29,-572.29 76,-572.29 76,-591.29"/>
<text text-anchor="middle" x="52.5" y="-579.29" font-family="Helvetica,sans-Serif" font-size="10.00">PanUp</text>
</a>
</g>
</g>
<!-- Node7&#45;&gt;Node11 -->
<g id="edge10" class="edge">
<title>Node7&#45;&gt;Node11</title>
<path fill="none" stroke="#63b8ff" d="M178.59,-566.93C149.63,-570.37 103.63,-575.83 76.22,-579.09"/>
<polygon fill="#63b8ff" stroke="#63b8ff" points="179.27,-570.37 188.79,-565.71 178.44,-563.42 179.27,-570.37"/>
</g>
<!-- Node22&#45;&gt;Node3 -->
<g id="edge22" class="edge">
<title>Node22&#45;&gt;Node3</title>
<path fill="none" stroke="#63b8ff" d="M167.66,-312.37C158.85,-314.89 149.53,-317.75 141,-320.79 117.28,-329.23 90.88,-341.04 73.35,-349.25"/>
<polygon fill="#63b8ff" stroke="#63b8ff" points="168.63,-315.73 177.34,-309.69 166.76,-308.99 168.63,-315.73"/>
</g>
<!-- Node22&#45;&gt;Node14 -->
<g id="edge23" class="edge">
<title>Node22&#45;&gt;Node14</title>
<path fill="none" stroke="#63b8ff" d="M167.56,-295.22C158.47,-292.44 149.06,-288.72 141,-283.79 104.53,-261.45 73.09,-220.14 59.99,-201.43"/>
<polygon fill="#63b8ff" stroke="#63b8ff" points="166.65,-298.6 177.22,-297.87 168.51,-291.85 166.65,-298.6"/>
</g>
</g>
</svg>
