<?xml version="1.0" encoding="UTF-8" standalone="no"?>
<!DOCTYPE svg PUBLIC "-//W3C//DTD SVG 1.1//EN"
 "http://www.w3.org/Graphics/SVG/1.1/DTD/svg11.dtd">
<!-- Generated by graphviz version 2.43.0 (0)
 -->
<!-- Title: ScreenToEye_virtual Pages: 1 -->
<svg width="542pt" height="64pt"
 viewBox="0.00 0.00 542.00 64.00" xmlns="http://www.w3.org/2000/svg" xmlns:xlink="http://www.w3.org/1999/xlink">
<g id="graph0" class="graph" transform="scale(1 1) rotate(0) translate(4 60)">
<title>ScreenToEye_virtual</title>
<!-- Node1 -->
<g id="node1" class="node">
<title>Node1</title>
<g id="a_node1"><a xlink:title="Converts given screen space coord to corresponding virtual in eye space coord (z=0,...">
<polygon fill="#999999" stroke="#666666" points="534,-37 419,-37 419,-18 534,-18 534,-37"/>
<text text-anchor="middle" x="476.5" y="-25" font-family="Helvetica,sans-Serif" font-size="10.00">ScreenToEye_virtual</text>
</a>
</g>
</g>
<!-- Node2 -->
<g id="node2" class="node">
<title>Node2</title>
<g id="a_node2"><a xlink:href="class_search_a_thing_1_1_open_g_l_1_1_core_1_1_toolkit.html#ad9a376fbd100ab9feaf7101e98992043" target="_top" xlink:title="Pan the view ( Orthogonal mode ) by the given screen translation coord generating new camera config.">
<polygon fill="white" stroke="#666666" points="368,-56 307,-56 307,-37 368,-37 368,-56"/>
<text text-anchor="middle" x="337.5" y="-44" font-family="Helvetica,sans-Serif" font-size="10.00">OrthoPan</text>
</a>
</g>
</g>
<!-- Node1&#45;&gt;Node2 -->
<g id="edge1" class="edge">
<title>Node1&#45;&gt;Node2</title>
<path fill="none" stroke="#63b8ff" d="M408.71,-36.76C394.52,-38.73 380.23,-40.71 368.29,-42.37"/>
<polygon fill="#63b8ff" stroke="#63b8ff" points="409.56,-40.18 418.99,-35.34 408.6,-33.24 409.56,-40.18"/>
</g>
<!-- Node4 -->
<g id="node4" class="node">
<title>Node4</title>
<g id="a_node4"><a xlink:href="class_search_a_thing_1_1_open_g_l_1_1_core_1_1_toolkit.html#a29118a66237c094ddfd5a935d5470dc5" target="_top" xlink:title="Pan the view ( Perspective mode ) by the given screen translation coord generating new camera config.">
<polygon fill="white" stroke="#666666" points="383,-19 292,-19 292,0 383,0 383,-19"/>
<text text-anchor="middle" x="337.5" y="-7" font-family="Helvetica,sans-Serif" font-size="10.00">PerspectivePan</text>
</a>
</g>
</g>
<!-- Node1&#45;&gt;Node4 -->
<g id="edge3" class="edge">
<title>Node1&#45;&gt;Node4</title>
<path fill="none" stroke="#63b8ff" d="M408.83,-18.74C400.13,-17.6 391.39,-16.45 383.17,-15.37"/>
<polygon fill="#63b8ff" stroke="#63b8ff" points="408.62,-22.24 418.99,-20.07 409.53,-15.3 408.62,-22.24"/>
</g>
<!-- Node3 -->
<g id="node3" class="node">
<title>Node3</title>
<g id="a_node3"><a xlink:href="class_search_a_thing_1_1_open_g_l_1_1_core_1_1_toolkit.html#a477f49b72ab0d89c78fc58cae4895f37" target="_top" xlink:title="Fit current model view for orthographic projection.">
<polygon fill="white" stroke="#666666" points="245,-56 161,-56 161,-37 245,-37 245,-56"/>
<text text-anchor="middle" x="203" y="-44" font-family="Helvetica,sans-Serif" font-size="10.00">OrthoZoomFit</text>
</a>
</g>
</g>
<!-- Node2&#45;&gt;Node3 -->
<g id="edge2" class="edge">
<title>Node2&#45;&gt;Node3</title>
<path fill="none" stroke="#63b8ff" d="M296.51,-46.5C280.28,-46.5 261.54,-46.5 245.19,-46.5"/>
<polygon fill="#63b8ff" stroke="#63b8ff" points="296.76,-50 306.76,-46.5 296.76,-43 296.76,-50"/>
</g>
<!-- Node5 -->
<g id="node5" class="node">
<title>Node5</title>
<g id="a_node5"><a xlink:href="class_search_a_thing_1_1_open_g_l_1_1_core_1_1_toolkit.html#aa0108f9e641ec868a0bcf4c83c449366" target="_top" xlink:title="Center the view ( Perspective mode ) by computing camera [world] position and target.">
<polygon fill="white" stroke="#666666" points="256,-19 150,-19 150,0 256,0 256,-19"/>
<text text-anchor="middle" x="203" y="-7" font-family="Helvetica,sans-Serif" font-size="10.00">PerspectiveCenter</text>
</a>
</g>
</g>
<!-- Node4&#45;&gt;Node5 -->
<g id="edge4" class="edge">
<title>Node4&#45;&gt;Node5</title>
<path fill="none" stroke="#63b8ff" d="M281.55,-9.5C273.14,-9.5 264.48,-9.5 256.13,-9.5"/>
<polygon fill="#63b8ff" stroke="#63b8ff" points="281.64,-13 291.64,-9.5 281.64,-6 281.64,-13"/>
</g>
<!-- Node6 -->
<g id="node6" class="node">
<title>Node6</title>
<g id="a_node6"><a xlink:href="class_search_a_thing_1_1_open_g_l_1_1_core_1_1_toolkit.html#aa11500be262e3a1d3ac6911e302b7861" target="_top" xlink:title="Fit current model view for perspective projection.">
<polygon fill="white" stroke="#666666" points="114,-19 0,-19 0,0 114,0 114,-19"/>
<text text-anchor="middle" x="57" y="-7" font-family="Helvetica,sans-Serif" font-size="10.00">PerspectiveZoomFit</text>
</a>
</g>
</g>
<!-- Node5&#45;&gt;Node6 -->
<g id="edge5" class="edge">
<title>Node5&#45;&gt;Node6</title>
<path fill="none" stroke="#63b8ff" d="M139.56,-9.5C131.22,-9.5 122.71,-9.5 114.48,-9.5"/>
<polygon fill="#63b8ff" stroke="#63b8ff" points="139.61,-13 149.61,-9.5 139.61,-6 139.61,-13"/>
</g>
</g>
</svg>
