<?xml version="1.0" encoding="UTF-8" standalone="no"?>
<!DOCTYPE svg PUBLIC "-//W3C//DTD SVG 1.1//EN"
 "http://www.w3.org/Graphics/SVG/1.1/DTD/svg11.dtd">
<!-- Generated by graphviz version 2.43.0 (0)
 -->
<!-- Title: GLView Pages: 1 -->
<svg width="234pt" height="82pt"
 viewBox="0.00 0.00 233.50 82.00" xmlns="http://www.w3.org/2000/svg" xmlns:xlink="http://www.w3.org/1999/xlink">
<g id="graph0" class="graph" transform="scale(1 1) rotate(0) translate(4 78)">
<title>GLView</title>
<!-- Node1 -->
<g id="node1" class="node">
<title>Node1</title>
<g id="a_node1"><a xlink:title="Avalonia control that hold a grRoot grid inside of which take place a title and an AvaloniaGLControl....">
<polygon fill="#999999" stroke="#666666" points="124.5,-19 71.5,-19 71.5,0 124.5,0 124.5,-19"/>
<text text-anchor="middle" x="98" y="-7" font-family="Helvetica,sans-Serif" font-size="10.00">GLView</text>
</a>
</g>
</g>
<!-- Node2 -->
<g id="node2" class="node">
<title>Node2</title>
<g id="a_node2"><a xlink:title=" ">
<polygon fill="white" stroke="#666666" points="74,-74 0,-74 0,-55 74,-55 74,-74"/>
<text text-anchor="middle" x="37" y="-62" font-family="Helvetica,sans-Serif" font-size="10.00">UserControl</text>
</a>
</g>
</g>
<!-- Node2&#45;&gt;Node1 -->
<g id="edge1" class="edge">
<title>Node2&#45;&gt;Node1</title>
<path fill="none" stroke="#63b8ff" d="M54.47,-48.32C65.34,-38.87 78.94,-27.06 88.02,-19.17"/>
<polygon fill="#63b8ff" stroke="#63b8ff" points="52.05,-45.78 46.8,-54.98 56.65,-51.07 52.05,-45.78"/>
</g>
<!-- Node3 -->
<g id="node3" class="node">
<title>Node3</title>
<g id="a_node3"><a xlink:title=" ">
<polygon fill="white" stroke="#666666" points="225.5,-74 92.5,-74 92.5,-55 225.5,-55 225.5,-74"/>
<text text-anchor="middle" x="159" y="-62" font-family="Helvetica,sans-Serif" font-size="10.00">INotifyPropertyChanged</text>
</a>
</g>
</g>
<!-- Node3&#45;&gt;Node1 -->
<g id="edge2" class="edge">
<title>Node3&#45;&gt;Node1</title>
<path fill="none" stroke="#63b8ff" d="M141.53,-48.32C130.66,-38.87 117.06,-27.06 107.98,-19.17"/>
<polygon fill="#63b8ff" stroke="#63b8ff" points="139.35,-51.07 149.2,-54.98 143.95,-45.78 139.35,-51.07"/>
</g>
</g>
</svg>
