<?xml version="1.0" encoding="UTF-8" standalone="no"?>
<!DOCTYPE svg PUBLIC "-//W3C//DTD SVG 1.1//EN"
 "http://www.w3.org/Graphics/SVG/1.1/DTD/svg11.dtd">
<!-- Generated by graphviz version 2.43.0 (0)
 -->
<!-- Title: CreateViewMatrix Pages: 1 -->
<svg width="262pt" height="64pt"
 viewBox="0.00 0.00 262.00 64.00" xmlns="http://www.w3.org/2000/svg" xmlns:xlink="http://www.w3.org/1999/xlink">
<g id="graph0" class="graph" transform="scale(1 1) rotate(0) translate(4 60)">
<title>CreateViewMatrix</title>
<!-- Node1 -->
<g id="node1" class="node">
<title>Node1</title>
<g id="a_node1"><a xlink:title="Create view matrix to convert [world] to [eye] space. &#160;It&#39;s used for pan, camera movements functions ...">
<polygon fill="#999999" stroke="#666666" points="254,-37 150,-37 150,-18 254,-18 254,-37"/>
<text text-anchor="middle" x="202" y="-25" font-family="Helvetica,sans-Serif" font-size="10.00">CreateViewMatrix</text>
</a>
</g>
</g>
<!-- Node2 -->
<g id="node2" class="node">
<title>Node2</title>
<g id="a_node2"><a xlink:href="class_search_a_thing_1_1_open_g_l_1_1_core_1_1_toolkit.html#a477f49b72ab0d89c78fc58cae4895f37" target="_top" xlink:title="Fit current model view for orthographic projection.">
<polygon fill="white" stroke="#666666" points="99,-56 15,-56 15,-37 99,-37 99,-56"/>
<text text-anchor="middle" x="57" y="-44" font-family="Helvetica,sans-Serif" font-size="10.00">OrthoZoomFit</text>
</a>
</g>
</g>
<!-- Node1&#45;&gt;Node2 -->
<g id="edge1" class="edge">
<title>Node1&#45;&gt;Node2</title>
<path fill="none" stroke="#63b8ff" d="M139.86,-35.62C126.06,-37.46 111.75,-39.36 99.01,-41.05"/>
<polygon fill="#63b8ff" stroke="#63b8ff" points="140.33,-39.09 149.78,-34.31 139.4,-32.15 140.33,-39.09"/>
</g>
<!-- Node3 -->
<g id="node3" class="node">
<title>Node3</title>
<g id="a_node3"><a xlink:href="class_search_a_thing_1_1_open_g_l_1_1_core_1_1_toolkit.html#aa11500be262e3a1d3ac6911e302b7861" target="_top" xlink:title="Fit current model view for perspective projection.">
<polygon fill="white" stroke="#666666" points="114,-19 0,-19 0,0 114,0 114,-19"/>
<text text-anchor="middle" x="57" y="-7" font-family="Helvetica,sans-Serif" font-size="10.00">PerspectiveZoomFit</text>
</a>
</g>
</g>
<!-- Node1&#45;&gt;Node3 -->
<g id="edge2" class="edge">
<title>Node1&#45;&gt;Node3</title>
<path fill="none" stroke="#63b8ff" d="M139.61,-19.77C131.17,-18.71 122.54,-17.62 114.2,-16.57"/>
<polygon fill="#63b8ff" stroke="#63b8ff" points="139.42,-23.28 149.78,-21.05 140.29,-16.33 139.42,-23.28"/>
</g>
</g>
</svg>
