<?xml version="1.0" encoding="UTF-8" standalone="no"?>
<!DOCTYPE svg PUBLIC "-//W3C//DTD SVG 1.1//EN"
 "http://www.w3.org/Graphics/SVG/1.1/DTD/svg11.dtd">
<!-- Generated by graphviz version 2.43.0 (0)
 -->
<!-- Title: GLTriangleFigure Pages: 1 -->
<svg width="427pt" height="205pt"
 viewBox="0.00 0.00 426.50 205.00" xmlns="http://www.w3.org/2000/svg" xmlns:xlink="http://www.w3.org/1999/xlink">
<g id="graph0" class="graph" transform="scale(1 1) rotate(0) translate(4 201)">
<title>GLTriangleFigure</title>
<!-- Node1 -->
<g id="node1" class="node">
<title>Node1</title>
<g id="a_node1"><a xlink:title="Specialization of typed figure within the GLTriangle primitive.">
<polygon fill="#999999" stroke="#666666" points="296,-19 199,-19 199,0 296,0 296,-19"/>
<text text-anchor="middle" x="247.5" y="-7" font-family="Helvetica,sans-Serif" font-size="10.00">GLTriangleFigure</text>
</a>
</g>
</g>
<!-- Node2 -->
<g id="node2" class="node">
<title>Node2</title>
<g id="a_node2"><a xlink:href="class_search_a_thing_1_1_open_g_l_1_1_core_1_1_g_l_figure_type_base.html" target="_top" xlink:title=" ">
<polygon fill="white" stroke="#666666" points="179,-85 0,-85 0,-66 179,-66 179,-85"/>
<text text-anchor="middle" x="89.5" y="-73" font-family="Helvetica,sans-Serif" font-size="10.00">GLFigureTypeBase&lt; GLTriangle &gt;</text>
</a>
</g>
</g>
<!-- Node2&#45;&gt;Node1 -->
<g id="edge1" class="edge">
<title>Node2&#45;&gt;Node1</title>
<path fill="none" stroke="#63b8ff" d="M120.33,-62.01C151.56,-49.36 199.03,-30.13 226.28,-19.1"/>
<polygon fill="#63b8ff" stroke="#63b8ff" points="118.76,-58.87 110.81,-65.87 121.39,-65.36 118.76,-58.87"/>
</g>
<!-- Node3 -->
<g id="node3" class="node">
<title>Node3</title>
<g id="a_node3"><a xlink:href="interface_search_a_thing_1_1_open_g_l_1_1_core_1_1_i_g_l_triangle_figure.html" target="_top" xlink:title="Specialization of IGLFigure for the type GLTriangle.">
<polygon fill="white" stroke="#666666" points="297.5,-85 197.5,-85 197.5,-66 297.5,-66 297.5,-85"/>
<text text-anchor="middle" x="247.5" y="-73" font-family="Helvetica,sans-Serif" font-size="10.00">IGLTriangleFigure</text>
</a>
</g>
</g>
<!-- Node3&#45;&gt;Node1 -->
<g id="edge2" class="edge">
<title>Node3&#45;&gt;Node1</title>
<path fill="none" stroke="#63b8ff" d="M247.5,-55.58C247.5,-43.63 247.5,-28.72 247.5,-19.41"/>
<polygon fill="#63b8ff" stroke="#63b8ff" points="244,-55.87 247.5,-65.87 251,-55.87 244,-55.87"/>
</g>
<!-- Node4 -->
<g id="node4" class="node">
<title>Node4</title>
<g id="a_node4"><a xlink:href="interface_search_a_thing_1_1_open_g_l_1_1_core_1_1_i_g_l_figure.html" target="_top" xlink:title="This is the direct child of a vertex manager. &#160;A figure contains primitives and primitive contains ve...">
<polygon fill="white" stroke="#666666" points="278.5,-141 216.5,-141 216.5,-122 278.5,-122 278.5,-141"/>
<text text-anchor="middle" x="247.5" y="-129" font-family="Helvetica,sans-Serif" font-size="10.00">IGLFigure</text>
</a>
</g>
</g>
<!-- Node4&#45;&gt;Node3 -->
<g id="edge3" class="edge">
<title>Node4&#45;&gt;Node3</title>
<path fill="none" stroke="#63b8ff" d="M247.5,-111.3C247.5,-102.41 247.5,-92.28 247.5,-85.25"/>
<polygon fill="#63b8ff" stroke="#63b8ff" points="244,-111.58 247.5,-121.58 251,-111.58 244,-111.58"/>
</g>
<!-- Node5 -->
<g id="node5" class="node">
<title>Node5</title>
<g id="a_node5"><a xlink:href="interface_search_a_thing_1_1_open_g_l_1_1_core_1_1_i_g_l_vertex_manager_object.html" target="_top" xlink:title="Interface for GL objects such as IGLFigure, IGLPrimitive and IGLVertex. &#160;The purpose is to ensure tha...">
<polygon fill="white" stroke="#666666" points="240,-197 103,-197 103,-178 240,-178 240,-197"/>
<text text-anchor="middle" x="171.5" y="-185" font-family="Helvetica,sans-Serif" font-size="10.00">IGLVertexManagerObject</text>
</a>
</g>
</g>
<!-- Node5&#45;&gt;Node4 -->
<g id="edge4" class="edge">
<title>Node5&#45;&gt;Node4</title>
<path fill="none" stroke="#63b8ff" d="M192.08,-171.88C205.81,-162.12 223.43,-149.61 235.07,-141.33"/>
<polygon fill="#63b8ff" stroke="#63b8ff" points="189.84,-169.18 183.71,-177.82 193.89,-174.88 189.84,-169.18"/>
</g>
<!-- Node6 -->
<g id="node6" class="node">
<title>Node6</title>
<g id="a_node6"><a xlink:title=" ">
<polygon fill="white" stroke="#666666" points="391,-197 258,-197 258,-178 391,-178 391,-197"/>
<text text-anchor="middle" x="324.5" y="-185" font-family="Helvetica,sans-Serif" font-size="10.00">INotifyPropertyChanged</text>
</a>
</g>
</g>
<!-- Node6&#45;&gt;Node4 -->
<g id="edge5" class="edge">
<title>Node6&#45;&gt;Node4</title>
<path fill="none" stroke="#63b8ff" d="M303.6,-171.84C289.59,-162.02 271.62,-149.41 259.84,-141.15"/>
<polygon fill="#63b8ff" stroke="#63b8ff" points="301.93,-174.95 312.13,-177.82 305.95,-169.22 301.93,-174.95"/>
</g>
<!-- Node7 -->
<g id="node7" class="node">
<title>Node7</title>
<g id="a_node7"><a xlink:title=" ">
<polygon fill="white" stroke="#666666" points="359.5,-85 315.5,-85 315.5,-66 359.5,-66 359.5,-85"/>
<text text-anchor="middle" x="337.5" y="-73" font-family="Helvetica,sans-Serif" font-size="10.00">static</text>
</a>
</g>
</g>
<!-- Node7&#45;&gt;Node1 -->
<g id="edge6" class="edge">
<title>Node7&#45;&gt;Node1</title>
<path fill="none" stroke="#9a32cd" stroke-dasharray="5,2" d="M316.88,-59.83C299.22,-47.28 274.4,-29.63 259.73,-19.2"/>
<polygon fill="#9a32cd" stroke="#9a32cd" points="315.18,-62.93 325.36,-65.87 319.24,-57.22 315.18,-62.93"/>
<text text-anchor="middle" x="358.5" y="-40" font-family="Helvetica,sans-Serif" font-size="10.00" fill="grey"> DefaultComputeNormal</text>
</g>
</g>
</svg>
