<?xml version="1.0" encoding="UTF-8" standalone="no"?>
<!DOCTYPE svg PUBLIC "-//W3C//DTD SVG 1.1//EN"
 "http://www.w3.org/Graphics/SVG/1.1/DTD/svg11.dtd">
<!-- Generated by graphviz version 2.43.0 (0)
 -->
<!-- Title: FromTo Pages: 1 -->
<svg width="248pt" height="134pt"
 viewBox="0.00 0.00 248.00 134.00" xmlns="http://www.w3.org/2000/svg" xmlns:xlink="http://www.w3.org/1999/xlink">
<g id="graph0" class="graph" transform="scale(1 1) rotate(0) translate(4 130)">
<title>FromTo</title>
<!-- Node1 -->
<g id="node1" class="node">
<title>Node1</title>
<g id="a_node1"><a xlink:title="Create a line by two given points.">
<polygon fill="#999999" stroke="#666666" points="240,-72.5 188,-72.5 188,-53.5 240,-53.5 240,-72.5"/>
<text text-anchor="middle" x="214" y="-60.5" font-family="Helvetica,sans-Serif" font-size="10.00">FromTo</text>
</a>
</g>
</g>
<!-- Node2 -->
<g id="node2" class="node">
<title>Node2</title>
<g id="a_node2"><a xlink:href="class_search_a_thing_1_1_open_g_l_1_1_core_1_1_ext.html#a23ed477e1ef16a6628458f28b9e5765c" target="_top" xlink:title="Intersect given raycast to given figure primitives. &#160;Given [local] raycast will automatically backwar...">
<polygon fill="white" stroke="#666666" points="152,-126 0,-126 0,-96 152,-96 152,-126"/>
<text text-anchor="start" x="8" y="-114" font-family="Helvetica,sans-Serif" font-size="10.00">SearchAThing.OpenGL.Core.</text>
<text text-anchor="middle" x="76" y="-103" font-family="Helvetica,sans-Serif" font-size="10.00">Ext.Intersect</text>
</a>
</g>
</g>
<!-- Node1&#45;&gt;Node2 -->
<g id="edge1" class="edge">
<title>Node1&#45;&gt;Node2</title>
<path fill="none" stroke="#63b8ff" d="M180.2,-76.36C171.11,-79.94 161.21,-83.72 152,-87 143.5,-90.03 134.4,-93.09 125.57,-95.97"/>
<polygon fill="#63b8ff" stroke="#63b8ff" points="181.67,-79.54 189.67,-72.59 179.09,-73.03 181.67,-79.54"/>
</g>
<!-- Node3 -->
<g id="node3" class="node">
<title>Node3</title>
<g id="a_node3"><a xlink:href="class_search_a_thing_1_1_open_g_l_1_1_core_1_1_toolkit.html#a8b88bca5ca7377d6aca5657c0c7a59a6" target="_top" xlink:title="Create a raycast line [local] suitable to hit test of figure primitives.">
<polygon fill="white" stroke="#666666" points="152,-78 0,-78 0,-48 152,-48 152,-78"/>
<text text-anchor="start" x="8" y="-66" font-family="Helvetica,sans-Serif" font-size="10.00">SearchAThing.OpenGL.Core.</text>
<text text-anchor="middle" x="76" y="-55" font-family="Helvetica,sans-Serif" font-size="10.00">Toolkit.RayCastLocal</text>
</a>
</g>
</g>
<!-- Node1&#45;&gt;Node3 -->
<g id="edge2" class="edge">
<title>Node1&#45;&gt;Node3</title>
<path fill="none" stroke="#63b8ff" d="M177.5,-63C169.6,-63 160.94,-63 152.12,-63"/>
<polygon fill="#63b8ff" stroke="#63b8ff" points="177.74,-66.5 187.74,-63 177.74,-59.5 177.74,-66.5"/>
</g>
<!-- Node4 -->
<g id="node4" class="node">
<title>Node4</title>
<g id="a_node4"><a xlink:href="class_search_a_thing_1_1_open_g_l_1_1_core_1_1_ext.html#ace2eb32a55c29525f29f400d8f72e3f9" target="_top" xlink:title="Retrieve gl triangle segments {v1,v2},{v2,v3},{v3,v1} [object].">
<polygon fill="white" stroke="#666666" points="152,-30 0,-30 0,0 152,0 152,-30"/>
<text text-anchor="start" x="8" y="-18" font-family="Helvetica,sans-Serif" font-size="10.00">SearchAThing.OpenGL.Core.</text>
<text text-anchor="middle" x="76" y="-7" font-family="Helvetica,sans-Serif" font-size="10.00">Ext.Segments</text>
</a>
</g>
</g>
<!-- Node1&#45;&gt;Node4 -->
<g id="edge3" class="edge">
<title>Node1&#45;&gt;Node4</title>
<path fill="none" stroke="#63b8ff" d="M180.2,-49.64C171.11,-46.06 161.21,-42.28 152,-39 143.5,-35.97 134.4,-32.91 125.57,-30.03"/>
<polygon fill="#63b8ff" stroke="#63b8ff" points="179.09,-52.97 189.67,-53.41 181.67,-46.46 179.09,-52.97"/>
</g>
</g>
</svg>
