<?xml version="1.0" encoding="UTF-8" standalone="no"?>
<!DOCTYPE svg PUBLIC "-//W3C//DTD SVG 1.1//EN"
 "http://www.w3.org/Graphics/SVG/1.1/DTD/svg11.dtd">
<!-- Generated by graphviz version 2.43.0 (0)
 -->
<!-- Title: Pan Pages: 1 -->
<svg width="140pt" height="138pt"
 viewBox="0.00 0.00 140.00 138.00" xmlns="http://www.w3.org/2000/svg" xmlns:xlink="http://www.w3.org/1999/xlink">
<g id="graph0" class="graph" transform="scale(1 1) rotate(0) translate(4 134)">
<title>Pan</title>
<!-- Node1 -->
<g id="node1" class="node">
<title>Node1</title>
<g id="a_node1"><a xlink:title="Pan the view by the given screen translation.">
<polygon fill="#999999" stroke="#666666" points="132,-74 98,-74 98,-55 132,-55 132,-74"/>
<text text-anchor="middle" x="115" y="-62" font-family="Helvetica,sans-Serif" font-size="10.00">Pan</text>
</a>
</g>
</g>
<!-- Node2 -->
<g id="node2" class="node">
<title>Node2</title>
<g id="a_node2"><a xlink:href="class_search_a_thing_1_1_open_g_l_1_1_core_1_1_g_l_control.html#acd591f4d52216f736d05a37967dfbb76" target="_top" xlink:title="Pan the view down of a little factor.">
<polygon fill="white" stroke="#666666" points="62,-130 0,-130 0,-111 62,-111 62,-130"/>
<text text-anchor="middle" x="31" y="-118" font-family="Helvetica,sans-Serif" font-size="10.00">PanDown</text>
</a>
</g>
</g>
<!-- Node1&#45;&gt;Node2 -->
<g id="edge1" class="edge">
<title>Node1&#45;&gt;Node2</title>
<path fill="none" stroke="#63b8ff" d="M93.38,-80.23C83.96,-87.25 72.56,-95.5 62,-102.5 57.75,-105.32 53.06,-108.23 48.67,-110.86"/>
<polygon fill="#63b8ff" stroke="#63b8ff" points="95.52,-83 101.41,-74.2 91.31,-77.41 95.52,-83"/>
</g>
<!-- Node3 -->
<g id="node3" class="node">
<title>Node3</title>
<g id="a_node3"><a xlink:href="class_search_a_thing_1_1_open_g_l_1_1_core_1_1_g_l_control.html#ac0149d9ec4eefdc825a466e47f0cdb07" target="_top" xlink:title="Pan the view left of a little factor.">
<polygon fill="white" stroke="#666666" points="57,-93 5,-93 5,-74 57,-74 57,-93"/>
<text text-anchor="middle" x="31" y="-81" font-family="Helvetica,sans-Serif" font-size="10.00">PanLeft</text>
</a>
</g>
</g>
<!-- Node1&#45;&gt;Node3 -->
<g id="edge2" class="edge">
<title>Node1&#45;&gt;Node3</title>
<path fill="none" stroke="#63b8ff" d="M87.81,-70.57C78.01,-72.84 66.91,-75.41 57.21,-77.66"/>
<polygon fill="#63b8ff" stroke="#63b8ff" points="88.85,-73.92 97.8,-68.25 87.27,-67.1 88.85,-73.92"/>
</g>
<!-- Node4 -->
<g id="node4" class="node">
<title>Node4</title>
<g id="a_node4"><a xlink:href="class_search_a_thing_1_1_open_g_l_1_1_core_1_1_g_l_control.html#a21c11768939dccbc75ef58be240cc90b" target="_top" xlink:title="Pan the view right of a little factor.">
<polygon fill="white" stroke="#666666" points="60.5,-56 1.5,-56 1.5,-37 60.5,-37 60.5,-56"/>
<text text-anchor="middle" x="31" y="-44" font-family="Helvetica,sans-Serif" font-size="10.00">PanRight</text>
</a>
</g>
</g>
<!-- Node1&#45;&gt;Node4 -->
<g id="edge3" class="edge">
<title>Node1&#45;&gt;Node4</title>
<path fill="none" stroke="#63b8ff" d="M87.9,-58.77C79.26,-56.87 69.61,-54.76 60.78,-52.82"/>
<polygon fill="#63b8ff" stroke="#63b8ff" points="87.28,-62.22 97.8,-60.94 88.78,-55.38 87.28,-62.22"/>
</g>
<!-- Node5 -->
<g id="node5" class="node">
<title>Node5</title>
<g id="a_node5"><a xlink:href="class_search_a_thing_1_1_open_g_l_1_1_core_1_1_g_l_control.html#adbc9327929edf6458b41fb0849c41650" target="_top" xlink:title="Pan the view up of a little factor.">
<polygon fill="white" stroke="#666666" points="54.5,-19 7.5,-19 7.5,0 54.5,0 54.5,-19"/>
<text text-anchor="middle" x="31" y="-7" font-family="Helvetica,sans-Serif" font-size="10.00">PanUp</text>
</a>
</g>
</g>
<!-- Node1&#45;&gt;Node5 -->
<g id="edge4" class="edge">
<title>Node1&#45;&gt;Node5</title>
<path fill="none" stroke="#63b8ff" d="M92.16,-49.08C82.91,-42.63 71.99,-35.12 62,-28.5 57.27,-25.37 52.07,-22.03 47.34,-19.05"/>
<polygon fill="#63b8ff" stroke="#63b8ff" points="90.22,-52 100.42,-54.87 94.24,-46.27 90.22,-52"/>
</g>
</g>
</svg>
