<?xml version="1.0" encoding="UTF-8" standalone="no"?>
<!DOCTYPE svg PUBLIC "-//W3C//DTD SVG 1.1//EN"
 "http://www.w3.org/Graphics/SVG/1.1/DTD/svg11.dtd">
<!-- Generated by graphviz version 2.43.0 (0)
 -->
<!-- Title: LocalToWorld Pages: 1 -->
<svg width="518pt" height="103pt"
 viewBox="0.00 0.00 518.00 103.00" xmlns="http://www.w3.org/2000/svg" xmlns:xlink="http://www.w3.org/1999/xlink">
<g id="graph0" class="graph" transform="scale(1 1) rotate(0) translate(4 99)">
<title>LocalToWorld</title>
<!-- Node1 -->
<g id="node1" class="node">
<title>Node1</title>
<g id="a_node1"><a xlink:title="Converts given local space coord to the corresponding world space coord.">
<polygon fill="#999999" stroke="#666666" points="510,-57 430,-57 430,-38 510,-38 510,-57"/>
<text text-anchor="middle" x="470" y="-45" font-family="Helvetica,sans-Serif" font-size="10.00">LocalToWorld</text>
</a>
</g>
</g>
<!-- Node2 -->
<g id="node2" class="node">
<title>Node2</title>
<g id="a_node2"><a xlink:href="class_search_a_thing_1_1_open_g_l_1_1_core_1_1_toolkit.html#a29118a66237c094ddfd5a935d5470dc5" target="_top" xlink:title="Pan the view ( Perspective mode ) by the given screen translation coord generating new camera config.">
<polygon fill="white" stroke="#666666" points="388.5,-95 297.5,-95 297.5,-76 388.5,-76 388.5,-95"/>
<text text-anchor="middle" x="343" y="-83" font-family="Helvetica,sans-Serif" font-size="10.00">PerspectivePan</text>
</a>
</g>
</g>
<!-- Node1&#45;&gt;Node2 -->
<g id="edge1" class="edge">
<title>Node1&#45;&gt;Node2</title>
<path fill="none" stroke="#63b8ff" d="M427.77,-60.04C410.76,-65.2 391.37,-71.1 375.53,-75.91"/>
<polygon fill="#63b8ff" stroke="#63b8ff" points="428.91,-63.35 437.46,-57.09 426.87,-56.65 428.91,-63.35"/>
</g>
<!-- Node4 -->
<g id="node4" class="node">
<title>Node4</title>
<g id="a_node4"><a xlink:href="class_search_a_thing_1_1_open_g_l_1_1_core_1_1_toolkit.html#aa11500be262e3a1d3ac6911e302b7861" target="_top" xlink:title="Fit current model view for perspective projection.">
<polygon fill="white" stroke="#666666" points="114,-76 0,-76 0,-57 114,-57 114,-76"/>
<text text-anchor="middle" x="57" y="-64" font-family="Helvetica,sans-Serif" font-size="10.00">PerspectiveZoomFit</text>
</a>
</g>
</g>
<!-- Node1&#45;&gt;Node4 -->
<g id="edge5" class="edge">
<title>Node1&#45;&gt;Node4</title>
<path fill="none" stroke="#63b8ff" d="M419.61,-49.78C342.79,-53.33 195.13,-60.16 114.29,-63.9"/>
<polygon fill="#63b8ff" stroke="#63b8ff" points="420.14,-53.26 429.96,-49.3 419.81,-46.27 420.14,-53.26"/>
</g>
<!-- Node5 -->
<g id="node5" class="node">
<title>Node5</title>
<g id="a_node5"><a xlink:href="class_search_a_thing_1_1_open_g_l_1_1_core_1_1_toolkit.html#a20cf96faf25b8c9335c595ddb25533bd" target="_top" xlink:title="Zoom the view [eye] ( Perspective mode ) by the given scale factor.">
<polygon fill="white" stroke="#666666" points="394,-19 292,-19 292,0 394,0 394,-19"/>
<text text-anchor="middle" x="343" y="-7" font-family="Helvetica,sans-Serif" font-size="10.00">PerspectiveZoom</text>
</a>
</g>
</g>
<!-- Node1&#45;&gt;Node5 -->
<g id="edge4" class="edge">
<title>Node1&#45;&gt;Node5</title>
<path fill="none" stroke="#63b8ff" d="M427.77,-34.96C410.76,-29.8 391.37,-23.9 375.53,-19.09"/>
<polygon fill="#63b8ff" stroke="#63b8ff" points="426.87,-38.35 437.46,-37.91 428.91,-31.65 426.87,-38.35"/>
</g>
<!-- Node3 -->
<g id="node3" class="node">
<title>Node3</title>
<g id="a_node3"><a xlink:href="class_search_a_thing_1_1_open_g_l_1_1_core_1_1_toolkit.html#aa0108f9e641ec868a0bcf4c83c449366" target="_top" xlink:title="Center the view ( Perspective mode ) by computing camera [world] position and target.">
<polygon fill="white" stroke="#666666" points="256,-95 150,-95 150,-76 256,-76 256,-95"/>
<text text-anchor="middle" x="203" y="-83" font-family="Helvetica,sans-Serif" font-size="10.00">PerspectiveCenter</text>
</a>
</g>
</g>
<!-- Node2&#45;&gt;Node3 -->
<g id="edge2" class="edge">
<title>Node2&#45;&gt;Node3</title>
<path fill="none" stroke="#63b8ff" d="M287.18,-85.5C276.99,-85.5 266.37,-85.5 256.26,-85.5"/>
<polygon fill="#63b8ff" stroke="#63b8ff" points="287.2,-89 297.2,-85.5 287.2,-82 287.2,-89"/>
</g>
<!-- Node3&#45;&gt;Node4 -->
<g id="edge3" class="edge">
<title>Node3&#45;&gt;Node4</title>
<path fill="none" stroke="#63b8ff" d="M139.56,-77.26C131.22,-76.16 122.71,-75.04 114.48,-73.95"/>
<polygon fill="#63b8ff" stroke="#63b8ff" points="139.23,-80.75 149.61,-78.59 140.15,-73.81 139.23,-80.75"/>
</g>
</g>
</svg>
