<?xml version="1.0" encoding="UTF-8" standalone="no"?>
<!DOCTYPE svg PUBLIC "-//W3C//DTD SVG 1.1//EN"
 "http://www.w3.org/Graphics/SVG/1.1/DTD/svg11.dtd">
<!-- Generated by graphviz version 2.43.0 (0)
 -->
<!-- Title: Graphical Class Hierarchy Pages: 1 -->
<svg width="810pt" height="750pt"
 viewBox="0.00 0.00 810.00 750.00" xmlns="http://www.w3.org/2000/svg" xmlns:xlink="http://www.w3.org/1999/xlink">
<g id="graph0" class="graph" transform="scale(1 1) rotate(0) translate(4 746)">
<title>Graphical Class Hierarchy</title>
<!-- Node0 -->
<g id="node1" class="node">
<title>Node0</title>
<g id="a_node1"><a xlink:title=" ">
<polygon fill="#e0e0e0" stroke="#999999" points="94.5,-575 42.5,-575 42.5,-556 94.5,-556 94.5,-575"/>
<text text-anchor="middle" x="68.5" y="-563" font-family="Helvetica,sans-Serif" font-size="10.00">Control</text>
</a>
</g>
</g>
<!-- Node1 -->
<g id="node2" class="node">
<title>Node1</title>
<g id="a_node2"><a xlink:href="class_search_a_thing_1_1_open_g_l_1_1_g_u_i_1_1_avalonia_g_l_control.html" target="_top" xlink:title="Avalonia gl control. &#160;It&#39;s a graphical ui IRenderDevice used to transfer GLControl pixels to the wind...">
<polygon fill="white" stroke="#666666" points="280,-557 173,-557 173,-538 280,-538 280,-557"/>
<text text-anchor="middle" x="226.5" y="-545" font-family="Helvetica,sans-Serif" font-size="10.00">AvaloniaGLControl</text>
</a>
</g>
</g>
<!-- Node0&#45;&gt;Node1 -->
<g id="edge1" class="edge">
<title>Node0&#45;&gt;Node1</title>
<path fill="none" stroke="#63b8ff" d="M104.52,-561.46C124.6,-559.14 150.22,-556.19 172.71,-553.59"/>
<polygon fill="#63b8ff" stroke="#63b8ff" points="104.1,-557.98 94.56,-562.61 104.9,-564.94 104.1,-557.98"/>
</g>
<!-- Node14 -->
<g id="node3" class="node">
<title>Node14</title>
<g id="a_node3"><a xlink:href="class_search_a_thing_1_1_open_g_l_1_1_core_1_1_g_l_figure_type_base.html" target="_top" xlink:title=" ">
<polygon fill="white" stroke="#666666" points="486,-742 325,-742 325,-723 486,-723 486,-742"/>
<text text-anchor="middle" x="405.5" y="-730" font-family="Helvetica,sans-Serif" font-size="10.00">GLFigureTypeBase&lt; GLLine &gt;</text>
</a>
</g>
</g>
<!-- Node13 -->
<g id="node4" class="node">
<title>Node13</title>
<g id="a_node4"><a xlink:href="class_search_a_thing_1_1_open_g_l_1_1_core_1_1_g_l_line_figure.html" target="_top" xlink:title="Specialization of typed figure within the GLLine primitive.">
<polygon fill="white" stroke="#666666" points="638,-723 558,-723 558,-704 638,-704 638,-723"/>
<text text-anchor="middle" x="598" y="-711" font-family="Helvetica,sans-Serif" font-size="10.00">GLLineFigure</text>
</a>
</g>
</g>
<!-- Node14&#45;&gt;Node13 -->
<g id="edge2" class="edge">
<title>Node14&#45;&gt;Node13</title>
<path fill="none" stroke="#63b8ff" d="M496.41,-723.53C518.03,-721.38 540.01,-719.18 557.89,-717.4"/>
<polygon fill="#63b8ff" stroke="#63b8ff" points="495.79,-720.08 486.19,-724.55 496.48,-727.04 495.79,-720.08"/>
</g>
<!-- Node17 -->
<g id="node5" class="node">
<title>Node17</title>
<g id="a_node5"><a xlink:href="class_search_a_thing_1_1_open_g_l_1_1_core_1_1_g_l_figure_type_base.html" target="_top" xlink:title=" ">
<polygon fill="white" stroke="#666666" points="488.5,-631 322.5,-631 322.5,-612 488.5,-612 488.5,-631"/>
<text text-anchor="middle" x="405.5" y="-619" font-family="Helvetica,sans-Serif" font-size="10.00">GLFigureTypeBase&lt; GLPoint &gt;</text>
</a>
</g>
</g>
<!-- Node16 -->
<g id="node6" class="node">
<title>Node16</title>
<g id="a_node6"><a xlink:href="class_search_a_thing_1_1_open_g_l_1_1_core_1_1_g_l_point_figure.html" target="_top" xlink:title="Specialization of typed figure within the GLPoint} primitive.">
<polygon fill="white" stroke="#666666" points="640,-640 556,-640 556,-621 640,-621 640,-640"/>
<text text-anchor="middle" x="598" y="-628" font-family="Helvetica,sans-Serif" font-size="10.00">GLPointFigure</text>
</a>
</g>
</g>
<!-- Node17&#45;&gt;Node16 -->
<g id="edge3" class="edge">
<title>Node17&#45;&gt;Node16</title>
<path fill="none" stroke="#63b8ff" d="M498.81,-625.86C518.87,-626.81 539.1,-627.76 555.95,-628.56"/>
<polygon fill="#63b8ff" stroke="#63b8ff" points="498.83,-622.36 488.67,-625.38 498.5,-629.35 498.83,-622.36"/>
</g>
<!-- Node21 -->
<g id="node7" class="node">
<title>Node21</title>
<g id="a_node7"><a xlink:href="class_search_a_thing_1_1_open_g_l_1_1_core_1_1_g_l_figure_type_base.html" target="_top" xlink:title=" ">
<polygon fill="white" stroke="#666666" points="495,-594 316,-594 316,-575 495,-575 495,-594"/>
<text text-anchor="middle" x="405.5" y="-582" font-family="Helvetica,sans-Serif" font-size="10.00">GLFigureTypeBase&lt; GLTriangle &gt;</text>
</a>
</g>
</g>
<!-- Node19 -->
<g id="node8" class="node">
<title>Node19</title>
<g id="a_node8"><a xlink:href="class_search_a_thing_1_1_open_g_l_1_1_core_1_1_g_l_triangle_figure.html" target="_top" xlink:title="Specialization of typed figure within the GLTriangle primitive.">
<polygon fill="white" stroke="#666666" points="646.5,-585 549.5,-585 549.5,-566 646.5,-566 646.5,-585"/>
<text text-anchor="middle" x="598" y="-573" font-family="Helvetica,sans-Serif" font-size="10.00">GLTriangleFigure</text>
</a>
</g>
</g>
<!-- Node21&#45;&gt;Node19 -->
<g id="edge4" class="edge">
<title>Node21&#45;&gt;Node19</title>
<path fill="none" stroke="#63b8ff" d="M505.18,-579.84C520.59,-579.11 535.88,-578.39 549.43,-577.75"/>
<polygon fill="#63b8ff" stroke="#63b8ff" points="504.88,-576.35 495.06,-580.32 505.21,-583.34 504.88,-576.35"/>
</g>
<!-- Node20 -->
<g id="node9" class="node">
<title>Node20</title>
<g id="a_node9"><a xlink:href="class_search_a_thing_1_1_open_g_l_1_1_core_1_1_g_l_text_char_figure.html" target="_top" xlink:title="Triangles figure with texture mapped to represent a char.">
<polygon fill="white" stroke="#666666" points="802,-585 701,-585 701,-566 802,-566 802,-585"/>
<text text-anchor="middle" x="751.5" y="-573" font-family="Helvetica,sans-Serif" font-size="10.00">GLTextCharFigure</text>
</a>
</g>
</g>
<!-- Node19&#45;&gt;Node20 -->
<g id="edge5" class="edge">
<title>Node19&#45;&gt;Node20</title>
<path fill="none" stroke="#63b8ff" d="M656.87,-575.5C671.35,-575.5 686.75,-575.5 700.79,-575.5"/>
<polygon fill="#63b8ff" stroke="#63b8ff" points="656.52,-572 646.52,-575.5 656.52,-579 656.52,-572"/>
</g>
<!-- Node22 -->
<g id="node10" class="node">
<title>Node22</title>
<g id="a_node10"><a xlink:href="interface_search_a_thing_1_1_open_g_l_1_1_core_1_1_i_g_l_vertex_manager_object.html" target="_top" xlink:title="Interface for GL objects such as IGLFigure, IGLPrimitive and IGLVertex. &#160;The purpose is to ensure tha...">
<polygon fill="white" stroke="#666666" points="137,-465 0,-465 0,-446 137,-446 137,-465"/>
<text text-anchor="middle" x="68.5" y="-453" font-family="Helvetica,sans-Serif" font-size="10.00">IGLVertexManagerObject</text>
</a>
</g>
</g>
<!-- Node9 -->
<g id="node11" class="node">
<title>Node9</title>
<g id="a_node11"><a xlink:href="interface_search_a_thing_1_1_open_g_l_1_1_core_1_1_i_g_l_figure.html" target="_top" xlink:title="This is the direct child of a vertex manager. &#160;A figure contains primitives and primitive contains ve...">
<polygon fill="white" stroke="#666666" points="257.5,-520 195.5,-520 195.5,-501 257.5,-501 257.5,-520"/>
<text text-anchor="middle" x="226.5" y="-508" font-family="Helvetica,sans-Serif" font-size="10.00">IGLFigure</text>
</a>
</g>
</g>
<!-- Node22&#45;&gt;Node9 -->
<g id="edge6" class="edge">
<title>Node22&#45;&gt;Node9</title>
<path fill="none" stroke="#63b8ff" d="M106.2,-468.44C134.45,-478.4 172.86,-491.94 198.38,-500.94"/>
<polygon fill="#63b8ff" stroke="#63b8ff" points="107.27,-465.1 96.67,-465.08 104.94,-471.71 107.27,-465.1"/>
</g>
<!-- Node23 -->
<g id="node17" class="node">
<title>Node23</title>
<g id="a_node17"><a xlink:href="interface_search_a_thing_1_1_open_g_l_1_1_core_1_1_i_g_l_primitive.html" target="_top" xlink:title="A primitive such a GLPoint, GLLine or GLTriangle can be added to a figure through its add method....">
<polygon fill="white" stroke="#666666" points="265,-465 188,-465 188,-446 265,-446 265,-465"/>
<text text-anchor="middle" x="226.5" y="-453" font-family="Helvetica,sans-Serif" font-size="10.00">IGLPrimitive</text>
</a>
</g>
</g>
<!-- Node22&#45;&gt;Node23 -->
<g id="edge15" class="edge">
<title>Node22&#45;&gt;Node23</title>
<path fill="none" stroke="#63b8ff" d="M147.3,-455.5C161.46,-455.5 175.63,-455.5 187.94,-455.5"/>
<polygon fill="#63b8ff" stroke="#63b8ff" points="147.02,-452 137.02,-455.5 147.02,-459 147.02,-452"/>
</g>
<!-- Node31 -->
<g id="node25" class="node">
<title>Node31</title>
<g id="a_node25"><a xlink:href="interface_search_a_thing_1_1_open_g_l_1_1_core_1_1_i_g_l_vertex.html" target="_top" xlink:title="Represent a vertex and its the base object managed by the GLVertexManager. &#160;Primitives such as GLPoin...">
<polygon fill="white" stroke="#666666" points="258,-428 195,-428 195,-409 258,-409 258,-428"/>
<text text-anchor="middle" x="226.5" y="-416" font-family="Helvetica,sans-Serif" font-size="10.00">IGLVertex</text>
</a>
</g>
</g>
<!-- Node22&#45;&gt;Node31 -->
<g id="edge26" class="edge">
<title>Node22&#45;&gt;Node31</title>
<path fill="none" stroke="#63b8ff" d="M119.62,-443.61C144.37,-437.74 173.42,-430.85 194.82,-425.78"/>
<polygon fill="#63b8ff" stroke="#63b8ff" points="118.6,-440.26 109.67,-445.97 120.21,-447.07 118.6,-440.26"/>
</g>
<!-- Node10 -->
<g id="node12" class="node">
<title>Node10</title>
<g id="a_node12"><a xlink:href="class_search_a_thing_1_1_open_g_l_1_1_core_1_1_g_l_figure_base.html" target="_top" xlink:title="Base abstract class for point, line, triangle figures.">
<polygon fill="white" stroke="#666666" points="447,-520 364,-520 364,-501 447,-501 447,-520"/>
<text text-anchor="middle" x="405.5" y="-508" font-family="Helvetica,sans-Serif" font-size="10.00">GLFigureBase</text>
</a>
</g>
</g>
<!-- Node9&#45;&gt;Node10 -->
<g id="edge7" class="edge">
<title>Node9&#45;&gt;Node10</title>
<path fill="none" stroke="#63b8ff" d="M267.62,-510.5C296.32,-510.5 334.83,-510.5 363.68,-510.5"/>
<polygon fill="#63b8ff" stroke="#63b8ff" points="267.53,-507 257.53,-510.5 267.53,-514 267.53,-507"/>
</g>
<!-- Node12 -->
<g id="node14" class="node">
<title>Node12</title>
<g id="a_node14"><a xlink:href="interface_search_a_thing_1_1_open_g_l_1_1_core_1_1_i_g_l_line_figure.html" target="_top" xlink:title="Specialization of IGLFigure for the type GLLine.">
<polygon fill="white" stroke="#666666" points="447,-705 364,-705 364,-686 447,-686 447,-705"/>
<text text-anchor="middle" x="405.5" y="-693" font-family="Helvetica,sans-Serif" font-size="10.00">IGLLineFigure</text>
</a>
</g>
</g>
<!-- Node9&#45;&gt;Node12 -->
<g id="edge9" class="edge">
<title>Node9&#45;&gt;Node12</title>
<path fill="none" stroke="#63b8ff" d="M267.23,-519.93C272.01,-522.41 276.45,-525.54 280,-529.5 325.2,-579.9 267.23,-630.55 316,-677.5 328.54,-689.57 346.84,-694.56 363.55,-696.33"/>
<polygon fill="#63b8ff" stroke="#63b8ff" points="268.32,-516.59 257.75,-515.91 265.59,-523.04 268.32,-516.59"/>
</g>
<!-- Node15 -->
<g id="node15" class="node">
<title>Node15</title>
<g id="a_node15"><a xlink:href="interface_search_a_thing_1_1_open_g_l_1_1_core_1_1_i_g_l_point_figure.html" target="_top" xlink:title="Specialization of IGLFigure for the type GLPoint.">
<polygon fill="white" stroke="#666666" points="449,-668 362,-668 362,-649 449,-649 449,-668"/>
<text text-anchor="middle" x="405.5" y="-656" font-family="Helvetica,sans-Serif" font-size="10.00">IGLPointFigure</text>
</a>
</g>
</g>
<!-- Node9&#45;&gt;Node15 -->
<g id="edge11" class="edge">
<title>Node9&#45;&gt;Node15</title>
<path fill="none" stroke="#63b8ff" d="M267.12,-520.26C271.88,-522.69 276.35,-525.72 280,-529.5 316.05,-566.78 277.32,-605.96 316,-640.5 328.4,-651.57 345.7,-656.56 361.72,-658.6"/>
<polygon fill="#63b8ff" stroke="#63b8ff" points="268.29,-516.96 257.72,-516.29 265.57,-523.41 268.29,-516.96"/>
</g>
<!-- Node18 -->
<g id="node16" class="node">
<title>Node18</title>
<g id="a_node16"><a xlink:href="interface_search_a_thing_1_1_open_g_l_1_1_core_1_1_i_g_l_triangle_figure.html" target="_top" xlink:title="Specialization of IGLFigure for the type GLTriangle.">
<polygon fill="white" stroke="#666666" points="455.5,-557 355.5,-557 355.5,-538 455.5,-538 455.5,-557"/>
<text text-anchor="middle" x="405.5" y="-545" font-family="Helvetica,sans-Serif" font-size="10.00">IGLTriangleFigure</text>
</a>
</g>
</g>
<!-- Node9&#45;&gt;Node18 -->
<g id="edge13" class="edge">
<title>Node9&#45;&gt;Node18</title>
<path fill="none" stroke="#63b8ff" d="M267.85,-519.26C282.95,-522.51 300.25,-526.21 316,-529.5 329.35,-532.29 343.85,-535.26 357.17,-537.97"/>
<polygon fill="#63b8ff" stroke="#63b8ff" points="268.31,-515.78 257.79,-517.09 266.83,-522.62 268.31,-515.78"/>
</g>
<!-- Node11 -->
<g id="node13" class="node">
<title>Node11</title>
<g id="a_node13"><a xlink:href="class_search_a_thing_1_1_open_g_l_1_1_core_1_1_g_l_figure_type_base.html" target="_top" xlink:title="Template typed GLPrimitiveBase figure base operations such as Add and Remove primitives from the figu...">
<polygon fill="white" stroke="#666666" points="665,-520 531,-520 531,-501 665,-501 665,-520"/>
<text text-anchor="middle" x="598" y="-508" font-family="Helvetica,sans-Serif" font-size="10.00">GLFigureTypeBase&lt; P &gt;</text>
</a>
</g>
</g>
<!-- Node10&#45;&gt;Node11 -->
<g id="edge8" class="edge">
<title>Node10&#45;&gt;Node11</title>
<path fill="none" stroke="#63b8ff" d="M457.39,-510.5C479.9,-510.5 506.68,-510.5 530.73,-510.5"/>
<polygon fill="#63b8ff" stroke="#63b8ff" points="457.37,-507 447.37,-510.5 457.37,-514 457.37,-507"/>
</g>
<!-- Node12&#45;&gt;Node13 -->
<g id="edge10" class="edge">
<title>Node12&#45;&gt;Node13</title>
<path fill="none" stroke="#63b8ff" d="M457.7,-700.34C489.17,-703.31 528.87,-707.06 557.83,-709.8"/>
<polygon fill="#63b8ff" stroke="#63b8ff" points="457.65,-696.82 447.37,-699.36 456.99,-703.79 457.65,-696.82"/>
</g>
<!-- Node15&#45;&gt;Node16 -->
<g id="edge12" class="edge">
<title>Node15&#45;&gt;Node16</title>
<path fill="none" stroke="#63b8ff" d="M459.27,-650.74C489.71,-646.27 527.43,-640.72 555.7,-636.57"/>
<polygon fill="#63b8ff" stroke="#63b8ff" points="458.64,-647.3 449.25,-652.22 459.65,-654.22 458.64,-647.3"/>
</g>
<!-- Node18&#45;&gt;Node19 -->
<g id="edge14" class="edge">
<title>Node18&#45;&gt;Node19</title>
<path fill="none" stroke="#63b8ff" d="M465.64,-556.19C492.58,-560.15 524.04,-564.78 549.42,-568.51"/>
<polygon fill="#63b8ff" stroke="#63b8ff" points="465.96,-552.7 455.56,-554.71 464.94,-559.63 465.96,-552.7"/>
</g>
<!-- Node24 -->
<g id="node18" class="node">
<title>Node24</title>
<g id="a_node18"><a xlink:href="class_search_a_thing_1_1_open_g_l_1_1_core_1_1_g_l_primitive_base.html" target="_top" xlink:title=" ">
<polygon fill="white" stroke="#666666" points="454.5,-409 356.5,-409 356.5,-390 454.5,-390 454.5,-409"/>
<text text-anchor="middle" x="405.5" y="-397" font-family="Helvetica,sans-Serif" font-size="10.00">GLPrimitiveBase</text>
</a>
</g>
</g>
<!-- Node23&#45;&gt;Node24 -->
<g id="edge16" class="edge">
<title>Node23&#45;&gt;Node24</title>
<path fill="none" stroke="#63b8ff" d="M267.75,-442.42C271.92,-440.85 276.07,-439.2 280,-437.5 296.61,-430.32 299,-424.68 316,-418.5 328.7,-413.88 342.86,-410.23 356.06,-407.4"/>
<polygon fill="#63b8ff" stroke="#63b8ff" points="266.28,-439.23 258.07,-445.92 268.66,-445.81 266.28,-439.23"/>
</g>
<!-- Node26 -->
<g id="node22" class="node">
<title>Node26</title>
<g id="a_node22"><a xlink:href="interface_search_a_thing_1_1_open_g_l_1_1_core_1_1_i_g_l_line.html" target="_top" xlink:title="Primitive for the GL_LINES opengl element.">
<polygon fill="white" stroke="#666666" points="432,-483 379,-483 379,-464 432,-464 432,-483"/>
<text text-anchor="middle" x="405.5" y="-471" font-family="Helvetica,sans-Serif" font-size="10.00">IGLLine</text>
</a>
</g>
</g>
<!-- Node23&#45;&gt;Node26 -->
<g id="edge20" class="edge">
<title>Node23&#45;&gt;Node26</title>
<path fill="none" stroke="#63b8ff" d="M275.03,-460.33C308.36,-463.72 351.64,-468.12 378.74,-470.88"/>
<polygon fill="#63b8ff" stroke="#63b8ff" points="275.34,-456.85 265.04,-459.32 274.63,-463.81 275.34,-456.85"/>
</g>
<!-- Node28 -->
<g id="node23" class="node">
<title>Node28</title>
<g id="a_node23"><a xlink:href="interface_search_a_thing_1_1_open_g_l_1_1_core_1_1_i_g_l_point.html" target="_top" xlink:title="Primitive for GL_POINTS opengl element.">
<polygon fill="white" stroke="#666666" points="434,-446 377,-446 377,-427 434,-427 434,-446"/>
<text text-anchor="middle" x="405.5" y="-434" font-family="Helvetica,sans-Serif" font-size="10.00">IGLPoint</text>
</a>
</g>
</g>
<!-- Node23&#45;&gt;Node28 -->
<g id="edge22" class="edge">
<title>Node23&#45;&gt;Node28</title>
<path fill="none" stroke="#63b8ff" d="M275.24,-450.38C307.78,-446.88 349.72,-442.38 376.86,-439.47"/>
<polygon fill="#63b8ff" stroke="#63b8ff" points="274.61,-446.92 265.04,-451.47 275.35,-453.88 274.61,-446.92"/>
</g>
<!-- Node30 -->
<g id="node24" class="node">
<title>Node30</title>
<g id="a_node24"><a xlink:href="interface_search_a_thing_1_1_open_g_l_1_1_core_1_1_i_g_l_triangle.html" target="_top" xlink:title="Primitive for GL_TRIANGLES opengl element.">
<polygon fill="white" stroke="#666666" points="440.5,-372 370.5,-372 370.5,-353 440.5,-353 440.5,-372"/>
<text text-anchor="middle" x="405.5" y="-360" font-family="Helvetica,sans-Serif" font-size="10.00">IGLTriangle</text>
</a>
</g>
</g>
<!-- Node23&#45;&gt;Node30 -->
<g id="edge24" class="edge">
<title>Node23&#45;&gt;Node30</title>
<path fill="none" stroke="#63b8ff" d="M274.33,-441.39C276.31,-440.2 278.21,-438.9 280,-437.5 303.29,-419.25 291.67,-398.34 316,-381.5 331.76,-370.59 352.6,-365.76 370.1,-363.7"/>
<polygon fill="#63b8ff" stroke="#63b8ff" points="272.55,-438.37 265.24,-446.04 275.74,-444.6 272.55,-438.37"/>
</g>
<!-- Node25 -->
<g id="node19" class="node">
<title>Node25</title>
<g id="a_node19"><a xlink:href="class_search_a_thing_1_1_open_g_l_1_1_core_1_1_g_l_line.html" target="_top" xlink:title="Opengl line primitive.">
<polygon fill="white" stroke="#666666" points="623,-465 573,-465 573,-446 623,-446 623,-465"/>
<text text-anchor="middle" x="598" y="-453" font-family="Helvetica,sans-Serif" font-size="10.00">GLLine</text>
</a>
</g>
</g>
<!-- Node24&#45;&gt;Node25 -->
<g id="edge17" class="edge">
<title>Node24&#45;&gt;Node25</title>
<path fill="none" stroke="#63b8ff" d="M464.62,-410.79C474.81,-413.11 485.26,-415.7 495,-418.5 522.34,-426.35 552.91,-437.82 573.4,-445.9"/>
<polygon fill="#63b8ff" stroke="#63b8ff" points="465.08,-407.31 454.56,-408.57 463.57,-414.14 465.08,-407.31"/>
</g>
<!-- Node27 -->
<g id="node20" class="node">
<title>Node27</title>
<g id="a_node20"><a xlink:href="class_search_a_thing_1_1_open_g_l_1_1_core_1_1_g_l_point.html" target="_top" xlink:title=" ">
<polygon fill="white" stroke="#666666" points="625,-418 571,-418 571,-399 625,-399 625,-418"/>
<text text-anchor="middle" x="598" y="-406" font-family="Helvetica,sans-Serif" font-size="10.00">GLPoint</text>
</a>
</g>
</g>
<!-- Node24&#45;&gt;Node27 -->
<g id="edge18" class="edge">
<title>Node24&#45;&gt;Node27</title>
<path fill="none" stroke="#63b8ff" d="M464.81,-402.25C500.25,-403.93 543.76,-405.98 570.94,-407.27"/>
<polygon fill="#63b8ff" stroke="#63b8ff" points="464.73,-398.75 454.57,-401.77 464.39,-405.74 464.73,-398.75"/>
</g>
<!-- Node29 -->
<g id="node21" class="node">
<title>Node29</title>
<g id="a_node21"><a xlink:href="class_search_a_thing_1_1_open_g_l_1_1_core_1_1_g_l_triangle.html" target="_top" xlink:title=" ">
<polygon fill="white" stroke="#666666" points="631.5,-381 564.5,-381 564.5,-362 631.5,-362 631.5,-381"/>
<text text-anchor="middle" x="598" y="-369" font-family="Helvetica,sans-Serif" font-size="10.00">GLTriangle</text>
</a>
</g>
</g>
<!-- Node24&#45;&gt;Node29 -->
<g id="edge19" class="edge">
<title>Node24&#45;&gt;Node29</title>
<path fill="none" stroke="#63b8ff" d="M464.48,-390.98C497.19,-386.17 536.87,-380.34 564.23,-376.32"/>
<polygon fill="#63b8ff" stroke="#63b8ff" points="463.96,-387.52 454.57,-392.43 464.97,-394.44 463.96,-387.52"/>
</g>
<!-- Node26&#45;&gt;Node25 -->
<g id="edge21" class="edge">
<title>Node26&#45;&gt;Node25</title>
<path fill="none" stroke="#63b8ff" d="M442.36,-470.11C480.56,-466.5 539.96,-460.89 572.92,-457.78"/>
<polygon fill="#63b8ff" stroke="#63b8ff" points="441.82,-466.65 432.19,-471.07 442.48,-473.62 441.82,-466.65"/>
</g>
<!-- Node28&#45;&gt;Node27 -->
<g id="edge23" class="edge">
<title>Node28&#45;&gt;Node27</title>
<path fill="none" stroke="#63b8ff" d="M444.22,-430.96C481.64,-425.46 538.01,-417.17 570.8,-412.35"/>
<polygon fill="#63b8ff" stroke="#63b8ff" points="443.59,-427.51 434.2,-432.43 444.6,-434.44 443.59,-427.51"/>
</g>
<!-- Node30&#45;&gt;Node29 -->
<g id="edge25" class="edge">
<title>Node30&#45;&gt;Node29</title>
<path fill="none" stroke="#63b8ff" d="M450.87,-364.6C485.53,-366.23 532.9,-368.47 564.19,-369.95"/>
<polygon fill="#63b8ff" stroke="#63b8ff" points="450.71,-361.08 440.56,-364.11 450.38,-368.08 450.71,-361.08"/>
</g>
<!-- Node32 -->
<g id="node26" class="node">
<title>Node32</title>
<g id="a_node26"><a xlink:href="class_search_a_thing_1_1_open_g_l_1_1_core_1_1_g_l_vertex.html" target="_top" xlink:title=" ">
<polygon fill="white" stroke="#666666" points="435.5,-335 375.5,-335 375.5,-316 435.5,-316 435.5,-335"/>
<text text-anchor="middle" x="405.5" y="-323" font-family="Helvetica,sans-Serif" font-size="10.00">GLVertex</text>
</a>
</g>
</g>
<!-- Node31&#45;&gt;Node32 -->
<g id="edge27" class="edge">
<title>Node31&#45;&gt;Node32</title>
<path fill="none" stroke="#63b8ff" d="M267.47,-408.08C271.94,-405.98 276.23,-403.48 280,-400.5 303.51,-381.92 291.34,-360.52 316,-343.5 333.29,-331.57 356.73,-327.19 375.14,-325.74"/>
<polygon fill="#63b8ff" stroke="#63b8ff" points="266.12,-404.85 258.15,-411.84 268.74,-411.34 266.12,-404.85"/>
</g>
<!-- Node2 -->
<g id="node27" class="node">
<title>Node2</title>
<g id="a_node27"><a xlink:title=" ">
<polygon fill="#e0e0e0" stroke="#999999" points="135,-278 2,-278 2,-259 135,-259 135,-278"/>
<text text-anchor="middle" x="68.5" y="-266" font-family="Helvetica,sans-Serif" font-size="10.00">INotifyPropertyChanged</text>
</a>
</g>
</g>
<!-- Node2&#45;&gt;Node1 -->
<g id="edge41" class="edge">
<title>Node2&#45;&gt;Node1</title>
<path fill="none" stroke="#63b8ff" d="M77.2,-287.66C89.78,-318.98 115.49,-383.1 137,-437.5 153.14,-478.33 141.3,-499.12 173,-529.5 176.55,-532.9 180.77,-535.66 185.25,-537.9"/>
<polygon fill="#63b8ff" stroke="#63b8ff" points="80.31,-285.99 73.33,-278.02 73.81,-288.6 80.31,-285.99"/>
</g>
<!-- Node2&#45;&gt;Node9 -->
<g id="edge32" class="edge">
<title>Node2&#45;&gt;Node9</title>
<path fill="none" stroke="#63b8ff" d="M75.47,-287.64C88.28,-326.4 121.51,-415.52 173,-474.5 182.52,-485.41 196.05,-494.58 206.98,-500.93"/>
<polygon fill="#63b8ff" stroke="#63b8ff" points="78.79,-286.55 72.4,-278.1 72.13,-288.7 78.79,-286.55"/>
</g>
<!-- Node2&#45;&gt;Node23 -->
<g id="edge33" class="edge">
<title>Node2&#45;&gt;Node23</title>
<path fill="none" stroke="#63b8ff" d="M76.17,-287.58C89.28,-322.38 121.67,-396.35 173,-437.5 177.44,-441.06 182.61,-443.93 187.96,-446.24"/>
<polygon fill="#63b8ff" stroke="#63b8ff" points="79.43,-286.32 72.72,-278.12 72.86,-288.71 79.43,-286.32"/>
</g>
<!-- Node2&#45;&gt;Node31 -->
<g id="edge34" class="edge">
<title>Node2&#45;&gt;Node31</title>
<path fill="none" stroke="#63b8ff" d="M79.25,-286.87C95.2,-315.21 129.48,-369.56 173,-400.5 179.52,-405.13 187.33,-408.66 194.91,-411.3"/>
<polygon fill="#63b8ff" stroke="#63b8ff" points="82.27,-285.09 74.39,-278.01 76.13,-288.46 82.27,-285.09"/>
</g>
<!-- Node3 -->
<g id="node28" class="node">
<title>Node3</title>
<g id="a_node28"><a xlink:href="class_search_a_thing_1_1_open_g_l_1_1_core_1_1_dummy_render_device.html" target="_top" xlink:title="A render device that doesn&#39;t write GL pixel anywhere. &#160;This object can be used for testing purpouse.">
<polygon fill="white" stroke="#666666" points="467.5,-270 343.5,-270 343.5,-251 467.5,-251 467.5,-270"/>
<text text-anchor="middle" x="405.5" y="-258" font-family="Helvetica,sans-Serif" font-size="10.00">DummyRenderDevice</text>
</a>
</g>
</g>
<!-- Node2&#45;&gt;Node3 -->
<g id="edge28" class="edge">
<title>Node2&#45;&gt;Node3</title>
<path fill="none" stroke="#63b8ff" d="M124.4,-279.86C140.03,-282.6 157.13,-285.13 173,-286.5 220.38,-290.59 232.7,-291.39 280,-286.5 310.2,-283.38 343.88,-276.11 368.58,-270.05"/>
<polygon fill="#63b8ff" stroke="#63b8ff" points="124.83,-276.38 114.37,-278.04 123.58,-283.27 124.83,-276.38"/>
</g>
<!-- Node6 -->
<g id="node29" class="node">
<title>Node6</title>
<g id="a_node29"><a xlink:href="class_search_a_thing_1_1_open_g_l_1_1_core_1_1_g_l_control.html" target="_top" xlink:title="Provides basic opengl abstraction to create entities such as GLPoint, GLLine and GLTriangle....">
<polygon fill="white" stroke="#666666" points="259,-130 194,-130 194,-111 259,-111 259,-130"/>
<text text-anchor="middle" x="226.5" y="-118" font-family="Helvetica,sans-Serif" font-size="10.00">GLControl</text>
</a>
</g>
</g>
<!-- Node2&#45;&gt;Node6 -->
<g id="edge29" class="edge">
<title>Node2&#45;&gt;Node6</title>
<path fill="none" stroke="#63b8ff" d="M79.56,-250C95.7,-221.99 129.98,-168.85 173,-138.5 179.22,-134.11 186.6,-130.72 193.83,-128.12"/>
<polygon fill="#63b8ff" stroke="#63b8ff" points="76.47,-248.35 74.62,-258.79 82.57,-251.78 76.47,-248.35"/>
</g>
<!-- Node7 -->
<g id="node30" class="node">
<title>Node7</title>
<g id="a_node30"><a xlink:href="class_search_a_thing_1_1_open_g_l_1_1_core_1_1_g_l_point_light.html" target="_top" xlink:title="Gl point light.">
<polygon fill="white" stroke="#666666" points="265.5,-391 187.5,-391 187.5,-372 265.5,-372 265.5,-391"/>
<text text-anchor="middle" x="226.5" y="-379" font-family="Helvetica,sans-Serif" font-size="10.00">GLPointLight</text>
</a>
</g>
</g>
<!-- Node2&#45;&gt;Node7 -->
<g id="edge30" class="edge">
<title>Node2&#45;&gt;Node7</title>
<path fill="none" stroke="#63b8ff" d="M84.56,-285.8C103.41,-306.53 137.55,-341.14 173,-362.5 179.14,-366.2 186.12,-369.35 192.94,-371.96"/>
<polygon fill="#63b8ff" stroke="#63b8ff" points="86.95,-283.22 77.67,-278.09 81.72,-287.88 86.95,-283.22"/>
</g>
<!-- Node8 -->
<g id="node31" class="node">
<title>Node8</title>
<g id="a_node31"><a xlink:href="class_search_a_thing_1_1_open_g_l_1_1_core_1_1_g_l_text.html" target="_top" xlink:title="Gl text object.">
<polygon fill="white" stroke="#666666" points="251,-354 202,-354 202,-335 251,-335 251,-354"/>
<text text-anchor="middle" x="226.5" y="-342" font-family="Helvetica,sans-Serif" font-size="10.00">GLText</text>
</a>
</g>
</g>
<!-- Node2&#45;&gt;Node8 -->
<g id="edge31" class="edge">
<title>Node2&#45;&gt;Node8</title>
<path fill="none" stroke="#63b8ff" d="M97,-282.66C117.78,-293.28 147.06,-308.06 173,-320.5 183.21,-325.4 194.64,-330.65 204.22,-334.98"/>
<polygon fill="#63b8ff" stroke="#63b8ff" points="98.59,-279.55 88.1,-278.1 95.4,-285.78 98.59,-279.55"/>
</g>
<!-- Node33 -->
<g id="node32" class="node">
<title>Node33</title>
<g id="a_node32"><a xlink:href="interface_search_a_thing_1_1_open_g_l_1_1_core_1_1_i_g_l_vertex_manager.html" target="_top" xlink:title="Vertex manager primary purpose is to keep a linear sequence of distinct GLVertexStruct structs that w...">
<polygon fill="white" stroke="#666666" points="279.5,-167 173.5,-167 173.5,-148 279.5,-148 279.5,-167"/>
<text text-anchor="middle" x="226.5" y="-155" font-family="Helvetica,sans-Serif" font-size="10.00">IGLVertexManager</text>
</a>
</g>
</g>
<!-- Node2&#45;&gt;Node33 -->
<g id="edge35" class="edge">
<title>Node2&#45;&gt;Node33</title>
<path fill="none" stroke="#63b8ff" d="M84.54,-251.29C103.37,-230.69 137.49,-196.36 173,-175.5 178.57,-172.23 184.82,-169.44 191.01,-167.1"/>
<polygon fill="#63b8ff" stroke="#63b8ff" points="81.73,-249.17 77.66,-258.95 86.95,-253.85 81.73,-249.17"/>
</g>
<!-- Node4 -->
<g id="node34" class="node">
<title>Node4</title>
<g id="a_node34"><a xlink:href="interface_search_a_thing_1_1_open_g_l_1_1_core_1_1_i_render_device.html" target="_top" xlink:title="A render device will read pixels from given gl context through ReadPixels and write to an appropriate...">
<polygon fill="white" stroke="#666666" points="270.5,-204 182.5,-204 182.5,-185 270.5,-185 270.5,-204"/>
<text text-anchor="middle" x="226.5" y="-192" font-family="Helvetica,sans-Serif" font-size="10.00">IRenderDevice</text>
</a>
</g>
</g>
<!-- Node2&#45;&gt;Node4 -->
<g id="edge37" class="edge">
<title>Node2&#45;&gt;Node4</title>
<path fill="none" stroke="#63b8ff" d="M93.95,-253.77C114.57,-241.72 145.09,-224.73 173,-212.5 179.97,-209.44 187.64,-206.56 194.91,-204.03"/>
<polygon fill="#63b8ff" stroke="#63b8ff" points="92.05,-250.83 85.22,-258.93 95.61,-256.86 92.05,-250.83"/>
</g>
<!-- Node35 -->
<g id="node36" class="node">
<title>Node35</title>
<g id="a_node36"><a xlink:href="class_search_a_thing_1_1_open_g_l_1_1_core_1_1_point_transform_nfo.html" target="_top" xlink:title="Helper class used by SearchAThing.OpenGL.GUI.GLDevTool. &#160;Given the vertex, size, gl matrixes it will ...">
<polygon fill="white" stroke="#666666" points="280,-278 173,-278 173,-259 280,-259 280,-278"/>
<text text-anchor="middle" x="226.5" y="-266" font-family="Helvetica,sans-Serif" font-size="10.00">PointTransformNfo</text>
</a>
</g>
</g>
<!-- Node2&#45;&gt;Node35 -->
<g id="edge40" class="edge">
<title>Node2&#45;&gt;Node35</title>
<path fill="none" stroke="#63b8ff" d="M145.23,-268.5C154.5,-268.5 163.81,-268.5 172.65,-268.5"/>
<polygon fill="#63b8ff" stroke="#63b8ff" points="145.21,-265 135.21,-268.5 145.21,-272 145.21,-265"/>
</g>
<!-- Node36 -->
<g id="node37" class="node">
<title>Node36</title>
<g id="a_node37"><a xlink:href="class_search_a_thing_1_1_open_g_l_1_1_g_u_i_1_1_g_l_dev_tool.html" target="_top" xlink:title="Developer tool to inspect vertex manager at runtime.">
<polygon fill="white" stroke="#666666" points="260.5,-56 192.5,-56 192.5,-37 260.5,-37 260.5,-56"/>
<text text-anchor="middle" x="226.5" y="-44" font-family="Helvetica,sans-Serif" font-size="10.00">GLDevTool</text>
</a>
</g>
</g>
<!-- Node2&#45;&gt;Node36 -->
<g id="edge42" class="edge">
<title>Node2&#45;&gt;Node36</title>
<path fill="none" stroke="#63b8ff" d="M74.13,-248.88C84.64,-208.52 114.11,-115.72 173,-64.5 178.53,-59.69 185.4,-56.16 192.33,-53.56"/>
<polygon fill="#63b8ff" stroke="#63b8ff" points="70.68,-248.24 71.66,-258.79 77.47,-249.93 70.68,-248.24"/>
</g>
<!-- Node39 -->
<g id="node38" class="node">
<title>Node39</title>
<g id="a_node38"><a xlink:href="class_search_a_thing_1_1_open_g_l_1_1_g_u_i_1_1_g_l_view.html" target="_top" xlink:title="Avalonia control that hold a grRoot grid inside of which take place a title and an AvaloniaGLControl....">
<polygon fill="white" stroke="#666666" points="253,-19 200,-19 200,0 253,0 253,-19"/>
<text text-anchor="middle" x="226.5" y="-7" font-family="Helvetica,sans-Serif" font-size="10.00">GLView</text>
</a>
</g>
</g>
<!-- Node2&#45;&gt;Node39 -->
<g id="edge43" class="edge">
<title>Node2&#45;&gt;Node39</title>
<path fill="none" stroke="#63b8ff" d="M75.56,-249.13C91.97,-197.73 138.39,-59.59 173,-27.5 180.42,-20.62 190.58,-16.36 199.99,-13.72"/>
<polygon fill="#63b8ff" stroke="#63b8ff" points="72.12,-248.38 72.44,-258.97 78.8,-250.49 72.12,-248.38"/>
</g>
<!-- Node38 -->
<g id="node39" class="node">
<title>Node38</title>
<g id="a_node39"><a xlink:href="class_search_a_thing_1_1_open_g_l_1_1_g_u_i_1_1_g_l_window.html" target="_top" xlink:title="Used in stand&#45;alone application types ( console programs ) to create an application gl window....">
<polygon fill="white" stroke="#666666" points="260.5,-93 192.5,-93 192.5,-74 260.5,-74 260.5,-93"/>
<text text-anchor="middle" x="226.5" y="-81" font-family="Helvetica,sans-Serif" font-size="10.00">GLWindow</text>
</a>
</g>
</g>
<!-- Node2&#45;&gt;Node38 -->
<g id="edge44" class="edge">
<title>Node2&#45;&gt;Node38</title>
<path fill="none" stroke="#63b8ff" d="M76.4,-249.2C89.73,-214.62 122.22,-141.99 173,-101.5 178.65,-96.99 185.5,-93.58 192.35,-91.01"/>
<polygon fill="#63b8ff" stroke="#63b8ff" points="72.97,-248.4 72.75,-258.99 79.52,-250.84 72.97,-248.4"/>
</g>
<!-- Node41 -->
<g id="node40" class="node">
<title>Node41</title>
<g id="a_node40"><a xlink:href="class_search_a_thing_1_1_open_g_l_1_1_g_u_i_1_1_vector3_wrap.html" target="_top" xlink:title="Wrap X,Y,Z components of an object containing a INotifyPropertyChanged vector3.">
<polygon fill="white" stroke="#666666" points="266,-241 187,-241 187,-222 266,-222 266,-241"/>
<text text-anchor="middle" x="226.5" y="-229" font-family="Helvetica,sans-Serif" font-size="10.00">Vector3Wrap</text>
</a>
</g>
</g>
<!-- Node2&#45;&gt;Node41 -->
<g id="edge45" class="edge">
<title>Node2&#45;&gt;Node41</title>
<path fill="none" stroke="#63b8ff" d="M119.43,-256.66C141.25,-251.48 166.45,-245.51 186.81,-240.68"/>
<polygon fill="#63b8ff" stroke="#63b8ff" points="118.6,-253.26 109.67,-258.97 120.21,-260.07 118.6,-253.26"/>
</g>
<!-- Node34 -->
<g id="node33" class="node">
<title>Node34</title>
<g id="a_node33"><a xlink:href="class_search_a_thing_1_1_open_g_l_1_1_core_1_1_g_l_vertex_manager.html" target="_top" xlink:title=" ">
<polygon fill="white" stroke="#666666" points="457,-167 354,-167 354,-148 457,-148 457,-167"/>
<text text-anchor="middle" x="405.5" y="-155" font-family="Helvetica,sans-Serif" font-size="10.00">GLVertexManager</text>
</a>
</g>
</g>
<!-- Node33&#45;&gt;Node34 -->
<g id="edge36" class="edge">
<title>Node33&#45;&gt;Node34</title>
<path fill="none" stroke="#63b8ff" d="M289.76,-157.5C310.77,-157.5 333.95,-157.5 353.94,-157.5"/>
<polygon fill="#63b8ff" stroke="#63b8ff" points="289.65,-154 279.65,-157.5 289.65,-161 289.65,-154"/>
</g>
<!-- Node4&#45;&gt;Node3 -->
<g id="edge38" class="edge">
<title>Node4&#45;&gt;Node3</title>
<path fill="none" stroke="#63b8ff" d="M265.68,-207.4C270.51,-209.09 275.38,-210.82 280,-212.5 315.05,-225.26 355.25,-240.95 380.27,-250.85"/>
<polygon fill="#63b8ff" stroke="#63b8ff" points="266.5,-203.98 255.91,-204.02 264.21,-210.6 266.5,-203.98"/>
</g>
<!-- Node5 -->
<g id="node35" class="node">
<title>Node5</title>
<g id="a_node35"><a xlink:href="class_search_a_thing_1_1_open_g_l_1_1_core_1_1_offscreen_render_device.html" target="_top" xlink:title="Render device for offscreen mode that acts as a bitmap file writer.">
<polygon fill="white" stroke="#666666" points="471,-204 340,-204 340,-185 471,-185 471,-204"/>
<text text-anchor="middle" x="405.5" y="-192" font-family="Helvetica,sans-Serif" font-size="10.00">OffscreenRenderDevice</text>
</a>
</g>
</g>
<!-- Node4&#45;&gt;Node5 -->
<g id="edge39" class="edge">
<title>Node4&#45;&gt;Node5</title>
<path fill="none" stroke="#63b8ff" d="M280.84,-194.5C299.43,-194.5 320.49,-194.5 339.89,-194.5"/>
<polygon fill="#63b8ff" stroke="#63b8ff" points="280.8,-191 270.8,-194.5 280.8,-198 280.8,-191"/>
</g>
<!-- Node42 -->
<g id="node41" class="node">
<title>Node42</title>
<g id="a_node41"><a xlink:title=" ">
<polygon fill="#e0e0e0" stroke="#999999" points="112.5,-538 24.5,-538 24.5,-519 112.5,-519 112.5,-538"/>
<text text-anchor="middle" x="68.5" y="-526" font-family="Helvetica,sans-Serif" font-size="10.00">IRenderDevice</text>
</a>
</g>
</g>
<!-- Node42&#45;&gt;Node1 -->
<g id="edge46" class="edge">
<title>Node42&#45;&gt;Node1</title>
<path fill="none" stroke="#63b8ff" d="M122.9,-535C139.05,-536.97 156.77,-539.13 172.88,-541.09"/>
<polygon fill="#63b8ff" stroke="#63b8ff" points="122.89,-531.48 112.54,-533.74 122.04,-538.43 122.89,-531.48"/>
</g>
<!-- Node40 -->
<g id="node42" class="node">
<title>Node40</title>
<g id="a_node42"><a xlink:title=" ">
<polygon fill="#e0e0e0" stroke="#999999" points="105.5,-19 31.5,-19 31.5,0 105.5,0 105.5,-19"/>
<text text-anchor="middle" x="68.5" y="-7" font-family="Helvetica,sans-Serif" font-size="10.00">UserControl</text>
</a>
</g>
</g>
<!-- Node40&#45;&gt;Node39 -->
<g id="edge47" class="edge">
<title>Node40&#45;&gt;Node39</title>
<path fill="none" stroke="#63b8ff" d="M115.85,-9.5C143.28,-9.5 176.99,-9.5 199.74,-9.5"/>
<polygon fill="#63b8ff" stroke="#63b8ff" points="115.68,-6 105.68,-9.5 115.68,-13 115.68,-6"/>
</g>
<!-- Node37 -->
<g id="node43" class="node">
<title>Node37</title>
<g id="a_node43"><a xlink:title=" ">
<polygon fill="#e0e0e0" stroke="#999999" points="96.5,-74 40.5,-74 40.5,-55 96.5,-55 96.5,-74"/>
<text text-anchor="middle" x="68.5" y="-62" font-family="Helvetica,sans-Serif" font-size="10.00">Window</text>
</a>
</g>
</g>
<!-- Node37&#45;&gt;Node36 -->
<g id="edge48" class="edge">
<title>Node37&#45;&gt;Node36</title>
<path fill="none" stroke="#63b8ff" d="M106.91,-60.18C132.96,-57.18 167.37,-53.21 192.41,-50.32"/>
<polygon fill="#63b8ff" stroke="#63b8ff" points="106.21,-56.74 96.67,-61.36 107.01,-63.7 106.21,-56.74"/>
</g>
<!-- Node37&#45;&gt;Node38 -->
<g id="edge49" class="edge">
<title>Node37&#45;&gt;Node38</title>
<path fill="none" stroke="#63b8ff" d="M106.91,-69.06C132.96,-72.23 167.37,-76.42 192.41,-79.47"/>
<polygon fill="#63b8ff" stroke="#63b8ff" points="107.02,-65.54 96.67,-67.81 106.18,-72.49 107.02,-65.54"/>
</g>
</g>
</svg>
