<?xml version="1.0" encoding="UTF-8" standalone="no"?>
<!DOCTYPE svg PUBLIC "-//W3C//DTD SVG 1.1//EN"
 "http://www.w3.org/Graphics/SVG/1.1/DTD/svg11.dtd">
<!-- Generated by graphviz version 2.43.0 (0)
 -->
<!-- Title: Graphical Class Hierarchy Pages: 1 -->
<svg width="302pt" height="261pt"
 viewBox="0.00 0.00 302.00 261.00" xmlns="http://www.w3.org/2000/svg" xmlns:xlink="http://www.w3.org/1999/xlink">
<g id="graph0" class="graph" transform="scale(1 1) rotate(0) translate(4 257)">
<title>Graphical Class Hierarchy</title>
<!-- Node0 -->
<g id="node1" class="node">
<title>Node0</title>
<g id="a_node1"><a xlink:title=" ">
<polygon fill="#e0e0e0" stroke="#999999" points="88,-173 14,-173 14,-154 88,-154 88,-173"/>
<text text-anchor="middle" x="51" y="-161" font-family="Helvetica,sans-Serif" font-size="10.00">IDisposable</text>
</a>
</g>
</g>
<!-- Node1 -->
<g id="node2" class="node">
<title>Node1</title>
<g id="a_node2"><a xlink:href="class_search_a_thing_1_1_open_g_l_1_1_core_1_1_g_l_context.html" target="_top" xlink:title="Gl context object with purpose to:">
<polygon fill="white" stroke="#666666" points="250,-253 182,-253 182,-234 250,-234 250,-253"/>
<text text-anchor="middle" x="216" y="-241" font-family="Helvetica,sans-Serif" font-size="10.00">GLContext</text>
</a>
</g>
</g>
<!-- Node0&#45;&gt;Node1 -->
<g id="edge1" class="edge">
<title>Node0&#45;&gt;Node1</title>
<path fill="none" stroke="#63b8ff" d="M70.02,-179.79C86.56,-193.89 112.32,-213.81 138,-225.5 151.74,-231.76 167.89,-235.96 181.84,-238.72"/>
<polygon fill="#63b8ff" stroke="#63b8ff" points="72.1,-176.96 62.27,-173.02 67.5,-182.23 72.1,-176.96"/>
</g>
<!-- Node2 -->
<g id="node3" class="node">
<title>Node2</title>
<g id="a_node3"><a xlink:href="class_search_a_thing_1_1_open_g_l_1_1_core_1_1_g_l_shader_storage_block.html" target="_top" xlink:title="Manage mapping of given template typed data to gpu memory.">
<polygon fill="white" stroke="#666666" points="294,-216 138,-216 138,-197 294,-197 294,-216"/>
<text text-anchor="middle" x="216" y="-204" font-family="Helvetica,sans-Serif" font-size="10.00">GLShaderStorageBlock&lt; T &gt;</text>
</a>
</g>
</g>
<!-- Node0&#45;&gt;Node2 -->
<g id="edge2" class="edge">
<title>Node0&#45;&gt;Node2</title>
<path fill="none" stroke="#63b8ff" d="M95.09,-175.8C108.78,-179.64 124.01,-183.82 138,-187.5 150.12,-190.69 163.35,-194.01 175.37,-196.97"/>
<polygon fill="#63b8ff" stroke="#63b8ff" points="96,-172.42 85.43,-173.08 94.1,-179.16 96,-172.42"/>
</g>
<!-- Node3 -->
<g id="node4" class="node">
<title>Node3</title>
<g id="a_node4"><a xlink:href="class_search_a_thing_1_1_open_g_l_1_1_core_1_1_g_l_texture2_d.html" target="_top" xlink:title="Handle reference to gl texture.">
<polygon fill="white" stroke="#666666" points="255,-93 177,-93 177,-74 255,-74 255,-93"/>
<text text-anchor="middle" x="216" y="-81" font-family="Helvetica,sans-Serif" font-size="10.00">GLTexture2D</text>
</a>
</g>
</g>
<!-- Node0&#45;&gt;Node3 -->
<g id="edge3" class="edge">
<title>Node0&#45;&gt;Node3</title>
<path fill="none" stroke="#63b8ff" d="M70.38,-147.33C86.98,-133.53 112.63,-114.12 138,-102.5 150.14,-96.94 164.14,-92.86 176.84,-89.95"/>
<polygon fill="#63b8ff" stroke="#63b8ff" points="67.93,-144.82 62.58,-153.97 72.46,-150.16 67.93,-144.82"/>
</g>
<!-- Node8 -->
<g id="node5" class="node">
<title>Node8</title>
<g id="a_node5"><a xlink:href="class_search_a_thing_1_1_open_g_l_1_1_core_1_1_g_l_vertex_array_object.html" target="_top" xlink:title="Helper to define and enable Vertex Array Object in order to declare how to access vertex buffer objec...">
<polygon fill="white" stroke="#666666" points="275,-178.5 157,-178.5 157,-148.5 275,-148.5 275,-178.5"/>
<text text-anchor="start" x="165" y="-166.5" font-family="Helvetica,sans-Serif" font-size="10.00">GLVertexArrayObject</text>
<text text-anchor="middle" x="216" y="-155.5" font-family="Helvetica,sans-Serif" font-size="10.00">&lt; PacketStructure &gt;</text>
</a>
</g>
</g>
<!-- Node0&#45;&gt;Node8 -->
<g id="edge4" class="edge">
<title>Node0&#45;&gt;Node8</title>
<path fill="none" stroke="#63b8ff" d="M98.25,-163.5C116.47,-163.5 137.6,-163.5 156.84,-163.5"/>
<polygon fill="#63b8ff" stroke="#63b8ff" points="98.18,-160 88.17,-163.5 98.17,-167 98.18,-160"/>
</g>
<!-- Node9 -->
<g id="node6" class="node">
<title>Node9</title>
<g id="a_node6"><a xlink:href="class_search_a_thing_1_1_open_g_l_1_1_core_1_1_g_l_vertex_buffer_object.html" target="_top" xlink:title="Manage mapping of given template typed data to gpu memory.">
<polygon fill="white" stroke="#666666" points="290.5,-130 141.5,-130 141.5,-111 290.5,-111 290.5,-130"/>
<text text-anchor="middle" x="216" y="-118" font-family="Helvetica,sans-Serif" font-size="10.00">GLVertexBufferObject&lt; T &gt;</text>
</a>
</g>
</g>
<!-- Node0&#45;&gt;Node9 -->
<g id="edge5" class="edge">
<title>Node0&#45;&gt;Node9</title>
<path fill="none" stroke="#63b8ff" d="M95.09,-151.2C108.78,-147.36 124.01,-143.18 138,-139.5 150.12,-136.31 163.35,-132.99 175.37,-130.03"/>
<polygon fill="#63b8ff" stroke="#63b8ff" points="94.1,-147.84 85.43,-153.92 96,-154.58 94.1,-147.84"/>
</g>
<!-- Node4 -->
<g id="node7" class="node">
<title>Node4</title>
<g id="a_node7"><a xlink:href="interface_search_a_thing_1_1_open_g_l_1_1_core_1_1_i_g_l_context_object.html" target="_top" xlink:title="General inteface for objects that carrier a reference to Gl context.">
<polygon fill="white" stroke="#666666" points="102,-56 0,-56 0,-37 102,-37 102,-56"/>
<text text-anchor="middle" x="51" y="-44" font-family="Helvetica,sans-Serif" font-size="10.00">IGLContextObject</text>
</a>
</g>
</g>
<!-- Node4&#45;&gt;Node3 -->
<g id="edge8" class="edge">
<title>Node4&#45;&gt;Node3</title>
<path fill="none" stroke="#63b8ff" d="M103.86,-58.27C127.52,-63.64 155.05,-69.89 176.79,-74.83"/>
<polygon fill="#63b8ff" stroke="#63b8ff" points="104.5,-54.83 93.98,-56.03 102.95,-61.66 104.5,-54.83"/>
</g>
<!-- Node5 -->
<g id="node8" class="node">
<title>Node5</title>
<g id="a_node8"><a xlink:href="class_search_a_thing_1_1_open_g_l_1_1_core_1_1_g_l_model.html" target="_top" xlink:title="Gl model.">
<polygon fill="white" stroke="#666666" points="245.5,-56 186.5,-56 186.5,-37 245.5,-37 245.5,-56"/>
<text text-anchor="middle" x="216" y="-44" font-family="Helvetica,sans-Serif" font-size="10.00">GLModel</text>
</a>
</g>
</g>
<!-- Node4&#45;&gt;Node5 -->
<g id="edge6" class="edge">
<title>Node4&#45;&gt;Node5</title>
<path fill="none" stroke="#63b8ff" d="M112.44,-46.5C137.61,-46.5 165.65,-46.5 186.04,-46.5"/>
<polygon fill="#63b8ff" stroke="#63b8ff" points="112.24,-43 102.24,-46.5 112.24,-50 112.24,-43"/>
</g>
<!-- Node6 -->
<g id="node9" class="node">
<title>Node6</title>
<g id="a_node9"><a xlink:href="class_search_a_thing_1_1_open_g_l_1_1_core_1_1_g_l_pipeline.html" target="_top" xlink:title="Gl pipeline object. &#160;Contains vertex, geometry and fragment shaders where defined and helper method t...">
<polygon fill="white" stroke="#666666" points="250,-19 182,-19 182,0 250,0 250,-19"/>
<text text-anchor="middle" x="216" y="-7" font-family="Helvetica,sans-Serif" font-size="10.00">GLPipeline</text>
</a>
</g>
</g>
<!-- Node4&#45;&gt;Node6 -->
<g id="edge7" class="edge">
<title>Node4&#45;&gt;Node6</title>
<path fill="none" stroke="#63b8ff" d="M103.89,-34.72C129.45,-28.92 159.5,-22.1 181.9,-17.01"/>
<polygon fill="#63b8ff" stroke="#63b8ff" points="102.95,-31.34 93.98,-36.97 104.5,-38.17 102.95,-31.34"/>
</g>
<!-- Node7 -->
<g id="node10" class="node">
<title>Node7</title>
<g id="a_node10"><a xlink:href="interface_search_a_thing_1_1_open_g_l_1_1_core_1_1_i_g_l_texture2_d.html" target="_top" xlink:title="Interface that describe the object hold a reference to a gl texture 2d.">
<polygon fill="white" stroke="#666666" points="91.5,-93 10.5,-93 10.5,-74 91.5,-74 91.5,-93"/>
<text text-anchor="middle" x="51" y="-81" font-family="Helvetica,sans-Serif" font-size="10.00">IGLTexture2D</text>
</a>
</g>
</g>
<!-- Node7&#45;&gt;Node3 -->
<g id="edge9" class="edge">
<title>Node7&#45;&gt;Node3</title>
<path fill="none" stroke="#63b8ff" d="M101.92,-83.5C126.07,-83.5 154.58,-83.5 176.94,-83.5"/>
<polygon fill="#63b8ff" stroke="#63b8ff" points="101.87,-80 91.87,-83.5 101.87,-87 101.87,-80"/>
</g>
</g>
</svg>
