<?xml version="1.0" encoding="UTF-8" standalone="no"?>
<!DOCTYPE svg PUBLIC "-//W3C//DTD SVG 1.1//EN"
 "http://www.w3.org/Graphics/SVG/1.1/DTD/svg11.dtd">
<!-- Generated by graphviz version 2.43.0 (0)
 -->
<!-- Title: Graphical Class Hierarchy Pages: 1 -->
<svg width="722pt" height="1058pt"
 viewBox="0.00 0.00 722.00 1058.00" xmlns="http://www.w3.org/2000/svg" xmlns:xlink="http://www.w3.org/1999/xlink">
<g id="graph0" class="graph" transform="scale(1 1) rotate(0) translate(4 1054)">
<title>Graphical Class Hierarchy</title>
<!-- Node0 -->
<g id="node1" class="node">
<title>Node0</title>
<g id="a_node1"><a xlink:title=" ">
<polygon fill="#e0e0e0" stroke="#999999" points="94.5,-957 42.5,-957 42.5,-938 94.5,-938 94.5,-957"/>
<text text-anchor="middle" x="68.5" y="-945" font-family="Helvetica,sans-Serif" font-size="10.00">Control</text>
</a>
</g>
</g>
<!-- Node1 -->
<g id="node2" class="node">
<title>Node1</title>
<g id="a_node2"><a xlink:href="class_search_a_thing_1_1_open_g_l_1_1_g_u_i_1_1_avalonia_g_l_control.html" target="_top" xlink:title="Avalonia gl control. &#160;It&#39;s a graphical ui IRenderDevice used to transfer GLControl pixels to the wind...">
<polygon fill="white" stroke="#666666" points="304.5,-976 197.5,-976 197.5,-957 304.5,-957 304.5,-976"/>
<text text-anchor="middle" x="251" y="-964" font-family="Helvetica,sans-Serif" font-size="10.00">AvaloniaGLControl</text>
</a>
</g>
</g>
<!-- Node0&#45;&gt;Node1 -->
<g id="edge1" class="edge">
<title>Node0&#45;&gt;Node1</title>
<path fill="none" stroke="#63b8ff" d="M104.86,-951.22C131.19,-953.99 167.57,-957.82 197.31,-960.95"/>
<polygon fill="#63b8ff" stroke="#63b8ff" points="104.91,-947.71 94.6,-950.14 104.18,-954.67 104.91,-947.71"/>
</g>
<!-- Node8 -->
<g id="node3" class="node">
<title>Node8</title>
<g id="a_node3"><a xlink:href="class_search_a_thing_1_1_open_g_l_1_1_core_1_1_g_l_figure_type_base.html" target="_top" xlink:title=" ">
<polygon fill="white" stroke="#666666" points="535,-717 374,-717 374,-698 535,-698 535,-717"/>
<text text-anchor="middle" x="454.5" y="-705" font-family="Helvetica,sans-Serif" font-size="10.00">GLFigureTypeBase&lt; GLLine &gt;</text>
</a>
</g>
</g>
<!-- Node7 -->
<g id="node4" class="node">
<title>Node7</title>
<g id="a_node4"><a xlink:href="class_search_a_thing_1_1_open_g_l_1_1_core_1_1_g_l_line_figure.html" target="_top" xlink:title="Specialization of typed figure within the GLLine primitive.">
<polygon fill="white" stroke="#666666" points="687,-735 607,-735 607,-716 687,-716 687,-735"/>
<text text-anchor="middle" x="647" y="-723" font-family="Helvetica,sans-Serif" font-size="10.00">GLLineFigure</text>
</a>
</g>
</g>
<!-- Node8&#45;&gt;Node7 -->
<g id="edge2" class="edge">
<title>Node8&#45;&gt;Node7</title>
<path fill="none" stroke="#63b8ff" d="M545.41,-716C567.03,-718.04 589.01,-720.12 606.89,-721.8"/>
<polygon fill="#63b8ff" stroke="#63b8ff" points="545.47,-712.49 535.19,-715.03 544.81,-719.45 545.47,-712.49"/>
</g>
<!-- Node11 -->
<g id="node5" class="node">
<title>Node11</title>
<g id="a_node5"><a xlink:href="class_search_a_thing_1_1_open_g_l_1_1_core_1_1_g_l_figure_type_base.html" target="_top" xlink:title=" ">
<polygon fill="white" stroke="#666666" points="537.5,-865 371.5,-865 371.5,-846 537.5,-846 537.5,-865"/>
<text text-anchor="middle" x="454.5" y="-853" font-family="Helvetica,sans-Serif" font-size="10.00">GLFigureTypeBase&lt; GLPoint &gt;</text>
</a>
</g>
</g>
<!-- Node10 -->
<g id="node6" class="node">
<title>Node10</title>
<g id="a_node6"><a xlink:href="class_search_a_thing_1_1_open_g_l_1_1_core_1_1_g_l_point_figure.html" target="_top" xlink:title="Specialization of typed figure within the GLPoint} primitive.">
<polygon fill="white" stroke="#666666" points="689,-883 605,-883 605,-864 689,-864 689,-883"/>
<text text-anchor="middle" x="647" y="-871" font-family="Helvetica,sans-Serif" font-size="10.00">GLPointFigure</text>
</a>
</g>
</g>
<!-- Node11&#45;&gt;Node10 -->
<g id="edge3" class="edge">
<title>Node11&#45;&gt;Node10</title>
<path fill="none" stroke="#63b8ff" d="M547.81,-864.22C567.87,-866.12 588.1,-868.03 604.95,-869.62"/>
<polygon fill="#63b8ff" stroke="#63b8ff" points="547.96,-860.72 537.67,-863.26 547.3,-867.69 547.96,-860.72"/>
</g>
<!-- Node14 -->
<g id="node7" class="node">
<title>Node14</title>
<g id="a_node7"><a xlink:href="class_search_a_thing_1_1_open_g_l_1_1_core_1_1_g_l_figure_type_base.html" target="_top" xlink:title=" ">
<polygon fill="white" stroke="#666666" points="544,-791 365,-791 365,-772 544,-772 544,-791"/>
<text text-anchor="middle" x="454.5" y="-779" font-family="Helvetica,sans-Serif" font-size="10.00">GLFigureTypeBase&lt; GLTriangle &gt;</text>
</a>
</g>
</g>
<!-- Node13 -->
<g id="node8" class="node">
<title>Node13</title>
<g id="a_node8"><a xlink:href="class_search_a_thing_1_1_open_g_l_1_1_core_1_1_g_l_triangle_figure.html" target="_top" xlink:title="Specialization of typed figure within the GLTriangle primitive.">
<polygon fill="white" stroke="#666666" points="695.5,-809 598.5,-809 598.5,-790 695.5,-790 695.5,-809"/>
<text text-anchor="middle" x="647" y="-797" font-family="Helvetica,sans-Serif" font-size="10.00">GLTriangleFigure</text>
</a>
</g>
</g>
<!-- Node14&#45;&gt;Node13 -->
<g id="edge4" class="edge">
<title>Node14&#45;&gt;Node13</title>
<path fill="none" stroke="#63b8ff" d="M554.18,-790.82C569.59,-792.28 584.88,-793.72 598.43,-795.01"/>
<polygon fill="#63b8ff" stroke="#63b8ff" points="554.34,-787.32 544.06,-789.87 553.68,-794.29 554.34,-787.32"/>
</g>
<!-- Node42 -->
<g id="node9" class="node">
<title>Node42</title>
<g id="a_node9"><a xlink:title=" ">
<polygon fill="#e0e0e0" stroke="#999999" points="105.5,-93 31.5,-93 31.5,-74 105.5,-74 105.5,-93"/>
<text text-anchor="middle" x="68.5" y="-81" font-family="Helvetica,sans-Serif" font-size="10.00">IDisposable</text>
</a>
</g>
</g>
<!-- Node43 -->
<g id="node10" class="node">
<title>Node43</title>
<g id="a_node10"><a xlink:href="class_search_a_thing_1_1_open_g_l_1_1_render_1_1_g_l_context.html" target="_top" xlink:title="Gl context object with purpose to:">
<polygon fill="white" stroke="#666666" points="285,-56 217,-56 217,-37 285,-37 285,-56"/>
<text text-anchor="middle" x="251" y="-44" font-family="Helvetica,sans-Serif" font-size="10.00">GLContext</text>
</a>
</g>
</g>
<!-- Node42&#45;&gt;Node43 -->
<g id="edge5" class="edge">
<title>Node42&#45;&gt;Node43</title>
<path fill="none" stroke="#63b8ff" d="M115.48,-74.07C147.07,-67.6 188.27,-59.15 216.71,-53.32"/>
<polygon fill="#63b8ff" stroke="#63b8ff" points="114.69,-70.66 105.59,-76.1 116.09,-77.52 114.69,-70.66"/>
</g>
<!-- Node44 -->
<g id="node11" class="node">
<title>Node44</title>
<g id="a_node11"><a xlink:href="class_search_a_thing_1_1_open_g_l_1_1_render_1_1_g_l_shader_storage_block.html" target="_top" xlink:title="Manage mapping of given template typed data to gpu memory.">
<polygon fill="white" stroke="#666666" points="329,-19 173,-19 173,0 329,0 329,-19"/>
<text text-anchor="middle" x="251" y="-7" font-family="Helvetica,sans-Serif" font-size="10.00">GLShaderStorageBlock&lt; T &gt;</text>
</a>
</g>
</g>
<!-- Node42&#45;&gt;Node44 -->
<g id="edge6" class="edge">
<title>Node42&#45;&gt;Node44</title>
<path fill="none" stroke="#63b8ff" d="M92.94,-68.46C113.38,-55.94 144.18,-38.44 173,-27.5 181.73,-24.19 191.25,-21.36 200.53,-19"/>
<polygon fill="#63b8ff" stroke="#63b8ff" points="90.96,-65.57 84.32,-73.83 94.66,-71.51 90.96,-65.57"/>
</g>
<!-- Node41 -->
<g id="node12" class="node">
<title>Node41</title>
<g id="a_node12"><a xlink:href="class_search_a_thing_1_1_open_g_l_1_1_render_1_1_g_l_texture2_d.html" target="_top" xlink:title="Handle reference to gl texture.">
<polygon fill="white" stroke="#666666" points="290,-179 212,-179 212,-160 290,-160 290,-179"/>
<text text-anchor="middle" x="251" y="-167" font-family="Helvetica,sans-Serif" font-size="10.00">GLTexture2D</text>
</a>
</g>
</g>
<!-- Node42&#45;&gt;Node41 -->
<g id="edge7" class="edge">
<title>Node42&#45;&gt;Node41</title>
<path fill="none" stroke="#63b8ff" d="M89.54,-99.38C109.59,-114.55 141.85,-137.03 173,-150.5 185.26,-155.8 199.28,-159.81 211.97,-162.75"/>
<polygon fill="#63b8ff" stroke="#63b8ff" points="91.54,-96.51 81.48,-93.18 87.27,-102.05 91.54,-96.51"/>
</g>
<!-- Node45 -->
<g id="node13" class="node">
<title>Node45</title>
<g id="a_node13"><a xlink:href="class_search_a_thing_1_1_open_g_l_1_1_render_1_1_g_l_vertex_array_object.html" target="_top" xlink:title="Helper to define and enable Vertex Array Object in order to declare how to access vertex buffer objec...">
<polygon fill="white" stroke="#666666" points="310,-141.5 192,-141.5 192,-111.5 310,-111.5 310,-141.5"/>
<text text-anchor="start" x="200" y="-129.5" font-family="Helvetica,sans-Serif" font-size="10.00">GLVertexArrayObject</text>
<text text-anchor="middle" x="251" y="-118.5" font-family="Helvetica,sans-Serif" font-size="10.00">&lt; PacketStructure &gt;</text>
</a>
</g>
</g>
<!-- Node42&#45;&gt;Node45 -->
<g id="edge8" class="edge">
<title>Node42&#45;&gt;Node45</title>
<path fill="none" stroke="#63b8ff" d="M115.54,-94.47C138.78,-100 167.22,-106.78 191.94,-112.67"/>
<polygon fill="#63b8ff" stroke="#63b8ff" points="116.13,-91.01 105.59,-92.1 114.51,-97.82 116.13,-91.01"/>
</g>
<!-- Node46 -->
<g id="node14" class="node">
<title>Node46</title>
<g id="a_node14"><a xlink:href="class_search_a_thing_1_1_open_g_l_1_1_render_1_1_g_l_vertex_buffer_object.html" target="_top" xlink:title="Manage mapping of given template typed data to gpu memory.">
<polygon fill="white" stroke="#666666" points="325.5,-93 176.5,-93 176.5,-74 325.5,-74 325.5,-93"/>
<text text-anchor="middle" x="251" y="-81" font-family="Helvetica,sans-Serif" font-size="10.00">GLVertexBufferObject&lt; T &gt;</text>
</a>
</g>
</g>
<!-- Node42&#45;&gt;Node46 -->
<g id="edge9" class="edge">
<title>Node42&#45;&gt;Node46</title>
<path fill="none" stroke="#63b8ff" d="M115.75,-83.5C134.16,-83.5 155.81,-83.5 176.29,-83.5"/>
<polygon fill="#63b8ff" stroke="#63b8ff" points="115.59,-80 105.59,-83.5 115.59,-87 115.59,-80"/>
</g>
<!-- Node39 -->
<g id="node15" class="node">
<title>Node39</title>
<g id="a_node15"><a xlink:href="interface_search_a_thing_1_1_open_g_l_1_1_render_1_1_i_g_l_context_object.html" target="_top" xlink:title="General inteface for objects that carrier a reference to Gl context.">
<polygon fill="white" stroke="#666666" points="119.5,-216 17.5,-216 17.5,-197 119.5,-197 119.5,-216"/>
<text text-anchor="middle" x="68.5" y="-204" font-family="Helvetica,sans-Serif" font-size="10.00">IGLContextObject</text>
</a>
</g>
</g>
<!-- Node39&#45;&gt;Node41 -->
<g id="edge12" class="edge">
<title>Node39&#45;&gt;Node41</title>
<path fill="none" stroke="#63b8ff" d="M126.03,-194.91C153.98,-189.18 186.97,-182.42 211.88,-177.31"/>
<polygon fill="#63b8ff" stroke="#63b8ff" points="125.08,-191.53 115.98,-196.97 126.48,-198.39 125.08,-191.53"/>
</g>
<!-- Node38 -->
<g id="node16" class="node">
<title>Node38</title>
<g id="a_node16"><a xlink:href="class_search_a_thing_1_1_open_g_l_1_1_render_1_1_g_l_model.html" target="_top" xlink:title="Gl model.">
<polygon fill="white" stroke="#666666" points="280.5,-253 221.5,-253 221.5,-234 280.5,-234 280.5,-253"/>
<text text-anchor="middle" x="251" y="-241" font-family="Helvetica,sans-Serif" font-size="10.00">GLModel</text>
</a>
</g>
</g>
<!-- Node39&#45;&gt;Node38 -->
<g id="edge10" class="edge">
<title>Node39&#45;&gt;Node38</title>
<path fill="none" stroke="#63b8ff" d="M126.02,-218.09C157.72,-224.58 195.89,-232.41 221.43,-237.64"/>
<polygon fill="#63b8ff" stroke="#63b8ff" points="126.48,-214.61 115.98,-216.03 125.08,-221.47 126.48,-214.61"/>
</g>
<!-- Node40 -->
<g id="node17" class="node">
<title>Node40</title>
<g id="a_node17"><a xlink:href="class_search_a_thing_1_1_open_g_l_1_1_render_1_1_g_l_pipeline.html" target="_top" xlink:title="Gl pipeline object. &#160;Contains vertex, geometry and fragment shaders where defined and helper method t...">
<polygon fill="white" stroke="#666666" points="285,-216 217,-216 217,-197 285,-197 285,-216"/>
<text text-anchor="middle" x="251" y="-204" font-family="Helvetica,sans-Serif" font-size="10.00">GLPipeline</text>
</a>
</g>
</g>
<!-- Node39&#45;&gt;Node40 -->
<g id="edge11" class="edge">
<title>Node39&#45;&gt;Node40</title>
<path fill="none" stroke="#63b8ff" d="M129.82,-206.5C158.83,-206.5 192.48,-206.5 216.79,-206.5"/>
<polygon fill="#63b8ff" stroke="#63b8ff" points="129.78,-203 119.78,-206.5 129.78,-210 129.78,-203"/>
</g>
<!-- Node47 -->
<g id="node18" class="node">
<title>Node47</title>
<g id="a_node18"><a xlink:title=" ">
<polygon fill="#e0e0e0" stroke="#999999" points="109,-179 28,-179 28,-160 109,-160 109,-179"/>
<text text-anchor="middle" x="68.5" y="-167" font-family="Helvetica,sans-Serif" font-size="10.00">IGLTexture2D</text>
</a>
</g>
</g>
<!-- Node47&#45;&gt;Node41 -->
<g id="edge13" class="edge">
<title>Node47&#45;&gt;Node41</title>
<path fill="none" stroke="#63b8ff" d="M119.12,-169.5C148.33,-169.5 184.73,-169.5 211.72,-169.5"/>
<polygon fill="#63b8ff" stroke="#63b8ff" points="119.11,-166 109.11,-169.5 119.11,-173 119.11,-166"/>
</g>
<!-- Node15 -->
<g id="node19" class="node">
<title>Node15</title>
<g id="a_node19"><a xlink:href="interface_search_a_thing_1_1_open_g_l_1_1_core_1_1_i_g_l_vertex_manager_object.html" target="_top" xlink:title="Interface for GL objects such as IGLFigure, IGLPrimitive and IGLVertex. &#160;The purpose is to ensure tha...">
<polygon fill="white" stroke="#666666" points="137,-754 0,-754 0,-735 137,-735 137,-754"/>
<text text-anchor="middle" x="68.5" y="-742" font-family="Helvetica,sans-Serif" font-size="10.00">IGLVertexManagerObject</text>
</a>
</g>
</g>
<!-- Node3 -->
<g id="node20" class="node">
<title>Node3</title>
<g id="a_node20"><a xlink:href="interface_search_a_thing_1_1_open_g_l_1_1_core_1_1_i_g_l_figure.html" target="_top" xlink:title="This is the direct child of a vertex manager. &#160;A figure contains primitives and primitive contains ve...">
<polygon fill="white" stroke="#666666" points="282,-754 220,-754 220,-735 282,-735 282,-754"/>
<text text-anchor="middle" x="251" y="-742" font-family="Helvetica,sans-Serif" font-size="10.00">IGLFigure</text>
</a>
</g>
</g>
<!-- Node15&#45;&gt;Node3 -->
<g id="edge14" class="edge">
<title>Node15&#45;&gt;Node3</title>
<path fill="none" stroke="#63b8ff" d="M147.32,-744.5C172.91,-744.5 199.86,-744.5 219.73,-744.5"/>
<polygon fill="#63b8ff" stroke="#63b8ff" points="147.23,-741 137.23,-744.5 147.23,-748 147.23,-741"/>
</g>
<!-- Node16 -->
<g id="node26" class="node">
<title>Node16</title>
<g id="a_node26"><a xlink:href="interface_search_a_thing_1_1_open_g_l_1_1_core_1_1_i_g_l_primitive.html" target="_top" xlink:title="A primitive such a GLPoint, GLLine or GLTriangle can be added to a figure through its add method....">
<polygon fill="white" stroke="#666666" points="289.5,-939 212.5,-939 212.5,-920 289.5,-920 289.5,-939"/>
<text text-anchor="middle" x="251" y="-927" font-family="Helvetica,sans-Serif" font-size="10.00">IGLPrimitive</text>
</a>
</g>
</g>
<!-- Node15&#45;&gt;Node16 -->
<g id="edge23" class="edge">
<title>Node15&#45;&gt;Node16</title>
<path fill="none" stroke="#63b8ff" d="M86.03,-761.44C123.05,-799.38 211.65,-890.2 240.64,-919.91"/>
<polygon fill="#63b8ff" stroke="#63b8ff" points="88.44,-758.9 78.95,-754.19 83.43,-763.79 88.44,-758.9"/>
</g>
<!-- Node24 -->
<g id="node34" class="node">
<title>Node24</title>
<g id="a_node34"><a xlink:href="interface_search_a_thing_1_1_open_g_l_1_1_core_1_1_i_g_l_vertex.html" target="_top" xlink:title="Represent a vertex and its the base object managed by the GLVertexManager. &#160;Primitives such as GLPoin...">
<polygon fill="white" stroke="#666666" points="282.5,-699 219.5,-699 219.5,-680 282.5,-680 282.5,-699"/>
<text text-anchor="middle" x="251" y="-687" font-family="Helvetica,sans-Serif" font-size="10.00">IGLVertex</text>
</a>
</g>
</g>
<!-- Node15&#45;&gt;Node24 -->
<g id="edge34" class="edge">
<title>Node15&#45;&gt;Node24</title>
<path fill="none" stroke="#63b8ff" d="M110.75,-731.93C143.77,-721.87 189.33,-707.99 219.22,-698.88"/>
<polygon fill="#63b8ff" stroke="#63b8ff" points="109.49,-728.66 100.94,-734.92 111.53,-735.35 109.49,-728.66"/>
</g>
<!-- Node4 -->
<g id="node21" class="node">
<title>Node4</title>
<g id="a_node21"><a xlink:href="class_search_a_thing_1_1_open_g_l_1_1_core_1_1_g_l_figure_base.html" target="_top" xlink:title="Base abstract class for point, line, triangle figures.">
<polygon fill="white" stroke="#666666" points="496,-680 413,-680 413,-661 496,-661 496,-680"/>
<text text-anchor="middle" x="454.5" y="-668" font-family="Helvetica,sans-Serif" font-size="10.00">GLFigureBase</text>
</a>
</g>
</g>
<!-- Node3&#45;&gt;Node4 -->
<g id="edge15" class="edge">
<title>Node3&#45;&gt;Node4</title>
<path fill="none" stroke="#63b8ff" d="M281.75,-730.53C296.09,-723.71 313.5,-715.31 329,-707.5 345.16,-699.36 347.96,-694.59 365,-688.5 380.21,-683.07 397.5,-679.09 412.75,-676.28"/>
<polygon fill="#63b8ff" stroke="#63b8ff" points="279.91,-727.53 272.37,-734.97 282.9,-733.85 279.91,-727.53"/>
</g>
<!-- Node6 -->
<g id="node23" class="node">
<title>Node6</title>
<g id="a_node23"><a xlink:href="interface_search_a_thing_1_1_open_g_l_1_1_core_1_1_i_g_l_line_figure.html" target="_top" xlink:title="Specialization of IGLFigure for the type GLLine.">
<polygon fill="white" stroke="#666666" points="496,-754 413,-754 413,-735 496,-735 496,-754"/>
<text text-anchor="middle" x="454.5" y="-742" font-family="Helvetica,sans-Serif" font-size="10.00">IGLLineFigure</text>
</a>
</g>
</g>
<!-- Node3&#45;&gt;Node6 -->
<g id="edge17" class="edge">
<title>Node3&#45;&gt;Node6</title>
<path fill="none" stroke="#63b8ff" d="M292.48,-744.5C327.41,-744.5 377.62,-744.5 412.65,-744.5"/>
<polygon fill="#63b8ff" stroke="#63b8ff" points="292.17,-741 282.17,-744.5 292.17,-748 292.17,-741"/>
</g>
<!-- Node9 -->
<g id="node24" class="node">
<title>Node9</title>
<g id="a_node24"><a xlink:href="interface_search_a_thing_1_1_open_g_l_1_1_core_1_1_i_g_l_point_figure.html" target="_top" xlink:title="Specialization of IGLFigure for the type GLPoint.">
<polygon fill="white" stroke="#666666" points="498,-902 411,-902 411,-883 498,-883 498,-902"/>
<text text-anchor="middle" x="454.5" y="-890" font-family="Helvetica,sans-Serif" font-size="10.00">IGLPointFigure</text>
</a>
</g>
</g>
<!-- Node3&#45;&gt;Node9 -->
<g id="edge19" class="edge">
<title>Node3&#45;&gt;Node9</title>
<path fill="none" stroke="#63b8ff" d="M262.76,-763.07C280.31,-791.61 317.93,-845.83 365,-873.5 378.82,-881.62 395.67,-886.29 410.95,-888.96"/>
<polygon fill="#63b8ff" stroke="#63b8ff" points="265.55,-760.92 257.4,-754.14 259.54,-764.51 265.55,-760.92"/>
</g>
<!-- Node12 -->
<g id="node25" class="node">
<title>Node12</title>
<g id="a_node25"><a xlink:href="interface_search_a_thing_1_1_open_g_l_1_1_core_1_1_i_g_l_triangle_figure.html" target="_top" xlink:title="Specialization of IGLFigure for the type GLTriangle.">
<polygon fill="white" stroke="#666666" points="504.5,-828 404.5,-828 404.5,-809 504.5,-809 504.5,-828"/>
<text text-anchor="middle" x="454.5" y="-816" font-family="Helvetica,sans-Serif" font-size="10.00">IGLTriangleFigure</text>
</a>
</g>
</g>
<!-- Node3&#45;&gt;Node12 -->
<g id="edge21" class="edge">
<title>Node3&#45;&gt;Node12</title>
<path fill="none" stroke="#63b8ff" d="M277.16,-758.94C299.58,-771.26 333.6,-788.67 365,-799.5 377.48,-803.81 391.3,-807.33 404.23,-810.12"/>
<polygon fill="#63b8ff" stroke="#63b8ff" points="278.75,-755.82 268.31,-754 275.34,-761.93 278.75,-755.82"/>
</g>
<!-- Node5 -->
<g id="node22" class="node">
<title>Node5</title>
<g id="a_node22"><a xlink:href="class_search_a_thing_1_1_open_g_l_1_1_core_1_1_g_l_figure_type_base.html" target="_top" xlink:title="Template typed GLPrimitiveBase figure base operations such as Add and Remove primitives from the figu...">
<polygon fill="white" stroke="#666666" points="714,-680 580,-680 580,-661 714,-661 714,-680"/>
<text text-anchor="middle" x="647" y="-668" font-family="Helvetica,sans-Serif" font-size="10.00">GLFigureTypeBase&lt; P &gt;</text>
</a>
</g>
</g>
<!-- Node4&#45;&gt;Node5 -->
<g id="edge16" class="edge">
<title>Node4&#45;&gt;Node5</title>
<path fill="none" stroke="#63b8ff" d="M506.39,-670.5C528.9,-670.5 555.68,-670.5 579.73,-670.5"/>
<polygon fill="#63b8ff" stroke="#63b8ff" points="506.37,-667 496.37,-670.5 506.37,-674 506.37,-667"/>
</g>
<!-- Node6&#45;&gt;Node7 -->
<g id="edge18" class="edge">
<title>Node6&#45;&gt;Node7</title>
<path fill="none" stroke="#63b8ff" d="M506.7,-739.39C538.17,-736.25 577.87,-732.3 606.83,-729.41"/>
<polygon fill="#63b8ff" stroke="#63b8ff" points="505.97,-735.95 496.37,-740.42 506.67,-742.91 505.97,-735.95"/>
</g>
<!-- Node9&#45;&gt;Node10 -->
<g id="edge20" class="edge">
<title>Node9&#45;&gt;Node10</title>
<path fill="none" stroke="#63b8ff" d="M508.27,-887.24C538.71,-884.2 576.43,-880.44 604.7,-877.62"/>
<polygon fill="#63b8ff" stroke="#63b8ff" points="507.86,-883.76 498.25,-888.24 508.55,-890.73 507.86,-883.76"/>
</g>
<!-- Node12&#45;&gt;Node13 -->
<g id="edge22" class="edge">
<title>Node12&#45;&gt;Node13</title>
<path fill="none" stroke="#63b8ff" d="M514.64,-812.6C541.58,-809.91 573.04,-806.78 598.42,-804.25"/>
<polygon fill="#63b8ff" stroke="#63b8ff" points="514.16,-809.13 504.56,-813.61 514.86,-816.1 514.16,-809.13"/>
</g>
<!-- Node17 -->
<g id="node27" class="node">
<title>Node17</title>
<g id="a_node27"><a xlink:href="class_search_a_thing_1_1_open_g_l_1_1_core_1_1_g_l_primitive_base.html" target="_top" xlink:title=" ">
<polygon fill="white" stroke="#666666" points="503.5,-976 405.5,-976 405.5,-957 503.5,-957 503.5,-976"/>
<text text-anchor="middle" x="454.5" y="-964" font-family="Helvetica,sans-Serif" font-size="10.00">GLPrimitiveBase</text>
</a>
</g>
</g>
<!-- Node16&#45;&gt;Node17 -->
<g id="edge24" class="edge">
<title>Node16&#45;&gt;Node17</title>
<path fill="none" stroke="#63b8ff" d="M299.88,-938.29C331.77,-944.15 373.52,-951.81 405.44,-957.68"/>
<polygon fill="#63b8ff" stroke="#63b8ff" points="300.37,-934.82 289.9,-936.46 299.1,-941.71 300.37,-934.82"/>
</g>
<!-- Node19 -->
<g id="node31" class="node">
<title>Node19</title>
<g id="a_node31"><a xlink:href="interface_search_a_thing_1_1_open_g_l_1_1_core_1_1_i_g_l_line.html" target="_top" xlink:title="Primitive for the GL_LINES opengl element.">
<polygon fill="white" stroke="#666666" points="481,-1050 428,-1050 428,-1031 481,-1031 481,-1050"/>
<text text-anchor="middle" x="454.5" y="-1038" font-family="Helvetica,sans-Serif" font-size="10.00">IGLLine</text>
</a>
</g>
</g>
<!-- Node16&#45;&gt;Node19 -->
<g id="edge28" class="edge">
<title>Node16&#45;&gt;Node19</title>
<path fill="none" stroke="#63b8ff" d="M299.78,-933.78C310.23,-936.5 320.64,-940.79 329,-947.5 357.83,-970.65 335.84,-999.77 365,-1022.5 382.81,-1036.38 408.59,-1040.34 427.73,-1041.15"/>
<polygon fill="#63b8ff" stroke="#63b8ff" points="300.33,-930.32 289.82,-931.62 298.85,-937.16 300.33,-930.32"/>
</g>
<!-- Node21 -->
<g id="node32" class="node">
<title>Node21</title>
<g id="a_node32"><a xlink:href="interface_search_a_thing_1_1_open_g_l_1_1_core_1_1_i_g_l_point.html" target="_top" xlink:title="Primitive for GL_POINTS opengl element.">
<polygon fill="white" stroke="#666666" points="483,-1013 426,-1013 426,-994 483,-994 483,-1013"/>
<text text-anchor="middle" x="454.5" y="-1001" font-family="Helvetica,sans-Serif" font-size="10.00">IGLPoint</text>
</a>
</g>
</g>
<!-- Node16&#45;&gt;Node21 -->
<g id="edge30" class="edge">
<title>Node16&#45;&gt;Node21</title>
<path fill="none" stroke="#63b8ff" d="M299.65,-936.08C309.76,-938.71 320.07,-942.37 329,-947.5 349.18,-959.08 344.66,-974.21 365,-985.5 383.65,-995.85 407.46,-1000.28 425.68,-1002.16"/>
<polygon fill="#63b8ff" stroke="#63b8ff" points="300.2,-932.62 289.67,-933.79 298.63,-939.44 300.2,-932.62"/>
</g>
<!-- Node23 -->
<g id="node33" class="node">
<title>Node23</title>
<g id="a_node33"><a xlink:href="interface_search_a_thing_1_1_open_g_l_1_1_core_1_1_i_g_l_triangle.html" target="_top" xlink:title="Primitive for GL_TRIANGLES opengl element.">
<polygon fill="white" stroke="#666666" points="489.5,-939 419.5,-939 419.5,-920 489.5,-920 489.5,-939"/>
<text text-anchor="middle" x="454.5" y="-927" font-family="Helvetica,sans-Serif" font-size="10.00">IGLTriangle</text>
</a>
</g>
</g>
<!-- Node16&#45;&gt;Node23 -->
<g id="edge32" class="edge">
<title>Node16&#45;&gt;Node23</title>
<path fill="none" stroke="#63b8ff" d="M299.91,-929.5C336.72,-929.5 386.66,-929.5 419.46,-929.5"/>
<polygon fill="#63b8ff" stroke="#63b8ff" points="299.9,-926 289.9,-929.5 299.9,-933 299.9,-926"/>
</g>
<!-- Node18 -->
<g id="node28" class="node">
<title>Node18</title>
<g id="a_node28"><a xlink:href="class_search_a_thing_1_1_open_g_l_1_1_core_1_1_g_l_line.html" target="_top" xlink:title="Opengl line primitive.">
<polygon fill="white" stroke="#666666" points="672,-1045 622,-1045 622,-1026 672,-1026 672,-1045"/>
<text text-anchor="middle" x="647" y="-1033" font-family="Helvetica,sans-Serif" font-size="10.00">GLLine</text>
</a>
</g>
</g>
<!-- Node17&#45;&gt;Node18 -->
<g id="edge25" class="edge">
<title>Node17&#45;&gt;Node18</title>
<path fill="none" stroke="#63b8ff" d="M513.57,-975.85C523.9,-978.39 534.42,-981.56 544,-985.5 561.56,-992.72 563.15,-999.76 580,-1008.5 593.41,-1015.45 609.03,-1021.91 621.7,-1026.77"/>
<polygon fill="#63b8ff" stroke="#63b8ff" points="514.28,-972.43 503.75,-973.61 512.72,-979.25 514.28,-972.43"/>
</g>
<!-- Node20 -->
<g id="node29" class="node">
<title>Node20</title>
<g id="a_node29"><a xlink:href="class_search_a_thing_1_1_open_g_l_1_1_core_1_1_g_l_point.html" target="_top" xlink:title=" ">
<polygon fill="white" stroke="#666666" points="674,-999 620,-999 620,-980 674,-980 674,-999"/>
<text text-anchor="middle" x="647" y="-987" font-family="Helvetica,sans-Serif" font-size="10.00">GLPoint</text>
</a>
</g>
</g>
<!-- Node17&#45;&gt;Node20 -->
<g id="edge26" class="edge">
<title>Node17&#45;&gt;Node20</title>
<path fill="none" stroke="#63b8ff" d="M513.81,-973.54C549.25,-977.82 592.76,-983.07 619.94,-986.35"/>
<polygon fill="#63b8ff" stroke="#63b8ff" points="513.92,-970.03 503.57,-972.3 513.08,-976.98 513.92,-970.03"/>
</g>
<!-- Node22 -->
<g id="node30" class="node">
<title>Node22</title>
<g id="a_node30"><a xlink:href="class_search_a_thing_1_1_open_g_l_1_1_core_1_1_g_l_triangle.html" target="_top" xlink:title=" ">
<polygon fill="white" stroke="#666666" points="680.5,-944 613.5,-944 613.5,-925 680.5,-925 680.5,-944"/>
<text text-anchor="middle" x="647" y="-932" font-family="Helvetica,sans-Serif" font-size="10.00">GLTriangle</text>
</a>
</g>
</g>
<!-- Node17&#45;&gt;Node22 -->
<g id="edge27" class="edge">
<title>Node17&#45;&gt;Node22</title>
<path fill="none" stroke="#63b8ff" d="M513.48,-956.76C546.19,-951.27 585.87,-944.6 613.23,-940"/>
<polygon fill="#63b8ff" stroke="#63b8ff" points="512.85,-953.32 503.57,-958.43 514.01,-960.22 512.85,-953.32"/>
</g>
<!-- Node19&#45;&gt;Node18 -->
<g id="edge29" class="edge">
<title>Node19&#45;&gt;Node18</title>
<path fill="none" stroke="#63b8ff" d="M491.36,-1039.56C529.56,-1038.56 588.96,-1037 621.92,-1036.13"/>
<polygon fill="#63b8ff" stroke="#63b8ff" points="491.1,-1036.06 481.19,-1039.83 491.28,-1043.06 491.1,-1036.06"/>
</g>
<!-- Node21&#45;&gt;Node20 -->
<g id="edge31" class="edge">
<title>Node21&#45;&gt;Node20</title>
<path fill="none" stroke="#63b8ff" d="M493.22,-1000.73C530.64,-997.98 587.01,-993.83 619.8,-991.43"/>
<polygon fill="#63b8ff" stroke="#63b8ff" points="492.92,-997.24 483.2,-1001.46 493.43,-1004.22 492.92,-997.24"/>
</g>
<!-- Node23&#45;&gt;Node22 -->
<g id="edge33" class="edge">
<title>Node23&#45;&gt;Node22</title>
<path fill="none" stroke="#63b8ff" d="M499.87,-930.66C534.53,-931.57 581.9,-932.82 613.19,-933.64"/>
<polygon fill="#63b8ff" stroke="#63b8ff" points="499.65,-927.16 489.56,-930.39 499.46,-934.16 499.65,-927.16"/>
</g>
<!-- Node25 -->
<g id="node35" class="node">
<title>Node25</title>
<g id="a_node35"><a xlink:href="class_search_a_thing_1_1_open_g_l_1_1_core_1_1_g_l_vertex.html" target="_top" xlink:title=" ">
<polygon fill="white" stroke="#666666" points="484.5,-643 424.5,-643 424.5,-624 484.5,-624 484.5,-643"/>
<text text-anchor="middle" x="454.5" y="-631" font-family="Helvetica,sans-Serif" font-size="10.00">GLVertex</text>
</a>
</g>
</g>
<!-- Node24&#45;&gt;Node25 -->
<g id="edge35" class="edge">
<title>Node24&#45;&gt;Node25</title>
<path fill="none" stroke="#63b8ff" d="M292.28,-681.52C304.28,-678.62 317.34,-674.94 329,-670.5 345.91,-664.06 347.96,-657.59 365,-651.5 384.19,-644.64 406.72,-640.11 424.24,-637.31"/>
<polygon fill="#63b8ff" stroke="#63b8ff" points="291.47,-678.11 282.51,-683.77 293.04,-684.93 291.47,-678.11"/>
</g>
<!-- Node2 -->
<g id="node36" class="node">
<title>Node2</title>
<g id="a_node36"><a xlink:title=" ">
<polygon fill="#e0e0e0" stroke="#999999" points="135,-530 2,-530 2,-511 135,-511 135,-530"/>
<text text-anchor="middle" x="68.5" y="-518" font-family="Helvetica,sans-Serif" font-size="10.00">INotifyPropertyChanged</text>
</a>
</g>
</g>
<!-- Node2&#45;&gt;Node1 -->
<g id="edge41" class="edge">
<title>Node2&#45;&gt;Node1</title>
<path fill="none" stroke="#63b8ff" d="M77.02,-539.87C90.74,-575.9 120.01,-655.89 137,-725.5 160.7,-822.6 105.25,-874.01 173,-947.5 179.53,-954.59 188.25,-959.22 197.47,-962.21"/>
<polygon fill="#63b8ff" stroke="#63b8ff" points="80.14,-538.24 73.29,-530.16 73.6,-540.75 80.14,-538.24"/>
</g>
<!-- Node2&#45;&gt;Node38 -->
<g id="edge48" class="edge">
<title>Node2&#45;&gt;Node38</title>
<path fill="none" stroke="#63b8ff" d="M77.41,-501.13C90.09,-470.03 115.7,-407.05 137,-353.5 153.23,-312.7 139.81,-290.24 173,-261.5 186.28,-250 205.53,-245.5 221.46,-243.87"/>
<polygon fill="#63b8ff" stroke="#63b8ff" points="74.03,-500.15 73.49,-510.73 80.51,-502.79 74.03,-500.15"/>
</g>
<!-- Node2&#45;&gt;Node3 -->
<g id="edge36" class="edge">
<title>Node2&#45;&gt;Node3</title>
<path fill="none" stroke="#63b8ff" d="M75.77,-540C88.56,-577.06 120.94,-658.35 173,-707.5 186.27,-720.02 204.56,-729.05 219.99,-735.06"/>
<polygon fill="#63b8ff" stroke="#63b8ff" points="79.04,-538.76 72.55,-530.39 72.41,-540.98 79.04,-538.76"/>
</g>
<!-- Node2&#45;&gt;Node16 -->
<g id="edge37" class="edge">
<title>Node2&#45;&gt;Node16</title>
<path fill="none" stroke="#63b8ff" d="M77.43,-539.54C94.53,-580.49 136.31,-679.91 173,-762.5 199.7,-822.6 233.29,-894.11 245.39,-919.76"/>
<polygon fill="#63b8ff" stroke="#63b8ff" points="80.62,-538.11 73.54,-530.22 74.16,-540.8 80.62,-538.11"/>
</g>
<!-- Node2&#45;&gt;Node24 -->
<g id="edge38" class="edge">
<title>Node2&#45;&gt;Node24</title>
<path fill="none" stroke="#63b8ff" d="M77.22,-539.59C91.26,-571.8 124.11,-636.74 173,-670.5 186.6,-679.89 204.36,-684.65 219.41,-687.06"/>
<polygon fill="#63b8ff" stroke="#63b8ff" points="80.29,-537.87 73.18,-530.01 73.84,-540.59 80.29,-537.87"/>
</g>
<!-- Node26 -->
<g id="node37" class="node">
<title>Node26</title>
<g id="a_node37"><a xlink:href="interface_search_a_thing_1_1_open_g_l_1_1_core_1_1_i_g_l_vertex_manager.html" target="_top" xlink:title="Vertex manager primary purpose is to keep a linear sequence of distinct GLVertexStruct structs that w...">
<polygon fill="white" stroke="#666666" points="304,-512 198,-512 198,-493 304,-493 304,-512"/>
<text text-anchor="middle" x="251" y="-500" font-family="Helvetica,sans-Serif" font-size="10.00">IGLVertexManager</text>
</a>
</g>
</g>
<!-- Node2&#45;&gt;Node26 -->
<g id="edge39" class="edge">
<title>Node2&#45;&gt;Node26</title>
<path fill="none" stroke="#63b8ff" d="M145.47,-512.92C163.15,-511.16 181.58,-509.32 197.95,-507.69"/>
<polygon fill="#63b8ff" stroke="#63b8ff" points="144.78,-509.48 135.18,-513.95 145.47,-516.44 144.78,-509.48"/>
</g>
<!-- Node28 -->
<g id="node39" class="node">
<title>Node28</title>
<g id="a_node39"><a xlink:href="class_search_a_thing_1_1_open_g_l_1_1_g_u_i_1_1_g_l_dev_tool.html" target="_top" xlink:title="Developer tool to inspect vertex manager at runtime.">
<polygon fill="white" stroke="#666666" points="285,-327 217,-327 217,-308 285,-308 285,-327"/>
<text text-anchor="middle" x="251" y="-315" font-family="Helvetica,sans-Serif" font-size="10.00">GLDevTool</text>
</a>
</g>
</g>
<!-- Node2&#45;&gt;Node28 -->
<g id="edge42" class="edge">
<title>Node2&#45;&gt;Node28</title>
<path fill="none" stroke="#63b8ff" d="M74.76,-500.68C85.97,-462.42 115.99,-378.4 173,-335.5 185.5,-326.09 202.14,-321.49 216.75,-319.28"/>
<polygon fill="#63b8ff" stroke="#63b8ff" points="71.31,-500.01 71.98,-510.58 78.05,-501.9 71.31,-500.01"/>
</g>
<!-- Node31 -->
<g id="node40" class="node">
<title>Node31</title>
<g id="a_node40"><a xlink:href="class_search_a_thing_1_1_open_g_l_1_1_g_u_i_1_1_g_l_view.html" target="_top" xlink:title="Avalonia control that hold a grRoot grid inside of which take place a title and an AvaloniaGLControl....">
<polygon fill="white" stroke="#666666" points="277.5,-290 224.5,-290 224.5,-271 277.5,-271 277.5,-290"/>
<text text-anchor="middle" x="251" y="-278" font-family="Helvetica,sans-Serif" font-size="10.00">GLView</text>
</a>
</g>
</g>
<!-- Node2&#45;&gt;Node31 -->
<g id="edge43" class="edge">
<title>Node2&#45;&gt;Node31</title>
<path fill="none" stroke="#63b8ff" d="M77.32,-501.28C98.39,-449.92 155.86,-312.42 173,-298.5 187.39,-286.82 208.01,-282.45 224.3,-280.93"/>
<polygon fill="#63b8ff" stroke="#63b8ff" points="73.95,-500.28 73.41,-510.86 80.43,-502.92 73.95,-500.28"/>
</g>
<!-- Node30 -->
<g id="node41" class="node">
<title>Node30</title>
<g id="a_node41"><a xlink:href="class_search_a_thing_1_1_open_g_l_1_1_g_u_i_1_1_g_l_window.html" target="_top" xlink:title="Used in stand&#45;alone application types ( console programs ) to create an application gl window....">
<polygon fill="white" stroke="#666666" points="285,-364 217,-364 217,-345 285,-345 285,-364"/>
<text text-anchor="middle" x="251" y="-352" font-family="Helvetica,sans-Serif" font-size="10.00">GLWindow</text>
</a>
</g>
</g>
<!-- Node2&#45;&gt;Node30 -->
<g id="edge44" class="edge">
<title>Node2&#45;&gt;Node30</title>
<path fill="none" stroke="#63b8ff" d="M77.45,-501.14C91.64,-469.1 124.48,-405.35 173,-372.5 185.85,-363.8 202.35,-359.28 216.79,-356.93"/>
<polygon fill="#63b8ff" stroke="#63b8ff" points="74.08,-500.13 73.36,-510.7 80.51,-502.88 74.08,-500.13"/>
</g>
<!-- Node33 -->
<g id="node42" class="node">
<title>Node33</title>
<g id="a_node42"><a xlink:href="class_search_a_thing_1_1_open_g_l_1_1_g_u_i_1_1_vector3_wrap.html" target="_top" xlink:title="Wrap X,Y,Z components of an object containing a INotifyPropertyChanged vector3.">
<polygon fill="white" stroke="#666666" points="290.5,-549 211.5,-549 211.5,-530 290.5,-530 290.5,-549"/>
<text text-anchor="middle" x="251" y="-537" font-family="Helvetica,sans-Serif" font-size="10.00">Vector3Wrap</text>
</a>
</g>
</g>
<!-- Node2&#45;&gt;Node33 -->
<g id="edge45" class="edge">
<title>Node2&#45;&gt;Node33</title>
<path fill="none" stroke="#63b8ff" d="M145.2,-528.47C168.01,-530.87 192.1,-533.4 211.42,-535.44"/>
<polygon fill="#63b8ff" stroke="#63b8ff" points="145.49,-524.98 135.18,-527.41 144.75,-531.94 145.49,-524.98"/>
</g>
<!-- Node34 -->
<g id="node43" class="node">
<title>Node34</title>
<g id="a_node43"><a xlink:href="class_search_a_thing_1_1_open_g_l_1_1_render_1_1_dummy_render_device.html" target="_top" xlink:title="A render device that doesn&#39;t write GL pixel anywhere. &#160;This object can be used for testing purpouse.">
<polygon fill="white" stroke="#666666" points="516.5,-569 392.5,-569 392.5,-550 516.5,-550 516.5,-569"/>
<text text-anchor="middle" x="454.5" y="-557" font-family="Helvetica,sans-Serif" font-size="10.00">DummyRenderDevice</text>
</a>
</g>
</g>
<!-- Node2&#45;&gt;Node34 -->
<g id="edge46" class="edge">
<title>Node2&#45;&gt;Node34</title>
<path fill="none" stroke="#63b8ff" d="M99.27,-534.17C119.57,-542.72 147.32,-552.95 173,-557.5 247.57,-570.7 335.04,-568.6 392.23,-564.92"/>
<polygon fill="#63b8ff" stroke="#63b8ff" points="100.52,-530.89 89.95,-530.13 97.74,-537.31 100.52,-530.89"/>
</g>
<!-- Node37 -->
<g id="node44" class="node">
<title>Node37</title>
<g id="a_node44"><a xlink:href="class_search_a_thing_1_1_open_g_l_1_1_render_1_1_g_l_control.html" target="_top" xlink:title="Provides basic opengl abstraction to create entities such as GLPoint, GLLine and GLTriangle....">
<polygon fill="white" stroke="#666666" points="283.5,-475 218.5,-475 218.5,-456 283.5,-456 283.5,-475"/>
<text text-anchor="middle" x="251" y="-463" font-family="Helvetica,sans-Serif" font-size="10.00">GLControl</text>
</a>
</g>
</g>
<!-- Node2&#45;&gt;Node37 -->
<g id="edge47" class="edge">
<title>Node2&#45;&gt;Node37</title>
<path fill="none" stroke="#63b8ff" d="M103.53,-507.23C123.57,-499.7 149.51,-490.42 173,-483.5 187.75,-479.16 204.33,-475.17 218.32,-472.05"/>
<polygon fill="#63b8ff" stroke="#63b8ff" points="102.02,-504.06 93.92,-510.88 104.51,-510.6 102.02,-504.06"/>
</g>
<!-- Node48 -->
<g id="node45" class="node">
<title>Node48</title>
<g id="a_node45"><a xlink:href="class_search_a_thing_1_1_open_g_l_1_1_render_1_1_g_l_point_light.html" target="_top" xlink:title="Gl point light.">
<polygon fill="white" stroke="#666666" points="290,-438 212,-438 212,-419 290,-419 290,-438"/>
<text text-anchor="middle" x="251" y="-426" font-family="Helvetica,sans-Serif" font-size="10.00">GLPointLight</text>
</a>
</g>
</g>
<!-- Node2&#45;&gt;Node48 -->
<g id="edge49" class="edge">
<title>Node2&#45;&gt;Node48</title>
<path fill="none" stroke="#63b8ff" d="M87.34,-504.37C106.96,-487.49 140.07,-461.41 173,-446.5 185.13,-441.01 199.12,-437.09 211.83,-434.35"/>
<polygon fill="#63b8ff" stroke="#63b8ff" points="85.01,-501.76 79.8,-510.98 89.63,-507.02 85.01,-501.76"/>
</g>
<!-- Node49 -->
<g id="node46" class="node">
<title>Node49</title>
<g id="a_node46"><a xlink:href="class_search_a_thing_1_1_open_g_l_1_1_render_1_1_g_l_text.html" target="_top" xlink:title="Gl text object.">
<polygon fill="white" stroke="#666666" points="275.5,-401 226.5,-401 226.5,-382 275.5,-382 275.5,-401"/>
<text text-anchor="middle" x="251" y="-389" font-family="Helvetica,sans-Serif" font-size="10.00">GLText</text>
</a>
</g>
</g>
<!-- Node2&#45;&gt;Node49 -->
<g id="edge50" class="edge">
<title>Node2&#45;&gt;Node49</title>
<path fill="none" stroke="#63b8ff" d="M81.36,-502.14C98.48,-477.16 132.57,-432.92 173,-409.5 189.39,-400 210.49,-395.52 226.45,-393.4"/>
<polygon fill="#63b8ff" stroke="#63b8ff" points="78.29,-500.42 75.65,-510.68 84.11,-504.31 78.29,-500.42"/>
</g>
<!-- Node35 -->
<g id="node47" class="node">
<title>Node35</title>
<g id="a_node47"><a xlink:href="interface_search_a_thing_1_1_open_g_l_1_1_render_1_1_i_render_device.html" target="_top" xlink:title="A render device will read pixels from given gl context through ReadPixels and write to an appropriate...">
<polygon fill="white" stroke="#666666" points="295,-662 207,-662 207,-643 295,-643 295,-662"/>
<text text-anchor="middle" x="251" y="-650" font-family="Helvetica,sans-Serif" font-size="10.00">IRenderDevice</text>
</a>
</g>
</g>
<!-- Node2&#45;&gt;Node35 -->
<g id="edge51" class="edge">
<title>Node2&#45;&gt;Node35</title>
<path fill="none" stroke="#63b8ff" d="M81.06,-538.75C98.06,-564.03 132.22,-609.3 173,-633.5 183.18,-639.54 195.21,-643.67 206.7,-646.49"/>
<polygon fill="#63b8ff" stroke="#63b8ff" points="83.82,-536.57 75.41,-530.13 77.97,-540.41 83.82,-536.57"/>
</g>
<!-- Node50 -->
<g id="node49" class="node">
<title>Node50</title>
<g id="a_node49"><a xlink:href="class_search_a_thing_1_1_open_g_l_1_1_render_1_1_point_transform_nfo.html" target="_top" xlink:title="Helper class used by SearchAThing.OpenGL.GUI.GLDevTool. &#160;Given the vertex, size, gl matrixes it will ...">
<polygon fill="white" stroke="#666666" points="304.5,-625 197.5,-625 197.5,-606 304.5,-606 304.5,-625"/>
<text text-anchor="middle" x="251" y="-613" font-family="Helvetica,sans-Serif" font-size="10.00">PointTransformNfo</text>
</a>
</g>
</g>
<!-- Node2&#45;&gt;Node50 -->
<g id="edge54" class="edge">
<title>Node2&#45;&gt;Node50</title>
<path fill="none" stroke="#63b8ff" d="M88.91,-536.46C108.93,-552.27 141.58,-576.25 173,-591.5 185.09,-597.37 198.95,-602.21 211.54,-605.97"/>
<polygon fill="#63b8ff" stroke="#63b8ff" points="90.89,-533.56 80.9,-530.04 86.51,-539.02 90.89,-533.56"/>
</g>
<!-- Node27 -->
<g id="node38" class="node">
<title>Node27</title>
<g id="a_node38"><a xlink:href="class_search_a_thing_1_1_open_g_l_1_1_core_1_1_g_l_vertex_manager.html" target="_top" xlink:title=" ">
<polygon fill="white" stroke="#666666" points="506,-512 403,-512 403,-493 506,-493 506,-512"/>
<text text-anchor="middle" x="454.5" y="-500" font-family="Helvetica,sans-Serif" font-size="10.00">GLVertexManager</text>
</a>
</g>
</g>
<!-- Node26&#45;&gt;Node27 -->
<g id="edge40" class="edge">
<title>Node26&#45;&gt;Node27</title>
<path fill="none" stroke="#63b8ff" d="M314.4,-502.5C342.85,-502.5 376.1,-502.5 402.96,-502.5"/>
<polygon fill="#63b8ff" stroke="#63b8ff" points="314.15,-499 304.15,-502.5 314.15,-506 314.15,-499"/>
</g>
<!-- Node35&#45;&gt;Node34 -->
<g id="edge52" class="edge">
<title>Node35&#45;&gt;Node34</title>
<path fill="none" stroke="#63b8ff" d="M304.9,-645.11C313.45,-642.37 321.84,-638.62 329,-633.5 353.07,-616.29 340.58,-594.21 365,-577.5 373.15,-571.92 382.65,-568 392.34,-565.26"/>
<polygon fill="#63b8ff" stroke="#63b8ff" points="303.92,-641.75 295.22,-647.8 305.8,-648.49 303.92,-641.75"/>
</g>
<!-- Node36 -->
<g id="node48" class="node">
<title>Node36</title>
<g id="a_node48"><a xlink:href="class_search_a_thing_1_1_open_g_l_1_1_render_1_1_offscreen_render_device.html" target="_top" xlink:title="Render device for offscreen mode that acts as a bitmap file writer.">
<polygon fill="white" stroke="#666666" points="520,-606 389,-606 389,-587 520,-587 520,-606"/>
<text text-anchor="middle" x="454.5" y="-594" font-family="Helvetica,sans-Serif" font-size="10.00">OffscreenRenderDevice</text>
</a>
</g>
</g>
<!-- Node35&#45;&gt;Node36 -->
<g id="edge53" class="edge">
<title>Node35&#45;&gt;Node36</title>
<path fill="none" stroke="#63b8ff" d="M305.12,-641.2C313.22,-638.96 321.41,-636.39 329,-633.5 345.91,-627.06 347.96,-620.59 365,-614.5 374.3,-611.18 384.39,-608.4 394.3,-606.1"/>
<polygon fill="#63b8ff" stroke="#63b8ff" points="304.12,-637.84 295.33,-643.77 305.89,-644.61 304.12,-637.84"/>
</g>
<!-- Node51 -->
<g id="node50" class="node">
<title>Node51</title>
<g id="a_node50"><a xlink:title=" ">
<polygon fill="#e0e0e0" stroke="#999999" points="112.5,-994 24.5,-994 24.5,-975 112.5,-975 112.5,-994"/>
<text text-anchor="middle" x="68.5" y="-982" font-family="Helvetica,sans-Serif" font-size="10.00">IRenderDevice</text>
</a>
</g>
</g>
<!-- Node51&#45;&gt;Node1 -->
<g id="edge55" class="edge">
<title>Node51&#45;&gt;Node1</title>
<path fill="none" stroke="#63b8ff" d="M122.89,-979.18C146.44,-976.83 174.02,-974.08 197.46,-971.74"/>
<polygon fill="#63b8ff" stroke="#63b8ff" points="122.34,-975.71 112.73,-980.19 123.03,-982.68 122.34,-975.71"/>
</g>
<!-- Node32 -->
<g id="node51" class="node">
<title>Node32</title>
<g id="a_node51"><a xlink:title=" ">
<polygon fill="#e0e0e0" stroke="#999999" points="105.5,-290 31.5,-290 31.5,-271 105.5,-271 105.5,-290"/>
<text text-anchor="middle" x="68.5" y="-278" font-family="Helvetica,sans-Serif" font-size="10.00">UserControl</text>
</a>
</g>
</g>
<!-- Node32&#45;&gt;Node31 -->
<g id="edge56" class="edge">
<title>Node32&#45;&gt;Node31</title>
<path fill="none" stroke="#63b8ff" d="M115.92,-280.5C150.45,-280.5 196.3,-280.5 224.45,-280.5"/>
<polygon fill="#63b8ff" stroke="#63b8ff" points="115.59,-277 105.59,-280.5 115.59,-284 115.59,-277"/>
</g>
<!-- Node29 -->
<g id="node52" class="node">
<title>Node29</title>
<g id="a_node52"><a xlink:title=" ">
<polygon fill="#e0e0e0" stroke="#999999" points="96.5,-345 40.5,-345 40.5,-326 96.5,-326 96.5,-345"/>
<text text-anchor="middle" x="68.5" y="-333" font-family="Helvetica,sans-Serif" font-size="10.00">Window</text>
</a>
</g>
</g>
<!-- Node29&#45;&gt;Node28 -->
<g id="edge57" class="edge">
<title>Node29&#45;&gt;Node28</title>
<path fill="none" stroke="#63b8ff" d="M106.52,-331.81C138.99,-328.57 185.75,-323.91 216.96,-320.79"/>
<polygon fill="#63b8ff" stroke="#63b8ff" points="106.13,-328.33 96.52,-332.81 106.82,-335.3 106.13,-328.33"/>
</g>
<!-- Node29&#45;&gt;Node30 -->
<g id="edge58" class="edge">
<title>Node29&#45;&gt;Node30</title>
<path fill="none" stroke="#63b8ff" d="M106.52,-339.4C138.99,-342.81 185.75,-347.74 216.96,-351.02"/>
<polygon fill="#63b8ff" stroke="#63b8ff" points="106.83,-335.91 96.52,-338.34 106.1,-342.87 106.83,-335.91"/>
</g>
</g>
</svg>
