<?xml version="1.0" encoding="UTF-8" standalone="no"?>
<!DOCTYPE svg PUBLIC "-//W3C//DTD SVG 1.1//EN"
 "http://www.w3.org/Graphics/SVG/1.1/DTD/svg11.dtd">
<!-- Generated by graphviz version 2.43.0 (0)
 -->
<!-- Title: Graphical Class Hierarchy Pages: 1 -->
<svg width="261pt" height="138pt"
 viewBox="0.00 0.00 261.00 138.00" xmlns="http://www.w3.org/2000/svg" xmlns:xlink="http://www.w3.org/1999/xlink">
<g id="graph0" class="graph" transform="scale(1 1) rotate(0) translate(4 134)">
<title>Graphical Class Hierarchy</title>
<!-- Node0 -->
<g id="node1" class="node">
<title>Node0</title>
<g id="a_node1"><a xlink:title=" ">
<polygon fill="#e0e0e0" stroke="#999999" points="95,-74 0,-74 0,-55 95,-55 95,-74"/>
<text text-anchor="middle" x="47.5" y="-62" font-family="Helvetica,sans-Serif" font-size="10.00">IValueConverter</text>
</a>
</g>
</g>
<!-- Node1 -->
<g id="node2" class="node">
<title>Node1</title>
<g id="a_node2"><a xlink:href="class_search_a_thing_1_1_open_g_l_1_1_g_u_i_1_1_vector2_text_converter.html" target="_top" xlink:title="Converter to allow text editing of vector2 components.">
<polygon fill="white" stroke="#666666" points="253,-130 131,-130 131,-111 253,-111 253,-130"/>
<text text-anchor="middle" x="192" y="-118" font-family="Helvetica,sans-Serif" font-size="10.00">Vector2TextConverter</text>
</a>
</g>
</g>
<!-- Node0&#45;&gt;Node1 -->
<g id="edge1" class="edge">
<title>Node0&#45;&gt;Node1</title>
<path fill="none" stroke="#63b8ff" d="M76.39,-78.53C92.18,-86.18 112.43,-95.48 131,-102.5 139.04,-105.54 147.83,-108.42 156.14,-110.94"/>
<polygon fill="#63b8ff" stroke="#63b8ff" points="77.7,-75.28 67.18,-74.02 74.62,-81.56 77.7,-75.28"/>
</g>
<!-- Node2 -->
<g id="node3" class="node">
<title>Node2</title>
<g id="a_node3"><a xlink:href="class_search_a_thing_1_1_open_g_l_1_1_g_u_i_1_1_vector3_edit_converter.html" target="_top" xlink:title="Converter that create a Vector3Wrap vector3 wrapper that can be used for interactive editing of vecto...">
<polygon fill="white" stroke="#666666" points="252,-93 132,-93 132,-74 252,-74 252,-93"/>
<text text-anchor="middle" x="192" y="-81" font-family="Helvetica,sans-Serif" font-size="10.00">Vector3EditConverter</text>
</a>
</g>
</g>
<!-- Node0&#45;&gt;Node2 -->
<g id="edge2" class="edge">
<title>Node0&#45;&gt;Node2</title>
<path fill="none" stroke="#63b8ff" d="M105.23,-72.06C113.95,-73.23 122.98,-74.43 131.75,-75.6"/>
<polygon fill="#63b8ff" stroke="#63b8ff" points="105.53,-68.57 95.16,-70.72 104.61,-75.51 105.53,-68.57"/>
</g>
<!-- Node3 -->
<g id="node4" class="node">
<title>Node3</title>
<g id="a_node4"><a xlink:href="class_search_a_thing_1_1_open_g_l_1_1_g_u_i_1_1_vector3_text_converter.html" target="_top" xlink:title="Converter to allow text editing of vector3 components.">
<polygon fill="white" stroke="#666666" points="253,-56 131,-56 131,-37 253,-37 253,-56"/>
<text text-anchor="middle" x="192" y="-44" font-family="Helvetica,sans-Serif" font-size="10.00">Vector3TextConverter</text>
</a>
</g>
</g>
<!-- Node0&#45;&gt;Node3 -->
<g id="edge3" class="edge">
<title>Node0&#45;&gt;Node3</title>
<path fill="none" stroke="#63b8ff" d="M105.29,-57.33C113.74,-56.26 122.48,-55.16 130.99,-54.08"/>
<polygon fill="#63b8ff" stroke="#63b8ff" points="104.64,-53.88 95.16,-58.61 105.52,-60.83 104.64,-53.88"/>
</g>
<!-- Node4 -->
<g id="node5" class="node">
<title>Node4</title>
<g id="a_node5"><a xlink:href="class_search_a_thing_1_1_open_g_l_1_1_g_u_i_1_1_vector4_text_converter.html" target="_top" xlink:title="Converter to allow text editing of vector4 components.">
<polygon fill="white" stroke="#666666" points="253,-19 131,-19 131,0 253,0 253,-19"/>
<text text-anchor="middle" x="192" y="-7" font-family="Helvetica,sans-Serif" font-size="10.00">Vector4TextConverter</text>
</a>
</g>
</g>
<!-- Node0&#45;&gt;Node4 -->
<g id="edge4" class="edge">
<title>Node0&#45;&gt;Node4</title>
<path fill="none" stroke="#63b8ff" d="M78.08,-50.7C93.66,-43.65 113.19,-35.18 131,-28.5 139.9,-25.16 149.68,-21.9 158.71,-19.04"/>
<polygon fill="#63b8ff" stroke="#63b8ff" points="76.58,-47.53 68.94,-54.87 79.49,-53.9 76.58,-47.53"/>
</g>
</g>
</svg>
