<?xml version="1.0" encoding="UTF-8" standalone="no"?>
<!DOCTYPE svg PUBLIC "-//W3C//DTD SVG 1.1//EN"
 "http://www.w3.org/Graphics/SVG/1.1/DTD/svg11.dtd">
<!-- Generated by graphviz version 2.43.0 (0)
 -->
<!-- Title: Graphical Class Hierarchy Pages: 1 -->
<svg width="277pt" height="212pt"
 viewBox="0.00 0.00 277.00 212.00" xmlns="http://www.w3.org/2000/svg" xmlns:xlink="http://www.w3.org/1999/xlink">
<g id="graph0" class="graph" transform="scale(1 1) rotate(0) translate(4 208)">
<title>Graphical Class Hierarchy</title>
<!-- Node0 -->
<g id="node1" class="node">
<title>Node0</title>
<g id="a_node1"><a xlink:title=" ">
<polygon fill="#e0e0e0" stroke="#999999" points="95,-111 0,-111 0,-92 95,-92 95,-111"/>
<text text-anchor="middle" x="47.5" y="-99" font-family="Helvetica,sans-Serif" font-size="10.00">IValueConverter</text>
</a>
</g>
</g>
<!-- Node1 -->
<g id="node2" class="node">
<title>Node1</title>
<g id="a_node2"><a xlink:href="class_search_a_thing_1_1_open_g_l_1_1_g_u_i_1_1_a_color_converter.html" target="_top" xlink:title="Converter Color to Avalonia.Media.Color.">
<polygon fill="white" stroke="#666666" points="248.5,-204 151.5,-204 151.5,-185 248.5,-185 248.5,-204"/>
<text text-anchor="middle" x="200" y="-192" font-family="Helvetica,sans-Serif" font-size="10.00">AColorConverter</text>
</a>
</g>
</g>
<!-- Node0&#45;&gt;Node1 -->
<g id="edge1" class="edge">
<title>Node0&#45;&gt;Node1</title>
<path fill="none" stroke="#63b8ff" d="M62.93,-118.76C78.15,-135.88 103.68,-161.63 131,-176.5 137.33,-179.94 144.35,-182.76 151.41,-185.05"/>
<polygon fill="#63b8ff" stroke="#63b8ff" points="65.51,-116.4 56.32,-111.14 60.22,-120.99 65.51,-116.4"/>
</g>
<!-- Node2 -->
<g id="node3" class="node">
<title>Node2</title>
<g id="a_node3"><a xlink:href="class_search_a_thing_1_1_open_g_l_1_1_g_u_i_1_1_color_hex_string_converter.html" target="_top" xlink:title="Converter Color to hex string.">
<polygon fill="white" stroke="#666666" points="269,-167 131,-167 131,-148 269,-148 269,-167"/>
<text text-anchor="middle" x="200" y="-155" font-family="Helvetica,sans-Serif" font-size="10.00">ColorHexStringConverter</text>
</a>
</g>
</g>
<!-- Node0&#45;&gt;Node2 -->
<g id="edge2" class="edge">
<title>Node0&#45;&gt;Node2</title>
<path fill="none" stroke="#63b8ff" d="M75.99,-115.61C91.8,-123.36 112.2,-132.74 131,-139.5 139.73,-142.64 149.27,-145.5 158.37,-147.98"/>
<polygon fill="#63b8ff" stroke="#63b8ff" points="77.31,-112.36 66.79,-111.04 74.19,-118.63 77.31,-112.36"/>
</g>
<!-- Node3 -->
<g id="node4" class="node">
<title>Node3</title>
<g id="a_node4"><a xlink:href="class_search_a_thing_1_1_open_g_l_1_1_g_u_i_1_1_vector2_text_converter.html" target="_top" xlink:title="Converter to allow text editing of vector2 components.">
<polygon fill="white" stroke="#666666" points="261,-130 139,-130 139,-111 261,-111 261,-130"/>
<text text-anchor="middle" x="200" y="-118" font-family="Helvetica,sans-Serif" font-size="10.00">Vector2TextConverter</text>
</a>
</g>
</g>
<!-- Node0&#45;&gt;Node3 -->
<g id="edge3" class="edge">
<title>Node0&#45;&gt;Node3</title>
<path fill="none" stroke="#63b8ff" d="M105.22,-108.66C116.23,-110.05 127.81,-111.51 138.92,-112.92"/>
<polygon fill="#63b8ff" stroke="#63b8ff" points="105.65,-105.19 95.29,-107.41 104.78,-112.13 105.65,-105.19"/>
</g>
<!-- Node4 -->
<g id="node5" class="node">
<title>Node4</title>
<g id="a_node5"><a xlink:href="class_search_a_thing_1_1_open_g_l_1_1_g_u_i_1_1_vector3_edit_converter.html" target="_top" xlink:title="Converter that create a Vector3Wrap vector3 wrapper that can be used for interactive editing of vecto...">
<polygon fill="white" stroke="#666666" points="260,-93 140,-93 140,-74 260,-74 260,-93"/>
<text text-anchor="middle" x="200" y="-81" font-family="Helvetica,sans-Serif" font-size="10.00">Vector3EditConverter</text>
</a>
</g>
</g>
<!-- Node0&#45;&gt;Node4 -->
<g id="edge4" class="edge">
<title>Node0&#45;&gt;Node4</title>
<path fill="none" stroke="#63b8ff" d="M105.41,-94.69C116.63,-93.35 128.44,-91.94 139.74,-90.59"/>
<polygon fill="#63b8ff" stroke="#63b8ff" points="104.81,-91.24 95.29,-95.9 105.64,-98.19 104.81,-91.24"/>
</g>
<!-- Node5 -->
<g id="node6" class="node">
<title>Node5</title>
<g id="a_node6"><a xlink:href="class_search_a_thing_1_1_open_g_l_1_1_g_u_i_1_1_vector3_text_converter.html" target="_top" xlink:title="Converter to allow text editing of vector3 components.">
<polygon fill="white" stroke="#666666" points="261,-56 139,-56 139,-37 261,-37 261,-56"/>
<text text-anchor="middle" x="200" y="-44" font-family="Helvetica,sans-Serif" font-size="10.00">Vector3TextConverter</text>
</a>
</g>
</g>
<!-- Node0&#45;&gt;Node5 -->
<g id="edge5" class="edge">
<title>Node0&#45;&gt;Node5</title>
<path fill="none" stroke="#63b8ff" d="M77.35,-87.73C93.01,-80.56 112.83,-71.97 131,-65.5 140.7,-62.05 151.36,-58.81 161.3,-56.03"/>
<polygon fill="#63b8ff" stroke="#63b8ff" points="75.79,-84.6 68.19,-91.98 78.74,-90.95 75.79,-84.6"/>
</g>
<!-- Node6 -->
<g id="node7" class="node">
<title>Node6</title>
<g id="a_node7"><a xlink:href="class_search_a_thing_1_1_open_g_l_1_1_g_u_i_1_1_vector4_text_converter.html" target="_top" xlink:title="Converter to allow text editing of vector4 components.">
<polygon fill="white" stroke="#666666" points="261,-19 139,-19 139,0 261,0 261,-19"/>
<text text-anchor="middle" x="200" y="-7" font-family="Helvetica,sans-Serif" font-size="10.00">Vector4TextConverter</text>
</a>
</g>
</g>
<!-- Node0&#45;&gt;Node6 -->
<g id="edge6" class="edge">
<title>Node0&#45;&gt;Node6</title>
<path fill="none" stroke="#63b8ff" d="M63.73,-84.07C79.13,-67.49 104.39,-42.98 131,-28.5 138,-24.69 145.83,-21.59 153.61,-19.09"/>
<polygon fill="#63b8ff" stroke="#63b8ff" points="60.74,-82.16 56.62,-91.92 65.93,-86.86 60.74,-82.16"/>
</g>
</g>
</svg>
