<?xml version="1.0" encoding="UTF-8" standalone="no"?>
<!DOCTYPE svg PUBLIC "-//W3C//DTD SVG 1.1//EN"
 "http://www.w3.org/Graphics/SVG/1.1/DTD/svg11.dtd">
<!-- Generated by graphviz version 2.43.0 (0)
 -->
<!-- Title: IGLPrimitive Pages: 1 -->
<svg width="342pt" height="192pt"
 viewBox="0.00 0.00 341.50 192.00" xmlns="http://www.w3.org/2000/svg" xmlns:xlink="http://www.w3.org/1999/xlink">
<g id="graph0" class="graph" transform="scale(1 1) rotate(0) translate(4 188)">
<title>IGLPrimitive</title>
<!-- Node1 -->
<g id="node1" class="node">
<title>Node1</title>
<g id="a_node1"><a xlink:title="A primitive such a GLPoint, GLLine or GLTriangle can be added to a figure through its add method....">
<polygon fill="#999999" stroke="#666666" points="207,-129 130,-129 130,-110 207,-110 207,-129"/>
<text text-anchor="middle" x="168.5" y="-117" font-family="Helvetica,sans-Serif" font-size="10.00">IGLPrimitive</text>
</a>
</g>
</g>
<!-- Node4 -->
<g id="node4" class="node">
<title>Node4</title>
<g id="a_node4"><a xlink:href="class_search_a_thing_1_1_open_g_l_1_1_core_1_1_g_l_primitive_base.html" target="_top" xlink:title=" ">
<polygon fill="white" stroke="#666666" points="169.5,-74 71.5,-74 71.5,-55 169.5,-55 169.5,-74"/>
<text text-anchor="middle" x="120.5" y="-62" font-family="Helvetica,sans-Serif" font-size="10.00">GLPrimitiveBase</text>
</a>
</g>
</g>
<!-- Node1&#45;&gt;Node4 -->
<g id="edge3" class="edge">
<title>Node1&#45;&gt;Node4</title>
<path fill="none" stroke="#63b8ff" d="M153.77,-102.24C145.36,-92.95 135.15,-81.68 128.28,-74.09"/>
<polygon fill="#63b8ff" stroke="#63b8ff" points="151.27,-104.69 160.57,-109.75 156.46,-99.99 151.27,-104.69"/>
</g>
<!-- Node8 -->
<g id="node8" class="node">
<title>Node8</title>
<g id="a_node8"><a xlink:href="interface_search_a_thing_1_1_open_g_l_1_1_core_1_1_i_g_l_line.html" target="_top" xlink:title="Primitive for the GL_LINES opengl element.">
<polygon fill="white" stroke="#666666" points="53,-74 0,-74 0,-55 53,-55 53,-74"/>
<text text-anchor="middle" x="26.5" y="-62" font-family="Helvetica,sans-Serif" font-size="10.00">IGLLine</text>
</a>
</g>
</g>
<!-- Node1&#45;&gt;Node8 -->
<g id="edge7" class="edge">
<title>Node1&#45;&gt;Node8</title>
<path fill="none" stroke="#63b8ff" d="M136.14,-106.42C109.79,-96.59 73.24,-82.95 49.73,-74.17"/>
<polygon fill="#63b8ff" stroke="#63b8ff" points="135.09,-109.77 145.69,-109.98 137.54,-103.21 135.09,-109.77"/>
</g>
<!-- Node9 -->
<g id="node9" class="node">
<title>Node9</title>
<g id="a_node9"><a xlink:href="interface_search_a_thing_1_1_open_g_l_1_1_core_1_1_i_g_l_point.html" target="_top" xlink:title="Primitive for GL_POINTS opengl element.">
<polygon fill="white" stroke="#666666" points="245,-74 188,-74 188,-55 245,-55 245,-74"/>
<text text-anchor="middle" x="216.5" y="-62" font-family="Helvetica,sans-Serif" font-size="10.00">IGLPoint</text>
</a>
</g>
</g>
<!-- Node1&#45;&gt;Node9 -->
<g id="edge9" class="edge">
<title>Node1&#45;&gt;Node9</title>
<path fill="none" stroke="#63b8ff" d="M183.23,-102.24C191.64,-92.95 201.85,-81.68 208.72,-74.09"/>
<polygon fill="#63b8ff" stroke="#63b8ff" points="180.54,-99.99 176.43,-109.75 185.73,-104.69 180.54,-99.99"/>
</g>
<!-- Node10 -->
<g id="node10" class="node">
<title>Node10</title>
<g id="a_node10"><a xlink:href="interface_search_a_thing_1_1_open_g_l_1_1_core_1_1_i_g_l_triangle.html" target="_top" xlink:title="Primitive for GL_TRIANGLES opengl element.">
<polygon fill="white" stroke="#666666" points="333.5,-74 263.5,-74 263.5,-55 333.5,-55 333.5,-74"/>
<text text-anchor="middle" x="298.5" y="-62" font-family="Helvetica,sans-Serif" font-size="10.00">IGLTriangle</text>
</a>
</g>
</g>
<!-- Node1&#45;&gt;Node10 -->
<g id="edge11" class="edge">
<title>Node1&#45;&gt;Node10</title>
<path fill="none" stroke="#63b8ff" d="M198.77,-106.16C222.84,-96.35 255.9,-82.87 277.23,-74.17"/>
<polygon fill="#63b8ff" stroke="#63b8ff" points="197.33,-102.97 189.39,-109.98 199.97,-109.45 197.33,-102.97"/>
</g>
<!-- Node2 -->
<g id="node2" class="node">
<title>Node2</title>
<g id="a_node2"><a xlink:href="interface_search_a_thing_1_1_open_g_l_1_1_core_1_1_i_g_l_vertex_manager_object.html" target="_top" xlink:title="Interface for GL objects such as IGLFigure, IGLPrimitive and IGLVertex. &#160;The purpose is to ensure tha...">
<polygon fill="white" stroke="#666666" points="161,-184 24,-184 24,-165 161,-165 161,-184"/>
<text text-anchor="middle" x="92.5" y="-172" font-family="Helvetica,sans-Serif" font-size="10.00">IGLVertexManagerObject</text>
</a>
</g>
</g>
<!-- Node2&#45;&gt;Node1 -->
<g id="edge1" class="edge">
<title>Node2&#45;&gt;Node1</title>
<path fill="none" stroke="#63b8ff" d="M113.08,-159.15C126.81,-149.57 144.43,-137.29 156.07,-129.17"/>
<polygon fill="#63b8ff" stroke="#63b8ff" points="110.91,-156.39 104.71,-164.98 114.92,-162.14 110.91,-156.39"/>
</g>
<!-- Node3 -->
<g id="node3" class="node">
<title>Node3</title>
<g id="a_node3"><a xlink:title=" ">
<polygon fill="white" stroke="#666666" points="312,-184 179,-184 179,-165 312,-165 312,-184"/>
<text text-anchor="middle" x="245.5" y="-172" font-family="Helvetica,sans-Serif" font-size="10.00">INotifyPropertyChanged</text>
</a>
</g>
</g>
<!-- Node3&#45;&gt;Node1 -->
<g id="edge2" class="edge">
<title>Node3&#45;&gt;Node1</title>
<path fill="none" stroke="#63b8ff" d="M224.65,-159.15C210.74,-149.57 192.89,-137.29 181.1,-129.17"/>
<polygon fill="#63b8ff" stroke="#63b8ff" points="222.91,-162.2 233.13,-164.98 226.88,-156.43 222.91,-162.2"/>
</g>
<!-- Node5 -->
<g id="node5" class="node">
<title>Node5</title>
<g id="a_node5"><a xlink:href="class_search_a_thing_1_1_open_g_l_1_1_core_1_1_g_l_line.html" target="_top" xlink:title="Opengl line primitive.">
<polygon fill="white" stroke="#666666" points="88.5,-19 38.5,-19 38.5,0 88.5,0 88.5,-19"/>
<text text-anchor="middle" x="63.5" y="-7" font-family="Helvetica,sans-Serif" font-size="10.00">GLLine</text>
</a>
</g>
</g>
<!-- Node4&#45;&gt;Node5 -->
<g id="edge4" class="edge">
<title>Node4&#45;&gt;Node5</title>
<path fill="none" stroke="#63b8ff" d="M103.88,-48.04C93.77,-38.64 81.22,-26.98 72.82,-19.17"/>
<polygon fill="#63b8ff" stroke="#63b8ff" points="101.64,-50.74 111.34,-54.98 106.4,-45.61 101.64,-50.74"/>
</g>
<!-- Node6 -->
<g id="node6" class="node">
<title>Node6</title>
<g id="a_node6"><a xlink:href="class_search_a_thing_1_1_open_g_l_1_1_core_1_1_g_l_point.html" target="_top" xlink:title=" ">
<polygon fill="white" stroke="#666666" points="172.5,-19 118.5,-19 118.5,0 172.5,0 172.5,-19"/>
<text text-anchor="middle" x="145.5" y="-7" font-family="Helvetica,sans-Serif" font-size="10.00">GLPoint</text>
</a>
</g>
</g>
<!-- Node4&#45;&gt;Node6 -->
<g id="edge5" class="edge">
<title>Node4&#45;&gt;Node6</title>
<path fill="none" stroke="#63b8ff" d="M128.98,-45.53C133.19,-36.6 138.09,-26.22 141.45,-19.09"/>
<polygon fill="#63b8ff" stroke="#63b8ff" points="125.73,-44.21 124.63,-54.75 132.06,-47.2 125.73,-44.21"/>
</g>
<!-- Node7 -->
<g id="node7" class="node">
<title>Node7</title>
<g id="a_node7"><a xlink:href="class_search_a_thing_1_1_open_g_l_1_1_core_1_1_g_l_triangle.html" target="_top" xlink:title=" ">
<polygon fill="white" stroke="#666666" points="307,-19 240,-19 240,0 307,0 307,-19"/>
<text text-anchor="middle" x="273.5" y="-7" font-family="Helvetica,sans-Serif" font-size="10.00">GLTriangle</text>
</a>
</g>
</g>
<!-- Node4&#45;&gt;Node7 -->
<g id="edge6" class="edge">
<title>Node4&#45;&gt;Node7</title>
<path fill="none" stroke="#63b8ff" d="M154.65,-51.67C183.18,-41.79 223.19,-27.93 248.73,-19.08"/>
<polygon fill="#63b8ff" stroke="#63b8ff" points="153.39,-48.4 145.08,-54.98 155.68,-55.02 153.39,-48.4"/>
</g>
<!-- Node8&#45;&gt;Node5 -->
<g id="edge8" class="edge">
<title>Node8&#45;&gt;Node5</title>
<path fill="none" stroke="#63b8ff" d="M38.45,-46.39C44.81,-37.27 52.37,-26.45 57.5,-19.09"/>
<polygon fill="#63b8ff" stroke="#63b8ff" points="35.46,-44.55 32.61,-54.75 41.2,-48.55 35.46,-44.55"/>
</g>
<!-- Node9&#45;&gt;Node6 -->
<g id="edge10" class="edge">
<title>Node9&#45;&gt;Node6</title>
<path fill="none" stroke="#63b8ff" d="M196.91,-48.88C184.13,-39.34 167.89,-27.21 157.11,-19.17"/>
<polygon fill="#63b8ff" stroke="#63b8ff" points="194.99,-51.81 205.09,-54.98 199.17,-46.2 194.99,-51.81"/>
</g>
<!-- Node10&#45;&gt;Node7 -->
<g id="edge12" class="edge">
<title>Node10&#45;&gt;Node7</title>
<path fill="none" stroke="#63b8ff" d="M290.02,-45.53C285.81,-36.6 280.91,-26.22 277.55,-19.09"/>
<polygon fill="#63b8ff" stroke="#63b8ff" points="286.94,-47.2 294.37,-54.75 293.27,-44.21 286.94,-47.2"/>
</g>
</g>
</svg>
