<?xml version="1.0" encoding="UTF-8" standalone="no"?>
<!DOCTYPE svg PUBLIC "-//W3C//DTD SVG 1.1//EN"
 "http://www.w3.org/Graphics/SVG/1.1/DTD/svg11.dtd">
<!-- Generated by graphviz version 2.43.0 (0)
 -->
<!-- Title: IRenderDevice Pages: 1 -->
<svg width="282pt" height="137pt"
 viewBox="0.00 0.00 281.50 137.00" xmlns="http://www.w3.org/2000/svg" xmlns:xlink="http://www.w3.org/1999/xlink">
<g id="graph0" class="graph" transform="scale(1 1) rotate(0) translate(4 133)">
<title>IRenderDevice</title>
<!-- Node1 -->
<g id="node1" class="node">
<title>Node1</title>
<g id="a_node1"><a xlink:title="A render device will read pixels from given gl context through ReadPixels and write to an appropriate...">
<polygon fill="#999999" stroke="#666666" points="179,-74 91,-74 91,-55 179,-55 179,-74"/>
<text text-anchor="middle" x="135" y="-62" font-family="Helvetica,sans-Serif" font-size="10.00">IRenderDevice</text>
</a>
</g>
</g>
<!-- Node3 -->
<g id="node3" class="node">
<title>Node3</title>
<g id="a_node3"><a xlink:href="class_search_a_thing_1_1_open_g_l_1_1_render_1_1_dummy_render_device.html" target="_top" xlink:title="A render device that doesn&#39;t write GL pixel anywhere. &#160;This object can be used for testing purpouse.">
<polygon fill="white" stroke="#666666" points="124,-19 0,-19 0,0 124,0 124,-19"/>
<text text-anchor="middle" x="62" y="-7" font-family="Helvetica,sans-Serif" font-size="10.00">DummyRenderDevice</text>
</a>
</g>
</g>
<!-- Node1&#45;&gt;Node3 -->
<g id="edge2" class="edge">
<title>Node1&#45;&gt;Node3</title>
<path fill="none" stroke="#63b8ff" d="M114.86,-48.88C101.72,-39.34 85.02,-27.21 73.94,-19.17"/>
<polygon fill="#63b8ff" stroke="#63b8ff" points="113.12,-51.94 123.27,-54.98 117.24,-46.28 113.12,-51.94"/>
</g>
<!-- Node4 -->
<g id="node4" class="node">
<title>Node4</title>
<g id="a_node4"><a xlink:href="class_search_a_thing_1_1_open_g_l_1_1_render_1_1_offscreen_render_device.html" target="_top" xlink:title="Render device for offscreen mode that acts as a bitmap file writer.">
<polygon fill="white" stroke="#666666" points="273.5,-19 142.5,-19 142.5,0 273.5,0 273.5,-19"/>
<text text-anchor="middle" x="208" y="-7" font-family="Helvetica,sans-Serif" font-size="10.00">OffscreenRenderDevice</text>
</a>
</g>
</g>
<!-- Node1&#45;&gt;Node4 -->
<g id="edge3" class="edge">
<title>Node1&#45;&gt;Node4</title>
<path fill="none" stroke="#63b8ff" d="M155.14,-48.88C168.28,-39.34 184.98,-27.21 196.06,-19.17"/>
<polygon fill="#63b8ff" stroke="#63b8ff" points="152.76,-46.28 146.73,-54.98 156.88,-51.94 152.76,-46.28"/>
</g>
<!-- Node2 -->
<g id="node2" class="node">
<title>Node2</title>
<g id="a_node2"><a xlink:title=" ">
<polygon fill="white" stroke="#666666" points="201.5,-129 68.5,-129 68.5,-110 201.5,-110 201.5,-129"/>
<text text-anchor="middle" x="135" y="-117" font-family="Helvetica,sans-Serif" font-size="10.00">INotifyPropertyChanged</text>
</a>
</g>
</g>
<!-- Node2&#45;&gt;Node1 -->
<g id="edge1" class="edge">
<title>Node2&#45;&gt;Node1</title>
<path fill="none" stroke="#63b8ff" d="M135,-99.66C135,-90.93 135,-80.99 135,-74.09"/>
<polygon fill="#63b8ff" stroke="#63b8ff" points="131.5,-99.75 135,-109.75 138.5,-99.75 131.5,-99.75"/>
</g>
</g>
</svg>
