<?xml version="1.0" encoding="UTF-8" standalone="no"?>
<!DOCTYPE svg PUBLIC "-//W3C//DTD SVG 1.1//EN"
 "http://www.w3.org/Graphics/SVG/1.1/DTD/svg11.dtd">
<!-- Generated by graphviz version 2.43.0 (0)
 -->
<!-- Title: IGLFigure Pages: 1 -->
<svg width="464pt" height="247pt"
 viewBox="0.00 0.00 463.50 247.00" xmlns="http://www.w3.org/2000/svg" xmlns:xlink="http://www.w3.org/1999/xlink">
<g id="graph0" class="graph" transform="scale(1 1) rotate(0) translate(4 243)">
<title>IGLFigure</title>
<!-- Node1 -->
<g id="node1" class="node">
<title>Node1</title>
<g id="a_node1"><a xlink:title="This is the direct child of a vertex manager. &#160;A figure contains primitives and primitive contains ve...">
<polygon fill="#999999" stroke="#666666" points="272,-184 210,-184 210,-165 272,-165 272,-184"/>
<text text-anchor="middle" x="241" y="-172" font-family="Helvetica,sans-Serif" font-size="10.00">IGLFigure</text>
</a>
</g>
</g>
<!-- Node4 -->
<g id="node4" class="node">
<title>Node4</title>
<g id="a_node4"><a xlink:href="class_search_a_thing_1_1_open_g_l_1_1_core_1_1_g_l_figure_base.html" target="_top" xlink:title="Base abstract class for point, line, triangle figures.">
<polygon fill="white" stroke="#666666" points="119.5,-129 36.5,-129 36.5,-110 119.5,-110 119.5,-129"/>
<text text-anchor="middle" x="78" y="-117" font-family="Helvetica,sans-Serif" font-size="10.00">GLFigureBase</text>
</a>
</g>
</g>
<!-- Node1&#45;&gt;Node4 -->
<g id="edge3" class="edge">
<title>Node1&#45;&gt;Node4</title>
<path fill="none" stroke="#63b8ff" d="M205.01,-161.8C174.59,-151.91 131.72,-137.97 104.39,-129.08"/>
<polygon fill="#63b8ff" stroke="#63b8ff" points="204.22,-165.22 214.81,-164.98 206.38,-158.56 204.22,-165.22"/>
</g>
<!-- Node6 -->
<g id="node6" class="node">
<title>Node6</title>
<g id="a_node6"><a xlink:href="interface_search_a_thing_1_1_open_g_l_1_1_core_1_1_i_g_l_line_figure.html" target="_top" xlink:title="Specialization of IGLFigure for the type GLLine.">
<polygon fill="white" stroke="#666666" points="231.5,-129 148.5,-129 148.5,-110 231.5,-110 231.5,-129"/>
<text text-anchor="middle" x="190" y="-117" font-family="Helvetica,sans-Serif" font-size="10.00">IGLLineFigure</text>
</a>
</g>
</g>
<!-- Node1&#45;&gt;Node6 -->
<g id="edge5" class="edge">
<title>Node1&#45;&gt;Node6</title>
<path fill="none" stroke="#63b8ff" d="M225.62,-157.52C216.63,-148.18 205.64,-136.75 198.26,-129.09"/>
<polygon fill="#63b8ff" stroke="#63b8ff" points="223.12,-159.97 232.58,-164.75 228.17,-155.12 223.12,-159.97"/>
</g>
<!-- Node8 -->
<g id="node8" class="node">
<title>Node8</title>
<g id="a_node8"><a xlink:href="interface_search_a_thing_1_1_open_g_l_1_1_core_1_1_i_g_l_point_figure.html" target="_top" xlink:title="Specialization of IGLFigure for the type GLPoint.">
<polygon fill="white" stroke="#666666" points="336.5,-129 249.5,-129 249.5,-110 336.5,-110 336.5,-129"/>
<text text-anchor="middle" x="293" y="-117" font-family="Helvetica,sans-Serif" font-size="10.00">IGLPointFigure</text>
</a>
</g>
</g>
<!-- Node1&#45;&gt;Node8 -->
<g id="edge7" class="edge">
<title>Node1&#45;&gt;Node8</title>
<path fill="none" stroke="#63b8ff" d="M256.68,-157.52C265.84,-148.18 277.05,-136.75 284.57,-129.09"/>
<polygon fill="#63b8ff" stroke="#63b8ff" points="254.09,-155.16 249.59,-164.75 259.09,-160.06 254.09,-155.16"/>
</g>
<!-- Node10 -->
<g id="node10" class="node">
<title>Node10</title>
<g id="a_node10"><a xlink:href="interface_search_a_thing_1_1_open_g_l_1_1_core_1_1_i_g_l_triangle_figure.html" target="_top" xlink:title="Specialization of IGLFigure for the type GLTriangle.">
<polygon fill="white" stroke="#666666" points="455,-129 355,-129 355,-110 455,-110 455,-129"/>
<text text-anchor="middle" x="405" y="-117" font-family="Helvetica,sans-Serif" font-size="10.00">IGLTriangleFigure</text>
</a>
</g>
</g>
<!-- Node1&#45;&gt;Node10 -->
<g id="edge9" class="edge">
<title>Node1&#45;&gt;Node10</title>
<path fill="none" stroke="#63b8ff" d="M277.21,-161.8C307.82,-151.91 350.95,-137.97 378.44,-129.08"/>
<polygon fill="#63b8ff" stroke="#63b8ff" points="275.79,-158.58 267.35,-164.98 277.94,-165.24 275.79,-158.58"/>
</g>
<!-- Node2 -->
<g id="node2" class="node">
<title>Node2</title>
<g id="a_node2"><a xlink:href="interface_search_a_thing_1_1_open_g_l_1_1_core_1_1_i_g_l_vertex_manager_object.html" target="_top" xlink:title="Interface for GL objects such as IGLFigure, IGLPrimitive and IGLVertex. &#160;The purpose is to ensure tha...">
<polygon fill="white" stroke="#666666" points="233.5,-239 96.5,-239 96.5,-220 233.5,-220 233.5,-239"/>
<text text-anchor="middle" x="165" y="-227" font-family="Helvetica,sans-Serif" font-size="10.00">IGLVertexManagerObject</text>
</a>
</g>
</g>
<!-- Node2&#45;&gt;Node1 -->
<g id="edge1" class="edge">
<title>Node2&#45;&gt;Node1</title>
<path fill="none" stroke="#63b8ff" d="M185.58,-214.15C199.31,-204.57 216.93,-192.29 228.57,-184.17"/>
<polygon fill="#63b8ff" stroke="#63b8ff" points="183.41,-211.39 177.21,-219.98 187.42,-217.14 183.41,-211.39"/>
</g>
<!-- Node3 -->
<g id="node3" class="node">
<title>Node3</title>
<g id="a_node3"><a xlink:title=" ">
<polygon fill="white" stroke="#666666" points="384.5,-239 251.5,-239 251.5,-220 384.5,-220 384.5,-239"/>
<text text-anchor="middle" x="318" y="-227" font-family="Helvetica,sans-Serif" font-size="10.00">INotifyPropertyChanged</text>
</a>
</g>
</g>
<!-- Node3&#45;&gt;Node1 -->
<g id="edge2" class="edge">
<title>Node3&#45;&gt;Node1</title>
<path fill="none" stroke="#63b8ff" d="M297.15,-214.15C283.24,-204.57 265.39,-192.29 253.6,-184.17"/>
<polygon fill="#63b8ff" stroke="#63b8ff" points="295.41,-217.2 305.63,-219.98 299.38,-211.43 295.41,-217.2"/>
</g>
<!-- Node5 -->
<g id="node5" class="node">
<title>Node5</title>
<g id="a_node5"><a xlink:href="class_search_a_thing_1_1_open_g_l_1_1_core_1_1_g_l_figure_type_base.html" target="_top" xlink:title="Template typed GLPrimitiveBase figure base operations such as Add and Remove primitives from the figu...">
<polygon fill="white" stroke="#666666" points="134,-74 0,-74 0,-55 134,-55 134,-74"/>
<text text-anchor="middle" x="67" y="-62" font-family="Helvetica,sans-Serif" font-size="10.00">GLFigureTypeBase&lt; P &gt;</text>
</a>
</g>
</g>
<!-- Node4&#45;&gt;Node5 -->
<g id="edge4" class="edge">
<title>Node4&#45;&gt;Node5</title>
<path fill="none" stroke="#63b8ff" d="M74.15,-99.95C72.32,-91.15 70.23,-81.06 68.78,-74.09"/>
<polygon fill="#63b8ff" stroke="#63b8ff" points="70.72,-100.67 76.18,-109.75 77.58,-99.25 70.72,-100.67"/>
</g>
<!-- Node7 -->
<g id="node7" class="node">
<title>Node7</title>
<g id="a_node7"><a xlink:href="class_search_a_thing_1_1_open_g_l_1_1_core_1_1_g_l_line_figure.html" target="_top" xlink:title="Specialization of typed figure within the GLLine primitive.">
<polygon fill="white" stroke="#666666" points="232,-74 152,-74 152,-55 232,-55 232,-74"/>
<text text-anchor="middle" x="192" y="-62" font-family="Helvetica,sans-Serif" font-size="10.00">GLLineFigure</text>
</a>
</g>
</g>
<!-- Node6&#45;&gt;Node7 -->
<g id="edge6" class="edge">
<title>Node6&#45;&gt;Node7</title>
<path fill="none" stroke="#63b8ff" d="M190.71,-99.66C191.04,-90.93 191.42,-80.99 191.68,-74.09"/>
<polygon fill="#63b8ff" stroke="#63b8ff" points="187.21,-99.62 190.33,-109.75 194.2,-99.89 187.21,-99.62"/>
</g>
<!-- Node9 -->
<g id="node9" class="node">
<title>Node9</title>
<g id="a_node9"><a xlink:href="class_search_a_thing_1_1_open_g_l_1_1_core_1_1_g_l_point_figure.html" target="_top" xlink:title="Specialization of typed figure within the GLPoint} primitive.">
<polygon fill="white" stroke="#666666" points="335,-74 251,-74 251,-55 335,-55 335,-74"/>
<text text-anchor="middle" x="293" y="-62" font-family="Helvetica,sans-Serif" font-size="10.00">GLPointFigure</text>
</a>
</g>
</g>
<!-- Node8&#45;&gt;Node9 -->
<g id="edge8" class="edge">
<title>Node8&#45;&gt;Node9</title>
<path fill="none" stroke="#63b8ff" d="M293,-99.66C293,-90.93 293,-80.99 293,-74.09"/>
<polygon fill="#63b8ff" stroke="#63b8ff" points="289.5,-99.75 293,-109.75 296.5,-99.75 289.5,-99.75"/>
</g>
<!-- Node11 -->
<g id="node11" class="node">
<title>Node11</title>
<g id="a_node11"><a xlink:href="class_search_a_thing_1_1_open_g_l_1_1_core_1_1_g_l_triangle_figure.html" target="_top" xlink:title="Specialization of typed figure within the GLTriangle primitive.">
<polygon fill="white" stroke="#666666" points="453.5,-74 356.5,-74 356.5,-55 453.5,-55 453.5,-74"/>
<text text-anchor="middle" x="405" y="-62" font-family="Helvetica,sans-Serif" font-size="10.00">GLTriangleFigure</text>
</a>
</g>
</g>
<!-- Node10&#45;&gt;Node11 -->
<g id="edge10" class="edge">
<title>Node10&#45;&gt;Node11</title>
<path fill="none" stroke="#63b8ff" d="M405,-99.66C405,-90.93 405,-80.99 405,-74.09"/>
<polygon fill="#63b8ff" stroke="#63b8ff" points="401.5,-99.75 405,-109.75 408.5,-99.75 401.5,-99.75"/>
</g>
<!-- Node12 -->
<g id="node12" class="node">
<title>Node12</title>
<g id="a_node12"><a xlink:href="class_search_a_thing_1_1_open_g_l_1_1_core_1_1_g_l_text_char_figure.html" target="_top" xlink:title="Triangles figure with texture mapped to represent a char.">
<polygon fill="white" stroke="#666666" points="455.5,-19 354.5,-19 354.5,0 455.5,0 455.5,-19"/>
<text text-anchor="middle" x="405" y="-7" font-family="Helvetica,sans-Serif" font-size="10.00">GLTextCharFigure</text>
</a>
</g>
</g>
<!-- Node11&#45;&gt;Node12 -->
<g id="edge11" class="edge">
<title>Node11&#45;&gt;Node12</title>
<path fill="none" stroke="#63b8ff" d="M405,-44.66C405,-35.93 405,-25.99 405,-19.09"/>
<polygon fill="#63b8ff" stroke="#63b8ff" points="401.5,-44.75 405,-54.75 408.5,-44.75 401.5,-44.75"/>
</g>
</g>
</svg>
