<?xml version="1.0" encoding="UTF-8" standalone="no"?>
<!DOCTYPE svg PUBLIC "-//W3C//DTD SVG 1.1//EN"
 "http://www.w3.org/Graphics/SVG/1.1/DTD/svg11.dtd">
<!-- Generated by graphviz version 2.43.0 (0)
 -->
<!-- Title: IGLVertex Pages: 1 -->
<svg width="296pt" height="137pt"
 viewBox="0.00 0.00 296.00 137.00" xmlns="http://www.w3.org/2000/svg" xmlns:xlink="http://www.w3.org/1999/xlink">
<g id="graph0" class="graph" transform="scale(1 1) rotate(0) translate(4 133)">
<title>IGLVertex</title>
<!-- Node1 -->
<g id="node1" class="node">
<title>Node1</title>
<g id="a_node1"><a xlink:title="Represent a vertex and its the base object managed by the GLVertexManager. &#160;Primitives such as GLPoin...">
<polygon fill="#999999" stroke="#666666" points="176,-74 113,-74 113,-55 176,-55 176,-74"/>
<text text-anchor="middle" x="144.5" y="-62" font-family="Helvetica,sans-Serif" font-size="10.00">IGLVertex</text>
</a>
</g>
</g>
<!-- Node4 -->
<g id="node4" class="node">
<title>Node4</title>
<g id="a_node4"><a xlink:href="class_search_a_thing_1_1_open_g_l_1_1_core_1_1_g_l_vertex.html" target="_top" xlink:title=" ">
<polygon fill="white" stroke="#666666" points="174.5,-19 114.5,-19 114.5,0 174.5,0 174.5,-19"/>
<text text-anchor="middle" x="144.5" y="-7" font-family="Helvetica,sans-Serif" font-size="10.00">GLVertex</text>
</a>
</g>
</g>
<!-- Node1&#45;&gt;Node4 -->
<g id="edge3" class="edge">
<title>Node1&#45;&gt;Node4</title>
<path fill="none" stroke="#63b8ff" d="M144.5,-44.66C144.5,-35.93 144.5,-25.99 144.5,-19.09"/>
<polygon fill="#63b8ff" stroke="#63b8ff" points="141,-44.75 144.5,-54.75 148,-44.75 141,-44.75"/>
</g>
<!-- Node2 -->
<g id="node2" class="node">
<title>Node2</title>
<g id="a_node2"><a xlink:href="interface_search_a_thing_1_1_open_g_l_1_1_core_1_1_i_g_l_vertex_manager_object.html" target="_top" xlink:title="Interface for GL objects such as IGLFigure, IGLPrimitive and IGLVertex. &#160;The purpose is to ensure tha...">
<polygon fill="white" stroke="#666666" points="137,-129 0,-129 0,-110 137,-110 137,-129"/>
<text text-anchor="middle" x="68.5" y="-117" font-family="Helvetica,sans-Serif" font-size="10.00">IGLVertexManagerObject</text>
</a>
</g>
</g>
<!-- Node2&#45;&gt;Node1 -->
<g id="edge1" class="edge">
<title>Node2&#45;&gt;Node1</title>
<path fill="none" stroke="#63b8ff" d="M89.08,-104.15C102.81,-94.57 120.43,-82.29 132.07,-74.17"/>
<polygon fill="#63b8ff" stroke="#63b8ff" points="86.91,-101.39 80.71,-109.98 90.92,-107.14 86.91,-101.39"/>
</g>
<!-- Node3 -->
<g id="node3" class="node">
<title>Node3</title>
<g id="a_node3"><a xlink:title=" ">
<polygon fill="white" stroke="#666666" points="288,-129 155,-129 155,-110 288,-110 288,-129"/>
<text text-anchor="middle" x="221.5" y="-117" font-family="Helvetica,sans-Serif" font-size="10.00">INotifyPropertyChanged</text>
</a>
</g>
</g>
<!-- Node3&#45;&gt;Node1 -->
<g id="edge2" class="edge">
<title>Node3&#45;&gt;Node1</title>
<path fill="none" stroke="#63b8ff" d="M200.65,-104.15C186.74,-94.57 168.89,-82.29 157.1,-74.17"/>
<polygon fill="#63b8ff" stroke="#63b8ff" points="198.91,-107.2 209.13,-109.98 202.88,-101.43 198.91,-107.2"/>
</g>
</g>
</svg>
