<?xml version="1.0" encoding="UTF-8" standalone="no"?>
<!DOCTYPE svg PUBLIC "-//W3C//DTD SVG 1.1//EN"
 "http://www.w3.org/Graphics/SVG/1.1/DTD/svg11.dtd">
<!-- Generated by graphviz version 2.43.0 (0)
 -->
<!-- Title: IGLContextObject Pages: 1 -->
<svg width="250pt" height="82pt"
 viewBox="0.00 0.00 249.50 82.00" xmlns="http://www.w3.org/2000/svg" xmlns:xlink="http://www.w3.org/1999/xlink">
<g id="graph0" class="graph" transform="scale(1 1) rotate(0) translate(4 78)">
<title>IGLContextObject</title>
<!-- Node1 -->
<g id="node1" class="node">
<title>Node1</title>
<g id="a_node1"><a xlink:title="General inteface for objects that carrier a reference to Gl context.">
<polygon fill="#999999" stroke="#666666" points="162.5,-74 60.5,-74 60.5,-55 162.5,-55 162.5,-74"/>
<text text-anchor="middle" x="111.5" y="-62" font-family="Helvetica,sans-Serif" font-size="10.00">IGLContextObject</text>
</a>
</g>
</g>
<!-- Node2 -->
<g id="node2" class="node">
<title>Node2</title>
<g id="a_node2"><a xlink:href="class_search_a_thing_1_1_open_g_l_1_1_render_1_1_g_l_model.html" target="_top" xlink:title="Gl model.">
<polygon fill="white" stroke="#666666" points="59,-19 0,-19 0,0 59,0 59,-19"/>
<text text-anchor="middle" x="29.5" y="-7" font-family="Helvetica,sans-Serif" font-size="10.00">GLModel</text>
</a>
</g>
</g>
<!-- Node1&#45;&gt;Node2 -->
<g id="edge1" class="edge">
<title>Node1&#45;&gt;Node2</title>
<path fill="none" stroke="#63b8ff" d="M89.72,-49.42C74.84,-39.81 55.59,-27.37 42.91,-19.17"/>
<polygon fill="#63b8ff" stroke="#63b8ff" points="88.03,-52.5 98.33,-54.98 91.83,-46.62 88.03,-52.5"/>
</g>
<!-- Node3 -->
<g id="node3" class="node">
<title>Node3</title>
<g id="a_node3"><a xlink:href="class_search_a_thing_1_1_open_g_l_1_1_render_1_1_g_l_pipeline.html" target="_top" xlink:title="Gl pipeline object. &#160;Contains vertex, geometry and fragment shaders where defined and helper method t...">
<polygon fill="white" stroke="#666666" points="145.5,-19 77.5,-19 77.5,0 145.5,0 145.5,-19"/>
<text text-anchor="middle" x="111.5" y="-7" font-family="Helvetica,sans-Serif" font-size="10.00">GLPipeline</text>
</a>
</g>
</g>
<!-- Node1&#45;&gt;Node3 -->
<g id="edge2" class="edge">
<title>Node1&#45;&gt;Node3</title>
<path fill="none" stroke="#63b8ff" d="M111.5,-44.66C111.5,-35.93 111.5,-25.99 111.5,-19.09"/>
<polygon fill="#63b8ff" stroke="#63b8ff" points="108,-44.75 111.5,-54.75 115,-44.75 108,-44.75"/>
</g>
<!-- Node4 -->
<g id="node4" class="node">
<title>Node4</title>
<g id="a_node4"><a xlink:href="class_search_a_thing_1_1_open_g_l_1_1_render_1_1_g_l_texture2_d.html" target="_top" xlink:title="Handle reference to gl texture.">
<polygon fill="white" stroke="#666666" points="241.5,-19 163.5,-19 163.5,0 241.5,0 241.5,-19"/>
<text text-anchor="middle" x="202.5" y="-7" font-family="Helvetica,sans-Serif" font-size="10.00">GLTexture2D</text>
</a>
</g>
</g>
<!-- Node1&#45;&gt;Node4 -->
<g id="edge3" class="edge">
<title>Node1&#45;&gt;Node4</title>
<path fill="none" stroke="#63b8ff" d="M135.2,-49.7C151.78,-40.04 173.41,-27.44 187.61,-19.17"/>
<polygon fill="#63b8ff" stroke="#63b8ff" points="133,-46.93 126.12,-54.98 136.52,-52.98 133,-46.93"/>
</g>
</g>
</svg>
