<?xml version="1.0" encoding="UTF-8" standalone="no"?>
<!DOCTYPE svg PUBLIC "-//W3C//DTD SVG 1.1//EN"
 "http://www.w3.org/Graphics/SVG/1.1/DTD/svg11.dtd">
<!-- Generated by graphviz version 2.43.0 (0)
 -->
<!-- Title: IGLVertexManagerObject Pages: 1 -->
<svg width="564pt" height="323pt"
 viewBox="0.00 0.00 564.00 323.00" xmlns="http://www.w3.org/2000/svg" xmlns:xlink="http://www.w3.org/1999/xlink">
<g id="graph0" class="graph" transform="scale(1 1) rotate(0) translate(4 319)">
<title>IGLVertexManagerObject</title>
<!-- Node1 -->
<g id="node1" class="node">
<title>Node1</title>
<g id="a_node1"><a xlink:title="Interface for GL objects such as IGLFigure, IGLPrimitive and IGLVertex. &#160;The purpose is to ensure tha...">
<polygon fill="#999999" stroke="#666666" points="137,-112 0,-112 0,-93 137,-93 137,-112"/>
<text text-anchor="middle" x="68.5" y="-100" font-family="Helvetica,sans-Serif" font-size="10.00">IGLVertexManagerObject</text>
</a>
</g>
</g>
<!-- Node2 -->
<g id="node2" class="node">
<title>Node2</title>
<g id="a_node2"><a xlink:href="interface_search_a_thing_1_1_open_g_l_1_1_core_1_1_i_g_l_figure.html" target="_top" xlink:title="This is the direct child of a vertex manager. &#160;A figure contains primitives and primitive contains ve...">
<polygon fill="white" stroke="#666666" points="242.5,-241 180.5,-241 180.5,-222 242.5,-222 242.5,-241"/>
<text text-anchor="middle" x="211.5" y="-229" font-family="Helvetica,sans-Serif" font-size="10.00">IGLFigure</text>
</a>
</g>
</g>
<!-- Node1&#45;&gt;Node2 -->
<g id="edge1" class="edge">
<title>Node1&#45;&gt;Node2</title>
<path fill="none" stroke="#63b8ff" d="M87.69,-119.15C117.49,-146.41 175.78,-199.73 199.78,-221.69"/>
<polygon fill="#63b8ff" stroke="#63b8ff" points="89.84,-116.36 80.1,-112.2 85.11,-121.53 89.84,-116.36"/>
</g>
<!-- Node11 -->
<g id="node11" class="node">
<title>Node11</title>
<g id="a_node11"><a xlink:href="interface_search_a_thing_1_1_open_g_l_1_1_core_1_1_i_g_l_primitive.html" target="_top" xlink:title="A primitive such a GLPoint, GLLine or GLTriangle can be added to a figure through its add method....">
<polygon fill="white" stroke="#666666" points="250,-112 173,-112 173,-93 250,-93 250,-112"/>
<text text-anchor="middle" x="211.5" y="-100" font-family="Helvetica,sans-Serif" font-size="10.00">IGLPrimitive</text>
</a>
</g>
</g>
<!-- Node1&#45;&gt;Node11 -->
<g id="edge10" class="edge">
<title>Node1&#45;&gt;Node11</title>
<path fill="none" stroke="#63b8ff" d="M147.19,-102.5C156.09,-102.5 164.84,-102.5 172.85,-102.5"/>
<polygon fill="#63b8ff" stroke="#63b8ff" points="147.11,-99 137.11,-102.5 147.11,-106 147.11,-99"/>
</g>
<!-- Node19 -->
<g id="node19" class="node">
<title>Node19</title>
<g id="a_node19"><a xlink:href="interface_search_a_thing_1_1_open_g_l_1_1_core_1_1_i_g_l_vertex.html" target="_top" xlink:title="Represent a vertex and its the base object managed by the GLVertexManager. &#160;Primitives such as GLPoin...">
<polygon fill="white" stroke="#666666" points="243,-38 180,-38 180,-19 243,-19 243,-38"/>
<text text-anchor="middle" x="211.5" y="-26" font-family="Helvetica,sans-Serif" font-size="10.00">IGLVertex</text>
</a>
</g>
</g>
<!-- Node1&#45;&gt;Node19 -->
<g id="edge21" class="edge">
<title>Node1&#45;&gt;Node19</title>
<path fill="none" stroke="#63b8ff" d="M96.52,-88.32C124.54,-73.61 167.59,-51.02 191.98,-38.22"/>
<polygon fill="#63b8ff" stroke="#63b8ff" points="94.87,-85.23 87.64,-92.98 98.13,-91.43 94.87,-85.23"/>
</g>
<!-- Node3 -->
<g id="node3" class="node">
<title>Node3</title>
<g id="a_node3"><a xlink:href="class_search_a_thing_1_1_open_g_l_1_1_core_1_1_g_l_figure_base.html" target="_top" xlink:title="Base abstract class for point, line, triangle figures.">
<polygon fill="white" stroke="#666666" points="377.5,-204 294.5,-204 294.5,-185 377.5,-185 377.5,-204"/>
<text text-anchor="middle" x="336" y="-192" font-family="Helvetica,sans-Serif" font-size="10.00">GLFigureBase</text>
</a>
</g>
</g>
<!-- Node2&#45;&gt;Node3 -->
<g id="edge2" class="edge">
<title>Node2&#45;&gt;Node3</title>
<path fill="none" stroke="#63b8ff" d="M252.68,-219.36C269.14,-214.39 287.9,-208.73 303.36,-204.06"/>
<polygon fill="#63b8ff" stroke="#63b8ff" points="251.34,-216.11 242.78,-222.35 253.37,-222.81 251.34,-216.11"/>
</g>
<!-- Node5 -->
<g id="node5" class="node">
<title>Node5</title>
<g id="a_node5"><a xlink:href="interface_search_a_thing_1_1_open_g_l_1_1_core_1_1_i_g_l_line_figure.html" target="_top" xlink:title="Specialization of IGLFigure for the type GLLine.">
<polygon fill="white" stroke="#666666" points="377.5,-315 294.5,-315 294.5,-296 377.5,-296 377.5,-315"/>
<text text-anchor="middle" x="336" y="-303" font-family="Helvetica,sans-Serif" font-size="10.00">IGLLineFigure</text>
</a>
</g>
</g>
<!-- Node2&#45;&gt;Node5 -->
<g id="edge4" class="edge">
<title>Node2&#45;&gt;Node5</title>
<path fill="none" stroke="#63b8ff" d="M230.83,-247.96C245.08,-260.11 265.78,-276.41 286,-287.5 291.8,-290.68 298.28,-293.51 304.57,-295.93"/>
<polygon fill="#63b8ff" stroke="#63b8ff" points="233.07,-245.27 223.23,-241.35 228.48,-250.55 233.07,-245.27"/>
</g>
<!-- Node7 -->
<g id="node7" class="node">
<title>Node7</title>
<g id="a_node7"><a xlink:href="interface_search_a_thing_1_1_open_g_l_1_1_core_1_1_i_g_l_point_figure.html" target="_top" xlink:title="Specialization of IGLFigure for the type GLPoint.">
<polygon fill="white" stroke="#666666" points="379.5,-278 292.5,-278 292.5,-259 379.5,-259 379.5,-278"/>
<text text-anchor="middle" x="336" y="-266" font-family="Helvetica,sans-Serif" font-size="10.00">IGLPointFigure</text>
</a>
</g>
</g>
<!-- Node2&#45;&gt;Node7 -->
<g id="edge6" class="edge">
<title>Node2&#45;&gt;Node7</title>
<path fill="none" stroke="#63b8ff" d="M252.68,-243.64C269.14,-248.61 287.9,-254.27 303.36,-258.94"/>
<polygon fill="#63b8ff" stroke="#63b8ff" points="253.37,-240.19 242.78,-240.65 251.34,-246.89 253.37,-240.19"/>
</g>
<!-- Node9 -->
<g id="node9" class="node">
<title>Node9</title>
<g id="a_node9"><a xlink:href="interface_search_a_thing_1_1_open_g_l_1_1_core_1_1_i_g_l_triangle_figure.html" target="_top" xlink:title="Specialization of IGLFigure for the type GLTriangle.">
<polygon fill="white" stroke="#666666" points="386,-241 286,-241 286,-222 386,-222 386,-241"/>
<text text-anchor="middle" x="336" y="-229" font-family="Helvetica,sans-Serif" font-size="10.00">IGLTriangleFigure</text>
</a>
</g>
</g>
<!-- Node2&#45;&gt;Node9 -->
<g id="edge8" class="edge">
<title>Node2&#45;&gt;Node9</title>
<path fill="none" stroke="#63b8ff" d="M252.86,-231.5C263.31,-231.5 274.67,-231.5 285.52,-231.5"/>
<polygon fill="#63b8ff" stroke="#63b8ff" points="252.78,-228 242.78,-231.5 252.78,-235 252.78,-228"/>
</g>
<!-- Node4 -->
<g id="node4" class="node">
<title>Node4</title>
<g id="a_node4"><a xlink:href="class_search_a_thing_1_1_open_g_l_1_1_core_1_1_g_l_figure_type_base.html" target="_top" xlink:title="Template typed GLPrimitiveBase figure base operations such as Add and Remove primitives from the figu...">
<polygon fill="white" stroke="#666666" points="556,-204 422,-204 422,-185 556,-185 556,-204"/>
<text text-anchor="middle" x="489" y="-192" font-family="Helvetica,sans-Serif" font-size="10.00">GLFigureTypeBase&lt; P &gt;</text>
</a>
</g>
</g>
<!-- Node3&#45;&gt;Node4 -->
<g id="edge3" class="edge">
<title>Node3&#45;&gt;Node4</title>
<path fill="none" stroke="#63b8ff" d="M388,-194.5C398.85,-194.5 410.45,-194.5 421.78,-194.5"/>
<polygon fill="#63b8ff" stroke="#63b8ff" points="387.86,-191 377.86,-194.5 387.86,-198 387.86,-191"/>
</g>
<!-- Node6 -->
<g id="node6" class="node">
<title>Node6</title>
<g id="a_node6"><a xlink:href="class_search_a_thing_1_1_open_g_l_1_1_core_1_1_g_l_line_figure.html" target="_top" xlink:title="Specialization of typed figure within the GLLine primitive.">
<polygon fill="white" stroke="#666666" points="529,-315 449,-315 449,-296 529,-296 529,-315"/>
<text text-anchor="middle" x="489" y="-303" font-family="Helvetica,sans-Serif" font-size="10.00">GLLineFigure</text>
</a>
</g>
</g>
<!-- Node5&#45;&gt;Node6 -->
<g id="edge5" class="edge">
<title>Node5&#45;&gt;Node6</title>
<path fill="none" stroke="#63b8ff" d="M388,-305.5C407.9,-305.5 430.35,-305.5 448.93,-305.5"/>
<polygon fill="#63b8ff" stroke="#63b8ff" points="387.86,-302 377.86,-305.5 387.86,-309 387.86,-302"/>
</g>
<!-- Node8 -->
<g id="node8" class="node">
<title>Node8</title>
<g id="a_node8"><a xlink:href="class_search_a_thing_1_1_open_g_l_1_1_core_1_1_g_l_point_figure.html" target="_top" xlink:title="Specialization of typed figure within the GLPoint} primitive.">
<polygon fill="white" stroke="#666666" points="531,-278 447,-278 447,-259 531,-259 531,-278"/>
<text text-anchor="middle" x="489" y="-266" font-family="Helvetica,sans-Serif" font-size="10.00">GLPointFigure</text>
</a>
</g>
</g>
<!-- Node7&#45;&gt;Node8 -->
<g id="edge7" class="edge">
<title>Node7&#45;&gt;Node8</title>
<path fill="none" stroke="#63b8ff" d="M389.99,-268.5C408.64,-268.5 429.32,-268.5 446.85,-268.5"/>
<polygon fill="#63b8ff" stroke="#63b8ff" points="389.87,-265 379.87,-268.5 389.87,-272 389.87,-265"/>
</g>
<!-- Node10 -->
<g id="node10" class="node">
<title>Node10</title>
<g id="a_node10"><a xlink:href="class_search_a_thing_1_1_open_g_l_1_1_core_1_1_g_l_triangle_figure.html" target="_top" xlink:title="Specialization of typed figure within the GLTriangle primitive.">
<polygon fill="white" stroke="#666666" points="537.5,-241 440.5,-241 440.5,-222 537.5,-222 537.5,-241"/>
<text text-anchor="middle" x="489" y="-229" font-family="Helvetica,sans-Serif" font-size="10.00">GLTriangleFigure</text>
</a>
</g>
</g>
<!-- Node9&#45;&gt;Node10 -->
<g id="edge9" class="edge">
<title>Node9&#45;&gt;Node10</title>
<path fill="none" stroke="#63b8ff" d="M396.43,-231.5C410.97,-231.5 426.34,-231.5 440.25,-231.5"/>
<polygon fill="#63b8ff" stroke="#63b8ff" points="396.03,-228 386.03,-231.5 396.03,-235 396.03,-228"/>
</g>
<!-- Node12 -->
<g id="node12" class="node">
<title>Node12</title>
<g id="a_node12"><a xlink:href="class_search_a_thing_1_1_open_g_l_1_1_core_1_1_g_l_primitive_base.html" target="_top" xlink:title=" ">
<polygon fill="white" stroke="#666666" points="385,-130 287,-130 287,-111 385,-111 385,-130"/>
<text text-anchor="middle" x="336" y="-118" font-family="Helvetica,sans-Serif" font-size="10.00">GLPrimitiveBase</text>
</a>
</g>
</g>
<!-- Node11&#45;&gt;Node12 -->
<g id="edge11" class="edge">
<title>Node11&#45;&gt;Node12</title>
<path fill="none" stroke="#63b8ff" d="M260.25,-109.52C268.95,-110.79 278.03,-112.13 286.75,-113.41"/>
<polygon fill="#63b8ff" stroke="#63b8ff" points="260.66,-106.04 250.25,-108.05 259.64,-112.96 260.66,-106.04"/>
</g>
<!-- Node16 -->
<g id="node16" class="node">
<title>Node16</title>
<g id="a_node16"><a xlink:href="interface_search_a_thing_1_1_open_g_l_1_1_core_1_1_i_g_l_line.html" target="_top" xlink:title="Primitive for the GL_LINES opengl element.">
<polygon fill="white" stroke="#666666" points="362.5,-167 309.5,-167 309.5,-148 362.5,-148 362.5,-167"/>
<text text-anchor="middle" x="336" y="-155" font-family="Helvetica,sans-Serif" font-size="10.00">IGLLine</text>
</a>
</g>
</g>
<!-- Node11&#45;&gt;Node16 -->
<g id="edge15" class="edge">
<title>Node11&#45;&gt;Node16</title>
<path fill="none" stroke="#63b8ff" d="M239.01,-116.77C252.84,-123.97 270.13,-132.62 286,-139.5 293.48,-142.75 301.76,-145.93 309.35,-148.7"/>
<polygon fill="#63b8ff" stroke="#63b8ff" points="240.53,-113.61 230.05,-112.05 237.27,-119.81 240.53,-113.61"/>
</g>
<!-- Node17 -->
<g id="node17" class="node">
<title>Node17</title>
<g id="a_node17"><a xlink:href="interface_search_a_thing_1_1_open_g_l_1_1_core_1_1_i_g_l_point.html" target="_top" xlink:title="Primitive for GL_POINTS opengl element.">
<polygon fill="white" stroke="#666666" points="364.5,-93 307.5,-93 307.5,-74 364.5,-74 364.5,-93"/>
<text text-anchor="middle" x="336" y="-81" font-family="Helvetica,sans-Serif" font-size="10.00">IGLPoint</text>
</a>
</g>
</g>
<!-- Node11&#45;&gt;Node17 -->
<g id="edge17" class="edge">
<title>Node11&#45;&gt;Node17</title>
<path fill="none" stroke="#63b8ff" d="M260.46,-95.06C276.33,-92.6 293.46,-89.94 307.29,-87.8"/>
<polygon fill="#63b8ff" stroke="#63b8ff" points="259.6,-91.65 250.25,-96.64 260.67,-98.57 259.6,-91.65"/>
</g>
<!-- Node18 -->
<g id="node18" class="node">
<title>Node18</title>
<g id="a_node18"><a xlink:href="interface_search_a_thing_1_1_open_g_l_1_1_core_1_1_i_g_l_triangle.html" target="_top" xlink:title="Primitive for GL_TRIANGLES opengl element.">
<polygon fill="white" stroke="#666666" points="371,-56 301,-56 301,-37 371,-37 371,-56"/>
<text text-anchor="middle" x="336" y="-44" font-family="Helvetica,sans-Serif" font-size="10.00">IGLTriangle</text>
</a>
</g>
</g>
<!-- Node11&#45;&gt;Node18 -->
<g id="edge19" class="edge">
<title>Node11&#45;&gt;Node18</title>
<path fill="none" stroke="#63b8ff" d="M239.34,-88.21C253.13,-81.06 270.3,-72.48 286,-65.5 293.34,-62.24 301.42,-58.98 308.87,-56.1"/>
<polygon fill="#63b8ff" stroke="#63b8ff" points="237.63,-85.15 230.39,-92.88 240.87,-91.35 237.63,-85.15"/>
</g>
<!-- Node13 -->
<g id="node13" class="node">
<title>Node13</title>
<g id="a_node13"><a xlink:href="class_search_a_thing_1_1_open_g_l_1_1_core_1_1_g_l_line.html" target="_top" xlink:title="Opengl line primitive.">
<polygon fill="white" stroke="#666666" points="514,-158 464,-158 464,-139 514,-139 514,-158"/>
<text text-anchor="middle" x="489" y="-146" font-family="Helvetica,sans-Serif" font-size="10.00">GLLine</text>
</a>
</g>
</g>
<!-- Node12&#45;&gt;Node13 -->
<g id="edge12" class="edge">
<title>Node12&#45;&gt;Node13</title>
<path fill="none" stroke="#63b8ff" d="M395.24,-131.3C419.1,-135.72 445.4,-140.6 463.88,-144.03"/>
<polygon fill="#63b8ff" stroke="#63b8ff" points="395.66,-127.82 385.19,-129.44 394.39,-134.7 395.66,-127.82"/>
</g>
<!-- Node14 -->
<g id="node14" class="node">
<title>Node14</title>
<g id="a_node14"><a xlink:href="class_search_a_thing_1_1_open_g_l_1_1_core_1_1_g_l_point.html" target="_top" xlink:title=" ">
<polygon fill="white" stroke="#666666" points="516,-112 462,-112 462,-93 516,-93 516,-112"/>
<text text-anchor="middle" x="489" y="-100" font-family="Helvetica,sans-Serif" font-size="10.00">GLPoint</text>
</a>
</g>
</g>
<!-- Node12&#45;&gt;Node14 -->
<g id="edge13" class="edge">
<title>Node12&#45;&gt;Node14</title>
<path fill="none" stroke="#63b8ff" d="M395.21,-113.56C418.19,-110.82 443.41,-107.81 461.76,-105.63"/>
<polygon fill="#63b8ff" stroke="#63b8ff" points="394.71,-110.1 385.19,-114.76 395.54,-117.05 394.71,-110.1"/>
</g>
<!-- Node15 -->
<g id="node15" class="node">
<title>Node15</title>
<g id="a_node15"><a xlink:href="class_search_a_thing_1_1_open_g_l_1_1_core_1_1_g_l_triangle.html" target="_top" xlink:title=" ">
<polygon fill="white" stroke="#666666" points="522.5,-66 455.5,-66 455.5,-47 522.5,-47 522.5,-66"/>
<text text-anchor="middle" x="489" y="-54" font-family="Helvetica,sans-Serif" font-size="10.00">GLTriangle</text>
</a>
</g>
</g>
<!-- Node12&#45;&gt;Node15 -->
<g id="edge14" class="edge">
<title>Node12&#45;&gt;Node15</title>
<path fill="none" stroke="#63b8ff" d="M374.06,-107.39C378.12,-105.8 382.16,-104.16 386,-102.5 402.42,-95.4 405.76,-92 422,-84.5 435.9,-78.08 451.68,-71.37 464.32,-66.12"/>
<polygon fill="#63b8ff" stroke="#63b8ff" points="372.79,-104.12 364.68,-110.94 375.28,-110.67 372.79,-104.12"/>
</g>
<!-- Node16&#45;&gt;Node13 -->
<g id="edge16" class="edge">
<title>Node16&#45;&gt;Node13</title>
<path fill="none" stroke="#63b8ff" d="M372.82,-155.36C400.9,-153.69 439.19,-151.41 463.76,-149.94"/>
<polygon fill="#63b8ff" stroke="#63b8ff" points="372.39,-151.88 362.62,-155.97 372.81,-158.87 372.39,-151.88"/>
</g>
<!-- Node17&#45;&gt;Node14 -->
<g id="edge18" class="edge">
<title>Node17&#45;&gt;Node14</title>
<path fill="none" stroke="#63b8ff" d="M374.65,-88.24C401.86,-91.66 437.93,-96.2 461.99,-99.23"/>
<polygon fill="#63b8ff" stroke="#63b8ff" points="375.05,-84.76 364.7,-86.98 374.18,-91.71 375.05,-84.76"/>
</g>
<!-- Node18&#45;&gt;Node15 -->
<g id="edge20" class="edge">
<title>Node18&#45;&gt;Node15</title>
<path fill="none" stroke="#63b8ff" d="M381.43,-49.44C405.14,-51.01 433.8,-52.91 455.42,-54.34"/>
<polygon fill="#63b8ff" stroke="#63b8ff" points="381.47,-45.94 371.26,-48.77 381.01,-52.92 381.47,-45.94"/>
</g>
<!-- Node20 -->
<g id="node20" class="node">
<title>Node20</title>
<g id="a_node20"><a xlink:href="class_search_a_thing_1_1_open_g_l_1_1_core_1_1_g_l_vertex.html" target="_top" xlink:title=" ">
<polygon fill="white" stroke="#666666" points="366,-19 306,-19 306,0 366,0 366,-19"/>
<text text-anchor="middle" x="336" y="-7" font-family="Helvetica,sans-Serif" font-size="10.00">GLVertex</text>
</a>
</g>
</g>
<!-- Node19&#45;&gt;Node20 -->
<g id="edge22" class="edge">
<title>Node19&#45;&gt;Node20</title>
<path fill="none" stroke="#63b8ff" d="M253.38,-22.16C270.49,-19.51 289.99,-16.48 305.64,-14.05"/>
<polygon fill="#63b8ff" stroke="#63b8ff" points="252.44,-18.76 243.1,-23.75 253.51,-25.68 252.44,-18.76"/>
</g>
</g>
</svg>
