<?xml version="1.0" encoding="UTF-8" standalone="no"?>
<!DOCTYPE svg PUBLIC "-//W3C//DTD SVG 1.1//EN"
 "http://www.w3.org/Graphics/SVG/1.1/DTD/svg11.dtd">
<!-- Generated by graphviz version 2.43.0 (0)
 -->
<!-- Title: IGLFigure Pages: 1 -->
<svg width="463pt" height="192pt"
 viewBox="0.00 0.00 463.00 192.00" xmlns="http://www.w3.org/2000/svg" xmlns:xlink="http://www.w3.org/1999/xlink">
<g id="graph0" class="graph" transform="scale(1 1) rotate(0) translate(4 188)">
<title>IGLFigure</title>
<!-- Node1 -->
<g id="node1" class="node">
<title>Node1</title>
<g id="a_node1"><a xlink:title="This is the direct child of a vertex manager. &#160;A figure contains primitives and primitive contains ve...">
<polygon fill="#999999" stroke="#666666" points="272,-129 210,-129 210,-110 272,-110 272,-129"/>
<text text-anchor="middle" x="241" y="-117" font-family="Helvetica,sans-Serif" font-size="10.00">IGLFigure</text>
</a>
</g>
</g>
<!-- Node4 -->
<g id="node4" class="node">
<title>Node4</title>
<g id="a_node4"><a xlink:href="class_search_a_thing_1_1_open_g_l_1_1_core_1_1_g_l_figure_base.html" target="_top" xlink:title="Base abstract class for point, line, triangle figures.">
<polygon fill="white" stroke="#666666" points="119.5,-74 36.5,-74 36.5,-55 119.5,-55 119.5,-74"/>
<text text-anchor="middle" x="78" y="-62" font-family="Helvetica,sans-Serif" font-size="10.00">GLFigureBase</text>
</a>
</g>
</g>
<!-- Node1&#45;&gt;Node4 -->
<g id="edge3" class="edge">
<title>Node1&#45;&gt;Node4</title>
<path fill="none" stroke="#63b8ff" d="M205.01,-106.8C174.59,-96.91 131.72,-82.97 104.39,-74.08"/>
<polygon fill="#63b8ff" stroke="#63b8ff" points="204.22,-110.22 214.81,-109.98 206.38,-103.56 204.22,-110.22"/>
</g>
<!-- Node6 -->
<g id="node6" class="node">
<title>Node6</title>
<g id="a_node6"><a xlink:href="interface_search_a_thing_1_1_open_g_l_1_1_core_1_1_i_g_l_line_figure.html" target="_top" xlink:title="Specialization of IGLFigure for the type GLLine.">
<polygon fill="white" stroke="#666666" points="231.5,-74 148.5,-74 148.5,-55 231.5,-55 231.5,-74"/>
<text text-anchor="middle" x="190" y="-62" font-family="Helvetica,sans-Serif" font-size="10.00">IGLLineFigure</text>
</a>
</g>
</g>
<!-- Node1&#45;&gt;Node6 -->
<g id="edge5" class="edge">
<title>Node1&#45;&gt;Node6</title>
<path fill="none" stroke="#63b8ff" d="M225.62,-102.52C216.63,-93.18 205.64,-81.75 198.26,-74.09"/>
<polygon fill="#63b8ff" stroke="#63b8ff" points="223.12,-104.97 232.58,-109.75 228.17,-100.12 223.12,-104.97"/>
</g>
<!-- Node8 -->
<g id="node8" class="node">
<title>Node8</title>
<g id="a_node8"><a xlink:href="interface_search_a_thing_1_1_open_g_l_1_1_core_1_1_i_g_l_point_figure.html" target="_top" xlink:title="Specialization of IGLFigure for the type GLPoint.">
<polygon fill="white" stroke="#666666" points="336.5,-74 249.5,-74 249.5,-55 336.5,-55 336.5,-74"/>
<text text-anchor="middle" x="293" y="-62" font-family="Helvetica,sans-Serif" font-size="10.00">IGLPointFigure</text>
</a>
</g>
</g>
<!-- Node1&#45;&gt;Node8 -->
<g id="edge7" class="edge">
<title>Node1&#45;&gt;Node8</title>
<path fill="none" stroke="#63b8ff" d="M256.68,-102.52C265.84,-93.18 277.05,-81.75 284.57,-74.09"/>
<polygon fill="#63b8ff" stroke="#63b8ff" points="254.09,-100.16 249.59,-109.75 259.09,-105.06 254.09,-100.16"/>
</g>
<!-- Node10 -->
<g id="node10" class="node">
<title>Node10</title>
<g id="a_node10"><a xlink:href="interface_search_a_thing_1_1_open_g_l_1_1_core_1_1_i_g_l_triangle_figure.html" target="_top" xlink:title="Specialization of IGLFigure for the type GLTriangle.">
<polygon fill="white" stroke="#666666" points="455,-74 355,-74 355,-55 455,-55 455,-74"/>
<text text-anchor="middle" x="405" y="-62" font-family="Helvetica,sans-Serif" font-size="10.00">IGLTriangleFigure</text>
</a>
</g>
</g>
<!-- Node1&#45;&gt;Node10 -->
<g id="edge9" class="edge">
<title>Node1&#45;&gt;Node10</title>
<path fill="none" stroke="#63b8ff" d="M277.21,-106.8C307.82,-96.91 350.95,-82.97 378.44,-74.08"/>
<polygon fill="#63b8ff" stroke="#63b8ff" points="275.79,-103.58 267.35,-109.98 277.94,-110.24 275.79,-103.58"/>
</g>
<!-- Node2 -->
<g id="node2" class="node">
<title>Node2</title>
<g id="a_node2"><a xlink:href="interface_search_a_thing_1_1_open_g_l_1_1_core_1_1_i_g_l_vertex_manager_object.html" target="_top" xlink:title="Interface for GL objects such as IGLFigure, IGLPrimitive and IGLVertex. &#160;The purpose is to ensure tha...">
<polygon fill="white" stroke="#666666" points="233.5,-184 96.5,-184 96.5,-165 233.5,-165 233.5,-184"/>
<text text-anchor="middle" x="165" y="-172" font-family="Helvetica,sans-Serif" font-size="10.00">IGLVertexManagerObject</text>
</a>
</g>
</g>
<!-- Node2&#45;&gt;Node1 -->
<g id="edge1" class="edge">
<title>Node2&#45;&gt;Node1</title>
<path fill="none" stroke="#63b8ff" d="M185.58,-159.15C199.31,-149.57 216.93,-137.29 228.57,-129.17"/>
<polygon fill="#63b8ff" stroke="#63b8ff" points="183.41,-156.39 177.21,-164.98 187.42,-162.14 183.41,-156.39"/>
</g>
<!-- Node3 -->
<g id="node3" class="node">
<title>Node3</title>
<g id="a_node3"><a xlink:title=" ">
<polygon fill="white" stroke="#666666" points="384.5,-184 251.5,-184 251.5,-165 384.5,-165 384.5,-184"/>
<text text-anchor="middle" x="318" y="-172" font-family="Helvetica,sans-Serif" font-size="10.00">INotifyPropertyChanged</text>
</a>
</g>
</g>
<!-- Node3&#45;&gt;Node1 -->
<g id="edge2" class="edge">
<title>Node3&#45;&gt;Node1</title>
<path fill="none" stroke="#63b8ff" d="M297.15,-159.15C283.24,-149.57 265.39,-137.29 253.6,-129.17"/>
<polygon fill="#63b8ff" stroke="#63b8ff" points="295.41,-162.2 305.63,-164.98 299.38,-156.43 295.41,-162.2"/>
</g>
<!-- Node5 -->
<g id="node5" class="node">
<title>Node5</title>
<g id="a_node5"><a xlink:href="class_search_a_thing_1_1_open_g_l_1_1_core_1_1_g_l_figure_type_base.html" target="_top" xlink:title="Template typed GLPrimitiveBase figure base operations such as Add and Remove primitives from the figu...">
<polygon fill="white" stroke="#666666" points="134,-19 0,-19 0,0 134,0 134,-19"/>
<text text-anchor="middle" x="67" y="-7" font-family="Helvetica,sans-Serif" font-size="10.00">GLFigureTypeBase&lt; P &gt;</text>
</a>
</g>
</g>
<!-- Node4&#45;&gt;Node5 -->
<g id="edge4" class="edge">
<title>Node4&#45;&gt;Node5</title>
<path fill="none" stroke="#63b8ff" d="M74.15,-44.95C72.32,-36.15 70.23,-26.06 68.78,-19.09"/>
<polygon fill="#63b8ff" stroke="#63b8ff" points="70.72,-45.67 76.18,-54.75 77.58,-44.25 70.72,-45.67"/>
</g>
<!-- Node7 -->
<g id="node7" class="node">
<title>Node7</title>
<g id="a_node7"><a xlink:href="class_search_a_thing_1_1_open_g_l_1_1_core_1_1_g_l_line_figure.html" target="_top" xlink:title="Specialization of typed figure within the GLLine primitive.">
<polygon fill="white" stroke="#666666" points="232,-19 152,-19 152,0 232,0 232,-19"/>
<text text-anchor="middle" x="192" y="-7" font-family="Helvetica,sans-Serif" font-size="10.00">GLLineFigure</text>
</a>
</g>
</g>
<!-- Node6&#45;&gt;Node7 -->
<g id="edge6" class="edge">
<title>Node6&#45;&gt;Node7</title>
<path fill="none" stroke="#63b8ff" d="M190.71,-44.66C191.04,-35.93 191.42,-25.99 191.68,-19.09"/>
<polygon fill="#63b8ff" stroke="#63b8ff" points="187.21,-44.62 190.33,-54.75 194.2,-44.89 187.21,-44.62"/>
</g>
<!-- Node9 -->
<g id="node9" class="node">
<title>Node9</title>
<g id="a_node9"><a xlink:href="class_search_a_thing_1_1_open_g_l_1_1_core_1_1_g_l_point_figure.html" target="_top" xlink:title="Specialization of typed figure within the GLPoint} primitive.">
<polygon fill="white" stroke="#666666" points="335,-19 251,-19 251,0 335,0 335,-19"/>
<text text-anchor="middle" x="293" y="-7" font-family="Helvetica,sans-Serif" font-size="10.00">GLPointFigure</text>
</a>
</g>
</g>
<!-- Node8&#45;&gt;Node9 -->
<g id="edge8" class="edge">
<title>Node8&#45;&gt;Node9</title>
<path fill="none" stroke="#63b8ff" d="M293,-44.66C293,-35.93 293,-25.99 293,-19.09"/>
<polygon fill="#63b8ff" stroke="#63b8ff" points="289.5,-44.75 293,-54.75 296.5,-44.75 289.5,-44.75"/>
</g>
<!-- Node11 -->
<g id="node11" class="node">
<title>Node11</title>
<g id="a_node11"><a xlink:href="class_search_a_thing_1_1_open_g_l_1_1_core_1_1_g_l_triangle_figure.html" target="_top" xlink:title="Specialization of typed figure within the GLTriangle primitive.">
<polygon fill="white" stroke="#666666" points="453.5,-19 356.5,-19 356.5,0 453.5,0 453.5,-19"/>
<text text-anchor="middle" x="405" y="-7" font-family="Helvetica,sans-Serif" font-size="10.00">GLTriangleFigure</text>
</a>
</g>
</g>
<!-- Node10&#45;&gt;Node11 -->
<g id="edge10" class="edge">
<title>Node10&#45;&gt;Node11</title>
<path fill="none" stroke="#63b8ff" d="M405,-44.66C405,-35.93 405,-25.99 405,-19.09"/>
<polygon fill="#63b8ff" stroke="#63b8ff" points="401.5,-44.75 405,-54.75 408.5,-44.75 401.5,-44.75"/>
</g>
</g>
</svg>
