<?xml version="1.0" encoding="UTF-8" standalone="no"?>
<!DOCTYPE svg PUBLIC "-//W3C//DTD SVG 1.1//EN"
 "http://www.w3.org/Graphics/SVG/1.1/DTD/svg11.dtd">
<!-- Generated by graphviz version 2.43.0 (0)
 -->
<!-- Title: IGLTriangle Pages: 1 -->
<svg width="296pt" height="192pt"
 viewBox="0.00 0.00 296.00 192.00" xmlns="http://www.w3.org/2000/svg" xmlns:xlink="http://www.w3.org/1999/xlink">
<g id="graph0" class="graph" transform="scale(1 1) rotate(0) translate(4 188)">
<title>IGLTriangle</title>
<!-- Node1 -->
<g id="node1" class="node">
<title>Node1</title>
<g id="a_node1"><a xlink:title="Primitive for GL_TRIANGLES opengl element.">
<polygon fill="#999999" stroke="#666666" points="179.5,-74 109.5,-74 109.5,-55 179.5,-55 179.5,-74"/>
<text text-anchor="middle" x="144.5" y="-62" font-family="Helvetica,sans-Serif" font-size="10.00">IGLTriangle</text>
</a>
</g>
</g>
<!-- Node5 -->
<g id="node5" class="node">
<title>Node5</title>
<g id="a_node5"><a xlink:href="class_search_a_thing_1_1_open_g_l_1_1_core_1_1_g_l_triangle.html" target="_top" xlink:title=" ">
<polygon fill="white" stroke="#666666" points="178,-19 111,-19 111,0 178,0 178,-19"/>
<text text-anchor="middle" x="144.5" y="-7" font-family="Helvetica,sans-Serif" font-size="10.00">GLTriangle</text>
</a>
</g>
</g>
<!-- Node1&#45;&gt;Node5 -->
<g id="edge4" class="edge">
<title>Node1&#45;&gt;Node5</title>
<path fill="none" stroke="#63b8ff" d="M144.5,-44.66C144.5,-35.93 144.5,-25.99 144.5,-19.09"/>
<polygon fill="#63b8ff" stroke="#63b8ff" points="141,-44.75 144.5,-54.75 148,-44.75 141,-44.75"/>
</g>
<!-- Node2 -->
<g id="node2" class="node">
<title>Node2</title>
<g id="a_node2"><a xlink:href="interface_search_a_thing_1_1_open_g_l_1_1_core_1_1_i_g_l_primitive.html" target="_top" xlink:title="A primitive such a GLPoint, GLLine or GLTriangle can be added to a figure through its add method....">
<polygon fill="white" stroke="#666666" points="183,-129 106,-129 106,-110 183,-110 183,-129"/>
<text text-anchor="middle" x="144.5" y="-117" font-family="Helvetica,sans-Serif" font-size="10.00">IGLPrimitive</text>
</a>
</g>
</g>
<!-- Node2&#45;&gt;Node1 -->
<g id="edge1" class="edge">
<title>Node2&#45;&gt;Node1</title>
<path fill="none" stroke="#63b8ff" d="M144.5,-99.66C144.5,-90.93 144.5,-80.99 144.5,-74.09"/>
<polygon fill="#63b8ff" stroke="#63b8ff" points="141,-99.75 144.5,-109.75 148,-99.75 141,-99.75"/>
</g>
<!-- Node3 -->
<g id="node3" class="node">
<title>Node3</title>
<g id="a_node3"><a xlink:href="interface_search_a_thing_1_1_open_g_l_1_1_core_1_1_i_g_l_vertex_manager_object.html" target="_top" xlink:title="Interface for GL objects such as IGLFigure, IGLPrimitive and IGLVertex. &#160;The purpose is to ensure tha...">
<polygon fill="white" stroke="#666666" points="137,-184 0,-184 0,-165 137,-165 137,-184"/>
<text text-anchor="middle" x="68.5" y="-172" font-family="Helvetica,sans-Serif" font-size="10.00">IGLVertexManagerObject</text>
</a>
</g>
</g>
<!-- Node3&#45;&gt;Node2 -->
<g id="edge2" class="edge">
<title>Node3&#45;&gt;Node2</title>
<path fill="none" stroke="#63b8ff" d="M89.08,-159.15C102.81,-149.57 120.43,-137.29 132.07,-129.17"/>
<polygon fill="#63b8ff" stroke="#63b8ff" points="86.91,-156.39 80.71,-164.98 90.92,-162.14 86.91,-156.39"/>
</g>
<!-- Node4 -->
<g id="node4" class="node">
<title>Node4</title>
<g id="a_node4"><a xlink:title=" ">
<polygon fill="white" stroke="#666666" points="288,-184 155,-184 155,-165 288,-165 288,-184"/>
<text text-anchor="middle" x="221.5" y="-172" font-family="Helvetica,sans-Serif" font-size="10.00">INotifyPropertyChanged</text>
</a>
</g>
</g>
<!-- Node4&#45;&gt;Node2 -->
<g id="edge3" class="edge">
<title>Node4&#45;&gt;Node2</title>
<path fill="none" stroke="#63b8ff" d="M200.65,-159.15C186.74,-149.57 168.89,-137.29 157.1,-129.17"/>
<polygon fill="#63b8ff" stroke="#63b8ff" points="198.91,-162.2 209.13,-164.98 202.88,-156.43 198.91,-162.2"/>
</g>
</g>
</svg>
